<?xml version="1.0" encoding="UTF-8" standalone="no"?>
<svg width="22px" height="22px" viewBox="0 0 22 22" version="1.1" xmlns="http://www.w3.org/2000/svg" xmlns:xlink="http://www.w3.org/1999/xlink" xmlns:sketch="http://www.bohemiancoding.com/sketch/ns">
    <!-- Generator: Sketch 3.3.3 (12072) - http://www.bohemiancoding.com/sketch -->
    <title>social-icon-linkedin-active</title>
    <desc>Created with Sketch.</desc>
    <defs></defs>
    <g id="Page-1" stroke="none" stroke-width="1" fill="none" fill-rule="evenodd" sketch:type="MSPage">
        <path d="M0.5,20.5 L21.5,20.5" id="Line-Copy-4" stroke="#007FB6" stroke-linecap="square" sketch:type="MSShapeGroup"></path>
        <g id="Rectangle-5-+-Rectangle-5-Copy-+-Oval-1-Copy" sketch:type="MSLayerGroup" transform="translate(2.000000, 1.000000)" fill="#007FB6">
            <rect id="Rectangle-5" sketch:type="MSShapeGroup" x="0" y="6" width="4" height="12"></rect>
            <path d="M10,7.42329169 L10,6 L6,6 L6,18 L10,18 L10,10.4842502 C10.0523153,9.60511635 10.3483327,8.78772319 12.0232981,8.78772319 C13.4957409,8.78772319 13.8929596,9.44909922 14,10.2194268 L14,18 L18,18 L18,11.0675041 C18.0168194,11.0075288 18.0256444,10.9440385 18.0256444,10.8769531 C18.0256444,10.6892137 18.0198251,10.4602451 18,10.204082 L18,10 L17.9816541,10 C17.8066502,8.29381282 16.9844014,5.64179571 13.4328962,5.61328125 C11.3190512,5.60623798 10.331178,6.92950072 10,7.42329169 Z" id="Rectangle-5-Copy" sketch:type="MSShapeGroup"></path>
            <circle id="Oval-1" sketch:type="MSShapeGroup" cx="2" cy="2" r="2"></circle>
        </g>
    </g>
</svg>