<svg width="262" height="254" viewBox="0 0 262 254" fill="none" xmlns="http://www.w3.org/2000/svg">
<g clip-path="url(#clip0_1_597)">
<rect x="13.0021" width="248.634" height="239.961" rx="119.98" transform="rotate(3.10605 13.0021 0)" fill="#F5F5F5"/>
<path d="M-155.316 385.789C-161.643 384.175 -141.801 385.43 -140.534 385.654C-129.758 387.558 -118.983 389.464 -108.208 391.368C-54.8939 400.791 -0.763579 408.336 52.1152 419.736C52.8456 419.894 53.425 420.432 53.5178 421.196C53.9762 424.972 39.7669 420.942 38.2442 420.668C27.4951 418.737 16.7467 416.803 5.99826 414.868C-47.3179 405.273 -102.82 399.182 -155.316 385.789ZM53.5273 421.302C53.541 422.725 51.9011 423.657 50.7546 422.684C48.9678 421.166 48.1838 394.928 47.9497 391.775C45.2986 356.076 39.4119 319.04 40.0178 283.243C40.0362 282.156 41.017 281.293 42.1128 281.599C44.0078 282.127 45.3067 309.451 45.5834 313.155C48.257 348.959 53.1818 385.398 53.5273 421.302ZM41.8672 281.55C42.8069 281.716 43.4933 282.561 43.2849 283.536C42.6274 286.611 29.6882 282.872 27.8108 282.559C16.8118 280.728 5.81494 278.884 -5.182 277.04C-61.5964 267.582 -119.034 260.572 -174.983 248.7C-176.253 248.43 -162.597 248.984 -159.427 249.497C-148.446 251.272 -137.464 253.035 -126.48 254.792C-70.4454 263.756 -13.8788 271.697 41.8672 281.55ZM-175.69 247.98C-175.765 247.216 -174.869 246.681 -174.27 247.227C-172.448 248.89 -170.111 274.256 -169.621 277.569C-164.366 313.082 -158.116 348.622 -153.691 384.223C-153.526 385.555 -155.19 386.437 -156.103 385.344C-160.353 380.252 -159.528 362.447 -160.412 356.136C-165.448 320.178 -172.136 284.106 -175.69 247.98Z" fill="black"/>
<path d="M36.0973 287.173C37.2441 325.265 45.0852 378.182 46.6791 417.905L-152.26 382.471L-170.881 251.838C-95.5955 266.1 8.91849 284.627 36.0973 287.173Z" fill="#E9E9E9"/>
<path d="M83.1047 64.3389L190.002 74.727L183.97 127.003L156.827 177.267L159.172 195.028L140.742 204.411L138.396 216.139L127.673 216.139L114.939 202.4L114.939 188.661L107.232 180.283L94.4981 152.47L83.1047 64.3389Z" fill="white"/>
<path d="M103.403 167.793C93.6388 159.865 89.8789 133.001 88.17 79.1661" stroke="black" stroke-width="2.85652"/>
<path d="M89.2114 90.4065C88.8761 95.8084 91.0128 116.988 91.6478 126.359C89.226 125.9 76.4486 109.299 75.25 98.613C74.3769 90.829 79.6158 88.0966 79.3527 82.2311C79.3527 82.2311 86.6552 78.0924 89.2114 90.4065Z" fill="black" stroke="black" stroke-width="1.75907"/>
<path d="M131.707 111.223C130.028 108.177 133.134 103.103 135.942 105.308C137.497 104.453 139.418 109.012 139.194 111.653C139.053 113.318 137.11 114.054 135.32 113.979C133.49 113.902 132.541 112.735 131.707 111.223Z" fill="black"/>
<path d="M103.161 112.924C101.598 109.627 104.367 104.202 106.947 106.607C108.352 105.704 110.152 110.632 109.978 113.472C109.868 115.262 108.109 116.032 106.48 115.931C104.814 115.827 103.937 114.561 103.161 112.924Z" fill="black"/>
<path d="M149.903 100.731C150.812 101.928 152.764 100.839 152.08 99.4533C150.52 96.2921 146.549 94.0039 143.393 92.8731C138.508 91.1223 132.816 91.4402 127.947 93.1218C126.789 93.5217 126.846 95.2635 128.107 95.4656C135.675 96.679 142.787 93.0179 149.115 99.7644C149.402 100.07 149.651 100.398 149.903 100.731Z" fill="black"/>
<path d="M93.8015 103.775C93.0949 105.242 92.5784 103.148 93.008 102.21C94.3995 99.1743 96.7874 96.7994 99.3941 95.325C103.081 93.2397 107.574 92.9199 111.606 93.8598C112.434 94.0527 112.62 95.4422 111.81 95.808C107.608 97.7049 102.77 95.5674 98.3171 98.6091C96.4705 99.8703 94.8627 101.57 93.8015 103.775Z" fill="black"/>
<path d="M138.852 156.577C135.715 158.167 128.403 160.118 126.113 160.089C123.363 160.055 115.609 159.172 113.456 157.161C110.354 158.58 115.355 161.373 116.705 162.172C123.416 166.146 142.074 161.963 138.852 156.577Z" fill="black"/>
<path d="M123 110.299C121.556 105.103 111.138 128.526 110.502 131.027C109.995 133.024 109.211 138.181 110.618 139.825C111.337 140.664 112.666 140.7 113.318 139.744C114.058 138.659 113.489 135.987 113.611 134.584C114.122 128.705 117.657 122.734 119.979 117.415C120.53 116.152 123.413 111.782 123 110.299ZM112.344 137.183C112.382 137.188 109.978 138.773 110.503 139.656C111.057 140.587 112.902 140.364 112.156 140.458C110.819 140.626 114.83 140.112 116.166 139.932C119.162 139.531 124.139 139.809 126.881 138.463C127.152 138.33 127.368 138.132 127.484 137.848C128.492 135.385 111.922 137.124 112.344 137.183Z" fill="black"/>
<path d="M124.978 149.32C128.682 151.928 142.784 150.913 146.464 153.97C150.232 157.1 151.862 147.498 151.862 147.498C151.862 147.498 146.805 146.256 142.404 145.249C136.54 143.906 130.587 140.874 128.495 140.676C124.833 140.328 121.891 141.123 121.891 141.123C121.891 141.123 104.59 147.202 99.8919 147.959C93.7613 148.946 102.462 152.608 102.462 152.608C102.462 152.608 116.427 152.644 119.604 149.981C120.997 148.813 122.617 148.491 123.997 148.499C124.128 148.672 124.434 148.936 124.978 149.32Z" fill="black"/>
<path d="M130.651 73.4241C138.159 73.3147 150.635 81.0169 158.347 75.4839C158.347 75.4839 161.348 95.6799 165.435 95.403C170.52 110.265 165.271 130.129 165.271 130.129C165.271 130.129 163.587 135.744 161.884 138.232C159.831 141.229 159.269 143.25 156.002 146.504C152.736 149.758 151.094 148.011 148.974 148.412C146.854 148.812 144.428 154.088 144.428 154.088C143.881 162.452 144.886 177.072 130.935 178.017L128.83 175.369C127.75 172.999 126.524 169.972 124.836 170.343C120.912 171.205 119.388 178.14 116.878 176.89C105.763 177.027 106.987 152.007 106.987 152.007L94.2989 149.612L102.639 177.239C102.639 177.239 110.537 190.026 130.192 188.694C146.856 187.565 158.349 181.214 166.139 167.544C174.601 157.535 173.522 156.053 175.927 147.336C178.333 138.618 185.025 132.369 185.025 132.369C185.025 132.369 193.303 121.784 192.051 118.651C189.479 118.333 183.354 111.786 183.924 116.128C184.495 120.47 180.311 125.675 178.79 131.977C175.108 135.127 172.092 135.122 172.088 134.888L172.056 134.783C170.253 128.821 167.11 118.43 173.563 112.449C180.055 106.434 181.569 112.244 181.569 112.244C181.569 112.244 187.976 115.116 191.93 116.87C192.353 116.466 189.414 108.24 189.566 106.768C190.128 101.329 198.286 105.457 197.339 91.4846C196.361 77.0606 193.692 79.9216 193.692 79.9216C193.692 79.9216 194.199 74.3751 191.666 65.8701C189.797 59.593 177.897 58.0542 177.897 58.0542C177.897 58.0542 175.33 51.2633 170.835 48.5121C161.886 43.0345 159.871 47.8387 156.343 45.9154C156.343 45.9154 155.705 36.7852 142.315 31.612C130.293 28.49 123.651 36.0978 123.651 36.0978C123.651 36.0978 86.0982 24.5516 74.3528 46.0726C70.7538 56.3371 76.6064 62.2497 76.6064 62.2497C76.6064 62.2497 57.1263 77.2756 82.2684 87.7456C95.5145 86.848 98.4916 74.1719 98.4916 74.1719C108.528 73.4917 123.683 73.5256 130.651 73.4241Z" fill="black"/>
<path d="M193.692 79.9216C193.692 79.9216 196.361 77.0606 197.339 91.4847C198.286 105.457 190.128 101.329 189.566 106.768C189.414 108.24 192.353 116.466 191.93 116.87C187.976 115.116 181.569 112.244 181.569 112.244C181.569 112.244 180.055 106.434 173.563 112.449C167.072 118.465 170.29 128.944 172.088 134.888C172.092 135.122 175.108 135.127 178.79 131.977M193.692 79.9216C193.692 79.9216 194.199 74.3751 191.666 65.8701M193.692 79.9216L191.666 65.8701M124.836 170.343C127.675 169.719 129.209 178.707 130.935 178.017M124.836 170.343L130.935 178.017M124.836 170.343C120.912 171.205 119.388 178.14 116.878 176.89C105.763 177.027 106.987 152.007 106.987 152.007L94.2989 149.612L102.639 177.239C102.639 177.239 110.537 190.026 130.192 188.694C146.856 187.565 158.349 181.214 166.139 167.544C174.601 157.535 173.522 156.053 175.927 147.336C178.333 138.618 185.025 132.369 185.025 132.369C185.025 132.369 193.303 121.784 192.051 118.651M192.051 118.651L178.79 131.977M192.051 118.651C189.479 118.333 183.354 111.786 183.924 116.128C184.495 120.47 180.311 125.675 178.79 131.977M130.935 178.017C144.886 177.072 143.881 162.452 144.428 154.088C144.428 154.088 146.854 148.812 148.974 148.412C151.094 148.011 152.736 149.758 156.002 146.504C159.269 143.25 159.831 141.229 161.884 138.232C163.587 135.744 165.271 130.129 165.271 130.129C165.271 130.129 170.52 110.265 165.435 95.403C161.348 95.6799 158.347 75.4839 158.347 75.4839C150.635 81.0169 138.159 73.3147 130.651 73.4241C123.683 73.5256 108.528 73.4917 98.4916 74.1719C98.4916 74.1719 95.5145 86.848 82.2685 87.7456C57.1263 77.2756 76.6064 62.2497 76.6064 62.2497C76.6064 62.2497 70.7538 56.3371 74.3528 46.0726C86.0982 24.5516 123.651 36.0978 123.651 36.0978C123.651 36.0978 130.293 28.49 142.315 31.612C155.705 36.7852 156.343 45.9154 156.343 45.9154C159.871 47.8387 161.886 43.0345 170.835 48.5121C175.33 51.2633 177.897 58.0542 177.897 58.0542C177.897 58.0542 189.797 59.593 191.666 65.8701" stroke="black" stroke-width="1.75907"/>
<path d="M162.295 204.296C162.687 205.619 164.319 205.407 164.372 204.006C164.548 199.351 163.975 194.435 163.793 189.76C163.781 189.453 163.826 189.027 163.74 189.75C163.739 189.759 161.536 187.906 161.267 188.854C161.176 189.175 161.369 190.208 161.291 189.877C161.259 189.74 161.199 189.322 161.208 189.463C161.492 193.912 161.029 200.031 162.295 204.296ZM163.771 189.536C163.819 188.362 162.78 187.439 161.857 188.027C160.556 188.855 159.509 192.119 158.323 193.421C154.866 197.215 144.605 203.329 140.252 201.73C138.265 201 137.432 204.297 139.187 205.157C145.652 208.326 163.417 198.217 163.771 189.536ZM141.274 203.862C141.497 201.99 139.422 200.728 138.446 202.387C136.886 205.034 138.561 213.613 138.985 216.847C139.088 217.629 139.757 218.17 140.41 217.929C142.058 217.32 141.036 205.866 141.274 203.862Z" fill="black"/>
<path d="M161.683 159.935C158.548 172.223 159.507 194.023 159.507 194.023" stroke="black" stroke-width="2.0106" stroke-linejoin="round"/>
<path d="M115.63 176.75C113.557 184.879 114.316 196.083 114.316 196.083" stroke="black" stroke-width="1.8896"/>
<path d="M125.036 216.336C127.038 219.152 126.965 204.588 126.92 203.289C126.904 202.819 126.778 202.392 126.449 202.042C121.999 197.306 124.01 214.893 125.036 216.336ZM125.202 204.975C126.763 204.889 127.554 202.915 126.275 201.88C122.466 198.801 115.668 201.218 114.329 194.22C114.063 192.834 110.171 195.455 114.372 200.092C116.916 202.9 121.321 205.188 125.202 204.975Z" fill="black"/>
<path d="M125.582 211.866C128.456 213.381 135.721 211.892 138.994 210.957C138.994 210.957 143.043 213.889 139.619 220.176C136.195 226.463 135.19 228.668 130.569 234.324C125.969 228.937 122.708 210.352 125.582 211.866Z" fill="black"/>
<path d="M189.649 218.473C189.259 218.291 162.113 205.765 161.869 205.404C155.153 195.46 194.074 215.503 196.708 216.713C197.239 216.957 201.558 221.211 201.79 221.759C205.553 230.647 193.638 220.33 189.649 218.473ZM196.387 219.554C191.364 211.116 203.394 222.696 205.177 225.844C210.164 234.647 214.796 243.786 218.124 253.357C227.03 278.971 224.764 314.515 216.999 339.947C216.813 340.555 216.408 341.074 215.848 341.381C209.546 344.835 217.854 309.843 218.111 304.182C219.577 271.835 212.877 247.253 196.387 219.554ZM211.043 337.5C211.257 336.985 215.007 334.793 215.491 334.5C221.692 330.748 212.502 353.271 211.922 354.763C211.713 355.3 211.397 355.753 210.901 356.063C205.037 359.726 209.96 340.108 211.043 337.5ZM207.419 352.945C210.072 347.914 215.391 362.231 198.142 366.384C187.322 368.989 171.943 364.072 161.223 361.802C158.632 361.253 158.635 357.387 161.341 357.042C176.181 355.15 197.728 371.321 207.419 352.945ZM163.53 360.931C160.617 364.305 158.572 359.203 160.884 356.641C162.007 355.396 163.013 354.105 163.653 352.539C163.785 352.217 163.902 351.89 164.007 351.559C164.192 350.977 164.338 350.383 164.455 349.784C164.539 349.356 164.608 348.924 164.665 348.49C164.723 348.048 164.768 347.604 164.802 347.159C164.83 346.8 164.853 346.447 164.816 346.087C164.787 345.806 164.732 345.527 164.662 345.253C163.444 340.504 159.169 336.734 155.819 333.424C152.078 329.727 164.773 330.985 168.909 343.417C171.055 349.867 167.605 356.211 163.53 360.931ZM157.156 333.981C154.88 333.733 154.361 330.446 156.72 329.834C159.954 328.996 170.006 331.003 173.746 332.439C175.42 333.082 175.311 335.628 173.433 335.886C168.57 336.552 161.48 334.452 157.156 333.981ZM172.827 335.864C172.487 335.784 172.179 335.627 171.932 335.378C167.883 331.301 184.703 335.973 186.528 336.919C191.006 339.242 195.24 342.978 195.629 348.323C195.752 350.025 190.985 342.513 189.683 341.575C184.719 337.998 178.613 337.234 172.827 335.864Z" fill="black"/>
<path d="M130.61 224.449C130.784 224.688 133.348 222.419 133.292 223.38C133.186 225.215 131.893 251.86 131.258 252.316C127.576 254.956 130.596 224.429 130.61 224.449Z" fill="black"/>
<path d="M111.327 199.337C116.258 199.565 105.185 205.524 103.408 205.704C100.105 206.039 95.5802 207.594 92.2767 207.929C84.7268 208.694 76.1745 209.988 69.1114 210.881C67.0956 211.136 66.2837 210.058 68.2995 209.442C77.3125 206.687 86.9596 203.741 96.8859 202.824C100.558 202.484 107.632 199.166 111.327 199.337ZM67.9778 209.578C73.897 204.196 61.3846 221.951 60.6625 222.946C45.5188 243.818 43.2263 264.327 27.4517 284.728C26.9681 285.354 26.2185 285.704 25.4231 285.593C20.8186 284.952 35.3292 267.051 37.2535 264.555C49.0004 249.319 59.2711 217.496 67.9778 209.578Z" fill="black"/>
<path d="M127.084 258.865L128.798 250.959L131.758 251.691L130.043 259.597L127.084 258.865Z" stroke="black" stroke-width="2.13937"/>
<path d="M69.9299 211.181C51.6519 232.15 39.8768 293.079 39.8768 293.079L42.2897 288.678L45.1422 315.079L53.6043 297.327L56.9287 275.546C57.213 273.598 58.2088 269.724 59.9178 269.817C61.6268 269.909 59.1063 284.77 57.6325 292.189L49.3235 336.731C56.0689 337.454 69.9754 339.137 71.638 340.085C73.3007 341.032 87.1105 344.495 93.8076 346.108L99.0903 347.466C98.5852 346.903 97.4972 345.237 97.1859 343.078C96.8745 340.918 100.454 338.792 102.282 337.998L121.856 332.633C133.924 327.396 146.207 328.062 156.831 329.71C159.036 328.544 166.256 330.4 169.59 331.473L169.491 323.434L172.745 293.079L174.856 273.911L176.326 286.31L174.368 332.268C174.685 333 176.922 334.549 183.331 334.897C189.739 335.245 193.544 340.808 194.645 343.546L195.958 348.973C195.481 347.876 191.602 344.345 186.187 341.48C180.772 338.615 170.498 337.772 166.038 337.708C166.543 338.271 167.928 340.382 169.429 344.32C170.929 348.258 167.969 354.775 166.597 357.021L174.045 357.961C193.602 362.772 196.301 362.383 203.505 357.953C212.513 349.872 214.178 329.072 216.244 320.614C218.309 312.156 217.692 297.875 217.407 279.434C217.125 261.204 203.102 237.064 196.471 225.65L196.243 225.258C196.243 225.258 175.527 213.722 161.389 206.226C161.389 206.226 161.058 202.459 160.813 197.09C155.514 205.908 142.047 207.319 142.047 207.319L142.117 215.893L133.771 231.509L131.817 257.649L132.856 258.241L131.266 267.796L125.955 266.972L128.107 256.912L129.176 256.97L129.412 232.88L123.425 214.879L122.85 205.742C120.742 205.092 115.936 204.831 113.079 198.249C112.429 200.356 112.277 203.17 112.342 201.958C112.342 201.958 109.177 208.49 69.9299 211.181Z" fill="#EA5C1F"/>
<rect x="259.598" y="205.566" width="73.8084" height="73.8084" rx="2.95234" transform="rotate(3.10605 259.598 205.566)" fill="#B3B3B3"/>
</g>
<defs>
<clipPath id="clip0_1_597">
<rect x="13.0021" width="248.634" height="239.961" rx="119.98" transform="rotate(3.10605 13.0021 0)" fill="white"/>
</clipPath>
</defs>
</svg>
