<svg width="610" height="450" viewBox="0 0 610 450" fill="none" xmlns="http://www.w3.org/2000/svg">
<rect width="620" height="439.515" fill="white"/>
<path d="M120.348 364.27C115.345 363.279 130.875 363.418 131.873 363.539C140.358 364.568 148.843 365.598 157.329 366.627C199.312 371.721 241.853 375.315 283.581 381.969C284.157 382.061 284.632 382.456 284.736 383.048C285.254 385.974 274 383.432 272.801 383.283C264.335 382.232 255.869 381.178 247.403 380.124C205.411 374.896 161.861 372.494 120.348 364.27ZM284.748 383.131C284.819 384.24 283.58 385.036 282.644 384.325C281.186 383.218 279.464 362.785 279.148 360.336C275.569 332.603 269.41 303.964 268.367 276.017C268.336 275.168 269.064 274.454 269.932 274.645C271.432 274.977 273.602 296.235 273.975 299.113C277.575 326.926 282.959 355.14 284.748 383.131ZM269.738 274.618C270.478 274.708 271.049 275.338 270.928 276.107C270.546 278.533 260.295 276.164 258.817 276C250.16 275.037 241.505 274.064 232.849 273.092C188.446 268.102 143.348 265.065 99.2058 258.173C98.2039 258.017 108.879 257.871 111.373 258.136C120.013 259.056 128.654 259.967 137.295 260.872C181.382 265.493 225.84 269.292 269.738 274.618ZM98.6235 257.641C98.5326 257.049 99.2091 256.594 99.699 256.994C101.191 258.214 104.087 277.901 104.61 280.464C110.212 307.942 116.591 335.398 121.549 362.98C121.735 364.012 120.474 364.77 119.716 363.956C116.185 360.165 116.075 346.241 115.118 341.356C109.668 313.523 102.925 285.67 98.6235 257.641Z" fill="black"/>
<path d="M265.475 279.248C267.982 308.911 276.338 349.854 279.262 380.771L122.591 361.553L102.537 260.447C161.863 268.385 244.168 278.412 265.475 279.248Z" fill="#E9E9E9"/>
<path d="M331.486 349.437L280.098 341.081L284.693 380.353L331.486 349.437Z" fill="#E9E9E9"/>
<path d="M336.499 349.019L283.857 384.113V387.038L336.499 351.526V349.019Z" fill="black"/>
<path d="M283.857 384.113L283.162 383.07L282.604 383.442V384.113H283.857ZM336.499 349.019H337.752V346.677L335.804 347.976L336.499 349.019ZM336.499 351.526L337.2 352.565L337.752 352.192V351.526H336.499ZM283.857 387.038H282.604L284.558 388.077L283.857 387.038ZM284.553 385.156L337.194 350.062L335.804 347.976L283.162 383.07L284.553 385.156ZM335.246 349.019V351.526H337.752V349.019H335.246ZM335.798 350.486L283.156 385.999L284.558 388.077L337.2 352.565L335.798 350.486ZM285.111 387.038V384.113H282.604V387.038H285.111Z" fill="black"/>
<path d="M401.976 325.823C400.077 325.407 409.342 325.181 411.158 325.406C417.926 326.244 424.695 327.082 431.463 327.92C465.935 332.184 500.805 335.419 535.067 340.766C536.988 341.065 535.891 343.204 534.319 343.002C524.95 341.793 515.581 340.585 506.213 339.371C471.914 334.927 435.773 333.219 401.976 325.823ZM534.128 341.103C534.909 340.387 536.245 340.956 536.096 342.069C535.675 345.227 518.836 360.741 516.218 363.522C493.221 387.954 471.159 414.064 446.811 437.151C444.146 439.679 448.686 431.724 449.903 430.432C451.049 429.215 452.195 427.998 453.341 426.78C454.364 425.695 455.386 424.609 456.408 423.523C459.169 420.591 461.929 417.66 464.69 414.729C487.614 390.387 509.461 363.68 534.128 341.103ZM446.105 435.168C452.429 436.261 436.796 436.316 436.054 436.218C428.349 435.203 420.645 434.186 412.94 433.17C390.468 430.204 367.997 427.236 345.526 424.265C268.869 414.131 192.216 403.963 115.564 393.79C77.5099 388.74 38.152 386.087 0.494295 378.516C-0.803133 378.255 9.14673 378.274 11.2959 378.554C18.9596 379.551 26.6237 380.545 34.2876 381.541C56.8941 384.477 79.5005 387.414 102.107 390.352C178.801 400.32 255.495 410.288 332.184 420.288C370.068 425.228 408.465 428.665 446.105 435.168ZM0.941576 378.429C-0.267825 379.07 -0.0513062 377.438 0.815649 376.939C7.93571 372.844 15.0548 368.746 22.1743 364.649C48.9457 349.245 75.3488 332.217 102.888 318.195C104.484 317.382 101.786 320.052 101.255 320.359C94.5105 324.261 87.7664 328.165 81.0222 332.068C54.3825 347.487 28.1415 364.027 0.941576 378.429ZM312.992 317.449C313.596 318.076 304.107 317.541 303.025 317.446C296.185 316.847 289.514 315.743 282.8 314.318C280.889 313.913 276.06 313.815 274.551 312.517C273.569 311.672 283.368 312.284 284.454 312.386C291.277 313.026 297.936 314.081 304.63 315.546C306.362 315.925 311.722 316.134 312.992 317.449ZM274.9 311.501C275.214 311.501 275.468 311.755 275.468 312.069C275.468 312.383 275.214 312.637 274.9 312.637C274.586 312.637 274.332 312.383 274.332 312.069C274.332 311.755 274.586 311.501 274.9 311.501Z" fill="black"/>
<path d="M312.921 183.283C304.969 177.513 300.9 156.718 297.288 114.799" stroke="black" stroke-width="2.23136"/>
<path d="M298.576 123.523C298.543 127.751 301.106 144.18 301.998 151.462C300.09 151.207 289.421 138.799 288.034 130.515C287.023 124.48 290.994 122.127 290.54 117.563C290.54 117.563 296.061 114.026 298.576 123.523Z" fill="black" stroke="black" stroke-width="1.37409"/>
<path d="M332.786 141.293C331.347 138.989 333.555 134.9 335.839 136.501C337.015 135.768 338.707 139.243 338.644 141.312C338.604 142.617 337.12 143.273 335.721 143.29C334.29 143.308 333.5 142.438 332.786 141.293Z" fill="black"/>
<path d="M310.591 143.828C309.233 141.324 311.163 136.975 313.277 138.741C314.334 137.977 315.947 141.745 315.931 143.967C315.922 145.368 314.582 146.044 313.307 146.034C312.003 146.023 311.265 145.072 310.591 143.828Z" fill="black"/>
<path d="M346.353 129.007C347.113 129.902 348.589 128.97 347.997 127.918C346.647 125.518 343.452 123.902 340.943 123.153C337.058 121.994 332.632 122.483 328.905 124.001C328.019 124.362 328.137 125.718 329.129 125.822C335.084 126.448 340.476 123.292 345.698 128.286C345.934 128.513 346.142 128.758 346.353 129.007Z" fill="black"/>
<path d="M302.723 133.756C302.234 134.93 301.742 133.318 302.038 132.569C302.995 130.142 304.757 128.189 306.727 126.928C309.515 125.146 313.006 124.706 316.191 125.268C316.845 125.384 317.049 126.46 316.432 126.779C313.235 128.437 309.371 126.974 306.026 129.535C304.639 130.597 303.457 131.991 302.723 133.756Z" fill="black"/>
<path d="M340.096 173.035C339.647 172.368 332.096 176.238 330.309 176.313C328.163 176.402 320.584 173.101 319.733 173.547C317.373 174.785 321.972 177.77 323.059 178.336C328.461 181.151 342.837 177.099 340.096 173.035Z" fill="black"/>
<path d="M325.773 137.609C324.427 133.617 317.292 152.328 316.902 154.306C316.591 155.885 316.198 159.94 317.365 161.163C317.961 161.787 318.999 161.758 319.467 160.985C319.999 160.108 319.442 158.047 319.478 156.948C319.627 152.341 322.132 147.534 323.718 143.287C324.094 142.278 326.158 138.748 325.773 137.609ZM318.599 159.029C318.629 159.031 316.821 160.369 317.268 161.036C317.74 161.739 319.169 161.487 318.591 161.591C317.555 161.779 320.662 161.208 321.697 161.012C324.017 160.572 327.91 160.578 329.993 159.412C330.198 159.297 330.358 159.133 330.436 158.907C331.119 156.943 318.268 159.001 318.599 159.029Z" fill="black"/>
<path d="M328.969 167.961C331.968 169.839 342.924 168.45 345.924 170.679C348.995 172.961 349.86 165.402 349.86 165.402C349.86 165.402 345.864 164.648 342.388 164.048C337.757 163.249 332.985 161.136 331.345 161.07C328.475 160.954 326.214 161.699 326.214 161.699C326.214 161.699 312.976 167.172 309.344 167.961C304.603 168.991 311.545 171.479 311.545 171.479C311.545 171.479 322.439 170.916 324.804 168.704C325.842 167.734 327.092 167.415 328.168 167.362C328.277 167.492 328.527 167.685 328.969 167.961Z" fill="black"/>
<path d="M330.18 108.523C336.032 108.12 346.089 113.599 351.871 108.957C351.871 108.957 355.066 124.583 358.242 124.194C362.837 135.571 359.584 151.287 359.584 151.287C359.584 151.287 358.508 155.738 357.285 157.751C355.811 160.175 355.457 161.775 353.048 164.452C350.638 167.128 349.283 165.835 347.646 166.237C346.009 166.639 344.341 170.857 344.341 170.857C344.268 177.404 345.67 188.765 334.829 190.093L333.075 188.116C332.133 186.313 331.048 184.005 329.747 184.365C326.723 185.203 325.828 190.677 323.817 189.808C315.153 190.386 315.049 170.819 315.049 170.819L305.051 169.487L312.725 190.684C312.725 190.684 319.427 200.323 334.701 198.452C347.652 196.866 356.347 191.426 361.845 180.434C368.021 172.269 367.117 171.158 368.624 164.257C370.131 157.356 375.087 152.198 375.087 152.198C375.087 152.198 381.096 143.592 379.986 141.201C377.967 141.061 372.912 136.214 373.541 139.577C374.17 142.94 371.126 147.176 370.207 152.156C367.468 154.769 365.116 154.892 365.103 154.71L365.073 154.63C363.415 150.056 360.523 142.084 365.304 137.146C370.112 132.179 371.539 136.647 371.539 136.647C371.539 136.647 376.658 138.616 379.817 139.817C380.129 139.484 377.489 133.192 377.545 132.037C377.753 127.771 384.291 130.646 382.961 119.787C381.588 108.578 379.627 110.922 379.627 110.922C379.627 110.922 379.788 106.575 377.452 100.048C375.729 95.2311 366.381 94.5345 366.381 94.5345C366.381 94.5345 364.092 89.3463 360.469 87.3906C353.257 83.4969 351.889 87.3294 349.056 85.9785C349.056 85.9785 348.172 78.884 337.508 75.4157C327.999 73.4893 323.141 79.7046 323.141 79.7046C323.141 79.7046 293.361 72.288 285.11 89.5714C282.738 97.7301 287.553 102.094 287.553 102.094C287.553 102.094 272.995 114.639 293.048 121.741C303.342 120.48 305.128 110.467 305.128 110.467C312.927 109.512 324.749 108.897 330.18 108.523Z" fill="black"/>
<path d="M379.627 110.922C379.627 110.922 381.588 108.578 382.961 119.787C384.291 130.646 377.753 127.771 377.545 132.037C377.489 133.192 380.129 139.484 379.817 139.817C376.658 138.616 371.539 136.647 371.539 136.647C371.539 136.647 370.112 132.179 365.304 137.146C360.495 142.113 363.449 150.15 365.103 154.71C365.116 154.892 367.468 154.769 370.207 152.156M379.627 110.922C379.627 110.922 379.788 106.575 377.452 100.048M379.627 110.922L377.452 100.048M329.747 184.365C331.935 183.759 333.511 190.704 334.829 190.093M329.747 184.365L334.829 190.093M329.747 184.365C326.723 185.203 325.828 190.677 323.817 189.808C315.153 190.386 315.049 170.819 315.049 170.819L305.051 169.487L312.725 190.684C312.725 190.684 319.427 200.323 334.701 198.452C347.652 196.866 356.347 191.426 361.845 180.434C368.021 172.269 367.117 171.158 368.624 164.257C370.131 157.356 375.087 152.198 375.087 152.198C375.087 152.198 381.096 143.592 379.986 141.201M379.986 141.201L370.207 152.156M379.986 141.201C377.967 141.061 372.912 136.214 373.541 139.577C374.17 142.94 371.126 147.176 370.207 152.156M334.829 190.093C345.67 188.765 344.268 177.404 344.341 170.857C344.341 170.857 346.009 166.639 347.646 166.237C349.283 165.835 350.638 167.128 353.048 164.452C355.457 161.775 355.811 160.175 357.285 157.751C358.508 155.738 359.584 151.287 359.584 151.287C359.584 151.287 362.837 135.571 358.242 124.194C355.066 124.583 351.871 108.957 351.871 108.957C346.089 113.599 336.032 108.12 330.18 108.523C324.749 108.897 312.927 109.512 305.128 110.467C305.128 110.467 303.342 120.48 293.048 121.741C272.995 114.639 287.553 102.094 287.553 102.094C287.553 102.094 282.738 97.7301 285.11 89.5714C293.361 72.288 323.141 79.7046 323.141 79.7046C323.141 79.7046 327.999 73.4893 337.508 75.4157C348.172 78.884 349.056 85.9785 349.056 85.9785C351.889 87.3294 353.257 83.4969 360.469 87.3906C364.092 89.3463 366.381 94.5345 366.381 94.5345C366.381 94.5345 375.729 95.2311 377.452 100.048" stroke="black" stroke-width="1.37409"/>
<path d="M360.103 203.755C360.466 204.77 361.73 204.536 361.712 203.441C361.652 199.802 360.997 195.993 360.657 192.354C360.635 192.115 360.651 191.781 360.615 192.348C360.615 192.355 358.818 191.003 358.648 191.754C358.591 192.008 358.785 192.806 358.711 192.551C358.68 192.446 358.615 192.122 358.628 192.231C359.038 195.689 358.936 200.482 360.103 203.755ZM360.63 192.18C360.618 191.262 359.769 190.586 359.073 191.084C358.094 191.785 357.415 194.375 356.545 195.441C354.009 198.547 346.265 203.75 342.802 202.687C341.221 202.201 340.711 204.808 342.116 205.405C347.293 207.603 360.721 198.966 360.63 192.18ZM343.689 204.306C343.784 202.837 342.112 201.941 341.42 203.275C340.316 205.407 341.986 212.027 342.453 214.532C342.566 215.137 343.112 215.53 343.61 215.315C344.87 214.771 343.588 205.879 343.689 204.306Z" fill="black"/>
<path d="M357.002 174.744C355.077 184.462 356.69 197.624 356.69 197.624" stroke="black" stroke-width="2.23136"/>
<path d="M331.552 214.723C333.233 216.835 332.559 205.478 332.469 204.467C332.437 204.101 332.32 203.774 332.049 203.514C328.377 200.009 330.69 213.641 331.552 214.723ZM331.2 205.855C332.414 205.721 332.948 204.148 331.906 203.396C328.805 201.155 323.605 203.328 322.264 197.926C321.998 196.857 319.073 199.065 322.546 202.504C324.65 204.587 328.182 206.185 331.2 205.855Z" fill="black"/>
<path d="M332.309 210.633C334.615 211.693 340.218 210.224 342.732 209.356C342.732 209.356 346.013 211.472 343.609 216.52C341.205 221.569 340.514 223.332 337.149 227.939C333.333 223.931 330.002 209.573 332.309 210.633Z" fill="black"/>
<path d="M382.039 213.655C381.728 213.53 360.023 204.908 359.818 204.637C354.158 197.165 385.365 211.152 387.471 211.984C387.896 212.152 391.444 215.287 391.649 215.704C394.96 222.477 385.23 214.935 382.039 213.655ZM387.341 214.213C383.066 207.844 392.94 216.368 394.463 218.747C398.726 225.402 402.725 232.335 405.726 239.66C413.757 259.261 413.494 287.081 408.514 307.247C408.394 307.729 408.101 308.151 407.677 308.414C402.908 311.375 407.907 283.73 407.867 279.303C407.642 254.011 401.375 235.12 387.341 214.213ZM403.765 305.59C403.909 305.179 406.742 303.311 407.107 303.062C411.785 299.873 405.57 317.83 405.181 319.018C405.041 319.446 404.813 319.813 404.439 320.075C400.021 323.181 403.031 307.671 403.765 305.59ZM401.591 317.791C403.448 313.754 408.203 324.696 394.924 328.666C386.595 331.155 374.391 327.971 365.934 326.654C363.89 326.336 363.728 323.32 365.824 322.936C377.319 320.833 394.811 332.534 401.591 317.791ZM367.696 325.877C365.567 328.632 363.756 324.74 365.451 322.643C366.274 321.624 367.004 320.575 367.437 319.326C367.526 319.07 367.604 318.81 367.672 318.547C367.791 318.085 367.88 317.616 367.946 317.144C367.994 316.806 368.029 316.466 368.055 316.126C368.082 315.778 368.098 315.43 368.106 315.082C368.112 314.8 368.115 314.524 368.071 314.245C368.036 314.026 367.982 313.811 367.916 313.6C366.765 309.948 363.27 307.189 360.517 304.749C357.443 302.023 367.399 302.467 371.151 311.989C373.097 316.929 370.675 322.024 367.696 325.877ZM361.584 305.127C359.798 305.03 359.254 302.487 361.068 301.91C363.555 301.119 371.481 302.259 374.459 303.221C375.792 303.652 375.815 305.643 374.36 305.923C370.596 306.649 364.976 305.311 361.584 305.127ZM373.887 305.932C373.619 305.884 373.372 305.774 373.168 305.59C369.838 302.582 383.155 305.514 384.618 306.175C388.21 307.797 391.67 310.532 392.199 314.685C392.368 316.007 388.332 310.349 387.277 309.673C383.253 307.093 378.458 306.756 373.887 305.932Z" fill="black"/>
<path d="M336.541 226.323C336.687 226.502 338.591 224.624 338.588 225.376C338.583 226.812 338.702 247.649 338.226 248.032C335.466 250.247 336.529 226.309 336.541 226.323Z" fill="black"/>
<path d="M320.139 202.044C323.994 202.013 314.555 205.277 313.176 205.493C310.614 205.894 308.051 206.295 305.488 206.696C299.632 207.612 292.99 208.507 287.519 209.502C285.957 209.787 285.201 207.552 286.747 206.986C293.66 204.456 303.596 204.477 311.3 203.341C314.15 202.921 317.249 202.067 320.139 202.044ZM286.502 207.106C291.898 203.953 276.914 222.08 276.392 222.887C265.464 239.808 254.089 256.47 242.648 273.05C242.297 273.558 241.728 273.864 241.102 273.811C237.484 273.506 248.044 258.928 249.44 256.9C257.957 244.519 274.818 213.934 286.502 207.106Z" fill="black"/>
<path d="M359.896 324.369C359.896 325.372 364.074 325.065 366.163 324.787L367.417 320.191C364.91 321.166 359.896 323.366 359.896 324.369Z" fill="black" stroke="black" stroke-width="3.34232"/>
<path d="M373.02 258.317C373.093 257.533 374.222 265.982 374.191 268.336C374.037 280.1 372.816 292.728 374.489 304.419C374.868 307.068 370.895 305.602 371.121 296.815C371.349 287.907 371.833 279.004 372.327 270.108C372.545 266.185 372.652 262.229 373.02 258.317Z" fill="black"/>
<path d="M361.149 303.48C355.161 303.062 341.68 303.146 335.664 306.822C329.648 310.499 321.181 317.267 317.699 320.191C317.142 320.888 316.362 322.615 317.699 323.952C319.036 325.289 321.877 323.673 323.13 322.698L330.233 317.278M339.006 310.582L330.233 317.278M330.233 317.278C330.651 318.806 332.322 321.863 335.664 321.863C337.335 317.278 345.273 313.925 345.273 313.925" stroke="black" stroke-width="3.34232"/>
<path d="M335.664 322.28C337.335 323.255 340.104 325.099 343.184 324.787C346.527 321.862 349.033 319.356 351.54 317.685" stroke="black" stroke-width="3.34232"/>
<path d="M343.602 324.787C347.083 325.483 355.467 327.21 357.806 325.205C360.146 323.199 364.352 320.748 366.162 319.774C367.276 318.659 369.739 316.443 369.087 313.507C367.416 305.987 363.516 305.151 360.313 303.062" stroke="black" stroke-width="3.34232"/>
<path d="M336.499 306.404C331.067 308.215 320.121 311.836 319.787 311.836C319.369 311.836 316.445 313.507 317.28 315.596C317.949 317.267 321.04 317.267 321.876 317.267" stroke="black" stroke-width="3.34232"/>
<path d="M445.765 436.397C446.857 434.722 448.028 448.667 447.46 447.403C447.455 447.392 445.103 448.777 445.126 447.976C445.2 445.466 444.362 438.549 445.765 436.397ZM446.378 446.782C447.07 446.782 447.631 447.343 447.631 448.035C447.631 448.727 447.07 449.288 446.378 449.288C445.685 449.288 445.124 448.727 445.124 448.035C445.124 447.343 445.685 446.782 446.378 446.782ZM447.363 448.81C446.52 449.753 444.855 449.08 445.155 447.757C446.585 441.466 460.133 431.348 464.523 426.61C484.817 404.712 512.234 369.729 534.737 350.847C536.43 349.427 530.044 358.697 528.545 360.33C524.58 364.652 520.615 368.974 516.65 373.296C493.599 398.419 469.891 423.605 447.363 448.81ZM536.292 351.489C536.268 352.948 534.162 345.307 534.466 341.881C534.644 339.872 536.328 349.253 536.292 351.489ZM446.545 446.793C452.747 447.937 437.92 448.182 436.894 448.046C429.064 447.012 421.234 445.979 413.404 444.946C390.595 441.938 367.786 438.933 344.977 435.927C265.69 425.479 186.402 415.042 107.133 404.459C82.6429 401.189 58.1536 397.911 33.6702 394.589C24.0058 393.278 9.72397 394 0.665088 390.046C-2.21639 388.788 10.12 389.284 11.3041 389.436C19.1014 390.433 26.8987 391.431 34.695 392.436C57.6433 395.395 80.587 398.39 103.529 401.396C180.164 411.436 256.782 421.609 333.399 431.781C370.949 436.766 409.299 439.92 446.545 446.793ZM1.99042 389.014C2.11493 391.705 -0.594701 382.623 0.120373 378.165C0.488659 375.869 1.92175 387.53 1.99042 389.014Z" fill="black"/>
<path d="M337.336 348.601L278.01 338.992" stroke="black" stroke-width="3.34232"/>
<path opacity="0.1" d="M283.44 386.62V382.86L120.92 362.806L121.338 366.984L283.44 386.62Z" fill="black" stroke="black" stroke-width="2.50674"/>
<path d="M335.246 253.317L336.249 247.078L338.588 247.524L337.586 253.763L335.246 253.317Z" stroke="black" stroke-width="1.67116"/>
<path d="M282.784 259.107C284.09 257.565 282.823 271.177 282.644 272.607C281.472 281.937 280.301 291.267 279.124 300.596C278.804 303.132 277.523 312.252 277.477 312.061C277.441 311.91 276.148 314.624 275.211 314.184C273.913 313.575 274.513 311.009 274.276 312.381C274.043 313.726 274.701 309.686 274.914 308.338C275.339 305.641 275.765 302.945 276.19 300.248C277.467 292.129 278.753 284.012 280.032 275.894C280.611 272.221 280.282 262.059 282.784 259.107Z" fill="black"/>
<path d="M279.309 280.723C279.918 278.629 277.946 293.961 274.975 299.948C274.811 300.278 274.653 300.619 274.463 300.935C274.291 301.22 274.074 301.457 273.776 301.615C269.142 304.066 278.671 282.919 279.309 280.723Z" fill="black"/>
<path d="M456.257 364.621C457.042 363.973 450.506 373.437 448.81 375.388C442.809 382.297 436.811 389.208 430.79 396.1C428.409 398.825 425.954 401.741 423.57 404.332C423.221 404.711 422.706 404.875 422.213 404.676C419.748 403.677 428.636 395.144 429.757 393.901C435.889 387.097 442.044 380.314 448.194 373.526C450.786 370.666 453.271 367.084 456.257 364.621ZM422.926 402.427C423.859 402.693 424.185 403.923 423.359 404.532C421.031 406.246 410.51 402.411 407.966 401.907C397.257 399.785 386.555 397.626 375.855 395.455C371.606 394.593 366.738 394.23 362.645 392.761C360.699 392.063 373.172 392.872 375.512 393.313C391.127 396.256 407.638 398.06 422.926 402.427ZM363.538 392.557C360.517 395.017 372.185 383.522 374.137 382.007C382.6 375.44 391.049 368.855 399.473 362.238C403.018 359.454 406.481 356.398 410.183 353.815C410.48 353.607 414.208 353.197 398.759 364.367C383.309 375.538 381.915 377.798 373.517 384.544C370.336 387.1 366.573 390.085 363.538 392.557ZM410.183 353.815C409.669 353.712 420.168 355.228 422.778 355.645C431.207 356.991 439.638 358.333 448.068 359.674C451.594 360.234 455.189 360.641 458.687 361.362C459.108 361.449 448.994 360.989 446.359 360.569C437.93 359.224 429.5 357.88 421.069 356.542C417.541 355.982 408.777 354.868 410.183 353.815Z" fill="black"/>
<path d="M364.073 394.558C365.505 393.035 365.327 394.558 365.327 396.647C363.358 398.555 363.292 395.389 364.073 394.558ZM364.431 397.584C363.845 397.448 363.449 396.882 363.627 396.281C364.231 394.245 377.803 398.068 379.336 398.363C389.928 400.403 400.521 402.444 411.114 404.484C415.386 405.307 419.796 405.89 424.014 406.969C427.019 407.737 420.192 408.231 418.871 407.979C415.563 407.347 412.255 406.716 408.947 406.084C398.402 404.07 387.857 402.057 377.312 400.043C373.039 399.227 368.647 398.562 364.431 397.584ZM426.271 406.62C425.733 407.539 424.265 406.958 424.691 405.927C425.672 403.548 430.441 399.326 432.595 396.879C438.202 390.514 443.806 384.147 449.413 377.781C451.668 375.221 454.436 370.461 457.421 368.711C457.609 368.6 452.627 375.66 449.898 378.871C444.301 385.456 438.704 392.041 433.106 398.626C431.136 400.944 427.437 404.629 426.271 406.62Z" fill="black"/>
<path d="M364.073 398.736C365.505 397.213 365.327 398.736 365.327 400.825C363.358 402.733 363.292 399.567 364.073 398.736ZM364.431 401.762C363.845 401.626 363.449 401.06 363.627 400.459C364.231 398.423 377.803 402.246 379.336 402.541C389.928 404.581 400.521 406.622 411.114 408.662C415.386 409.485 419.796 410.068 424.014 411.147C427.019 411.915 420.192 412.409 418.871 412.157C415.563 411.525 412.255 410.893 408.947 410.262C398.402 408.248 387.857 406.235 377.312 404.221C373.039 403.405 368.647 402.74 364.431 401.762ZM426.271 410.798C425.733 411.717 424.265 411.136 424.691 410.105C425.672 407.726 430.441 403.504 432.595 401.057C438.202 394.692 443.806 388.325 449.413 381.959C451.668 379.399 454.436 374.639 457.421 372.889C457.609 372.778 452.627 379.838 449.898 383.049C444.301 389.634 438.704 396.219 433.106 402.804C431.136 405.122 427.437 408.807 426.271 410.798Z" fill="black"/>
<path d="M450.371 351.526L419.454 345.677C418.619 345.259 418.719 344.539 419.037 343.588C419.454 342.334 420.568 342.334 421.125 342.334L451.624 347.765L456.22 351.108L450.371 351.526Z" fill="black"/>
<path d="M419.454 345.677L419.081 346.424L419.185 346.476L419.299 346.498L419.454 345.677ZM450.371 351.526L450.215 352.347L450.322 352.367L450.43 352.359L450.371 351.526ZM456.22 351.108L456.279 351.941C456.629 351.916 456.927 351.675 457.023 351.338C457.12 351 456.995 350.638 456.711 350.432L456.22 351.108ZM451.624 347.765L452.116 347.09L451.96 346.977L451.771 346.943L451.624 347.765ZM421.125 342.334L421.272 341.512L421.199 341.499H421.125V342.334ZM419.037 343.588L419.829 343.852L419.037 343.588ZM419.299 346.498L450.215 352.347L450.526 350.705L419.61 344.856L419.299 346.498ZM450.43 352.359L456.279 351.941L456.16 350.274L450.311 350.692L450.43 352.359ZM456.711 350.432L452.116 347.09L451.133 348.441L455.728 351.784L456.711 350.432ZM450.831 347.501L449.578 351.261L451.163 351.79L452.417 348.03L450.831 347.501ZM451.771 346.943L421.272 341.512L420.979 343.157L451.478 348.588L451.771 346.943ZM421.125 341.499C420.858 341.499 420.29 341.491 419.724 341.713C419.108 341.954 418.536 342.446 418.244 343.323L419.829 343.852C419.955 343.476 420.149 343.341 420.333 343.269C420.568 343.177 420.836 343.17 421.125 343.17V341.499ZM418.244 343.323C418.086 343.797 417.92 344.373 417.983 344.926C418.017 345.225 418.117 345.526 418.317 345.801C418.515 346.071 418.779 346.273 419.081 346.424L419.828 344.929C419.711 344.871 419.675 344.826 419.667 344.815C419.661 344.807 419.649 344.79 419.643 344.738C419.627 344.589 419.67 344.33 419.829 343.852L418.244 343.323Z" fill="black"/>
<path opacity="0.5" d="M303.911 365.73C295.427 363.283 289.706 362.388 281.768 361.135M293.466 373.251C293.466 373.251 286.782 370.744 282.604 370.326M295.138 345.259L279.262 342.752L280.933 354.45H282.604L295.138 345.259Z" stroke="black" stroke-width="1.67116" stroke-linecap="round"/>
<path d="M199.618 319.676C199.609 318.146 201.859 317.903 202.087 319.441C202.701 323.576 199.712 327.86 196.1 329.449C190.469 331.926 183.731 328.589 182.266 322.519C179.548 311.253 195.999 304.918 200.168 315.994C200.276 316.28 194.936 312.119 191.981 312.421C187.678 312.861 184.364 316.838 185.097 321.254C186.588 330.241 199.675 328.597 199.618 319.676Z" fill="black"/>
<path d="M53.16 88.0848C52.6373 88.9079 51.3471 88.2616 51.7556 87.3586C52.854 84.9308 55.9347 83.6664 58.4188 84.0615C62.2916 84.6773 64.751 88.7919 63.4411 92.5501C61.0093 99.5268 50.0057 97.2435 51.5947 89.8687C51.6358 89.6778 53.0614 93.7512 54.7488 94.6091C57.2068 95.8587 60.3562 94.8712 61.4877 92.2513C63.79 86.9202 56.2086 83.2843 53.16 88.0848Z" fill="#B3B3B3"/>
<path d="M460.922 149.082C460.399 149.905 459.109 149.259 459.517 148.356C460.616 145.928 463.696 144.664 466.181 145.059C470.053 145.675 472.513 149.789 471.203 153.547C468.771 160.524 457.767 158.241 459.356 150.866C459.397 150.675 460.823 154.749 462.511 155.606C464.968 156.856 468.118 155.868 469.249 153.249C471.552 147.918 463.97 144.282 460.922 149.082Z" fill="#B3B3B3"/>
<ellipse opacity="0.5" cx="191.352" cy="322.335" rx="7.88004" ry="7.81361" transform="rotate(-2.78254 191.352 322.335)" fill="black"/>
<path d="M287.618 210.313C274.249 227.442 245.004 271.31 245.004 271.31L270.071 274.652L273.414 295.124L279.263 280.919L280.934 263.79C281.073 262.258 281.686 259.194 283.023 259.194C284.36 259.194 283.023 270.892 282.187 276.741L277.592 311.836C282.884 312.114 293.802 312.838 295.139 313.507C296.476 314.175 307.394 316.292 312.686 317.267L316.864 318.102C316.446 317.685 315.527 316.431 315.193 314.76C314.858 313.089 317.56 311.279 318.953 310.582L333.993 305.569C343.184 300.973 352.794 300.973 361.149 301.809C362.821 300.806 368.53 301.948 371.176 302.644L370.759 296.377L372.012 272.563L372.848 257.523L374.519 267.132L374.937 303.062C375.215 303.619 377.025 304.733 382.039 304.733C387.052 304.733 390.255 308.911 391.23 311L392.484 315.178C392.066 314.342 388.891 311.752 384.546 309.747C380.201 307.741 372.151 307.518 368.67 307.658C369.087 308.075 370.257 309.663 371.594 312.671C372.931 315.679 370.898 320.888 369.923 322.698L375.772 323.116C391.23 326.04 393.319 325.623 398.751 321.863C405.435 315.178 405.853 298.884 407.106 292.199C408.36 285.515 407.273 274.402 406.271 260.03C405.28 245.822 393.319 227.586 387.664 218.964L387.47 218.668C387.47 218.668 370.823 210.547 359.478 205.299C359.478 205.299 359.061 202.375 358.643 198.197C354.883 205.299 344.438 206.97 344.438 206.97L344.856 213.655L339.007 226.189L338.589 246.66L339.424 247.078L338.589 254.598L334.411 254.181L335.664 246.243H336.5L335.664 227.442L330.233 213.655L329.397 206.553C327.726 206.135 323.966 206.135 321.459 201.121C321.042 202.792 321.042 204.994 321.042 204.046C321.042 204.046 318.117 206.553 287.618 210.313Z" fill="#FF6565"/>
<rect x="99.6129" y="100.852" width="125.206" height="92.7493" rx="2.11506" stroke="#B3B3B3" stroke-width="1.67116"/>
<path d="M100.253 102.967C100.253 102.152 100.913 101.491 101.728 101.491H222.835C223.65 101.491 224.31 102.152 224.31 102.967V107.732H100.253V102.967Z" fill="#B3B3B3" stroke="#B3B3B3" stroke-width="2.95064"/>
<rect x="181.5" y="114.221" width="37.6011" height="71.8598" rx="3.09861" stroke="#B3B3B3" stroke-width="1.67116" stroke-dasharray="3.93 3.93"/>
<mask id="path-51-inside-1" fill="white">
<rect x="104.678" y="113.542" width="70.8154" height="28.5229" rx="0.83558"/>
</mask>
<rect x="104.678" y="113.542" width="70.8154" height="28.5229" rx="0.83558" stroke="#C4C4C4" stroke-width="3.34232" mask="url(#path-51-inside-1)"/>
<rect x="104.678" y="145.999" width="70.8154" height="1.96709" rx="0.983547" fill="#C4C4C4"/>
<rect x="104.678" y="149.933" width="70.8154" height="1.96709" rx="0.983547" fill="#C4C4C4"/>
<rect x="104.678" y="153.867" width="70.8154" height="1.96709" rx="0.983547" fill="#C4C4C4"/>
<rect x="104.678" y="157.802" width="70.8154" height="1.96709" rx="0.983547" fill="#C4C4C4"/>
<rect x="104.678" y="161.736" width="70.8154" height="1.96709" rx="0.983547" fill="#C4C4C4"/>
<circle cx="105.044" cy="104.612" r="2.08895" fill="white"/>
<circle cx="110.894" cy="104.612" r="2.08895" fill="white"/>
<circle cx="116.741" cy="104.612" r="2.08895" fill="white"/>
<path d="M180.746 218.615C180.747 218.368 180.898 218.148 181.147 218.093C182.041 217.896 182.915 221.616 183.118 222.166C184.811 226.754 186.594 231.43 187.947 236.105C188.22 237.047 186.96 237.739 186.38 236.891C184.326 233.889 183.069 226.673 182.018 223.044C181.643 221.749 180.739 219.979 180.746 218.615ZM187.751 237.002C187.058 237.659 185.884 236.924 186.31 236.02C187.161 234.211 189.696 232.073 191.174 230.727C191.856 230.105 192.989 230.804 192.597 231.692C191.794 233.515 189.205 235.623 187.751 237.002ZM191.247 232.022C190.543 231.393 191.168 230.176 192.102 230.523C193.568 231.069 195.837 233.459 196.98 234.693C197.595 235.358 196.878 236.46 196.021 236.046C194.347 235.235 192.563 233.199 191.247 232.022ZM197.07 235.784C196.535 236.431 195.412 236.039 195.56 235.154C195.69 234.371 197.239 232.818 197.95 232.158C199.082 231.108 199.475 232.859 198.832 233.642C198.64 233.877 198.447 234.111 198.255 234.345C197.892 234.787 197.328 235.472 197.07 235.784ZM198.987 232.049C199.673 232.572 199.23 233.734 198.336 233.512C197.096 233.204 194.648 230.908 193.602 229.816C193.023 229.211 193.696 228.191 194.476 228.591C196.057 229.404 197.724 231.088 198.987 232.049ZM194.751 229.699C194.238 230.342 193.138 229.874 193.401 229.039C193.766 227.876 196.028 225.597 197.142 224.622C197.691 224.141 198.579 224.694 198.276 225.399C197.628 226.909 195.639 228.587 194.751 229.699ZM197.859 224.462C198.571 224.75 198.412 225.854 197.603 225.824C194.532 225.708 188.029 221.923 184.945 220.655C183.659 220.127 182.293 219.679 181.05 219.058C180.541 218.804 180.746 218.001 181.332 218.087C182.424 218.247 183.624 218.963 184.642 219.358C189.03 221.057 193.548 222.717 197.859 224.462Z" fill="#B3B3B3"/>
<path d="M119.573 182.461C119.573 181.64 120.238 180.975 121.059 180.975H121.088H121.118H121.148H121.178H121.208H121.239H121.269H121.3H121.331H121.362H121.393H121.425H121.456H121.488H121.52H121.552H121.584H121.617H121.649H121.682H121.715H121.748H121.781H121.814H121.848H121.881H121.915H121.949H121.983H122.018H122.052H122.087H122.121H122.156H122.191H122.227H122.262H122.297H122.333H122.369H122.405H122.441H122.477H122.514H122.55H122.587H122.624H122.661H122.698H122.735H122.773H122.81H122.848H122.886H122.924H122.962H123H123.039H123.077H123.116H123.155H123.194H123.233H123.272H123.312H123.351H123.391H123.431H123.471H123.511H123.551H123.591H123.632H123.673H123.713H123.754H123.795H123.837H123.878H123.919H123.961H124.003H124.044H124.086H124.128H124.171H124.213H124.255H124.298H124.341H124.383H124.426H124.47H124.513H124.556H124.6H124.643H124.687H124.731H124.775H124.819H124.863H124.907H124.951H124.996H125.041H125.085H125.13H125.175H125.22H125.266H125.311H125.356H125.402H125.448H125.494H125.539H125.585H125.632H125.678H125.724H125.771H125.817H125.864H125.911H125.958H126.005H126.052H126.099H126.146H126.194H126.241H126.289H126.337H126.384H126.432H126.48H126.529H126.577H126.625H126.674H126.722H126.771H126.82H126.868H126.917H126.966H127.016H127.065H127.114H127.164H127.213H127.263H127.312H127.362H127.412H127.462H127.512H127.562H127.613H127.663H127.713H127.764H127.815H127.865H127.916H127.967H128.018H128.069H128.12H128.171H128.223H128.274H128.325H128.377H128.429H128.48H128.532H128.584H128.636H128.688H128.74H128.792H128.845H128.897H128.949H129.002H129.054H129.107H129.16H129.213H129.266H129.318H129.372H129.425H129.478H129.531H129.584H129.638H129.691H129.745H129.798H129.852H129.906H129.96H130.013H130.067H130.121H130.175H130.23H130.284H130.338H130.392H130.447H130.501H130.556H130.61H130.665H130.72H130.774H130.829H130.884H130.939H130.994H131.049H131.104H131.159H131.215H131.27H131.325H131.381H131.436H131.492H131.547H131.603H131.658H131.714H131.77H131.826H131.882H131.938H131.994H132.05H132.106H132.162H132.218H132.274H132.33H132.387H132.443H132.499H132.556H132.612H132.669H132.725H132.782H132.839H132.895H132.952H133.009H133.066H133.122H133.179H133.236H133.293H133.35H133.407H133.464H133.521H133.578H133.636H133.693H133.75H133.807H133.865H133.922H133.979H134.037H134.094H134.152H134.209H134.267H134.324H134.382H134.439H134.497H134.555H134.612H134.67H134.728H134.786H134.843H134.901H134.959H135.017H135.075H135.133H135.191H135.249H135.307H135.365H135.423H135.481H135.539H135.597H135.655H135.713H135.771H135.829H135.887H135.945H136.003H136.062H136.12H136.178H136.236H136.294H136.353H136.411H136.469H136.527H136.586H136.644H136.702H136.761H136.819H136.877H136.936H136.994H137.052H137.111H137.169H137.227H137.286H137.344H137.402H137.461H137.519H137.577H137.636H137.694H137.752H137.811H137.869H137.928H137.986H138.044H138.103H138.161H138.219H138.278H138.336H138.394H138.452H138.511H138.569H138.627H138.686H138.744H138.802H138.86H138.919H138.977H139.035H139.093H139.151H139.21H139.268H139.326H139.384H139.442H139.5H139.558H139.616H139.674H139.732H139.79H139.848H139.906H139.964H140.022H140.08H140.138H140.196H140.254H140.311H140.369H140.427H140.485H140.542H140.6H140.658H140.715H140.773H140.831H140.888H140.946H141.003H141.061H141.118H141.176H141.233H141.29H141.348H141.405H141.462H141.519H141.576H141.634H141.691H141.748H141.805H141.862H141.919H141.976H142.033H142.089H142.146H142.203H142.26H142.316H142.373H142.43H142.486H142.543H142.599H142.656H142.712H142.768H142.825H142.881H142.937H142.993H143.049H143.106H143.162H143.218H143.273H143.329H143.385H143.441H143.497H143.552H143.608H143.663H143.719H143.774H143.83H143.885H143.94H143.996H144.051H144.106H144.161H144.216H144.271H144.326H144.381H144.436H144.49H144.545H144.6H144.654H144.708H144.763H144.817H144.872H144.926H144.98H145.034H145.088H145.142H145.196H145.25H145.303H145.357H145.411H145.464H145.518H145.571H145.624H145.678H145.731H145.784H145.837H145.89H145.943H145.996H146.048H146.101H146.154H146.206H146.259H146.311H146.363H146.416H146.468H146.52H146.572H146.624H146.675H146.727H146.779H146.83H146.882H146.933H146.984H147.036H147.087H147.138H147.189H147.24H147.291H147.342H147.393H147.444H147.495H147.546H147.598H147.649H147.701H147.752H147.804H147.856H147.908H147.96H148.012H148.064H148.116H148.169H148.221H148.273H148.326H148.378H148.431H148.484H148.537H148.59H148.643H148.696H148.749H148.802H148.855H148.908H148.962H149.015H149.069H149.123H149.176H149.23H149.284H149.338H149.392H149.446H149.5H149.554H149.608H149.662H149.717H149.771H149.826H149.88H149.935H149.989H150.044H150.099H150.154H150.209H150.263H150.318H150.374H150.429H150.484H150.539H150.594H150.65H150.705H150.761H150.816H150.872H150.927H150.983H151.039H151.094H151.15H151.206H151.262H151.318H151.374H151.43H151.486H151.542H151.599H151.655H151.711H151.767H151.824H151.88H151.937H151.993H152.05H152.106H152.163H152.22H152.277H152.333H152.39H152.447H152.504H152.561H152.618H152.675H152.732H152.789H152.846H152.903H152.96H153.017H153.075H153.132H153.189H153.247H153.304H153.361H153.419H153.476H153.534H153.591H153.649H153.707H153.764H153.822H153.879H153.937H153.995H154.053H154.11H154.168H154.226H154.284H154.342H154.4H154.457H154.515H154.573H154.631H154.689H154.747H154.805H154.863H154.921H154.979H155.038H155.096H155.154H155.212H155.27H155.328H155.386H155.445H155.503H155.561H155.619H155.677H155.736H155.794H155.852H155.911H155.969H156.027H156.085H156.144H156.202H156.26H156.319H156.377H156.435H156.494H156.552H156.61H156.669H156.727H156.785H156.844H156.902H156.961H157.019H157.077H157.136H157.194H157.252H157.311H157.369H157.427H157.486H157.544H157.602H157.661H157.719H157.777H157.836H157.894H157.952H158.01H158.069H158.127H158.185H158.243H158.302H158.36H158.418H158.476H158.534H158.592H158.651H158.709H158.767H158.825H158.883H158.941H158.999H159.057H159.115H159.173H159.231H159.289H159.347H159.405H159.463H159.52H159.578H159.636H159.694H159.752H159.809H159.867H159.925H159.982H160.04H160.098H160.155H160.213H160.27H160.328H160.385H160.443H160.5H160.558H160.615H160.672H160.729H160.787H160.844H160.901H160.958H161.015H161.072H161.129H161.186H161.243H161.3H161.357H161.414H161.471H161.528H161.584H161.641H161.698H161.754H161.811H161.867H161.924H161.98H162.037H162.093H162.149H162.205H162.262H162.318H162.374H162.43H162.486H162.542H162.598H162.654H162.71H162.765H162.821H162.877H162.932H162.988H163.043H163.099H163.154H163.21H163.265H163.32H163.375H163.43H163.485H163.54H163.595H163.65H163.705H163.76H163.815H163.869H163.924H163.978H164.033H164.087H164.141H164.196H164.25H164.304H164.358H164.412H164.466H164.52H164.574H164.628H164.681H164.735H164.788H164.842H164.895H164.949H165.002H165.055H165.108H165.161H165.214H165.267H165.32H165.372H165.425H165.478H165.53H165.583H165.635H165.687H165.739H165.792H165.844H165.896H165.947H165.999H166.051H166.103H166.154H166.206H166.257H166.308H166.36H166.411H166.462H166.513H166.564H166.614H166.665H166.716H166.766H166.817H166.867H166.917H166.967H167.017H167.067H167.117H167.167H167.217H167.266H167.316H167.365H167.415H167.464H167.513H167.562H167.611H167.66H167.709H167.757H167.806H167.854H167.903H167.951H167.999H168.047H168.095H168.143H168.191H168.238H168.286H168.333H168.381H168.428H168.475H168.522H168.569H168.616H168.662H168.709H168.755H168.802H168.848H168.894H168.94H168.986H169.032H169.077H169.123H169.169H169.214H169.259H169.304H169.349H169.394H169.439H169.484H169.528H169.572H169.617H169.661H169.705H169.749H169.793H169.836H169.88H169.924H169.967H170.01H170.053H170.096H170.139H170.182H170.224H170.267H170.309H170.351H170.393H170.435H170.477H170.519H170.56H170.602H170.643H170.684H170.725H170.766H170.807H170.848H170.888H170.928H170.969H171.009H171.049H171.089H171.128H171.168H171.207H171.247H171.286H171.325H171.364H171.402H171.441H171.479H171.518H171.556H171.594H171.632H171.669H171.707H171.744H171.782H171.819H171.856H171.893H171.929H171.966H172.002H172.039H172.075H172.111H172.147H172.182H172.218H172.253H172.288H172.323H172.358H172.393H172.428H172.462H172.496H172.53H172.564H172.598H172.632H172.665H172.699H172.732H172.765H172.798H172.83H172.863H172.895H172.928H172.96H172.992H173.023H173.055H173.086H173.118H173.149H173.179H173.21H173.241H173.271H173.301H173.332H173.361H173.391H173.421C174.241 180.975 174.906 181.64 174.906 182.461V220.341C174.906 221.152 174.258 221.811 173.448 221.825C168.497 221.906 156.207 222.093 147.657 222.103C138.811 222.114 126.078 221.913 121.026 221.826C120.219 221.813 119.573 221.155 119.573 220.343V182.461Z" fill="white" stroke="#B3B3B3" stroke-width="1.48625"/>
<line x1="123.151" y1="183.821" x2="171.663" y2="218.209" stroke="#B3B3B3" stroke-width="1.67116" stroke-linecap="round"/>
<line x1="122.818" y1="218.209" x2="171.329" y2="183.821" stroke="#B3B3B3" stroke-width="1.67116" stroke-linecap="round"/>
<rect x="436.352" y="206.135" width="57.655" height="57.655" rx="2.3062" fill="#B3B3B3"/>
<rect opacity="0.5" x="448.459" y="220.548" width="8.64825" height="1.72965" rx="0.864825" fill="white"/>
<rect x="441.541" y="228.044" width="25.9447" height="1.72965" rx="0.864825" fill="white"/>
<rect x="441.541" y="233.233" width="17.873" height="1.72965" rx="0.864825" fill="white"/>
<rect x="441.541" y="238.422" width="23.6385" height="1.72965" rx="0.864825" fill="white"/>
<rect opacity="0.5" x="461.719" y="233.233" width="17.873" height="1.72965" rx="0.864825" fill="white"/>
<rect x="441.541" y="243.61" width="17.873" height="1.72965" rx="0.864825" fill="white"/>
<rect opacity="0.5" x="441.541" y="248.799" width="10.3779" height="1.72965" rx="0.864825" fill="white"/>
<rect x="461.719" y="243.61" width="17.873" height="1.72965" rx="0.864825" fill="white"/>
<path d="M442.693 211.9L447.306 216.513L442.693 221.125" stroke="white" stroke-width="1.72965" stroke-linecap="round" stroke-linejoin="round"/>
<path d="M484.622 220.587L477.383 207.193L492.752 207.388C493.394 208.418 498.943 218.586 499.964 220.223C496.969 220.194 487.392 220.532 484.622 220.587Z" fill="white"/>
<path fill-rule="evenodd" clip-rule="evenodd" d="M501.264 192.67L483.965 193.079L475.793 207.088L484.305 222.043C484.305 222.043 494.233 221.723 501.47 221.87C501.581 221.872 501.361 221.868 501.47 221.87L509.339 208.512L501.264 192.67ZM501.357 218.438L494.234 206.797L500.641 195.699L507.166 208.376L501.357 218.438ZM492.545 205.822L498.952 194.724L484.815 194.437L478.548 205.717L492.545 205.822ZM485.233 220.34L477.713 207.388L492.545 207.806C493.174 208.81 498.903 218.307 499.904 219.903C501.29 222.11 498.391 217.502 499.904 219.903C496.981 219.865 487.937 220.295 485.233 220.34Z" fill="#B3B3B3"/>
<path d="M518.477 120.357C518.708 120.245 518.928 120.168 519.19 120.183C523.162 120.413 510.453 125.616 508.503 126.287C508.426 126.314 508.279 126.359 508.272 126.362C507.36 126.699 506.344 125.954 506.614 124.945C507.199 122.763 516.986 121.081 518.477 120.357ZM506.634 125.637C505.63 122.015 513.111 131.393 513.331 135.313C513.483 138.019 507.314 128.089 506.634 125.637ZM512.951 136.27C512.955 136.267 510.998 134.918 511.611 134.508C513.532 133.222 519.019 131.395 522.143 130.019C522.313 129.945 522.653 129.819 522.659 129.815C523.815 129.137 525.074 130.674 523.989 131.562C522.07 133.132 516.73 134.627 513.798 135.94C513.589 136.034 512.339 136.694 512.951 136.27ZM524.337 130.369C525.221 133.582 518.651 123.316 518.032 122.061C517.92 121.834 517.85 121.608 517.867 121.351C518.093 117.948 523.714 128.106 524.337 130.369Z" fill="#B3B3B3"/>
<path d="M525.851 113.067C526.107 113.046 525.051 114.199 525.29 114.308C528.908 115.963 516.937 114.871 514.876 114.79C514.795 114.787 514.642 114.776 514.634 114.776C513.662 114.759 512.985 113.696 513.603 112.854C514.94 111.032 524.198 113.2 525.851 113.067ZM513.371 113.506C513.749 109.766 517.318 121.219 516.101 124.952C515.261 127.528 513.115 116.037 513.371 113.506ZM515.4 125.706C515.404 125.705 514.156 114.95 514.876 114.79C517.132 114.289 521.88 114.458 525.29 114.308C525.475 114.3 527.855 123.866 528.151 124.795C528.176 124.874 528.728 124.889 527.394 125.323C525.036 126.09 519.518 125.546 516.309 125.706C516.08 125.718 514.676 125.88 515.4 125.706ZM528.151 124.795C528.501 126.117 525.411 115.702 525.29 114.308C525.268 114.056 525.284 113.821 525.393 113.587C526.839 110.497 527.55 122.525 528.151 124.795Z" fill="#B3B3B3"/>
<path d="M33.0367 248.582C33.2545 248.446 33.4649 248.346 33.7268 248.333C37.7004 248.139 25.6168 254.664 23.7488 255.539C23.6756 255.573 23.5342 255.634 23.5272 255.638C22.6565 256.069 21.5668 255.437 21.7284 254.405C22.0778 252.173 31.6304 249.46 33.0367 248.582ZM21.8218 255.091C20.4386 251.596 28.8735 260.126 29.5091 264.001C29.9477 266.674 22.758 257.457 21.8218 255.091ZM29.2332 264.992C29.2363 264.989 27.1474 263.856 27.7135 263.382C29.4863 261.9 34.749 259.5 37.7088 257.8C37.8692 257.708 38.1946 257.546 38.2001 257.542C39.2769 256.745 40.693 258.14 39.7081 259.138C37.9665 260.903 32.8163 262.957 30.0401 264.574C29.8424 264.69 28.6701 265.479 29.2332 264.992ZM39.9275 257.915C41.1479 261.015 33.5238 251.506 32.7753 250.324C32.6397 250.11 32.5459 249.893 32.5356 249.636C32.3985 246.227 39.0675 255.73 39.9275 257.915Z" fill="#B3B3B3"/>
<path d="M40.18 253.429C40.3827 253.271 40.1317 254.814 40.391 254.775C44.3239 254.176 33.7139 259.824 31.9452 260.886C31.8759 260.928 31.7415 261.003 31.7349 261.007C30.9128 261.525 29.7642 261.007 29.8194 259.964C29.9387 257.708 38.8708 254.446 40.18 253.429ZM29.9826 260.638C28.2491 257.302 37.5121 264.925 38.5406 268.714C39.2504 271.329 31.1557 262.895 29.9826 260.638ZM38.3676 269.728C38.3704 269.726 31.4304 261.415 31.9452 260.886C33.5571 259.23 37.6205 256.769 40.391 254.775C40.5411 254.667 47.7757 261.362 48.5318 261.977C48.5964 262.029 49.0665 261.74 48.1888 262.834C46.6368 264.767 41.7238 267.338 39.1276 269.231C38.9426 269.365 37.8572 270.271 38.3676 269.728ZM48.5318 261.977C49.5499 262.891 41.2565 255.874 40.391 254.775C40.2342 254.576 40.1188 254.37 40.0822 254.115C39.5973 250.738 46.7852 260.408 48.5318 261.977Z" fill="#B3B3B3"/>
</svg>
