<?xml version="1.0" encoding="UTF-8" standalone="no"?>
<svg width="336px" height="289px" viewBox="0 0 336 289" version="1.1" xmlns="http://www.w3.org/2000/svg" xmlns:xlink="http://www.w3.org/1999/xlink">
    <!-- Generator: Sketch Beta 40 (33734) - http://www.bohemiancoding.com/sketch -->
    <title>process-mobile</title>
    <desc>Created with Sketch Beta.</desc>
    <defs>
        <rect id="path-1" x="0" y="16.4375" width="137.554004" height="58.66875"></rect>
        <mask id="mask-2" maskContentUnits="userSpaceOnUse" maskUnits="objectBoundingBox" x="0" y="0" width="137.554004" height="58.66875" fill="white">
            <use xlink:href="#path-1"></use>
        </mask>
        <path d="M16.0592858,31.9701493 C24.9285844,31.9701493 32.1185716,24.8835519 32.1185716,16.141791 C32.1185716,7.40003019 24.9285844,0.313432836 16.0592858,0.313432836 C7.18998715,0.313432836 5.93523433e-14,7.40003019 5.93523433e-14,16.141791 C5.93523433e-14,24.8835519 7.18998715,31.9701493 16.0592858,31.9701493 Z M16.0592858,27.5820896 C22.4697689,27.5820896 27.6664923,22.4600934 27.6664923,16.141791 C27.6664923,9.82348865 22.4697689,4.70149254 16.0592858,4.70149254 C9.64880261,4.70149254 4.45207923,9.82348865 4.45207923,16.141791 C4.45207923,22.4600934 9.64880261,27.5820896 16.0592858,27.5820896 Z" id="path-3"></path>
        <filter x="-50%" y="-50%" width="200%" height="200%" filterUnits="objectBoundingBox" id="filter-4">
            <feOffset dx="2" dy="-1" in="SourceAlpha" result="shadowOffsetInner1"></feOffset>
            <feComposite in="shadowOffsetInner1" in2="SourceAlpha" operator="arithmetic" k2="-1" k3="1" result="shadowInnerInner1"></feComposite>
            <feColorMatrix values="0 0 0 0 0   0 0 0 0 0   0 0 0 0 0  0 0 0 0.163411458 0" type="matrix" in="shadowInnerInner1"></feColorMatrix>
        </filter>
        <rect id="path-5" x="14.6282603" y="32.5970149" width="2.86205093" height="3.44776119"></rect>
        <mask id="mask-6" maskContentUnits="userSpaceOnUse" maskUnits="objectBoundingBox" x="-1.9008" y="-1.9008" width="6.66365093" height="7.24936119">
            <rect x="12.7274603" y="30.6962149" width="6.66365093" height="7.24936119" fill="white"></rect>
            <use xlink:href="#path-5" fill="black"></use>
        </mask>
        <rect id="path-7" x="13.3562377" y="37.6119403" width="5.08809054" height="19.119403"></rect>
        <mask id="mask-8" maskContentUnits="userSpaceOnUse" maskUnits="objectBoundingBox" x="-1.9008" y="-1.9008" width="8.88969054" height="22.921003">
            <rect x="11.4554377" y="35.7111403" width="8.88969054" height="22.921003" fill="white"></rect>
            <use xlink:href="#path-7" fill="black"></use>
        </mask>
        <rect id="path-9" x="0" y="0" width="85.5256065" height="99.9"></rect>
        <rect id="path-11" x="0" y="0" width="58.5175202" height="95.4" rx="29.2587601"></rect>
        <mask id="mask-12" maskContentUnits="userSpaceOnUse" maskUnits="objectBoundingBox" x="0" y="0" width="58.5175202" height="95.4" fill="white">
            <use xlink:href="#path-11"></use>
        </mask>
        <rect id="path-13" x="3.60107817" y="74.7" width="52.2156334" height="51.3" rx="9.9"></rect>
        <mask id="mask-14" maskContentUnits="userSpaceOnUse" maskUnits="objectBoundingBox" x="0" y="0" width="52.2156334" height="51.3" fill="white">
            <use xlink:href="#path-13"></use>
        </mask>
        <path d="M24.3072776,62.1 L34.2102426,62.1 L34.2102426,74.7 C34.2102426,74.7 32.9653876,76.400015 29.2587601,76.400015 C25.5521327,76.400015 24.3072776,74.7 24.3072776,74.7 L24.3072776,62.1 Z" id="path-15"></path>
        <mask id="mask-16" maskContentUnits="userSpaceOnUse" maskUnits="objectBoundingBox" x="0" y="0" width="9.90296496" height="14.300015" fill="white">
            <use xlink:href="#path-15"></use>
        </mask>
        <path d="M25.4346938,7.5827421 L25.4315367,7.5827421 C15.8560598,7.5827421 8.10242588,15.3394088 8.10242588,24.9077421 C8.10242588,25.7481318 8.16220863,26.5744676 8.27775241,27.3827421 L50.2395523,27.3827421 C50.3552369,26.5743997 50.4150943,25.7480574 50.4150943,24.9077421 C50.4150943,15.3331247 42.6562713,7.5827421 33.0852779,7.5827421 L33.0821207,7.5827421" id="path-17"></path>
        <mask id="mask-18" maskContentUnits="userSpaceOnUse" maskUnits="objectBoundingBox" x="0" y="0" width="42.3126685" height="19.8" fill="white">
            <use xlink:href="#path-17"></use>
        </mask>
        <path d="M45.6348671,37.5144231 L53.6114386,37.5144231 C54.8242187,37.5144231 55.8167116,36.5264754 55.8167116,35.3077801 L55.8167116,2.20664294 C55.8167116,0.984136989 54.8293772,0 53.6114386,0 L2.20527301,0 C0.992492888,0 0,0.987947697 0,2.20664294 L0,35.3077801 C0,36.5302861 0.987334358,37.5144231 2.20527301,37.5144231 L27.4784862,37.5144231 L45.7324934,45.8304996 L45.6348671,37.5144231 Z" id="path-19"></path>
        <mask id="mask-20" maskContentUnits="userSpaceOnUse" maskUnits="objectBoundingBox" x="0" y="0" width="55.8167116" height="45.8091836" fill="white">
            <use xlink:href="#path-19"></use>
        </mask>
        <rect id="path-21" x="75" y="53.3" width="122.820659" height="83.4961165" rx="0.945"></rect>
        <mask id="mask-22" maskContentUnits="userSpaceOnUse" maskUnits="objectBoundingBox" x="0" y="0" width="122.820659" height="83.4961165" fill="white">
            <use xlink:href="#path-21"></use>
        </mask>
        <rect id="path-23" x="6.39679983e-15" y="1.91846539e-14" width="24.3115443" height="45.0815534" rx="2.52"></rect>
        <mask id="mask-24" maskContentUnits="userSpaceOnUse" maskUnits="objectBoundingBox" x="0" y="0" width="24.3115443" height="45.0815534" fill="white">
            <use xlink:href="#path-23"></use>
        </mask>
        <rect id="path-25" x="0" y="0" width="17.0496544" height="10.476699" rx="1.575"></rect>
        <mask id="mask-26" maskContentUnits="userSpaceOnUse" maskUnits="objectBoundingBox" x="0" y="0" width="17.0496544" height="10.476699" fill="white">
            <use xlink:href="#path-25"></use>
        </mask>
        <rect id="path-27" x="0" y="0" width="17.0496544" height="10.476699" rx="1.575"></rect>
        <mask id="mask-28" maskContentUnits="userSpaceOnUse" maskUnits="objectBoundingBox" x="0" y="0" width="17.0496544" height="10.476699" fill="white">
            <use xlink:href="#path-27"></use>
        </mask>
    </defs>
    <g id="Page-1" stroke="none" stroke-width="1" fill="none" fill-rule="evenodd">
        <path d="M156.289062,103.132812 C156.289062,105.018239 155.76563,106.45963 154.71875,107.457031 C153.67187,108.454432 152.164072,108.953125 150.195312,108.953125 L147,108.953125 L147,97.53125 L150.53125,97.53125 C152.348967,97.53125 153.763016,98.0208284 154.773438,99 C155.783859,99.9791716 156.289062,101.356762 156.289062,103.132812 L156.289062,103.132812 Z M154.320312,103.195312 C154.320312,100.460924 153.041679,99.09375 150.484375,99.09375 L148.867188,99.09375 L148.867188,107.382812 L150.195312,107.382812 C152.945326,107.382812 154.320312,105.986993 154.320312,103.195312 L154.320312,103.195312 Z M162.320312,109.109375 C160.976556,109.109375 159.925785,108.717452 159.167969,107.933594 C158.410152,107.149736 158.03125,106.070319 158.03125,104.695312 C158.03125,103.283847 158.382809,102.174483 159.085938,101.367188 C159.789066,100.559892 160.755202,100.15625 161.984375,100.15625 C163.125006,100.15625 164.026038,100.502601 164.6875,101.195312 C165.348962,101.888024 165.679688,102.84114 165.679688,104.054688 L165.679688,105.046875 L159.921875,105.046875 C159.947917,105.885421 160.174477,106.529946 160.601562,106.980469 C161.028648,107.430992 161.630204,107.65625 162.40625,107.65625 C162.916669,107.65625 163.391925,107.608073 163.832031,107.511719 C164.272138,107.415364 164.744789,107.255209 165.25,107.03125 L165.25,108.523438 C164.802081,108.73698 164.348961,108.88802 163.890625,108.976562 C163.432289,109.065105 162.908857,109.109375 162.320312,109.109375 L162.320312,109.109375 Z M161.984375,101.546875 C161.401039,101.546875 160.933596,101.731769 160.582031,102.101562 C160.230467,102.471356 160.020834,103.010413 159.953125,103.71875 L163.875,103.71875 C163.864583,103.005205 163.69271,102.464846 163.359375,102.097656 C163.02604,101.730467 162.567711,101.546875 161.984375,101.546875 L161.984375,101.546875 Z M173.570312,106.492188 C173.570312,107.335942 173.263024,107.983071 172.648438,108.433594 C172.033851,108.884117 171.153652,109.109375 170.007812,109.109375 C168.856765,109.109375 167.932295,108.934898 167.234375,108.585938 L167.234375,107 C168.250005,107.468752 169.195308,107.703125 170.070312,107.703125 C171.200526,107.703125 171.765625,107.361983 171.765625,106.679688 C171.765625,106.460936 171.703126,106.278647 171.578125,106.132812 C171.453124,105.986978 171.247397,105.835938 170.960938,105.679688 C170.674478,105.523437 170.276044,105.346355 169.765625,105.148438 C168.770828,104.763019 168.097658,104.377606 167.746094,103.992188 C167.394529,103.606769 167.21875,103.106774 167.21875,102.492188 C167.21875,101.7526 167.516924,101.178387 168.113281,100.769531 C168.709638,100.360675 169.520828,100.15625 170.546875,100.15625 C171.562505,100.15625 172.523433,100.361977 173.429688,100.773438 L172.835938,102.15625 C171.903641,101.770831 171.119795,101.578125 170.484375,101.578125 C169.51562,101.578125 169.03125,101.854164 169.03125,102.40625 C169.03125,102.677085 169.157551,102.906249 169.410156,103.09375 C169.662762,103.281251 170.213537,103.539061 171.0625,103.867188 C171.776045,104.143231 172.294269,104.395832 172.617188,104.625 C172.940106,104.854168 173.179687,105.118488 173.335938,105.417969 C173.492188,105.717449 173.570312,106.075519 173.570312,106.492188 L173.570312,106.492188 Z M177.390625,108.953125 L175.554688,108.953125 L175.554688,100.3125 L177.390625,100.3125 L177.390625,108.953125 Z M175.445312,98.0234375 C175.445312,97.6953109 175.535155,97.4427092 175.714844,97.265625 C175.894532,97.0885408 176.15104,97 176.484375,97 C176.807293,97 177.058593,97.0885408 177.238281,97.265625 C177.41797,97.4427092 177.507812,97.6953109 177.507812,98.0234375 C177.507812,98.3359391 177.41797,98.5820304 177.238281,98.7617188 C177.058593,98.9414071 176.807293,99.03125 176.484375,99.03125 C176.15104,99.03125 175.894532,98.9414071 175.714844,98.7617188 C175.535155,98.5820304 175.445312,98.3359391 175.445312,98.0234375 L175.445312,98.0234375 Z M187.3125,100.3125 L187.3125,101.320312 L185.835938,101.59375 C185.971355,101.776043 186.083333,101.999999 186.171875,102.265625 C186.260417,102.531251 186.304688,102.812499 186.304688,103.109375 C186.304688,104.000004 185.997399,104.700518 185.382812,105.210938 C184.768226,105.721357 183.92188,105.976562 182.84375,105.976562 C182.567707,105.976562 182.317709,105.955729 182.09375,105.914062 C181.697915,106.158855 181.5,106.445311 181.5,106.773438 C181.5,106.971355 181.592447,107.119791 181.777344,107.21875 C181.962241,107.317709 182.302081,107.367188 182.796875,107.367188 L184.304688,107.367188 C185.257817,107.367188 185.981768,107.57031 186.476562,107.976562 C186.971357,108.382815 187.21875,108.968746 187.21875,109.734375 C187.21875,110.713547 186.815108,111.468747 186.007812,112 C185.200517,112.531253 184.033862,112.796875 182.507812,112.796875 C181.330723,112.796875 180.432295,112.588544 179.8125,112.171875 C179.192705,111.755206 178.882812,111.161462 178.882812,110.390625 C178.882812,109.859372 179.05078,109.412762 179.386719,109.050781 C179.722658,108.6888 180.192705,108.437501 180.796875,108.296875 C180.552082,108.192708 180.350261,108.024741 180.191406,107.792969 C180.032551,107.561197 179.953125,107.31771 179.953125,107.0625 C179.953125,106.739582 180.04427,106.466147 180.226562,106.242188 C180.408855,106.018228 180.679686,105.796876 181.039062,105.578125 C180.591144,105.385416 180.227866,105.071617 179.949219,104.636719 C179.670572,104.201821 179.53125,103.692711 179.53125,103.109375 C179.53125,102.17187 179.82682,101.445315 180.417969,100.929688 C181.009118,100.41406 181.851557,100.15625 182.945312,100.15625 C183.190105,100.15625 183.446613,100.173177 183.714844,100.207031 C183.983074,100.240886 184.184895,100.276041 184.320312,100.3125 L187.3125,100.3125 Z M180.523438,110.296875 C180.523438,110.69271 180.701821,110.997395 181.058594,111.210938 C181.415366,111.42448 181.916663,111.53125 182.5625,111.53125 C183.562505,111.53125 184.307289,111.388022 184.796875,111.101562 C185.286461,110.815103 185.53125,110.434898 185.53125,109.960938 C185.53125,109.585936 185.397137,109.319011 185.128906,109.160156 C184.860676,109.001301 184.361983,108.921875 183.632812,108.921875 L182.242188,108.921875 C181.716143,108.921875 181.298179,109.045572 180.988281,109.292969 C180.678384,109.540366 180.523438,109.874998 180.523438,110.296875 L180.523438,110.296875 Z M181.3125,103.109375 C181.3125,103.651044 181.451822,104.067707 181.730469,104.359375 C182.009116,104.651043 182.408852,104.796875 182.929688,104.796875 C183.992193,104.796875 184.523438,104.229172 184.523438,103.09375 C184.523438,102.531247 184.391928,102.097658 184.128906,101.792969 C183.865884,101.48828 183.466149,101.335938 182.929688,101.335938 C182.398435,101.335938 181.996095,101.486978 181.722656,101.789062 C181.449217,102.091147 181.3125,102.531247 181.3125,103.109375 L181.3125,103.109375 Z M196.515625,108.953125 L194.671875,108.953125 L194.671875,103.640625 C194.671875,102.973955 194.537762,102.476564 194.269531,102.148438 C194.001301,101.820311 193.575524,101.65625 192.992188,101.65625 C192.216142,101.65625 191.648439,101.885414 191.289062,102.34375 C190.929686,102.802086 190.75,103.570307 190.75,104.648438 L190.75,108.953125 L188.914062,108.953125 L188.914062,100.3125 L190.351562,100.3125 L190.609375,101.445312 L190.703125,101.445312 C190.963543,101.033852 191.333331,100.716147 191.8125,100.492188 C192.291669,100.268228 192.822914,100.15625 193.40625,100.15625 C195.479177,100.15625 196.515625,101.210927 196.515625,103.320312 L196.515625,108.953125 Z" id="Design" fill="#000000"></path>
        <path d="M40.3049191,275.890625 L41.6017941,275.890625 C42.4715902,275.890625 43.1017922,275.729168 43.4924191,275.40625 C43.8830461,275.083332 44.0783566,274.60417 44.0783566,273.96875 C44.0783566,273.322913 43.8674212,272.859376 43.4455441,272.578125 C43.023667,272.296874 42.3882567,272.15625 41.5392941,272.15625 L40.3049191,272.15625 L40.3049191,275.890625 Z M40.3049191,277.4375 L40.3049191,282 L38.4377316,282 L38.4377316,270.578125 L41.6642941,270.578125 C43.1382598,270.578125 44.2293948,270.854164 44.9377316,271.40625 C45.6460685,271.958336 46.0002316,272.791661 46.0002316,273.90625 C46.0002316,275.328132 45.2606557,276.341143 43.7814816,276.945312 L47.0080441,282 L44.8830441,282 L42.1486691,277.4375 L40.3049191,277.4375 Z M52.2424191,282.15625 C50.8986624,282.15625 49.8478917,281.764327 49.0900754,280.980469 C48.3322591,280.196611 47.9533566,279.117194 47.9533566,277.742188 C47.9533566,276.330722 48.3049156,275.221358 49.0080441,274.414062 C49.7111727,273.606767 50.6773088,273.203125 51.9064816,273.203125 C53.0471123,273.203125 53.948145,273.549476 54.6096066,274.242188 C55.2710683,274.934899 55.6017941,275.888015 55.6017941,277.101562 L55.6017941,278.09375 L49.8439816,278.09375 C49.8700234,278.932296 50.0965837,279.576821 50.5236691,280.027344 C50.9507546,280.477867 51.5523111,280.703125 52.3283566,280.703125 C52.8387759,280.703125 53.3140315,280.654948 53.7541379,280.558594 C54.1942443,280.462239 54.6668958,280.302084 55.1721066,280.078125 L55.1721066,281.570312 C54.7241877,281.783855 54.2710673,281.934895 53.8127316,282.023438 C53.354396,282.11198 52.8309637,282.15625 52.2424191,282.15625 L52.2424191,282.15625 Z M51.9064816,274.59375 C51.3231454,274.59375 50.8557021,274.778644 50.5041379,275.148438 C50.1525736,275.518231 49.9429403,276.057288 49.8752316,276.765625 L53.7971066,276.765625 C53.7866899,276.05208 53.6148166,275.511721 53.2814816,275.144531 C52.9481466,274.777342 52.4898179,274.59375 51.9064816,274.59375 L51.9064816,274.59375 Z M63.4924191,279.539062 C63.4924191,280.382817 63.1851305,281.029946 62.5705441,281.480469 C61.9559577,281.930992 61.0757582,282.15625 59.9299191,282.15625 C58.7788717,282.15625 57.8544018,281.981773 57.1564816,281.632812 L57.1564816,280.046875 C58.1721117,280.515627 59.1174148,280.75 59.9924191,280.75 C61.1226331,280.75 61.6877316,280.408858 61.6877316,279.726562 C61.6877316,279.507811 61.6252323,279.325522 61.5002316,279.179688 C61.375231,279.033853 61.1695039,278.882813 60.8830441,278.726562 C60.5965844,278.570312 60.1981509,278.39323 59.6877316,278.195312 C58.692935,277.809894 58.0197646,277.424481 57.6682004,277.039062 C57.3166361,276.653644 57.1408566,276.153649 57.1408566,275.539062 C57.1408566,274.799475 57.4390307,274.225262 58.0353879,273.816406 C58.631745,273.40755 59.4429348,273.203125 60.4689816,273.203125 C61.4846117,273.203125 62.4455396,273.408852 63.3517941,273.820312 L62.7580441,275.203125 C61.8257478,274.817706 61.0419015,274.625 60.4064816,274.625 C59.4377268,274.625 58.9533566,274.901039 58.9533566,275.453125 C58.9533566,275.72396 59.0796575,275.953124 59.3322629,276.140625 C59.5848683,276.328126 60.1356441,276.585936 60.9846066,276.914062 C61.6981519,277.190106 62.2163759,277.442707 62.5392941,277.671875 C62.8622124,277.901043 63.1017934,278.165363 63.2580441,278.464844 C63.4142949,278.764324 63.4924191,279.122394 63.4924191,279.539062 L63.4924191,279.539062 Z M69.2502316,282.15625 C67.9064749,282.15625 66.8557042,281.764327 66.0978879,280.980469 C65.3400716,280.196611 64.9611691,279.117194 64.9611691,277.742188 C64.9611691,276.330722 65.3127281,275.221358 66.0158566,274.414062 C66.7189852,273.606767 67.6851213,273.203125 68.9142941,273.203125 C70.0549248,273.203125 70.9559575,273.549476 71.6174191,274.242188 C72.2788808,274.934899 72.6096066,275.888015 72.6096066,277.101562 L72.6096066,278.09375 L66.8517941,278.09375 C66.8778359,278.932296 67.1043962,279.576821 67.5314816,280.027344 C67.9585671,280.477867 68.5601236,280.703125 69.3361691,280.703125 C69.8465884,280.703125 70.321844,280.654948 70.7619504,280.558594 C71.2020568,280.462239 71.6747083,280.302084 72.1799191,280.078125 L72.1799191,281.570312 C71.7320002,281.783855 71.2788798,281.934895 70.8205441,282.023438 C70.3622085,282.11198 69.8387762,282.15625 69.2502316,282.15625 L69.2502316,282.15625 Z M68.9142941,274.59375 C68.3309579,274.59375 67.8635146,274.778644 67.5119504,275.148438 C67.1603861,275.518231 66.9507528,276.057288 66.8830441,276.765625 L70.8049191,276.765625 C70.7945024,276.05208 70.6226291,275.511721 70.2892941,275.144531 C69.9559591,274.777342 69.4976304,274.59375 68.9142941,274.59375 L68.9142941,274.59375 Z M80.1017941,282 L79.7346066,280.796875 L79.6721066,280.796875 C79.2554379,281.322919 78.8361712,281.680989 78.4142941,281.871094 C77.992417,282.061199 77.4507558,282.15625 76.7892941,282.15625 C75.9403316,282.15625 75.2775778,281.927086 74.8010129,281.46875 C74.324448,281.010414 74.0861691,280.361983 74.0861691,279.523438 C74.0861691,278.632808 74.416895,277.96094 75.0783566,277.507812 C75.7398183,277.054685 76.7476207,276.807292 78.1017941,276.765625 L79.5939816,276.71875 L79.5939816,276.257812 C79.5939816,275.705726 79.4650767,275.29297 79.2072629,275.019531 C78.9494491,274.746092 78.5497135,274.609375 78.0080441,274.609375 C77.5653336,274.609375 77.1408587,274.674479 76.7346066,274.804688 C76.3283546,274.934896 75.9377335,275.088541 75.5627316,275.265625 L74.9689816,273.953125 C75.437734,273.708332 75.9507497,273.522136 76.5080441,273.394531 C77.0653386,273.266926 77.591375,273.203125 78.0861691,273.203125 C79.185133,273.203125 80.0145518,273.442706 80.5744504,273.921875 C81.134349,274.401044 81.4142941,275.153641 81.4142941,276.179688 L81.4142941,282 L80.1017941,282 Z M77.3674191,280.75 C78.0340891,280.75 78.56924,280.563804 78.9728879,280.191406 C79.3765357,279.819009 79.5783566,279.296878 79.5783566,278.625 L79.5783566,277.875 L78.4689816,277.921875 C77.604394,277.953125 76.975494,278.097655 76.5822629,278.355469 C76.1890318,278.613283 75.9924191,279.00781 75.9924191,279.539062 C75.9924191,279.924481 76.1070013,280.222655 76.3361691,280.433594 C76.5653369,280.644532 76.9090835,280.75 77.3674191,280.75 L77.3674191,280.75 Z M88.3596066,273.203125 C88.7294002,273.203125 89.0340846,273.229166 89.2736691,273.28125 L89.0939816,274.992188 C88.8335637,274.929687 88.562733,274.898438 88.2814816,274.898438 C87.547103,274.898438 86.9520568,275.138018 86.4963254,275.617188 C86.0405939,276.096357 85.8127316,276.718746 85.8127316,277.484375 L85.8127316,282 L83.9767941,282 L83.9767941,273.359375 L85.4142941,273.359375 L85.6564816,274.882812 L85.7502316,274.882812 C86.0366914,274.367185 86.4103856,273.958335 86.8713254,273.65625 C87.3322652,273.354165 87.828354,273.203125 88.3596066,273.203125 L88.3596066,273.203125 Z M94.0392941,282.15625 C92.7319959,282.15625 91.7385163,281.774743 91.0588254,281.011719 C90.3791345,280.248694 90.0392941,279.153653 90.0392941,277.726562 C90.0392941,276.27343 90.3947593,275.156254 91.1057004,274.375 C91.8166414,273.593746 92.8439749,273.203125 94.1877316,273.203125 C95.0991945,273.203125 95.9194988,273.372394 96.6486691,273.710938 L96.0939816,275.1875 C95.3179361,274.885415 94.6773175,274.734375 94.1721066,274.734375 C92.6773075,274.734375 91.9299191,275.726553 91.9299191,277.710938 C91.9299191,278.679692 92.1161152,279.40755 92.4885129,279.894531 C92.8609106,280.381513 93.406478,280.625 94.1252316,280.625 C94.9429441,280.625 95.7163738,280.421877 96.4455441,280.015625 L96.4455441,281.617188 C96.1174175,281.809897 95.7671606,281.947916 95.3947629,282.03125 C95.0223652,282.114584 94.5705468,282.15625 94.0392941,282.15625 L94.0392941,282.15625 Z M106.078357,282 L104.234607,282 L104.234607,276.6875 C104.234607,276.02083 104.100493,275.523439 103.832263,275.195312 C103.564032,274.867186 103.138255,274.703125 102.554919,274.703125 C101.784082,274.703125 101.217681,274.933591 100.8557,275.394531 C100.493719,275.855471 100.312732,276.627599 100.312732,277.710938 L100.312732,282 L98.4767941,282 L98.4767941,269.84375 L100.312732,269.84375 L100.312732,272.929688 C100.312732,273.424482 100.281482,273.953122 100.218982,274.515625 L100.336169,274.515625 C100.58617,274.098956 100.933823,273.776043 101.379138,273.546875 C101.824453,273.317707 102.343979,273.203125 102.937732,273.203125 C105.031492,273.203125 106.078357,274.257802 106.078357,276.367188 L106.078357,282 Z" id="Research" fill="#000000"></path>
        <path d="M247.015625,269.734375 L248.953125,269.734375 L244.953125,281.15625 L242.984375,281.15625 L239,269.734375 L240.921875,269.734375 L243.304688,276.835938 C243.429688,277.174481 243.562499,277.610674 243.703125,278.144531 C243.843751,278.678388 243.934896,279.07552 243.976562,279.335938 C244.044271,278.940102 244.148437,278.481773 244.289062,277.960938 C244.429688,277.440102 244.54427,277.054689 244.632812,276.804688 L247.015625,269.734375 Z M255.351562,281.15625 L254.984375,279.953125 L254.921875,279.953125 C254.505206,280.479169 254.08594,280.837239 253.664062,281.027344 C253.242185,281.217449 252.700524,281.3125 252.039062,281.3125 C251.1901,281.3125 250.527346,281.083336 250.050781,280.625 C249.574216,280.166664 249.335938,279.518233 249.335938,278.679688 C249.335938,277.789058 249.666663,277.11719 250.328125,276.664062 C250.989587,276.210935 251.997389,275.963542 253.351562,275.921875 L254.84375,275.875 L254.84375,275.414062 C254.84375,274.861976 254.714845,274.44922 254.457031,274.175781 C254.199217,273.902342 253.799482,273.765625 253.257812,273.765625 C252.815102,273.765625 252.390627,273.830729 251.984375,273.960938 C251.578123,274.091146 251.187502,274.244791 250.8125,274.421875 L250.21875,273.109375 C250.687502,272.864582 251.200518,272.678386 251.757812,272.550781 C252.315107,272.423176 252.841143,272.359375 253.335938,272.359375 C254.434901,272.359375 255.26432,272.598956 255.824219,273.078125 C256.384117,273.557294 256.664062,274.309891 256.664062,275.335938 L256.664062,281.15625 L255.351562,281.15625 Z M252.617188,279.90625 C253.283858,279.90625 253.819008,279.720054 254.222656,279.347656 C254.626304,278.975259 254.828125,278.453128 254.828125,277.78125 L254.828125,277.03125 L253.71875,277.078125 C252.854162,277.109375 252.225262,277.253905 251.832031,277.511719 C251.4388,277.769533 251.242188,278.16406 251.242188,278.695312 C251.242188,279.080731 251.35677,279.378905 251.585938,279.589844 C251.815105,279.800782 252.158852,279.90625 252.617188,279.90625 L252.617188,279.90625 Z M261.0625,281.15625 L259.226562,281.15625 L259.226562,269 L261.0625,269 L261.0625,281.15625 Z M265.523438,281.15625 L263.6875,281.15625 L263.6875,272.515625 L265.523438,272.515625 L265.523438,281.15625 Z M263.578125,270.226562 C263.578125,269.898436 263.667968,269.645834 263.847656,269.46875 C264.027345,269.291666 264.283853,269.203125 264.617188,269.203125 C264.940106,269.203125 265.191405,269.291666 265.371094,269.46875 C265.550782,269.645834 265.640625,269.898436 265.640625,270.226562 C265.640625,270.539064 265.550782,270.785155 265.371094,270.964844 C265.191405,271.144532 264.940106,271.234375 264.617188,271.234375 C264.283853,271.234375 264.027345,271.144532 263.847656,270.964844 C263.667968,270.785155 263.578125,270.539064 263.578125,270.226562 L263.578125,270.226562 Z M271.0625,281.3125 C269.98437,281.3125 269.143232,280.921879 268.539062,280.140625 C267.934893,279.359371 267.632812,278.263028 267.632812,276.851562 C267.632812,275.434889 267.938799,274.332035 268.550781,273.542969 C269.162763,272.753902 270.010411,272.359375 271.09375,272.359375 C272.229172,272.359375 273.093747,272.778642 273.6875,273.617188 L273.78125,273.617188 C273.692708,272.997393 273.648438,272.507814 273.648438,272.148438 L273.648438,269 L275.492188,269 L275.492188,281.15625 L274.054688,281.15625 L273.734375,280.023438 L273.648438,280.023438 C273.059893,280.882817 272.197922,281.3125 271.0625,281.3125 L271.0625,281.3125 Z M271.554688,279.828125 C272.3099,279.828125 272.859373,279.615888 273.203125,279.191406 C273.546877,278.766925 273.723958,278.07813 273.734375,277.125 L273.734375,276.867188 C273.734375,275.77864 273.557293,275.005211 273.203125,274.546875 C272.848957,274.088539 272.294275,273.859375 271.539062,273.859375 C270.893226,273.859375 270.395835,274.121091 270.046875,274.644531 C269.697915,275.167971 269.523438,275.914058 269.523438,276.882812 C269.523438,277.841151 269.692707,278.571612 270.03125,279.074219 C270.369793,279.576825 270.877601,279.828125 271.554688,279.828125 L271.554688,279.828125 Z M283.523438,281.15625 L283.15625,279.953125 L283.09375,279.953125 C282.677081,280.479169 282.257815,280.837239 281.835938,281.027344 C281.41406,281.217449 280.872399,281.3125 280.210938,281.3125 C279.361975,281.3125 278.699221,281.083336 278.222656,280.625 C277.746091,280.166664 277.507812,279.518233 277.507812,278.679688 C277.507812,277.789058 277.838538,277.11719 278.5,276.664062 C279.161462,276.210935 280.169264,275.963542 281.523438,275.921875 L283.015625,275.875 L283.015625,275.414062 C283.015625,274.861976 282.88672,274.44922 282.628906,274.175781 C282.371092,273.902342 281.971357,273.765625 281.429688,273.765625 C280.986977,273.765625 280.562502,273.830729 280.15625,273.960938 C279.749998,274.091146 279.359377,274.244791 278.984375,274.421875 L278.390625,273.109375 C278.859377,272.864582 279.372393,272.678386 279.929688,272.550781 C280.486982,272.423176 281.013018,272.359375 281.507812,272.359375 C282.606776,272.359375 283.436195,272.598956 283.996094,273.078125 C284.555992,273.557294 284.835938,274.309891 284.835938,275.335938 L284.835938,281.15625 L283.523438,281.15625 Z M280.789062,279.90625 C281.455733,279.90625 281.990883,279.720054 282.394531,279.347656 C282.798179,278.975259 283,278.453128 283,277.78125 L283,277.03125 L281.890625,277.078125 C281.026037,277.109375 280.397137,277.253905 280.003906,277.511719 C279.610675,277.769533 279.414062,278.16406 279.414062,278.695312 C279.414062,279.080731 279.528645,279.378905 279.757812,279.589844 C279.98698,279.800782 280.330727,279.90625 280.789062,279.90625 L280.789062,279.90625 Z M290.617188,279.828125 C291.065106,279.828125 291.513019,279.757813 291.960938,279.617188 L291.960938,281 C291.757811,281.088542 291.496095,281.16276 291.175781,281.222656 C290.855467,281.282552 290.523439,281.3125 290.179688,281.3125 C288.440095,281.3125 287.570312,280.395843 287.570312,278.5625 L287.570312,273.90625 L286.390625,273.90625 L286.390625,273.09375 L287.65625,272.421875 L288.28125,270.59375 L289.414062,270.59375 L289.414062,272.515625 L291.875,272.515625 L291.875,273.90625 L289.414062,273.90625 L289.414062,278.53125 C289.414062,278.973961 289.524738,279.30078 289.746094,279.511719 C289.967449,279.722657 290.257811,279.828125 290.617188,279.828125 L290.617188,279.828125 Z M295.523438,281.15625 L293.6875,281.15625 L293.6875,272.515625 L295.523438,272.515625 L295.523438,281.15625 Z M293.578125,270.226562 C293.578125,269.898436 293.667968,269.645834 293.847656,269.46875 C294.027345,269.291666 294.283853,269.203125 294.617188,269.203125 C294.940106,269.203125 295.191405,269.291666 295.371094,269.46875 C295.550782,269.645834 295.640625,269.898436 295.640625,270.226562 C295.640625,270.539064 295.550782,270.785155 295.371094,270.964844 C295.191405,271.144532 294.940106,271.234375 294.617188,271.234375 C294.283853,271.234375 294.027345,271.144532 293.847656,270.964844 C293.667968,270.785155 293.578125,270.539064 293.578125,270.226562 L293.578125,270.226562 Z M305.8125,276.820312 C305.8125,278.231778 305.450524,279.333329 304.726562,280.125 C304.002601,280.916671 302.994798,281.3125 301.703125,281.3125 C300.895829,281.3125 300.182295,281.13021 299.5625,280.765625 C298.942705,280.40104 298.466148,279.877608 298.132812,279.195312 C297.799477,278.513017 297.632812,277.721359 297.632812,276.820312 C297.632812,275.419264 297.992184,274.325525 298.710938,273.539062 C299.429691,272.7526 300.442702,272.359375 301.75,272.359375 C303.000006,272.359375 303.98958,272.761715 304.71875,273.566406 C305.44792,274.371098 305.8125,275.455722 305.8125,276.820312 L305.8125,276.820312 Z M299.523438,276.820312 C299.523438,278.815114 300.260409,279.8125 301.734375,279.8125 C303.192716,279.8125 303.921875,278.815114 303.921875,276.820312 C303.921875,274.846344 303.187507,273.859375 301.71875,273.859375 C300.947913,273.859375 300.389325,274.114581 300.042969,274.625 C299.696613,275.135419 299.523438,275.867183 299.523438,276.820312 L299.523438,276.820312 Z M315.523438,281.15625 L313.679688,281.15625 L313.679688,275.84375 C313.679688,275.17708 313.545574,274.679689 313.277344,274.351562 C313.009113,274.023436 312.583336,273.859375 312,273.859375 C311.223954,273.859375 310.656252,274.088539 310.296875,274.546875 C309.937498,275.005211 309.757812,275.773432 309.757812,276.851562 L309.757812,281.15625 L307.921875,281.15625 L307.921875,272.515625 L309.359375,272.515625 L309.617188,273.648438 L309.710938,273.648438 C309.971355,273.236977 310.341143,272.919272 310.820312,272.695312 C311.299482,272.471353 311.830726,272.359375 312.414062,272.359375 C314.48699,272.359375 315.523438,273.414052 315.523438,275.523438 L315.523438,281.15625 Z" id="Validation" fill="#000000"></path>
        <path d="M94.2264452,152.952282 C98.6854122,152.2301 103.961171,150.906419 103.961171,150.906419 C103.961171,150.906419 102.543985,142.525891 109.10722,135.407418 C111.604473,137.604779 114.138969,139.357275 114.138969,139.357275 L113.280438,123 L96.7461725,124.946362 L101.556386,129.247361 C101.556386,129.247361 92.6159773,139.693652 94.2264452,152.952282 Z" id="Path-205" stroke="#3C3C3C" stroke-width="2" fill="#FFFFFF" transform="translate(104.085657, 137.976141) rotate(-8.000000) translate(-104.085657, -137.976141) "></path>
        <path d="M226.358521,152.952282 C230.817488,152.2301 236.093247,150.906419 236.093247,150.906419 C236.093247,150.906419 234.67606,142.525891 241.239295,135.407418 C243.736548,137.604779 246.271044,139.357275 246.271044,139.357275 L245.412514,123 L228.878248,124.946362 L233.688461,129.247361 C233.688461,129.247361 224.748053,139.693652 226.358521,152.952282 Z" id="Path-205-Copy" stroke="#3C3C3C" stroke-width="2" fill="#FFFFFF" transform="translate(236.217732, 137.976141) rotate(-226.000000) translate(-236.217732, -137.976141) "></path>
        <path d="M163.142887,240.852282 C167.601854,240.1301 172.877613,238.806419 172.877613,238.806419 C172.877613,238.806419 171.460427,230.425891 178.023662,223.307418 C180.520915,225.504779 183.055411,227.257275 183.055411,227.257275 L182.19688,210.9 L165.662615,212.846362 L170.472828,217.147361 C170.472828,217.147361 161.532419,227.593652 163.142887,240.852282 Z" id="Path-205-Copy-2" stroke="#3C3C3C" stroke-width="2" fill="#FFFFFF" transform="translate(173.002099, 225.876141) rotate(-120.000000) translate(-173.002099, -225.876141) "></path>
        <g id="Research-+-Group-Copy-3" transform="translate(1.000000, 179.876141)">
            <g id="Group">
                <use id="Rectangle-63-Copy" stroke="#474747" mask="url(#mask-2)" stroke-width="4.752" fill="#FB624F" xlink:href="#path-1"></use>
                <rect id="Rectangle-63" stroke="#474747" stroke-width="2.376" fill="#EBD6AC" x="6.50400621" y="11.721875" width="124.148437" height="57.075"></rect>
                <path d="M6.46787206,2.99022262 C6.46452602,1.89949119 7.34232243,0.968877891 8.44379514,0.915430397 C8.44379514,0.915430397 62.347743,-2.16155093 68.8894081,6.39859799 C75.6717672,-2.18850489 128.974404,1.18931078 128.974404,1.18931078 C130.066438,1.25100709 130.947172,2.18816123 130.941551,3.28822509 L130.66183,58.0289962 C130.656222,59.1264982 129.759551,59.9641715 128.677566,59.9060859 C128.677566,59.9060859 76.8815143,56.6296686 68.5,65.513263 C59.5108327,56.5532988 8.61494898,59.2777544 8.61494898,59.2777544 C7.52466942,59.3277254 6.63808302,58.4749998 6.63476465,57.3932908 L6.46787206,2.99022262 Z" id="Rectangle-62" stroke="#474747" stroke-width="2.376" fill="#FFECC7"></path>
                <path d="M59.2380283,3.5 C66.9497368,4.31809613 68.019769,6.98468328 68.019769,6.98468328 L67.5662167,63.7968826 L59.2380283,59.3 C59.2380283,59.3 57.6168852,38.3693331 59.2380283,3.5 Z" id="Rectangle-102" fill-opacity="0.0700000003" fill="#000000"></path>
                <path d="M70.1432895,3.5 C78.794229,4.31809613 80.1239892,7.01927209 80.1239892,7.01927209 L79.7145997,63.2622528 L70.1432896,60.37286 C70.1432896,60.37286 68.3247028,38.3693331 70.1432895,3.5 Z" id="Rectangle-102-Copy" fill-opacity="0.0700000003" fill="#000000" transform="translate(74.729509, 33.381126) scale(-1, 1) translate(-74.729509, -33.381126) "></path>
                <path d="M68.7770021,6.99955523 L68.7770022,62.9014299" id="Line" stroke="#474747" stroke-width="2.376" stroke-linecap="square"></path>
                <g transform="translate(12.721758, 10.812500)" stroke="#474747" stroke-width="1.584" stroke-linecap="square">
                    <path d="M23.1987775,0 C23.1987775,0 28.0463687,-5.31702153e-17 38.3642423,0 C45.1513809,0.135768448 48.682116,2.04013957 48.682116,2.04013957" id="Line"></path>
                    <path d="M23.1987775,5.5125 C23.1987775,5.5125 28.0463687,5.5125 38.3642423,5.5125 C45.1513809,5.64826845 48.682116,7.55263957 48.682116,7.55263957" id="Line-Copy-17"></path>
                    <path d="M23.1987775,11.025 C23.1987775,11.025 28.0463687,11.025 38.3642423,11.025 C45.1513809,11.1607684 48.682116,13.0651396 48.682116,13.0651396" id="Line-Copy-23"></path>
                    <path d="M23.1987775,16.5375 C23.1987775,16.5375 28.0463687,16.5375 38.3642423,16.5375 C45.1513809,16.6732684 48.682116,18.5776396 48.682116,18.5776396" id="Line-Copy-24"></path>
                    <path d="M0.198777463,22.05 C0.198777463,22.05 28.0463687,22.05 38.3642423,22.05 C45.1513809,22.1857684 48.682116,24.0901396 48.682116,24.0901396" id="Line-Copy-25"></path>
                    <path d="M0.198777463,27.5625 C0.198777463,27.5625 28.0463687,27.5625 38.3642423,27.5625 C45.1513809,27.6982684 48.682116,29.6026396 48.682116,29.6026396" id="Line-Copy-26"></path>
                    <path d="M0.198777463,33.075 C0.198777463,33.075 28.0463687,33.075 38.3642423,33.075 C45.1513809,33.2107684 48.682116,35.1151396 48.682116,35.1151396" id="Line-Copy-27"></path>
                    <path d="M0.198777463,38.5875 C0.198777463,38.5875 28.0463687,38.5875 38.3642423,38.5875 C45.1513809,38.7232684 48.682116,40.6276396 48.682116,40.6276396" id="Line-Copy-29"></path>
                </g>
                <g transform="translate(99.587509, 30.893750) scale(-1, 1) translate(-99.587509, -30.893750) translate(75.137881, 10.418750)" stroke="#474747" stroke-width="1.584" stroke-linecap="square">
                    <path d="M0.198777463,0 C0.198777463,0 28.0463687,-5.31702153e-17 38.3642423,0 C45.1513809,0.135768448 48.682116,2.04013957 48.682116,2.04013957" id="Line-Copy-36"></path>
                    <path d="M0.198777463,5.5125 C0.198777463,5.5125 28.0463687,5.5125 38.3642423,5.5125 C45.1513809,5.64826845 48.682116,7.55263957 48.682116,7.55263957" id="Line-Copy-28"></path>
                    <path d="M0.198777463,11.025 C0.198777463,11.025 28.0463687,11.025 38.3642423,11.025 C45.1513809,11.1607684 48.682116,13.0651396 48.682116,13.0651396" id="Line-Copy-30"></path>
                    <path d="M0.198777463,16.5375 C0.198777463,16.5375 28.0463687,16.5375 38.3642423,16.5375 C45.1513809,16.6732684 48.682116,18.5776396 48.682116,18.5776396" id="Line-Copy-31"></path>
                    <path d="M0.198777463,22.05 C0.198777463,22.05 28.0463687,22.05 38.3642423,22.05 C45.1513809,22.1857684 48.682116,24.0901396 48.682116,24.0901396" id="Line-Copy-32"></path>
                    <path d="M0.198777463,27.5625 C0.198777463,27.5625 28.0463687,27.5625 38.3642423,27.5625 C45.1513809,27.6982684 48.682116,29.6026396 48.682116,29.6026396" id="Line-Copy-33"></path>
                    <path d="M0.198777463,33.075 C0.198777463,33.075 28.0463687,33.075 38.3642423,33.075 C45.1513809,33.2107684 48.682116,35.1151396 48.682116,35.1151396" id="Line-Copy-34"></path>
                    <path d="M0.198777463,38.5875 C0.198777463,38.5875 28.0463687,38.5875 38.3642423,38.5875 C45.1513809,38.7232684 48.682116,40.6276396 48.682116,40.6276396" id="Line-Copy-35"></path>
                </g>
                <g id="Rectangle-65-+-Oval-6" transform="translate(11.926648, 9.879445)">
                    <rect id="Rectangle-65" stroke="#474747" stroke-width="1.584" x="0.961584099" y="0" width="17.1594682" height="17.845"></rect>
                    <path d="M10.6289691,9.9154093 C11.8620079,9.33761883 12.7374635,7.87631462 12.7374635,6.16491525 C12.7374635,3.94753879 11.2678258,2.15 9.45493592,2.15 C7.64204599,2.15 6.17240833,3.94753879 6.17240833,6.16491525 C6.17240833,7.8878526 7.05970811,9.35731121 8.3058902,9.92697474 C5.03080362,10.575639 2.54435153,13.7574987 2.54435153,17.585 C6.62696919,17.5783509 13.1992001,17.585 16.5382849,17.585 C16.2486183,14.2218565 13.9249837,10.5856494 10.6289691,9.9154093 Z" id="Oval-6" fill="#474747"></path>
                </g>
                <g id="Rectangle-68-+-Oval-8-+-Rectangle-66-+-Rectangle-66-Copy-+-Oval-8-Copy-2" transform="translate(25.207547, 27.800000)">
                    <g id="Oval-8-+-Rectangle-66-+-Rectangle-66-Copy" transform="translate(32.305453, 31.870809) rotate(-45.000000) translate(-32.305453, -31.870809) translate(16.100601, 3.070809)">
                        <ellipse id="Oval-10" stroke="#979797" stroke-width="0.5" fill="#FFECC6" cx="15.5783998" cy="15.7161918" rx="14.3102547" ry="14.1044776"></ellipse>
                        <g id="Oval-8">
                            <use fill="#EBF3F7" fill-rule="evenodd" xlink:href="#path-3"></use>
                            <use fill="black" fill-opacity="1" filter="url(#filter-4)" xlink:href="#path-3"></use>
                            <use stroke="#474747" stroke-width="1.9008" xlink:href="#path-3"></use>
                        </g>
                        <g id="Rectangle-66">
                            <use fill="#C9DEE8" fill-rule="evenodd" xlink:href="#path-5"></use>
                            <use stroke="#474747" mask="url(#mask-6)" stroke-width="3.8016" xlink:href="#path-5"></use>
                        </g>
                        <g id="Rectangle-66-Copy">
                            <use fill="#636363" fill-rule="evenodd" xlink:href="#path-7"></use>
                            <use stroke="#474747" mask="url(#mask-8)" stroke-width="3.8016" xlink:href="#path-7"></use>
                        </g>
                    </g>
                    <path d="M14.3102547,28.3875213 C15.0478572,29.1030489 15.9281567,29.6831564 16.9069013,30.0854329 M20.1265912,30.7164179 C24.642023,30.7164179 28.3025037,27.2082014 28.3025037,22.880597" id="Oval-8-Copy-2" stroke="#474747" stroke-width="1.52064" stroke-linecap="round" transform="translate(21.306379, 26.798507) rotate(-315.000000) translate(-21.306379, -26.798507) "></path>
                </g>
            </g>
        </g>
        <g id="Validation-+-Group-Copy-3-+-Rectangle-75-+-Group-Copy-4-+-Group-Copy-3-Copy-Copy-Copy" transform="translate(206.000000, 159.000000)">
            <g id="Group-Copy-3-+-Rectangle-75-+-Group-Copy-4-+-Group-Copy-3" transform="translate(64.137466, 50.000000) scale(-1, 1) translate(-64.137466, -50.000000) translate(0.137466, 0.000000)">
                <g id="Group-Copy-3-+-Rectangle-75-+-Group-Copy-4" transform="translate(41.611860, 0.000000)">
                    <g id="Rectangle-75-+-Group-Copy-4">
                        <mask id="mask-10" fill="white">
                            <use xlink:href="#path-9"></use>
                        </mask>
                        <g id="Mask"></g>
                        <g id="Group-Copy-4" mask="url(#mask-10)">
                            <g transform="translate(18.005391, 8.100000)">
                                <use id="Rectangle-71" stroke="#755301" mask="url(#mask-12)" stroke-width="5.4" fill="#C2A258" fill-rule="evenodd" xlink:href="#path-11"></use>
                                <use id="Rectangle-74" stroke="#3A3A3A" mask="url(#mask-14)" stroke-width="3.6" fill="#7ABD86" fill-rule="evenodd" xlink:href="#path-13"></use>
                                <path d="M16.2048518,90.45 L16.2048518,124.661841" id="Line" stroke="#3A3A3A" stroke-width="1.8" stroke-linecap="square" fill="none"></path>
                                <path d="M42.3126685,90.45 L42.3126685,124.661841" id="Line-Copy-44" stroke="#3A3A3A" stroke-width="1.8" stroke-linecap="square" fill="none"></path>
                                <path d="M44.9722406,76.6125 C43.054741,78.6241276 36.7458395,80.1 29.2587601,80.1 C21.7716807,80.1 15.4627792,78.6241276 13.5452796,76.6125 C15.4627792,74.6008724 21.7716807,73.125 29.2587601,73.125 C36.7458395,73.125 43.054741,74.6008724 44.9722406,76.6125 Z" id="Oval-18" stroke="#3A3A3A" stroke-width="1.8" fill="#FBECCB" fill-rule="evenodd"></path>
                                <use id="Rectangle-73" stroke="#8A6D2E" mask="url(#mask-16)" stroke-width="3.6" fill="#FBECCB" fill-rule="evenodd" xlink:href="#path-15"></use>
                                <path d="M29.2587601,69.3 C41.5395728,69.0304161 50.1532414,51.4199139 50.4150943,39.6 C50.4150943,23.1971429 50.4150943,9.9 29.2587601,9.9 C8.10242588,9.9 8.10242588,23.1971429 8.10242588,39.6 C8.54110216,50.9694037 16.779978,69.0304161 29.2587601,69.3 Z" id="Oval-14" stroke="#8A6D2E" stroke-width="1.8" fill="#FBECCB" fill-rule="evenodd"></path>
                                <path d="M29.25876,60.7814121 C35.2925112,60.7814121 34.9960103,53.6649639 34.2298147,52.2 C33.6440054,51.0799341 30.8842943,52.2 29.2587601,52.2 C27.5843768,52.2 24.4448584,51.5048504 23.8685156,52.2 C23.0503824,53.1867825 23.2250088,60.7814121 29.25876,60.7814121 Z" id="Oval-15" stroke="none" fill="#4D4D4D" fill-rule="evenodd"></path>
                                <path d="M24.6942953,58.2150119 C24.6942953,58.2150119 28.8346588,63.0574456 33.8232249,57.9827421" id="Path-100" stroke="#4D4D4D" stroke-width="0.9" fill="#FBB6B6" fill-rule="evenodd" transform="translate(29.258760, 59.141371) rotate(2.000000) translate(-29.258760, -59.141371) "></path>
                                <path d="M26.04798,42.8248006 C26.04798,42.8248006 28.9604346,45.7864811 32.4695402,42.6827421" id="Path-100-Copy-3" stroke="#4D4D4D" stroke-width="1.8" fill="none"></path>
                                <path d="M13,31.2322698 C13,31.2322698 17.599976,36.0747035 23.1423117,31" id="Path-100-Copy-4" stroke="#4D4D4D" stroke-width="1.8" fill="none" transform="translate(18.071156, 32.158629) rotate(-180.000000) translate(-18.071156, -32.158629) "></path>
                                <path d="M35,31.2322698 C35,31.2322698 39.599976,36.0747035 45.1423117,31" id="Path-100-Copy-5" stroke="#4D4D4D" stroke-width="1.8" fill="none" transform="translate(40.071156, 32.158629) rotate(-180.000000) translate(-40.071156, -32.158629) "></path>
                                <path d="M24.1876042,49.7967802 C24.1876042,49.7967802 26.5423946,54.0876735 29.2587602,51.2023278 C31.7150323,53.0152047 32.4226423,52.0940634 34.329916,49.4443616" id="Path-100-Copy-2" stroke="#4D4D4D" stroke-width="0.9" fill="#FBB6B6" fill-rule="evenodd" transform="translate(29.258760, 50.822181) rotate(-180.000000) translate(-29.258760, -50.822181) "></path>
                                <path d="M21.0964975,50.9636373 C21.0964975,50.9636373 28.5003741,54.7349964 37.4210227,50.7827421" id="Path-100-Copy" stroke="#4D4D4D" stroke-width="1.8" fill="none"></path>
                                <ellipse id="Oval-16" stroke="none" fill="#4D4D4D" fill-rule="evenodd" cx="18.8005391" cy="35.8" rx="1.80053908" ry="1.8"></ellipse>
                                <ellipse id="Oval-16-Copy" stroke="none" fill="#4D4D4D" fill-rule="evenodd" cx="39.8005391" cy="35.8" rx="1.80053908" ry="1.8"></ellipse>
                                <use id="Rectangle-71" stroke="#755201" mask="url(#mask-18)" stroke-width="3.6" fill="#C2A258" fill-rule="evenodd" xlink:href="#path-17"></use>
                                <path d="M14.3078938,26.55 C14.3078938,26.55 13.0777905,22.785509 15.583011,18.756539 C18.0312611,14.3447193 22.0566038,14.3447193 22.0566038,14.3447193" id="Line" stroke="#755301" stroke-width="1.8" stroke-linecap="square" fill="none"></path>
                                <path d="M35.9143628,26.55 C35.9143628,26.55 34.6842595,22.785509 37.18948,18.756539 C39.6377301,14.3447193 43.6630728,14.3447193 43.6630728,14.3447193" id="Line-Copy-43" stroke="#755301" stroke-width="1.8" stroke-linecap="square" fill="none" transform="translate(39.637730, 20.447360) scale(-1, 1) translate(-39.637730, -20.447360) "></path>
                                <rect id="Rectangle-72" stroke="none" fill="#C2A258" fill-rule="evenodd" x="18.9056604" y="5.4" width="20.7061995" height="11.7"></rect>
                            </g>
                        </g>
                    </g>
                </g>
                <g id="Group-Copy-9" transform="translate(0.000000, 10.050000)">
                    <path d="M45.6348671,40.5144231 L53.6114386,40.5144231 C54.8242187,40.5144231 55.8167116,39.5264754 55.8167116,38.3077801 L55.8167116,5.20664294 C55.8167116,3.98413699 54.8293772,3 53.6114386,3 L2.20527301,3 C0.992492888,3 0,3.9879477 0,5.20664294 L0,38.3077801 C0,39.5302861 0.987334358,40.5144231 2.20527301,40.5144231 L27.4784862,40.5144231 L45.7324934,48.8304996 L45.6348671,40.5144231 Z" id="Rectangle-68" fill="#4D4D4D"></path>
                    <g id="Group-Copy-3" transform="translate(2.000000, 0.750000)">
                        <use id="Rectangle-68" stroke="#000000" mask="url(#mask-20)" stroke-width="3.6" fill="#FFFFFF" xlink:href="#path-19"></use>
                        <path d="M7.30933128,6.95958904 L48.2858854,6.95958904" id="Line" stroke="#474747" stroke-width="1.89" stroke-linecap="square"></path>
                        <path d="M7.30933128,12.989726 L48.2858854,12.989726" id="Line-Copy-39" stroke="#474747" stroke-width="1.89" stroke-linecap="square"></path>
                        <path d="M7.30933128,18.6486301 L48.2858854,18.6486301" id="Line-Copy-40" stroke="#474747" stroke-width="1.89" stroke-linecap="square"></path>
                        <path d="M7.30933128,24.3075342 L48.2858854,24.3075342" id="Line-Copy-41" stroke="#474747" stroke-width="1.89" stroke-linecap="square"></path>
                        <path d="M25.3147221,29.9664384 L48.5759032,29.9664384" id="Line-Copy-42" stroke="#474747" stroke-width="1.89" stroke-linecap="square"></path>
                    </g>
                </g>
            </g>
        </g>
        <g id="Design-+-Group-+-Group-Copy-+-Group-Copy-2-Copy-+-Rectangle-65-+-Oval-6-Copy-Copy-Copy-Copy-Copy" transform="translate(36.929919, -51.500000)">
            <g id="Group-+-Group-Copy-+-Group-Copy-2-Copy-+-Rectangle-65-+-Oval-6-Copy">
                <g id="Group-+-Group-Copy-+-Group-Copy-2-Copy">
                    <g id="Group" transform="translate(0.032038, 0.792233)">
                        <g>
                            <use id="Rectangle-40" stroke="#000000" mask="url(#mask-22)" stroke-width="3.78" fill="#77CBF5" xlink:href="#path-21"></use>
                            <g id="Rectangle-48-+-Rectangle-40-Copy" transform="translate(0.578672, 0.887379)">
                                <polygon id="Rectangle-48" fill="#65BCE7" opacity="0.398379198" transform="translate(184.329801, 102.316128) rotate(-330.000000) translate(-184.329801, -102.316128) " points="170.956356 54.8625958 211.349087 124.824859 167.741648 149.76966 157.310514 62.7410264"></polygon>
                                <polygon id="Rectangle-48-Copy" fill="#FFFFFF" opacity="0.104885728" transform="translate(65.470687, 73.432703) rotate(-330.000000) translate(-65.470687, -73.432703) " points="25.9974007 24.9407349 93.6646555 11.9037869 104.943973 121.92467 37.2767178 134.961618"></polygon>
                            </g>
                            <g id="Rectangle-47-+-Rectangle-47-Copy-+-Oval-4" transform="translate(123.307354, 72.983495)">
                                <use id="Rectangle-47" stroke="#CDECFB" mask="url(#mask-24)" stroke-width="3.78" xlink:href="#path-23"></use>
                                <path d="M1.1050702,34.2873786 L23.2064741,34.2873786" id="Line-Copy-19" stroke="#CDECFB" stroke-width="1.89" stroke-linecap="square"></path>
                                <path d="M4.26241361,24.7631068 L13.7397048,24.7631068" id="Line" stroke="#CDECFB" stroke-width="1.26" stroke-linecap="square"></path>
                                <path d="M17.0496544,24.7631068 L20.0543917,24.7631068" id="Line-Copy-12" stroke="#CDECFB" stroke-width="1.26" stroke-linecap="square"></path>
                                <path d="M4.42028078,28.6203883 L7.42501798,28.6203883" id="Line-Copy-16" stroke="#CDECFB" stroke-width="1.26" stroke-linecap="square"></path>
                                <path d="M10.7349676,28.6203883 L17.5507351,28.6203883" id="Line-Copy-18" stroke="#CDECFB" stroke-width="1.26" stroke-linecap="square"></path>
                                <path d="M4.42028078,21.3203883 L7.42501798,21.3203883" id="Line-Copy-38" stroke="#CDECFB" stroke-width="1.26" stroke-linecap="square"></path>
                                <path d="M10.7349676,21.3203883 L17.5507351,21.3203883" id="Line-Copy-37" stroke="#CDECFB" stroke-width="1.26" stroke-linecap="square"></path>
                                <ellipse id="Oval-4" fill="#CDECFB" cx="12.014426" cy="39.2691519" rx="2.40288519" ry="2.41002015"></ellipse>
                            </g>
                            <path d="M189.335928,126.916248 L182.981413,126.916248 C181.587618,126.916248 180.457723,125.780903 180.457723,124.378639 L180.457723,118.065318" id="Rectangle-48-Copy-3" stroke="#FFFFFF" stroke-width="1.89" stroke-linecap="round" transform="translate(184.896826, 122.490783) rotate(-90.000000) translate(-184.896826, -122.490783) "></path>
                            <g transform="translate(101.107817, 125.300000)" stroke="#BBE5FA" stroke-width="1.89" stroke-linecap="round">
                                <path d="M70.3426246,1.63776699 L59.5393901,1.63776699" id="Line"></path>
                                <path d="M50.5366947,1.63776699 L39.7334602,1.63776699" id="Line-Copy-45"></path>
                                <path d="M30.7307648,1.63776699 L19.9275303,1.63776699" id="Line-Copy-46"></path>
                                <path d="M10.9248349,1.63776699 L0.121600388,1.63776699" id="Line-Copy-47"></path>
                            </g>
                            <g id="Group-Copy-8" transform="translate(101.107817, 60.500000)" stroke="#FFFFFF" stroke-width="1.89" stroke-linecap="round" opacity="0.5">
                                <path d="M70.3426246,1.63776699 L59.5393901,1.63776699" id="Line"></path>
                                <path d="M50.5366947,1.63776699 L39.7334602,1.63776699" id="Line-Copy-45"></path>
                                <path d="M30.7307648,1.63776699 L19.9275303,1.63776699" id="Line-Copy-46"></path>
                                <path d="M10.9248349,1.63776699 L0.121600388,1.63776699" id="Line-Copy-47"></path>
                            </g>
                            <g id="Group-Copy-6" transform="translate(83.402561, 93.889353) rotate(-270.000000) translate(-83.402561, -93.889353) translate(67.402561, 92.389353)" stroke="#BBE5FA" stroke-width="1.89" stroke-linecap="round">
                                <path d="M31.3426246,1.63776699 L20.5393901,1.63776699" id="Line"></path>
                                <path d="M11.5366947,1.63776699 L0.733460227,1.63776699" id="Line-Copy-45"></path>
                            </g>
                            <g id="Group-Copy-7" transform="translate(189.634367, 93.889353) rotate(-270.000000) translate(-189.634367, -93.889353) translate(173.634367, 92.389353)" stroke="#BBE5FA" stroke-width="1.89" stroke-linecap="round">
                                <path d="M31.3426246,1.63776699 L20.5393901,1.63776699" id="Line"></path>
                                <path d="M11.5366947,1.63776699 L0.733460227,1.63776699" id="Line-Copy-45"></path>
                            </g>
                            <path d="M92.7187664,126.954369 L86.3642517,126.954369 C84.9704561,126.954369 83.8405616,125.819023 83.8405616,124.416759 L83.8405616,118.103439" id="Rectangle-48-Copy-4" stroke="#FFFFFF" stroke-width="1.89"></path>
                            <path d="M92.7187664,71.0786408 L86.3642517,71.0786405 C84.9704561,71.0786405 83.8405616,69.943295 83.8405616,68.5410313 L83.8405616,62.2277108" id="Rectangle-48-Copy-5" stroke="#FFFFFF" stroke-width="1.89" stroke-linecap="round" transform="translate(88.279664, 66.653176) rotate(-270.000000) translate(-88.279664, -66.653176) "></path>
                            <path d="M189.333475,71.0786408 L182.97896,71.0786405 C181.585165,71.0786405 180.45527,69.943295 180.45527,68.5410313 L180.45527,62.2277108" id="Rectangle-48-Copy-6" stroke="#FFFFFF" stroke-width="1.89" stroke-linecap="round" transform="translate(184.894373, 66.653176) rotate(-180.000000) translate(-184.894373, -66.653176) "></path>
                        </g>
                        <g id="Line-+-Triangle-2-Copy" transform="translate(156.694537, 78.555340) rotate(-180.000000) translate(-156.694537, -78.555340) translate(147.694537, 75.555340)">
                            <path d="M0.0701359702,0.532395608 C0.0701359702,0.532395608 1.64805069,4.62159293 6.30902495,4.62159293 C10.9699992,4.62159293 14.6816469,3.01601942 14.6816469,3.01601942" id="Line" stroke="#BBE5FA" stroke-width="0.945" stroke-linecap="square"></path>
                            <polygon id="Triangle-2" fill="#BBE5FA" transform="translate(14.681647, 3.016019) rotate(-299.000000) translate(-14.681647, -3.016019) " points="14.6816469 1.26990291 17.0496544 4.76213592 12.3136393 4.76213592"></polygon>
                        </g>
                        <g id="Line-+-Triangle-2-+-Group" transform="translate(96.469935, 88.857282)">
                            <g id="Line-+-Triangle-2" transform="translate(7.893359, 10.159223)">
                                <path d="M0.0701359702,0.532395608 C0.0701359702,0.532395608 1.64805069,4.62159293 6.30902495,4.62159293 C10.9699992,4.62159293 14.6816469,3.01601942 14.6816469,3.01601942" id="Line" stroke="#BBE5FA" stroke-width="0.945" stroke-linecap="square"></path>
                                <polygon id="Triangle-2" fill="#BBE5FA" transform="translate(14.681647, 3.016019) rotate(-299.000000) translate(-14.681647, -3.016019) " points="14.6816469 1.26990291 17.0496544 4.76213592 12.3136393 4.76213592"></polygon>
                            </g>
                            <g id="Group" stroke="#BBE5FA">
                                <use id="Rectangle-49" mask="url(#mask-26)" stroke-width="1.89" xlink:href="#path-25"></use>
                                <path d="M2.65278756,3.80970874 L10.2717864,3.80970874" id="Line-Copy-22" stroke-width="1.26" stroke-linecap="square"></path>
                                <path d="M2.77970038,6.98446602 L5.19527342,6.98446602" id="Line-Copy-20" stroke-width="1.26" stroke-linecap="square"></path>
                                <path d="M7.85621332,6.98446602 L13.3355558,6.98446602" id="Line-Copy-21" stroke-width="1.26" stroke-linecap="square"></path>
                            </g>
                        </g>
                        <g id="Line-+-Triangle-2-+-Group-Copy" transform="translate(157.169710, 81.139356)" stroke="#BBE5FA">
                            <g id="Group">
                                <use id="Rectangle-49" mask="url(#mask-28)" stroke-width="1.89" xlink:href="#path-27"></use>
                                <path d="M2.65278756,3.80970874 L10.2717864,3.80970874" id="Line-Copy-22" stroke-width="1.26" stroke-linecap="square"></path>
                                <path d="M2.77970038,6.98446602 L5.19527342,6.98446602" id="Line-Copy-20" stroke-width="1.26" stroke-linecap="square"></path>
                                <path d="M7.85621332,6.98446602 L13.3355558,6.98446602" id="Line-Copy-21" stroke-width="1.26" stroke-linecap="square"></path>
                            </g>
                        </g>
                    </g>
                    <g id="Group-Copy" transform="translate(93.616045, 113.485968) rotate(8.000000) translate(-93.616045, -113.485968) translate(68.616045, 88.485968)" stroke="#000000">
                        <path d="M0.255991579,2.25515833 C0.255991579,0.1632372 1.4538238,-0.335126359 2.93574701,1.14635316 L49.1030912,47.2998747 C50.5830792,48.7794197 50.0977508,49.9788279 47.9939539,49.9788279 L4.04488425,49.9788279 C1.95233661,49.9788279 0.255991579,48.2942366 0.255991579,46.1910696 L0.255991579,2.25515833 Z M9.32387818,23.3664598 L26.2559916,40.2935037 L9.32387818,40.2935037 L9.32387818,23.3664598 Z" id="Rectangle-41" stroke-width="2.268" fill="#FFD98E"></path>
                        <path d="M1.79006835,1.11738095 L1.79006835,48.4702622 C9.29224867,48.647343 49.1237348,48.4702622 49.1237348,48.4702622" id="Line-Copy-48" stroke-width="2.079" stroke-linecap="square" opacity="0.15"></path>
                        <path d="M6.75667018,7.1326087 L5.37828901,8.5105772" id="Line" stroke-width="2.268" stroke-linecap="round"></path>
                        <path d="M12.6140714,12.9882562 L9.85946596,15.7420369" id="Line-Copy-8" stroke-width="2.268" stroke-linecap="round"></path>
                        <path d="M18.5001919,18.8726144 L16.8531436,20.5191696" id="Line-Copy-9" stroke-width="2.268" stroke-linecap="round"></path>
                        <path d="M24.1187614,24.4895017 L21.364156,27.2432824" id="Line-Copy-11" stroke-width="2.268" stroke-linecap="round"></path>
                        <path d="M30.1646823,30.428325 L28.7181475,31.8744267" id="Line-Copy-13" stroke-width="2.268" stroke-linecap="round"></path>
                        <path d="M36.2106032,36.3671482 L33.4559978,39.1209289" id="Line-Copy-14" stroke-width="2.268" stroke-linecap="round"></path>
                        <path d="M42.5913917,42.7999205 L41.1274793,44.2633946" id="Line-Copy-15" stroke-width="2.268" stroke-linecap="round"></path>
                    </g>
                    <g id="Group-Copy-2" transform="translate(189.898793, 83.497598) rotate(-15.000000) translate(-189.898793, -83.497598) translate(183.398793, 56.997598)">
                        <rect id="Rectangle-44" stroke="#000000" stroke-width="2.079" fill="#F5EE78" x="1.70215633" y="9.29276316" width="10.0997305" height="32.8210526"></rect>
                        <rect id="Rectangle-44-Copy" stroke="#000000" stroke-width="2.079" fill="#D6D6D6" x="1.76551846" y="42.1138158" width="10.0708419" height="5.06670709"></rect>
                        <rect id="Rectangle-44-Copy-2" stroke="#000000" stroke-width="2.079" fill="#F57F78" x="1.76346998" y="45.569699" width="10.0997305" height="7.35390458"></rect>
                        <path d="M3.66712148,11.3560698 L3.66712148,39.9486428" id="Line" stroke="#000000" stroke-width="2.079" stroke-linecap="square" opacity="0.309293377"></path>
                        <polygon id="Triangle-1" fill="#FFD6A4" points="6.75202156 0.9 12.6037736 8.58552632 0.900269542 8.58552632"></polygon>
                        <polyline id="Line" stroke="#000000" stroke-width="2.079" stroke-linecap="square" points="2.27715237 8.23618421 6.57991121 1.07467105 11.2268908 8.58552632"></polyline>
                        <polyline id="Line-Copy-7" stroke="#000000" stroke-width="2.079" stroke-linecap="square" points="2.27715237 8.23618421 6.57991121 1.07467105 11.2268908 8.58552632"></polyline>
                        <polyline id="Line-Copy-10" fill="#000000" points="3.99825591 5.27083843 6.14963533 1.77335526 8.4731251 5.44144737"></polyline>
                    </g>
                </g>
                <g id="Rectangle-65-+-Oval-6-Copy" transform="translate(130.520216, 74.900000)">
                    <rect id="Rectangle-65" x="5.40161725" y="0" width="19.0826364" height="19.845"></rect>
                    <path d="M5.82181924,9.1019392 C6.70817888,8.68659935 7.33749283,7.63615303 7.33749283,6.4059279 C7.33749283,4.81198536 6.28105609,3.51983963 4.97787531,3.51983963 C3.67469454,3.51983963 2.61825779,4.81198536 2.61825779,6.4059279 C2.61825779,7.64444701 3.25608582,8.70075506 4.1518934,9.11025292 C1.79762479,9.57653983 0.010259482,11.8637931 0.010259482,14.6151604 C2.94501507,14.6103807 7.66940832,14.6151604 10.0696815,14.6151604 C9.8614571,12.1975928 8.19113182,9.58373569 5.82181924,9.1019392 Z" id="Oval-6" stroke="#CDECFB" stroke-width="0.9"></path>
                </g>
            </g>
        </g>
    </g>
</svg>