<svg width="24" height="24" viewBox="0 0 24 24" fill="none" xmlns="http://www.w3.org/2000/svg">
<rect x="-903" y="-64" width="1252" height="5526" fill="white"/>
<path fill-rule="evenodd" clip-rule="evenodd" d="M3 17.8333C4.41204 18.7899 9.82979 22.6398 16.2668 16.9026C19.9648 13.2762 19.5908 8.9693 19.5908 8.9693C19.5908 8.9693 21.2336 7.73273 21.2958 6.90571C20.6629 7.1095 19.8018 7.26238 19.8018 7.26238C19.8018 7.26238 20.8981 6.25039 20.8981 5.45112C19.9278 5.80388 18.7321 6.1971 18.7321 6.1971C18.7321 6.1971 17.3521 4.86108 15.4803 5.01187C13.6085 5.16265 12.023 6.56828 12.023 8.35471C12.023 10.1411 12.0668 9.44091 12.023 9.53549C8.39403 9.75504 4.53312 5.72326 4.53312 5.72326C4.53312 5.72326 2.92607 8.62951 5.45849 10.5712C4.44929 10.4484 3.94406 10.377 3.94406 10.377C3.94406 10.377 3.9442 13.4494 6.56715 13.6717C5.95284 14.1413 6.0223 13.9956 5.23056 14.0141C5.66312 15.1633 6.77861 16.683 8.54175 16.683C6.87458 17.5765 5.93401 18.1319 3 17.8333Z" fill="#193044"/>
</svg>
