<svg width="541" height="381" viewBox="0 0 541 381" fill="none" xmlns="http://www.w3.org/2000/svg">
<rect width="541" height="380" fill="white"/>
<path d="M120.348 295.27C115.345 294.279 130.875 294.418 131.873 294.539C140.358 295.568 148.843 296.598 157.329 297.627C199.312 302.721 241.853 306.315 283.581 312.969C284.157 313.061 284.632 313.456 284.736 314.048C285.254 316.974 274 314.432 272.801 314.283C264.335 313.232 255.869 312.178 247.403 311.124C205.411 305.896 161.861 303.494 120.348 295.27ZM284.748 314.131C284.819 315.24 283.58 316.036 282.644 315.325C281.186 314.218 279.464 293.785 279.148 291.336C275.569 263.603 269.41 234.964 268.367 207.017C268.336 206.168 269.064 205.454 269.932 205.645C271.432 205.977 273.602 227.235 273.975 230.113C277.575 257.926 282.959 286.14 284.748 314.131ZM269.738 205.618C270.478 205.708 271.049 206.338 270.928 207.107C270.546 209.533 260.295 207.164 258.817 207C250.16 206.037 241.505 205.064 232.849 204.092C188.446 199.102 143.348 196.065 99.2058 189.173C98.2039 189.017 108.879 188.871 111.373 189.136C120.013 190.056 128.654 190.967 137.295 191.872C181.382 196.493 225.84 200.292 269.738 205.618ZM98.6235 188.641C98.5326 188.049 99.2091 187.594 99.699 187.994C101.191 189.214 104.087 208.901 104.61 211.464C110.212 238.942 116.591 266.398 121.549 293.98C121.735 295.012 120.474 295.77 119.716 294.956C116.185 291.165 116.075 277.241 115.118 272.356C109.668 244.523 102.925 216.67 98.6235 188.641Z" fill="black"/>
<path d="M265.475 210.248C267.982 239.911 276.338 280.854 279.262 311.771L122.591 292.553L102.537 191.447C161.863 199.385 244.168 209.412 265.475 210.248Z" fill="#E9E9E9"/>
<path d="M331.486 280.437L280.098 272.081L284.693 311.353L331.486 280.437Z" fill="#E9E9E9"/>
<path d="M336.499 280.019L283.857 315.113V318.038L336.499 282.526V280.019Z" fill="black"/>
<path d="M283.857 315.113L283.162 314.07L282.604 314.442V315.113H283.857ZM336.499 280.019H337.752V277.677L335.804 278.976L336.499 280.019ZM336.499 282.526L337.2 283.565L337.752 283.192V282.526H336.499ZM283.857 318.038H282.604L284.558 319.077L283.857 318.038ZM284.553 316.156L337.194 281.062L335.804 278.976L283.162 314.07L284.553 316.156ZM335.246 280.019V282.526H337.752V280.019H335.246ZM335.798 281.486L283.156 316.999L284.558 319.077L337.2 283.565L335.798 281.486ZM285.111 318.038V315.113H282.604V318.038H285.111Z" fill="black"/>
<path d="M401.976 256.823C400.077 256.407 409.342 256.181 411.158 256.406C417.926 257.244 424.695 258.082 431.463 258.92C465.935 263.184 500.805 266.419 535.067 271.766C536.988 272.065 535.891 274.204 534.319 274.002C524.95 272.793 515.581 271.585 506.213 270.371C471.914 265.927 435.773 264.219 401.976 256.823ZM534.128 272.103C534.909 271.387 536.245 271.956 536.096 273.069C535.675 276.227 518.836 291.741 516.218 294.522C493.221 318.954 471.159 345.064 446.811 368.151C444.146 370.679 448.686 362.724 449.903 361.432C451.049 360.215 452.195 358.998 453.341 357.78C454.364 356.695 455.386 355.609 456.408 354.523C459.169 351.591 461.929 348.66 464.69 345.729C487.614 321.387 509.461 294.68 534.128 272.103ZM446.105 366.168C452.429 367.261 436.796 367.316 436.054 367.218C428.349 366.203 420.645 365.186 412.94 364.17C390.468 361.204 367.997 358.236 345.526 355.265C268.869 345.131 192.216 334.963 115.564 324.79C77.5099 319.74 38.152 317.087 0.494295 309.516C-0.803133 309.255 9.14673 309.274 11.2959 309.554C18.9596 310.551 26.6237 311.545 34.2876 312.541C56.8941 315.477 79.5005 318.414 102.107 321.352C178.801 331.32 255.495 341.288 332.184 351.288C370.068 356.228 408.465 359.665 446.105 366.168ZM0.941576 309.429C-0.267825 310.07 -0.0513062 308.438 0.815649 307.939C7.93571 303.844 15.0548 299.746 22.1743 295.649C48.9457 280.245 75.3488 263.217 102.888 249.195C104.484 248.382 101.786 251.052 101.255 251.359C94.5105 255.261 87.7664 259.165 81.0222 263.068C54.3825 278.487 28.1415 295.027 0.941576 309.429ZM312.992 248.449C313.596 249.076 304.107 248.541 303.025 248.446C296.185 247.847 289.514 246.743 282.8 245.318C280.889 244.913 276.06 244.815 274.551 243.517C273.569 242.672 283.368 243.284 284.454 243.386C291.277 244.026 297.936 245.081 304.63 246.546C306.362 246.925 311.722 247.134 312.992 248.449ZM274.9 242.501C275.214 242.501 275.468 242.755 275.468 243.069C275.468 243.383 275.214 243.637 274.9 243.637C274.586 243.637 274.332 243.383 274.332 243.069C274.332 242.755 274.586 242.501 274.9 242.501Z" fill="black"/>
<path d="M312.921 114.283C304.969 108.513 300.9 87.7182 297.288 45.7993" stroke="black" stroke-width="2.23136"/>
<path d="M298.576 54.5229C298.543 58.7505 301.106 75.1802 301.998 82.4623C300.09 82.2073 289.421 69.7994 288.034 61.5149C287.023 55.4803 290.994 53.1273 290.54 48.5634C290.54 48.5634 296.061 45.0261 298.576 54.5229Z" fill="black" stroke="black" stroke-width="1.37409"/>
<path d="M332.786 72.2933C331.347 69.9891 333.555 65.9 335.839 67.501C337.015 66.7678 338.707 70.2426 338.644 72.3122C338.604 73.6167 337.12 74.2734 335.721 74.2903C334.29 74.3075 333.5 73.4376 332.786 72.2933Z" fill="black"/>
<path d="M310.591 74.8285C309.233 72.3235 311.163 67.9748 313.277 69.7412C314.334 68.9773 315.947 72.745 315.931 74.9674C315.922 76.3682 314.582 77.0437 313.307 77.0335C312.003 77.0231 311.265 76.0724 310.591 74.8285Z" fill="black"/>
<path d="M346.353 60.007C347.113 60.9022 348.589 59.9703 347.997 58.918C346.647 56.5183 343.452 54.9017 340.943 54.1532C337.058 52.9944 332.632 53.4832 328.905 55.001C328.019 55.3619 328.137 56.7181 329.129 56.8223C335.084 57.4485 340.476 54.2918 345.698 59.2862C345.934 59.5128 346.142 59.7578 346.353 60.007Z" fill="black"/>
<path d="M302.723 64.7556C302.234 65.9303 301.742 64.3184 302.038 63.5691C302.995 61.142 304.757 59.1885 306.727 57.9282C309.515 56.1456 313.006 55.706 316.191 56.2684C316.845 56.3839 317.049 57.4598 316.432 57.7794C313.235 59.4368 309.371 57.9744 306.026 60.5353C304.639 61.5973 303.457 62.9914 302.723 64.7556Z" fill="black"/>
<path d="M340.096 104.035C339.647 103.368 332.096 107.238 330.309 107.313C328.163 107.402 320.584 104.101 319.733 104.547C317.373 105.785 321.972 108.77 323.059 109.336C328.461 112.151 342.837 108.099 340.096 104.035Z" fill="black"/>
<path d="M325.773 68.6085C324.427 64.6168 317.292 83.3277 316.902 85.3057C316.591 86.8848 316.198 90.9404 317.365 92.1626C317.961 92.7868 318.999 92.7584 319.467 91.9853C319.999 91.108 319.442 89.0474 319.478 87.9482C319.627 83.3409 322.132 78.5341 323.718 74.2866C324.094 73.2782 326.158 69.7479 325.773 68.6085ZM318.599 90.0289C318.629 90.0314 316.821 91.3691 317.268 92.0359C317.74 92.7389 319.169 92.4868 318.591 92.5914C317.555 92.779 320.662 92.2081 321.697 92.0118C324.017 91.5717 327.91 91.5779 329.993 90.4118C330.198 90.2969 330.358 90.1331 330.436 89.9073C331.119 87.9432 318.268 90.0012 318.599 90.0289Z" fill="black"/>
<path d="M328.969 98.9613C331.968 100.839 342.924 99.4497 345.924 101.679C348.995 103.961 349.86 96.4024 349.86 96.4024C349.86 96.4024 345.864 95.6475 342.388 95.0481C337.757 94.2492 332.985 92.1362 331.345 92.0699C328.475 91.9539 326.214 92.6985 326.214 92.6985C326.214 92.6985 312.976 98.1721 309.344 98.9613C304.603 99.9911 311.545 102.479 311.545 102.479C311.545 102.479 322.439 101.916 324.804 99.7044C325.842 98.7342 327.092 98.4149 328.168 98.3622C328.277 98.492 328.527 98.685 328.969 98.9613Z" fill="black"/>
<path d="M330.18 39.5227C336.032 39.1196 346.089 44.5992 351.871 39.957C351.871 39.957 355.066 55.5828 358.242 55.1939C362.837 66.5708 359.584 82.2868 359.584 82.2868C359.584 82.2868 358.508 86.738 357.285 88.7505C355.811 91.1751 355.457 92.7751 353.048 95.4516C350.638 98.1281 349.283 96.8353 347.646 97.2372C346.009 97.6391 344.341 101.857 344.341 101.857C344.268 108.404 345.67 119.765 334.829 121.093L333.075 119.116C332.133 117.313 331.048 115.005 329.747 115.365C326.723 116.203 325.828 121.677 323.817 120.808C315.153 121.386 315.049 101.819 315.049 101.819L305.051 100.487L312.725 121.684C312.725 121.684 319.427 131.323 334.701 129.452C347.652 127.866 356.347 122.426 361.845 111.434C368.021 103.269 367.117 102.158 368.624 95.257C370.131 88.3556 375.087 83.1981 375.087 83.1981C375.087 83.1981 381.096 74.5916 379.986 72.2008C377.967 72.0611 372.912 67.2141 373.541 70.5768C374.17 73.9395 371.126 78.1761 370.207 83.1565C367.468 85.7687 365.116 85.8925 365.103 85.7104L365.073 85.6296C363.415 81.0558 360.523 73.0838 365.304 68.146C370.112 63.1791 371.539 67.6469 371.539 67.6469C371.539 67.6469 376.658 69.6159 379.817 70.8166C380.129 70.4836 377.489 64.1916 377.545 63.0372C377.753 58.7713 384.291 61.6456 382.961 50.7872C381.588 39.5779 379.627 41.9224 379.627 41.9224C379.627 41.9224 379.788 37.5748 377.452 31.0481C375.729 26.2311 366.381 25.5345 366.381 25.5345C366.381 25.5345 364.092 20.3463 360.469 18.3906C353.257 14.4969 351.889 18.3294 349.056 16.9785C349.056 16.9785 348.172 9.88404 337.508 6.4157C327.999 4.48935 323.141 10.7046 323.141 10.7046C323.141 10.7046 293.361 3.288 285.11 20.5714C282.738 28.7301 287.553 33.0942 287.553 33.0942C287.553 33.0942 272.995 45.6388 293.048 52.7412C303.342 51.4804 305.128 41.4671 305.128 41.4671C312.927 40.5118 324.749 39.8968 330.18 39.5227Z" fill="black"/>
<path d="M379.627 41.9224C379.627 41.9224 381.588 39.5779 382.961 50.7872C384.291 61.6456 377.753 58.7713 377.545 63.0372C377.489 64.1916 380.129 70.4836 379.817 70.8166C376.658 69.6159 371.539 67.6469 371.539 67.6469C371.539 67.6469 370.112 63.1791 365.304 68.146C360.495 73.113 363.449 81.1502 365.103 85.7104C365.116 85.8925 367.468 85.7687 370.207 83.1565M379.627 41.9224C379.627 41.9224 379.788 37.5748 377.452 31.0481M379.627 41.9224L377.452 31.0481M329.747 115.365C331.935 114.759 333.511 121.704 334.829 121.093M329.747 115.365L334.829 121.093M329.747 115.365C326.723 116.203 325.828 121.677 323.817 120.808C315.153 121.386 315.049 101.819 315.049 101.819L305.051 100.487L312.725 121.684C312.725 121.684 319.427 131.323 334.701 129.452C347.652 127.866 356.347 122.426 361.845 111.434C368.021 103.269 367.117 102.158 368.624 95.257C370.131 88.3556 375.087 83.1981 375.087 83.1981C375.087 83.1981 381.096 74.5916 379.986 72.2008M379.986 72.2008L370.207 83.1565M379.986 72.2008C377.967 72.0611 372.912 67.2141 373.541 70.5768C374.17 73.9395 371.126 78.1761 370.207 83.1565M334.829 121.093C345.67 119.765 344.268 108.404 344.341 101.857C344.341 101.857 346.009 97.6391 347.646 97.2372C349.283 96.8353 350.638 98.1281 353.048 95.4516C355.457 92.7751 355.811 91.1751 357.285 88.7505C358.508 86.738 359.584 82.2868 359.584 82.2868C359.584 82.2868 362.837 66.5708 358.242 55.1939C355.066 55.5828 351.871 39.957 351.871 39.957C346.089 44.5992 336.032 39.1196 330.18 39.5227C324.749 39.8968 312.927 40.5118 305.128 41.4671C305.128 41.4671 303.342 51.4804 293.048 52.7412C272.995 45.6388 287.553 33.0942 287.553 33.0942C287.553 33.0942 282.738 28.7301 285.11 20.5714C293.361 3.288 323.141 10.7046 323.141 10.7046C323.141 10.7046 327.999 4.48935 337.508 6.4157C348.172 9.88404 349.056 16.9785 349.056 16.9785C351.889 18.3294 353.257 14.4969 360.469 18.3906C364.092 20.3463 366.381 25.5345 366.381 25.5345C366.381 25.5345 375.729 26.2311 377.452 31.0481" stroke="black" stroke-width="1.37409"/>
<path d="M360.103 134.755C360.466 135.77 361.73 135.536 361.712 134.441C361.652 130.802 360.997 126.993 360.657 123.354C360.635 123.115 360.651 122.781 360.615 123.348C360.615 123.355 358.818 122.003 358.648 122.754C358.591 123.008 358.785 123.806 358.711 123.551C358.68 123.446 358.615 123.122 358.628 123.231C359.038 126.689 358.936 131.482 360.103 134.755ZM360.63 123.18C360.618 122.262 359.769 121.586 359.073 122.084C358.094 122.785 357.415 125.375 356.545 126.441C354.009 129.547 346.265 134.75 342.802 133.687C341.221 133.201 340.711 135.808 342.116 136.405C347.293 138.603 360.721 129.966 360.63 123.18ZM343.689 135.306C343.784 133.837 342.112 132.941 341.42 134.275C340.316 136.407 341.986 143.027 342.453 145.532C342.566 146.137 343.112 146.53 343.61 146.315C344.87 145.771 343.588 136.879 343.689 135.306Z" fill="black"/>
<path d="M357.002 105.744C355.077 115.462 356.69 128.624 356.69 128.624" stroke="black" stroke-width="2.23136"/>
<path d="M331.552 145.723C333.233 147.835 332.559 136.478 332.469 135.467C332.437 135.101 332.32 134.774 332.049 134.514C328.377 131.009 330.69 144.641 331.552 145.723ZM331.2 136.855C332.414 136.721 332.948 135.148 331.906 134.396C328.805 132.155 323.605 134.328 322.264 128.926C321.998 127.857 319.073 130.065 322.546 133.504C324.65 135.587 328.182 137.185 331.2 136.855Z" fill="black"/>
<path d="M332.309 141.633C334.615 142.693 340.218 141.224 342.732 140.356C342.732 140.356 346.013 142.472 343.609 147.52C341.205 152.569 340.514 154.332 337.149 158.939C333.333 154.931 330.002 140.573 332.309 141.633Z" fill="black"/>
<path d="M382.039 144.655C381.728 144.53 360.023 135.908 359.818 135.637C354.158 128.165 385.365 142.152 387.471 142.984C387.896 143.152 391.444 146.287 391.649 146.704C394.96 153.477 385.23 145.935 382.039 144.655ZM387.341 145.213C383.066 138.844 392.94 147.368 394.463 149.747C398.726 156.402 402.725 163.335 405.726 170.66C413.757 190.261 413.494 218.081 408.514 238.247C408.394 238.729 408.101 239.151 407.677 239.414C402.908 242.375 407.907 214.73 407.867 210.303C407.642 185.011 401.375 166.12 387.341 145.213ZM403.765 236.59C403.909 236.179 406.742 234.311 407.107 234.062C411.785 230.873 405.57 248.83 405.181 250.018C405.041 250.446 404.813 250.813 404.439 251.075C400.021 254.181 403.031 238.671 403.765 236.59ZM401.591 248.791C403.448 244.754 408.203 255.696 394.924 259.666C386.595 262.155 374.391 258.971 365.934 257.654C363.89 257.336 363.728 254.32 365.824 253.936C377.319 251.833 394.811 263.534 401.591 248.791ZM367.696 256.877C365.567 259.632 363.756 255.74 365.451 253.643C366.274 252.624 367.004 251.575 367.437 250.326C367.526 250.07 367.604 249.81 367.672 249.547C367.791 249.085 367.88 248.616 367.946 248.144C367.994 247.806 368.029 247.466 368.055 247.126C368.082 246.778 368.098 246.43 368.106 246.082C368.112 245.8 368.115 245.524 368.071 245.245C368.036 245.026 367.982 244.811 367.916 244.6C366.765 240.948 363.27 238.189 360.517 235.749C357.443 233.023 367.399 233.467 371.151 242.989C373.097 247.929 370.675 253.024 367.696 256.877ZM361.584 236.127C359.798 236.03 359.254 233.487 361.068 232.91C363.555 232.119 371.481 233.259 374.459 234.221C375.792 234.652 375.815 236.643 374.36 236.923C370.596 237.649 364.976 236.311 361.584 236.127ZM373.887 236.932C373.619 236.884 373.372 236.774 373.168 236.59C369.838 233.582 383.155 236.514 384.618 237.175C388.21 238.797 391.67 241.532 392.199 245.685C392.368 247.007 388.332 241.349 387.277 240.673C383.253 238.093 378.458 237.756 373.887 236.932Z" fill="black"/>
<path d="M336.541 157.323C336.687 157.502 338.591 155.624 338.588 156.376C338.583 157.812 338.702 178.649 338.226 179.032C335.466 181.247 336.529 157.309 336.541 157.323Z" fill="black"/>
<path d="M320.139 133.044C323.994 133.013 314.555 136.277 313.176 136.493C310.614 136.894 308.051 137.295 305.488 137.696C299.632 138.612 292.99 139.507 287.519 140.502C285.957 140.787 285.201 138.552 286.747 137.986C293.66 135.456 303.596 135.477 311.3 134.341C314.15 133.921 317.249 133.067 320.139 133.044ZM286.502 138.106C291.898 134.953 276.914 153.08 276.392 153.887C265.464 170.808 254.089 187.47 242.648 204.05C242.297 204.558 241.728 204.864 241.102 204.811C237.484 204.506 248.044 189.928 249.44 187.9C257.957 175.519 274.818 144.934 286.502 138.106Z" fill="black"/>
<path d="M359.896 255.369C359.896 256.372 364.074 256.065 366.163 255.787L367.417 251.191C364.91 252.166 359.896 254.366 359.896 255.369Z" fill="black" stroke="black" stroke-width="3.34232"/>
<path d="M373.02 189.317C373.093 188.533 374.222 196.982 374.191 199.336C374.037 211.1 372.816 223.728 374.489 235.419C374.868 238.068 370.895 236.602 371.121 227.815C371.349 218.907 371.833 210.004 372.327 201.108C372.545 197.185 372.652 193.229 373.02 189.317Z" fill="black"/>
<path d="M361.149 234.48C355.161 234.062 341.68 234.146 335.664 237.822C329.648 241.499 321.181 248.267 317.699 251.191C317.142 251.888 316.362 253.615 317.699 254.952C319.036 256.289 321.877 254.673 323.13 253.698L330.233 248.278M339.006 241.582L330.233 248.278M330.233 248.278C330.651 249.806 332.322 252.863 335.664 252.863C337.335 248.278 345.273 244.925 345.273 244.925" stroke="black" stroke-width="3.34232"/>
<path d="M335.664 253.28C337.335 254.255 340.104 256.099 343.184 255.787C346.527 252.862 349.033 250.356 351.54 248.685" stroke="black" stroke-width="3.34232"/>
<path d="M343.602 255.787C347.083 256.483 355.467 258.21 357.806 256.205C360.146 254.199 364.352 251.748 366.162 250.774C367.276 249.659 369.739 247.443 369.087 244.507C367.416 236.987 363.516 236.151 360.313 234.062" stroke="black" stroke-width="3.34232"/>
<path d="M336.499 237.404C331.067 239.215 320.121 242.836 319.787 242.836C319.369 242.836 316.445 244.507 317.28 246.596C317.949 248.267 321.04 248.267 321.876 248.267" stroke="black" stroke-width="3.34232"/>
<path d="M445.765 367.397C446.857 365.722 448.028 379.667 447.46 378.403C447.455 378.392 445.103 379.777 445.126 378.976C445.2 376.466 444.362 369.549 445.765 367.397ZM446.378 377.782C447.07 377.782 447.631 378.343 447.631 379.035C447.631 379.727 447.07 380.288 446.378 380.288C445.685 380.288 445.124 379.727 445.124 379.035C445.124 378.343 445.685 377.782 446.378 377.782ZM447.363 379.81C446.52 380.753 444.855 380.08 445.155 378.757C446.585 372.466 460.133 362.348 464.523 357.61C484.817 335.712 512.234 300.729 534.737 281.847C536.43 280.427 530.044 289.697 528.545 291.33C524.58 295.652 520.615 299.974 516.65 304.296C493.599 329.419 469.891 354.605 447.363 379.81ZM536.292 282.489C536.268 283.948 534.162 276.307 534.466 272.881C534.644 270.872 536.328 280.253 536.292 282.489ZM446.545 377.793C452.747 378.937 437.92 379.182 436.894 379.046C429.064 378.012 421.234 376.979 413.404 375.946C390.595 372.938 367.786 369.933 344.977 366.927C265.69 356.479 186.402 346.042 107.133 335.459C82.6429 332.189 58.1536 328.911 33.6702 325.589C24.0058 324.278 9.72397 325 0.665088 321.046C-2.21639 319.788 10.12 320.284 11.3041 320.436C19.1014 321.433 26.8987 322.431 34.695 323.436C57.6433 326.395 80.587 329.39 103.529 332.396C180.164 342.436 256.782 352.609 333.399 362.781C370.949 367.766 409.299 370.92 446.545 377.793ZM1.99042 320.014C2.11493 322.705 -0.594701 313.623 0.120373 309.165C0.488659 306.869 1.92175 318.53 1.99042 320.014Z" fill="black"/>
<path d="M337.336 279.601L278.01 269.992" stroke="black" stroke-width="3.34232"/>
<path opacity="0.1" d="M283.44 317.62V313.86L120.92 293.806L121.338 297.984L283.44 317.62Z" fill="black" stroke="black" stroke-width="2.50674"/>
<path d="M335.246 184.317L336.249 178.078L338.588 178.524L337.586 184.763L335.246 184.317Z" stroke="black" stroke-width="1.67116"/>
<path d="M282.784 190.107C284.09 188.565 282.823 202.177 282.644 203.607C281.472 212.937 280.301 222.267 279.124 231.596C278.804 234.132 277.523 243.252 277.477 243.061C277.441 242.91 276.148 245.624 275.211 245.184C273.913 244.575 274.513 242.009 274.276 243.381C274.043 244.726 274.701 240.686 274.914 239.338C275.339 236.641 275.765 233.945 276.19 231.248C277.467 223.129 278.753 215.012 280.032 206.894C280.611 203.221 280.282 193.059 282.784 190.107Z" fill="black"/>
<path d="M279.309 211.723C279.918 209.629 277.946 224.961 274.975 230.948C274.811 231.278 274.653 231.619 274.463 231.935C274.291 232.22 274.074 232.457 273.776 232.615C269.142 235.066 278.671 213.919 279.309 211.723Z" fill="black"/>
<path d="M456.257 295.621C457.042 294.973 450.506 304.437 448.81 306.388C442.809 313.297 436.811 320.208 430.79 327.1C428.409 329.825 425.954 332.741 423.57 335.332C423.221 335.711 422.706 335.875 422.213 335.676C419.748 334.677 428.636 326.144 429.757 324.901C435.889 318.097 442.044 311.314 448.194 304.526C450.786 301.666 453.271 298.084 456.257 295.621ZM422.926 333.427C423.859 333.693 424.185 334.923 423.359 335.532C421.031 337.246 410.51 333.411 407.966 332.907C397.257 330.785 386.555 328.626 375.855 326.455C371.606 325.593 366.738 325.23 362.645 323.761C360.699 323.063 373.172 323.872 375.512 324.313C391.127 327.256 407.638 329.06 422.926 333.427ZM363.538 323.557C360.517 326.017 372.185 314.522 374.137 313.007C382.6 306.44 391.049 299.855 399.473 293.238C403.018 290.454 406.481 287.398 410.183 284.815C410.48 284.607 414.208 284.197 398.759 295.367C383.309 306.538 381.915 308.798 373.517 315.544C370.336 318.1 366.573 321.085 363.538 323.557ZM410.183 284.815C409.669 284.712 420.168 286.228 422.778 286.645C431.207 287.991 439.638 289.333 448.068 290.674C451.594 291.234 455.189 291.641 458.687 292.362C459.108 292.449 448.994 291.989 446.359 291.569C437.93 290.224 429.5 288.88 421.069 287.542C417.541 286.982 408.777 285.868 410.183 284.815Z" fill="black"/>
<path d="M364.073 325.558C365.505 324.035 365.327 325.558 365.327 327.647C363.358 329.555 363.292 326.389 364.073 325.558ZM364.431 328.584C363.845 328.448 363.449 327.882 363.627 327.281C364.231 325.245 377.803 329.068 379.336 329.363C389.928 331.403 400.521 333.444 411.114 335.484C415.386 336.307 419.796 336.89 424.014 337.969C427.019 338.737 420.192 339.231 418.871 338.979C415.563 338.347 412.255 337.716 408.947 337.084C398.402 335.07 387.857 333.057 377.312 331.043C373.039 330.227 368.647 329.562 364.431 328.584ZM426.271 337.62C425.733 338.539 424.265 337.958 424.691 336.927C425.672 334.548 430.441 330.326 432.595 327.879C438.202 321.514 443.806 315.147 449.413 308.781C451.668 306.221 454.436 301.461 457.421 299.711C457.609 299.6 452.627 306.66 449.898 309.871C444.301 316.456 438.704 323.041 433.106 329.626C431.136 331.944 427.437 335.629 426.271 337.62Z" fill="black"/>
<path d="M364.073 329.736C365.505 328.213 365.327 329.736 365.327 331.825C363.358 333.733 363.292 330.567 364.073 329.736ZM364.431 332.762C363.845 332.626 363.449 332.06 363.627 331.459C364.231 329.423 377.803 333.246 379.336 333.541C389.928 335.581 400.521 337.622 411.114 339.662C415.386 340.485 419.796 341.068 424.014 342.147C427.019 342.915 420.192 343.409 418.871 343.157C415.563 342.525 412.255 341.893 408.947 341.262C398.402 339.248 387.857 337.235 377.312 335.221C373.039 334.405 368.647 333.74 364.431 332.762ZM426.271 341.798C425.733 342.717 424.265 342.136 424.691 341.105C425.672 338.726 430.441 334.504 432.595 332.057C438.202 325.692 443.806 319.325 449.413 312.959C451.668 310.399 454.436 305.639 457.421 303.889C457.609 303.778 452.627 310.838 449.898 314.049C444.301 320.634 438.704 327.219 433.106 333.804C431.136 336.122 427.437 339.807 426.271 341.798Z" fill="black"/>
<path d="M450.371 282.526L419.454 276.677C418.619 276.259 418.719 275.539 419.037 274.588C419.454 273.334 420.568 273.334 421.125 273.334L451.624 278.765L456.22 282.108L450.371 282.526Z" fill="black"/>
<path d="M419.454 276.677L419.081 277.424L419.185 277.476L419.299 277.498L419.454 276.677ZM450.371 282.526L450.215 283.347L450.322 283.367L450.43 283.359L450.371 282.526ZM456.22 282.108L456.279 282.941C456.629 282.916 456.927 282.675 457.023 282.338C457.12 282 456.995 281.638 456.711 281.432L456.22 282.108ZM451.624 278.765L452.116 278.09L451.96 277.977L451.771 277.943L451.624 278.765ZM421.125 273.334L421.272 272.512L421.199 272.499H421.125V273.334ZM419.037 274.588L419.829 274.852L419.037 274.588ZM419.299 277.498L450.215 283.347L450.526 281.705L419.61 275.856L419.299 277.498ZM450.43 283.359L456.279 282.941L456.16 281.274L450.311 281.692L450.43 283.359ZM456.711 281.432L452.116 278.09L451.133 279.441L455.728 282.784L456.711 281.432ZM450.831 278.501L449.578 282.261L451.163 282.79L452.417 279.03L450.831 278.501ZM451.771 277.943L421.272 272.512L420.979 274.157L451.478 279.588L451.771 277.943ZM421.125 272.499C420.858 272.499 420.29 272.491 419.724 272.713C419.108 272.954 418.536 273.446 418.244 274.323L419.829 274.852C419.955 274.476 420.149 274.341 420.333 274.269C420.568 274.177 420.836 274.17 421.125 274.17V272.499ZM418.244 274.323C418.086 274.797 417.92 275.373 417.983 275.926C418.017 276.225 418.117 276.526 418.317 276.801C418.515 277.071 418.779 277.273 419.081 277.424L419.828 275.929C419.711 275.871 419.675 275.826 419.667 275.815C419.661 275.807 419.649 275.79 419.643 275.738C419.627 275.589 419.67 275.33 419.829 274.852L418.244 274.323Z" fill="black"/>
<path opacity="0.5" d="M303.911 296.73C295.427 294.283 289.706 293.388 281.768 292.135M293.466 304.251C293.466 304.251 286.782 301.744 282.604 301.326M295.138 276.259L279.262 273.752L280.933 285.45H282.604L295.138 276.259Z" stroke="black" stroke-width="1.67116" stroke-linecap="round"/>
<path d="M199.618 250.676C199.609 249.146 201.859 248.903 202.087 250.441C202.701 254.576 199.712 258.86 196.1 260.449C190.469 262.926 183.731 259.589 182.266 253.519C179.548 242.253 195.999 235.918 200.168 246.994C200.276 247.28 194.936 243.119 191.981 243.421C187.678 243.861 184.364 247.838 185.097 252.254C186.588 261.241 199.675 259.597 199.618 250.676Z" fill="black"/>
<path d="M53.16 19.0848C52.6373 19.9079 51.3471 19.2616 51.7556 18.3586C52.854 15.9308 55.9347 14.6664 58.4188 15.0615C62.2916 15.6773 64.751 19.7919 63.4411 23.5501C61.0093 30.5268 50.0057 28.2435 51.5947 20.8687C51.6358 20.6778 53.0614 24.7512 54.7488 25.6091C57.2068 26.8587 60.3562 25.8712 61.4877 23.2513C63.79 17.9202 56.2086 14.2843 53.16 19.0848Z" fill="#B3B3B3"/>
<path d="M460.922 80.0821C460.399 80.9052 459.109 80.2589 459.517 79.3559C460.616 76.9281 463.696 75.6638 466.181 76.0588C470.053 76.6746 472.513 80.7892 471.203 84.5474C468.771 91.5241 457.767 89.2408 459.356 81.866C459.397 81.6751 460.823 85.7485 462.511 86.6064C464.968 87.856 468.118 86.8685 469.249 84.2486C471.552 78.9176 463.97 75.2816 460.922 80.0821Z" fill="#B3B3B3"/>
<ellipse opacity="0.5" cx="191.352" cy="253.335" rx="7.88004" ry="7.81361" transform="rotate(-2.78254 191.352 253.335)" fill="black"/>
<path d="M287.618 141.313C274.249 158.442 245.004 202.31 245.004 202.31L270.071 205.652L273.414 226.124L279.263 211.919L280.934 194.79C281.073 193.258 281.686 190.194 283.023 190.194C284.36 190.194 283.023 201.892 282.187 207.741L277.592 242.836C282.884 243.114 293.802 243.838 295.139 244.507C296.476 245.175 307.394 247.292 312.686 248.267L316.864 249.102C316.446 248.685 315.527 247.431 315.193 245.76C314.858 244.089 317.56 242.279 318.953 241.582L333.993 236.569C343.184 231.973 352.794 231.973 361.149 232.809C362.821 231.806 368.53 232.948 371.176 233.644L370.759 227.377L372.012 203.563L372.848 188.523L374.519 198.132L374.937 234.062C375.215 234.619 377.025 235.733 382.039 235.733C387.052 235.733 390.255 239.911 391.23 242L392.484 246.178C392.066 245.342 388.891 242.752 384.546 240.747C380.201 238.741 372.151 238.518 368.67 238.658C369.087 239.075 370.257 240.663 371.594 243.671C372.931 246.679 370.898 251.888 369.923 253.698L375.772 254.116C391.23 257.04 393.319 256.623 398.751 252.863C405.435 246.178 405.853 229.884 407.106 223.199C408.36 216.515 407.273 205.402 406.271 191.03C405.28 176.822 393.319 158.586 387.664 149.964L387.47 149.668C387.47 149.668 370.823 141.547 359.478 136.299C359.478 136.299 359.061 133.375 358.643 129.197C354.883 136.299 344.438 137.97 344.438 137.97L344.856 144.655L339.007 157.189L338.589 177.66L339.424 178.078L338.589 185.598L334.411 185.181L335.664 177.243H336.5L335.664 158.442L330.233 144.655L329.397 137.553C327.726 137.135 323.966 137.135 321.459 132.121C321.042 133.792 321.042 135.994 321.042 135.046C321.042 135.046 318.117 137.553 287.618 141.313Z" fill="#FF6565"/>
<rect x="99.6129" y="31.8517" width="125.206" height="92.7493" rx="2.11506" stroke="#B3B3B3" stroke-width="1.67116"/>
<path d="M100.253 33.9668C100.253 33.152 100.913 32.4914 101.728 32.4914H222.835C223.65 32.4914 224.31 33.152 224.31 33.9668V38.7322H100.253V33.9668Z" fill="#B3B3B3" stroke="#B3B3B3" stroke-width="2.95064"/>
<rect x="181.5" y="45.221" width="37.6011" height="71.8598" rx="3.09861" stroke="#B3B3B3" stroke-width="1.67116" stroke-dasharray="3.93 3.93"/>
<mask id="path-51-inside-1" fill="white">
<rect x="104.678" y="44.5421" width="70.8154" height="28.5229" rx="0.83558"/>
</mask>
<rect x="104.678" y="44.5421" width="70.8154" height="28.5229" rx="0.83558" stroke="#C4C4C4" stroke-width="3.34232" mask="url(#path-51-inside-1)"/>
<rect x="104.678" y="76.9991" width="70.8154" height="1.96709" rx="0.983547" fill="#C4C4C4"/>
<rect x="104.678" y="80.9333" width="70.8154" height="1.96709" rx="0.983547" fill="#C4C4C4"/>
<rect x="104.678" y="84.8674" width="70.8154" height="1.96709" rx="0.983547" fill="#C4C4C4"/>
<rect x="104.678" y="88.8016" width="70.8154" height="1.96709" rx="0.983547" fill="#C4C4C4"/>
<rect x="104.678" y="92.736" width="70.8154" height="1.96709" rx="0.983547" fill="#C4C4C4"/>
<circle cx="105.044" cy="35.6118" r="2.08895" fill="white"/>
<circle cx="110.894" cy="35.6118" r="2.08895" fill="white"/>
<circle cx="116.741" cy="35.6118" r="2.08895" fill="white"/>
<path d="M180.746 149.615C180.747 149.368 180.898 149.148 181.147 149.093C182.041 148.896 182.915 152.616 183.118 153.166C184.811 157.754 186.594 162.43 187.947 167.105C188.22 168.047 186.96 168.739 186.38 167.891C184.326 164.889 183.069 157.673 182.018 154.044C181.643 152.749 180.739 150.979 180.746 149.615ZM187.751 168.002C187.058 168.659 185.884 167.924 186.31 167.02C187.161 165.211 189.696 163.073 191.174 161.727C191.856 161.105 192.989 161.804 192.597 162.692C191.794 164.515 189.205 166.623 187.751 168.002ZM191.247 163.022C190.543 162.393 191.168 161.176 192.102 161.523C193.568 162.069 195.837 164.459 196.98 165.693C197.595 166.358 196.878 167.46 196.021 167.046C194.347 166.235 192.563 164.199 191.247 163.022ZM197.07 166.784C196.535 167.431 195.412 167.039 195.56 166.154C195.69 165.371 197.239 163.818 197.95 163.158C199.082 162.108 199.475 163.859 198.832 164.642C198.64 164.877 198.447 165.111 198.255 165.345C197.892 165.787 197.328 166.472 197.07 166.784ZM198.987 163.049C199.673 163.572 199.23 164.734 198.336 164.512C197.096 164.204 194.648 161.908 193.602 160.816C193.023 160.211 193.696 159.191 194.476 159.591C196.057 160.404 197.724 162.088 198.987 163.049ZM194.751 160.699C194.238 161.342 193.138 160.874 193.401 160.039C193.766 158.876 196.028 156.597 197.142 155.622C197.691 155.141 198.579 155.694 198.276 156.399C197.628 157.909 195.639 159.587 194.751 160.699ZM197.859 155.462C198.571 155.75 198.412 156.854 197.603 156.824C194.532 156.708 188.029 152.923 184.945 151.655C183.659 151.127 182.293 150.679 181.05 150.058C180.541 149.804 180.746 149.001 181.332 149.087C182.424 149.247 183.624 149.963 184.642 150.358C189.03 152.057 193.548 153.717 197.859 155.462Z" fill="#B3B3B3"/>
<path d="M119.573 113.461C119.573 112.64 120.238 111.975 121.059 111.975H121.088H121.118H121.148H121.178H121.208H121.239H121.269H121.3H121.331H121.362H121.393H121.425H121.456H121.488H121.52H121.552H121.584H121.617H121.649H121.682H121.715H121.748H121.781H121.814H121.848H121.881H121.915H121.949H121.983H122.018H122.052H122.087H122.121H122.156H122.191H122.227H122.262H122.297H122.333H122.369H122.405H122.441H122.477H122.514H122.55H122.587H122.624H122.661H122.698H122.735H122.773H122.81H122.848H122.886H122.924H122.962H123H123.039H123.077H123.116H123.155H123.194H123.233H123.272H123.312H123.351H123.391H123.431H123.471H123.511H123.551H123.591H123.632H123.673H123.713H123.754H123.795H123.837H123.878H123.919H123.961H124.003H124.044H124.086H124.128H124.171H124.213H124.255H124.298H124.341H124.383H124.426H124.47H124.513H124.556H124.6H124.643H124.687H124.731H124.775H124.819H124.863H124.907H124.951H124.996H125.041H125.085H125.13H125.175H125.22H125.266H125.311H125.356H125.402H125.448H125.494H125.539H125.585H125.632H125.678H125.724H125.771H125.817H125.864H125.911H125.958H126.005H126.052H126.099H126.146H126.194H126.241H126.289H126.337H126.384H126.432H126.48H126.529H126.577H126.625H126.674H126.722H126.771H126.82H126.868H126.917H126.966H127.016H127.065H127.114H127.164H127.213H127.263H127.312H127.362H127.412H127.462H127.512H127.562H127.613H127.663H127.713H127.764H127.815H127.865H127.916H127.967H128.018H128.069H128.12H128.171H128.223H128.274H128.325H128.377H128.429H128.48H128.532H128.584H128.636H128.688H128.74H128.792H128.845H128.897H128.949H129.002H129.054H129.107H129.16H129.213H129.266H129.318H129.372H129.425H129.478H129.531H129.584H129.638H129.691H129.745H129.798H129.852H129.906H129.96H130.013H130.067H130.121H130.175H130.23H130.284H130.338H130.392H130.447H130.501H130.556H130.61H130.665H130.72H130.774H130.829H130.884H130.939H130.994H131.049H131.104H131.159H131.215H131.27H131.325H131.381H131.436H131.492H131.547H131.603H131.658H131.714H131.77H131.826H131.882H131.938H131.994H132.05H132.106H132.162H132.218H132.274H132.33H132.387H132.443H132.499H132.556H132.612H132.669H132.725H132.782H132.839H132.895H132.952H133.009H133.066H133.122H133.179H133.236H133.293H133.35H133.407H133.464H133.521H133.578H133.636H133.693H133.75H133.807H133.865H133.922H133.979H134.037H134.094H134.152H134.209H134.267H134.324H134.382H134.439H134.497H134.555H134.612H134.67H134.728H134.786H134.843H134.901H134.959H135.017H135.075H135.133H135.191H135.249H135.307H135.365H135.423H135.481H135.539H135.597H135.655H135.713H135.771H135.829H135.887H135.945H136.003H136.062H136.12H136.178H136.236H136.294H136.353H136.411H136.469H136.527H136.586H136.644H136.702H136.761H136.819H136.877H136.936H136.994H137.052H137.111H137.169H137.227H137.286H137.344H137.402H137.461H137.519H137.577H137.636H137.694H137.752H137.811H137.869H137.928H137.986H138.044H138.103H138.161H138.219H138.278H138.336H138.394H138.452H138.511H138.569H138.627H138.686H138.744H138.802H138.86H138.919H138.977H139.035H139.093H139.151H139.21H139.268H139.326H139.384H139.442H139.5H139.558H139.616H139.674H139.732H139.79H139.848H139.906H139.964H140.022H140.08H140.138H140.196H140.254H140.311H140.369H140.427H140.485H140.542H140.6H140.658H140.715H140.773H140.831H140.888H140.946H141.003H141.061H141.118H141.176H141.233H141.29H141.348H141.405H141.462H141.519H141.576H141.634H141.691H141.748H141.805H141.862H141.919H141.976H142.033H142.089H142.146H142.203H142.26H142.316H142.373H142.43H142.486H142.543H142.599H142.656H142.712H142.768H142.825H142.881H142.937H142.993H143.049H143.106H143.162H143.218H143.273H143.329H143.385H143.441H143.497H143.552H143.608H143.663H143.719H143.774H143.83H143.885H143.94H143.996H144.051H144.106H144.161H144.216H144.271H144.326H144.381H144.436H144.49H144.545H144.6H144.654H144.708H144.763H144.817H144.872H144.926H144.98H145.034H145.088H145.142H145.196H145.25H145.303H145.357H145.411H145.464H145.518H145.571H145.624H145.678H145.731H145.784H145.837H145.89H145.943H145.996H146.048H146.101H146.154H146.206H146.259H146.311H146.363H146.416H146.468H146.52H146.572H146.624H146.675H146.727H146.779H146.83H146.882H146.933H146.984H147.036H147.087H147.138H147.189H147.24H147.291H147.342H147.393H147.444H147.495H147.546H147.598H147.649H147.701H147.752H147.804H147.856H147.908H147.96H148.012H148.064H148.116H148.169H148.221H148.273H148.326H148.378H148.431H148.484H148.537H148.59H148.643H148.696H148.749H148.802H148.855H148.908H148.962H149.015H149.069H149.123H149.176H149.23H149.284H149.338H149.392H149.446H149.5H149.554H149.608H149.662H149.717H149.771H149.826H149.88H149.935H149.989H150.044H150.099H150.154H150.209H150.263H150.318H150.374H150.429H150.484H150.539H150.594H150.65H150.705H150.761H150.816H150.872H150.927H150.983H151.039H151.094H151.15H151.206H151.262H151.318H151.374H151.43H151.486H151.542H151.599H151.655H151.711H151.767H151.824H151.88H151.937H151.993H152.05H152.106H152.163H152.22H152.277H152.333H152.39H152.447H152.504H152.561H152.618H152.675H152.732H152.789H152.846H152.903H152.96H153.017H153.075H153.132H153.189H153.247H153.304H153.361H153.419H153.476H153.534H153.591H153.649H153.707H153.764H153.822H153.879H153.937H153.995H154.053H154.11H154.168H154.226H154.284H154.342H154.4H154.457H154.515H154.573H154.631H154.689H154.747H154.805H154.863H154.921H154.979H155.038H155.096H155.154H155.212H155.27H155.328H155.386H155.445H155.503H155.561H155.619H155.677H155.736H155.794H155.852H155.911H155.969H156.027H156.085H156.144H156.202H156.26H156.319H156.377H156.435H156.494H156.552H156.61H156.669H156.727H156.785H156.844H156.902H156.961H157.019H157.077H157.136H157.194H157.252H157.311H157.369H157.427H157.486H157.544H157.602H157.661H157.719H157.777H157.836H157.894H157.952H158.01H158.069H158.127H158.185H158.243H158.302H158.36H158.418H158.476H158.534H158.592H158.651H158.709H158.767H158.825H158.883H158.941H158.999H159.057H159.115H159.173H159.231H159.289H159.347H159.405H159.463H159.52H159.578H159.636H159.694H159.752H159.809H159.867H159.925H159.982H160.04H160.098H160.155H160.213H160.27H160.328H160.385H160.443H160.5H160.558H160.615H160.672H160.729H160.787H160.844H160.901H160.958H161.015H161.072H161.129H161.186H161.243H161.3H161.357H161.414H161.471H161.528H161.584H161.641H161.698H161.754H161.811H161.867H161.924H161.98H162.037H162.093H162.149H162.205H162.262H162.318H162.374H162.43H162.486H162.542H162.598H162.654H162.71H162.765H162.821H162.877H162.932H162.988H163.043H163.099H163.154H163.21H163.265H163.32H163.375H163.43H163.485H163.54H163.595H163.65H163.705H163.76H163.815H163.869H163.924H163.978H164.033H164.087H164.141H164.196H164.25H164.304H164.358H164.412H164.466H164.52H164.574H164.628H164.681H164.735H164.788H164.842H164.895H164.949H165.002H165.055H165.108H165.161H165.214H165.267H165.32H165.372H165.425H165.478H165.53H165.583H165.635H165.687H165.739H165.792H165.844H165.896H165.947H165.999H166.051H166.103H166.154H166.206H166.257H166.308H166.36H166.411H166.462H166.513H166.564H166.614H166.665H166.716H166.766H166.817H166.867H166.917H166.967H167.017H167.067H167.117H167.167H167.217H167.266H167.316H167.365H167.415H167.464H167.513H167.562H167.611H167.66H167.709H167.757H167.806H167.854H167.903H167.951H167.999H168.047H168.095H168.143H168.191H168.238H168.286H168.333H168.381H168.428H168.475H168.522H168.569H168.616H168.662H168.709H168.755H168.802H168.848H168.894H168.94H168.986H169.032H169.077H169.123H169.169H169.214H169.259H169.304H169.349H169.394H169.439H169.484H169.528H169.572H169.617H169.661H169.705H169.749H169.793H169.836H169.88H169.924H169.967H170.01H170.053H170.096H170.139H170.182H170.224H170.267H170.309H170.351H170.393H170.435H170.477H170.519H170.56H170.602H170.643H170.684H170.725H170.766H170.807H170.848H170.888H170.928H170.969H171.009H171.049H171.089H171.128H171.168H171.207H171.247H171.286H171.325H171.364H171.402H171.441H171.479H171.518H171.556H171.594H171.632H171.669H171.707H171.744H171.782H171.819H171.856H171.893H171.929H171.966H172.002H172.039H172.075H172.111H172.147H172.182H172.218H172.253H172.288H172.323H172.358H172.393H172.428H172.462H172.496H172.53H172.564H172.598H172.632H172.665H172.699H172.732H172.765H172.798H172.83H172.863H172.895H172.928H172.96H172.992H173.023H173.055H173.086H173.118H173.149H173.179H173.21H173.241H173.271H173.301H173.332H173.361H173.391H173.421C174.241 111.975 174.906 112.64 174.906 113.461V151.341C174.906 152.152 174.258 152.811 173.448 152.825C168.497 152.906 156.207 153.093 147.657 153.103C138.811 153.114 126.078 152.913 121.026 152.826C120.219 152.813 119.573 152.155 119.573 151.343V113.461Z" fill="white" stroke="#B3B3B3" stroke-width="1.48625"/>
<line x1="123.151" y1="114.821" x2="171.663" y2="149.209" stroke="#B3B3B3" stroke-width="1.67116" stroke-linecap="round"/>
<line x1="122.818" y1="149.209" x2="171.329" y2="114.821" stroke="#B3B3B3" stroke-width="1.67116" stroke-linecap="round"/>
<rect x="436.352" y="137.135" width="57.655" height="57.655" rx="2.3062" fill="#B3B3B3"/>
<rect opacity="0.5" x="448.459" y="151.548" width="8.64825" height="1.72965" rx="0.864825" fill="white"/>
<rect x="441.541" y="159.044" width="25.9447" height="1.72965" rx="0.864825" fill="white"/>
<rect x="441.541" y="164.233" width="17.873" height="1.72965" rx="0.864825" fill="white"/>
<rect x="441.541" y="169.422" width="23.6385" height="1.72965" rx="0.864825" fill="white"/>
<rect opacity="0.5" x="461.719" y="164.233" width="17.873" height="1.72965" rx="0.864825" fill="white"/>
<rect x="441.541" y="174.61" width="17.873" height="1.72965" rx="0.864825" fill="white"/>
<rect opacity="0.5" x="441.541" y="179.799" width="10.3779" height="1.72965" rx="0.864825" fill="white"/>
<rect x="461.719" y="174.61" width="17.873" height="1.72965" rx="0.864825" fill="white"/>
<path d="M442.693 142.9L447.306 147.513L442.693 152.125" stroke="white" stroke-width="1.72965" stroke-linecap="round" stroke-linejoin="round"/>
<path d="M484.622 151.587L477.383 138.193L492.752 138.388C493.394 139.418 498.943 149.586 499.964 151.223C496.969 151.194 487.392 151.532 484.622 151.587Z" fill="white"/>
<path fill-rule="evenodd" clip-rule="evenodd" d="M501.264 123.67L483.965 124.079L475.793 138.088L484.305 153.043C484.305 153.043 494.233 152.723 501.47 152.87C501.581 152.872 501.361 152.868 501.47 152.87L509.339 139.512L501.264 123.67ZM501.357 149.438L494.234 137.797L500.641 126.699L507.166 139.376L501.357 149.438ZM492.545 136.822L498.952 125.724L484.815 125.437L478.548 136.717L492.545 136.822ZM485.233 151.34L477.713 138.388L492.545 138.806C493.174 139.81 498.903 149.307 499.904 150.903C501.29 153.11 498.391 148.502 499.904 150.903C496.981 150.865 487.937 151.295 485.233 151.34Z" fill="#B3B3B3"/>
<path d="M518.477 51.357C518.708 51.2449 518.928 51.168 519.19 51.1832C523.162 51.4126 510.453 56.6156 508.503 57.2875C508.426 57.3138 508.279 57.3594 508.272 57.3621C507.36 57.6986 506.344 56.9539 506.614 55.9449C507.199 53.7626 516.986 52.0809 518.477 51.357ZM506.634 56.6373C505.63 53.0149 513.111 62.3932 513.331 66.3133C513.483 69.0185 507.314 59.0889 506.634 56.6373ZM512.951 67.2698C512.955 67.2675 510.998 65.918 511.611 65.5076C513.532 64.2224 519.019 62.3955 522.143 61.0194C522.313 60.9448 522.653 60.8187 522.659 60.8153C523.815 60.1366 525.074 61.6741 523.989 62.562C522.07 64.1319 516.73 65.627 513.798 66.9403C513.589 67.0339 512.339 67.6942 512.951 67.2698ZM524.337 61.3693C525.221 64.5816 518.651 54.3159 518.032 53.0612C517.92 52.8339 517.85 52.6085 517.867 52.3514C518.093 48.9477 523.714 59.1058 524.337 61.3693Z" fill="#B3B3B3"/>
<path d="M525.851 44.0668C526.107 44.0462 525.051 45.1994 525.29 45.3085C528.908 46.9631 516.937 45.8713 514.876 45.7899C514.795 45.7867 514.642 45.7759 514.634 45.7757C513.662 45.7586 512.985 44.6959 513.603 43.8538C514.94 42.0322 524.198 44.2003 525.851 44.0668ZM513.371 44.5063C513.749 40.7664 517.318 52.2195 516.101 55.9524C515.261 58.5285 513.115 47.0373 513.371 44.5063ZM515.4 56.706C515.404 56.7051 514.156 45.9499 514.876 45.7899C517.132 45.2889 521.88 45.4576 525.29 45.3085C525.475 45.3004 527.855 54.8659 528.151 55.7946C528.176 55.8739 528.728 55.8894 527.394 56.323C525.036 57.0897 519.518 56.5461 516.309 56.7061C516.08 56.7175 514.676 56.8796 515.4 56.706ZM528.151 55.7946C528.501 57.1174 525.411 46.7022 525.29 45.3085C525.268 45.056 525.284 44.8205 525.393 44.5872C526.839 41.4973 527.55 53.5252 528.151 55.7946Z" fill="#B3B3B3"/>
<path d="M33.0367 179.582C33.2545 179.446 33.4649 179.346 33.7268 179.333C37.7004 179.139 25.6168 185.664 23.7488 186.539C23.6756 186.573 23.5342 186.634 23.5272 186.638C22.6565 187.069 21.5668 186.437 21.7284 185.405C22.0778 183.173 31.6304 180.46 33.0367 179.582ZM21.8218 186.091C20.4386 182.596 28.8735 191.126 29.5091 195.001C29.9477 197.674 22.758 188.457 21.8218 186.091ZM29.2332 195.992C29.2363 195.989 27.1474 194.856 27.7135 194.382C29.4863 192.9 34.749 190.5 37.7088 188.8C37.8692 188.708 38.1946 188.546 38.2001 188.542C39.2769 187.745 40.693 189.14 39.7081 190.138C37.9665 191.903 32.8163 193.957 30.0401 195.574C29.8424 195.69 28.6701 196.479 29.2332 195.992ZM39.9275 188.915C41.1479 192.015 33.5238 182.506 32.7753 181.324C32.6397 181.11 32.5459 180.893 32.5356 180.636C32.3985 177.227 39.0675 186.73 39.9275 188.915Z" fill="#B3B3B3"/>
<path d="M40.18 184.429C40.3827 184.271 40.1317 185.814 40.391 185.775C44.3239 185.176 33.7139 190.824 31.9452 191.886C31.8759 191.928 31.7415 192.003 31.7349 192.007C30.9128 192.525 29.7642 192.007 29.8194 190.964C29.9387 188.708 38.8708 185.446 40.18 184.429ZM29.9826 191.638C28.2491 188.302 37.5121 195.925 38.5406 199.714C39.2504 202.329 31.1557 193.895 29.9826 191.638ZM38.3676 200.728C38.3704 200.726 31.4304 192.415 31.9452 191.886C33.5571 190.23 37.6205 187.769 40.391 185.775C40.5411 185.667 47.7757 192.362 48.5318 192.977C48.5964 193.029 49.0665 192.74 48.1888 193.834C46.6368 195.767 41.7238 198.338 39.1276 200.231C38.9426 200.365 37.8572 201.271 38.3676 200.728ZM48.5318 192.977C49.5499 193.891 41.2565 186.874 40.391 185.775C40.2342 185.576 40.1188 185.37 40.0822 185.115C39.5973 181.738 46.7852 191.408 48.5318 192.977Z" fill="#B3B3B3"/>
</svg>
