<svg width="24" height="24" viewBox="0 0 24 24" fill="none" xmlns="http://www.w3.org/2000/svg">
<rect x="-987" y="-64" width="1252" height="5526" fill="white"/>
<path fill-rule="evenodd" clip-rule="evenodd" d="M12 19.75C16.2802 19.75 19.75 16.2802 19.75 12C19.75 7.71979 16.2802 4.25 12 4.25C7.71979 4.25 4.25 7.71979 4.25 12C4.25 16.2802 7.71979 19.75 12 19.75Z" stroke="#193044" stroke-width="2"/>
<path d="M9.51172 4.98706C9.51172 4.98706 12.0187 8.86811 12.8235 10.7155C14.0778 13.5128 15.5063 18.7905 15.5063 18.7905" stroke="#193044" stroke-width="2" stroke-linecap="square"/>
<path d="M7.22656 17.1916C7.22656 17.1916 9.71828 14.0193 12.104 13.0293C14.9227 11.8239 19.4626 12.5804 19.4626 12.5804" stroke="#193044" stroke-width="2" stroke-linecap="square"/>
<path d="M17.293 6.89984C17.293 6.89984 14.5442 9.03762 12.1761 10.0692C9.37883 11.3235 4.96856 10.9398 4.96856 10.9398" stroke="#193044" stroke-width="2" stroke-linecap="square"/>
</svg>
