<svg width="555" height="522" viewBox="0 0 555 522" fill="none" xmlns="http://www.w3.org/2000/svg">
<g clip-path="url(#clip0)">
<path fill-rule="evenodd" clip-rule="evenodd" d="M87.8817 83.3176C85.6185 83.3833 83.7131 84.5988 82.2498 86.3913C80.2988 88.781 79.1528 92.2097 78.9658 95.0094C78.4147 103.3 78.0417 120.895 77.9276 138.45C77.8122 156.2 77.9626 173.908 78.4388 181.921C78.5567 183.895 79.0966 187.122 80.8426 189.308C81.9852 190.738 83.6099 191.761 85.9134 191.856C95.7392 192.254 119.026 192.421 142.317 192.312C165.592 192.203 188.87 191.818 198.733 191.243C200.459 191.138 202.284 190.088 203.639 188.514C204.862 187.093 205.691 185.273 205.785 183.52C206.141 176.826 206.211 163.712 206.091 149.281C205.937 130.755 205.478 110.057 205.038 98.0306C204.88 93.7986 204.047 89.7889 202.054 86.8333C199.965 83.7343 196.646 81.6963 191.453 81.7244C165.841 81.8814 146.844 81.9584 129.312 82.2223C115.434 82.4312 102.475 82.758 87.8817 83.3176V83.3176ZM87.9412 85.0875C102.523 84.6661 115.471 84.4694 129.334 84.3837C146.863 84.2752 165.854 84.3461 191.459 84.4017C195.52 84.4076 198.149 85.9288 199.767 88.364C201.479 90.9428 202.1 94.4502 202.212 98.1264C202.588 110.136 202.914 130.804 202.995 149.301C203.058 163.651 202.977 176.692 202.606 183.347C202.546 184.437 201.984 185.548 201.222 186.431C200.465 187.308 199.505 187.994 198.542 188.051C188.71 188.654 165.502 189.068 142.296 189.28C119.057 189.492 95.8211 189.5 86.0147 189.161C84.2141 189.1 83.0906 188.096 82.3779 186.844C81.4285 185.176 81.1353 183.1 81.0452 181.756C80.5082 173.778 80.2279 156.139 80.1987 138.455C80.1699 120.949 80.3868 103.4 80.8665 95.1277C81.0082 92.6705 81.9761 89.6503 83.6682 87.5384C84.779 86.1521 86.2041 85.1539 87.9412 85.0875V85.0875Z" fill="black"/>
<path fill-rule="evenodd" clip-rule="evenodd" d="M94.5716 170.142L189.582 169.39C189.582 169.39 173.396 139.372 168.179 139.685C161.914 140.061 150.66 155.481 151.474 159.238C152.287 162.994 124.353 116.446 119.107 116.372C113.862 116.298 92.4162 165.909 94.5716 170.142V170.142Z" fill="white"/>
<path fill-rule="evenodd" clip-rule="evenodd" d="M150.152 155.903C151.177 153.327 153.396 149.806 156.039 146.596C158.284 143.868 160.835 141.366 163.195 139.832C164.795 138.793 166.339 138.192 167.676 138.114C168.512 138.065 169.581 138.418 170.74 139.295C172.466 140.601 174.651 143.177 176.912 146.327C183.286 155.211 190.495 168.699 190.495 168.699C190.745 169.162 190.734 169.722 190.466 170.175C190.198 170.627 189.713 170.906 189.187 170.911L94.1716 171.049C93.836 171.051 93.5278 170.864 93.3756 170.565C93.0552 169.947 93.0539 168.487 93.4992 166.415C94.855 160.105 99.8342 147.16 105.028 135.929C108.99 127.363 113.099 119.797 115.808 116.826C116.925 115.6 117.983 115.095 118.719 115.101C119.443 115.107 120.57 115.641 121.871 116.824C125.373 120.008 131.293 128.15 136.988 136.444C142.268 144.132 147.362 151.942 150.152 155.903V155.903ZM118.735 117.692C118.643 117.748 118.286 117.973 118.052 118.193C117.349 118.855 116.529 119.908 115.618 121.257C112.45 125.941 108.313 134.031 104.567 142.32C100.832 150.582 97.4857 159.04 95.8811 164.541C95.4133 166.145 95.0931 167.489 94.9651 168.492C94.9268 168.793 94.8941 169.053 94.8864 169.267L186.646 167.948C184.671 164.433 180.554 157.282 176.437 151.18C173.876 147.386 171.335 143.994 169.311 142.236C168.971 141.941 168.652 141.697 168.352 141.519C168.162 141.407 168.014 141.289 167.867 141.299C166.984 141.353 165.996 141.83 164.938 142.516C162.809 143.898 160.516 146.161 158.482 148.614C156.384 151.146 154.563 153.882 153.492 156.098C152.896 157.331 152.456 158.316 152.587 158.929C152.825 160.05 152.206 160.574 151.916 160.764C151.62 160.959 150.658 161.375 149.692 160.399C149.195 159.896 148.106 158.398 146.632 156.217C141.596 148.76 131.606 132.97 124.591 123.931C122.609 121.377 120.885 119.37 119.586 118.299C119.219 117.996 118.963 117.732 118.735 117.692V117.692Z" fill="black"/>
<path fill-rule="evenodd" clip-rule="evenodd" d="M97.0855 169.66L187.248 168.635C187.248 168.635 173.532 141.469 168.916 141.746C163.374 142.078 153.855 159.643 150.027 159.561C142.659 149.97 125.369 119.617 120.728 119.551C116.086 119.485 95.1784 165.915 97.0855 169.66V169.66Z" fill="#D6D6D6"/>
<path d="M167.537 116.737C172.105 116.737 175.808 112.92 175.808 108.21C175.808 103.501 172.105 99.6838 167.537 99.6838C162.969 99.6838 159.266 103.501 159.266 108.21C159.266 112.92 162.969 116.737 167.537 116.737Z" fill="white"/>
<path fill-rule="evenodd" clip-rule="evenodd" d="M167.611 98.737C165.021 98.6425 162.652 99.6826 160.905 101.389C159.163 103.09 158.085 105.486 157.997 108.149C157.928 110.864 158.947 113.347 160.627 115.175C162.377 117.079 164.866 118.238 167.611 118.275C170.358 118.246 172.854 117.091 174.609 115.188C176.295 113.36 177.316 110.869 177.248 108.149C177.157 105.481 176.077 103.08 174.328 101.378C172.576 99.6731 170.203 98.6361 167.611 98.737ZM167.611 100.508C169.632 100.586 171.412 101.531 172.677 102.956C173.888 104.319 174.584 106.155 174.517 108.149C174.468 110.089 173.645 111.813 172.397 113.074C171.161 114.322 169.474 115.096 167.611 115.076C165.745 115.101 164.051 114.335 162.811 113.087C161.557 111.825 160.731 110.095 160.682 108.149C160.616 106.15 161.317 104.309 162.533 102.945C163.802 101.521 165.588 100.582 167.611 100.508V100.508Z" fill="black"/>
<path d="M168.162 116.12C171.67 116.12 174.515 113.188 174.515 109.571C174.515 105.954 171.67 103.021 168.162 103.021C164.653 103.021 161.809 105.954 161.809 109.571C161.809 113.188 164.653 116.12 168.162 116.12Z" fill="#D6D6D6"/>
<path fill-rule="evenodd" clip-rule="evenodd" d="M353.417 265.237C353.417 265.237 360.09 265.57 368.608 265.792C371.811 265.876 375.272 265.955 378.735 265.95C382.199 265.946 385.66 265.851 388.863 265.766C397.38 265.541 404.054 265.237 404.054 265.237C404.543 265.237 404.94 264.84 404.94 264.351C404.94 263.862 404.543 263.466 404.054 263.466C404.054 263.466 397.38 263.161 388.863 262.936C385.66 262.851 382.199 262.756 378.735 262.752C375.272 262.747 371.811 262.826 368.608 262.91C360.09 263.132 353.417 263.466 353.417 263.466C352.928 263.466 352.531 263.862 352.531 264.351C352.531 264.84 352.928 265.237 353.417 265.237V265.237Z" fill="black"/>
<path fill-rule="evenodd" clip-rule="evenodd" d="M353.417 235.516C353.417 235.516 362.707 235.849 374.552 236.071C379.009 236.155 383.825 236.234 388.642 236.229C393.46 236.225 398.276 236.131 402.733 236.046C414.577 235.82 423.868 235.516 423.868 235.516C424.357 235.516 424.753 235.119 424.753 234.63C424.753 234.142 424.357 233.745 423.868 233.745C423.868 233.745 414.577 233.441 402.733 233.215C398.276 233.13 393.46 233.035 388.642 233.031C383.825 233.027 379.009 233.106 374.552 233.189C362.707 233.411 353.417 233.745 353.417 233.745C352.928 233.745 352.531 234.142 352.531 234.63C352.531 235.119 352.928 235.516 353.417 235.516Z" fill="black"/>
<path fill-rule="evenodd" clip-rule="evenodd" d="M432.249 235.516C432.249 235.516 438.232 235.849 445.874 236.071C448.747 236.155 451.851 236.234 454.957 236.229C458.064 236.225 461.168 236.131 464.041 236.046C471.681 235.82 477.666 235.516 477.666 235.516C478.155 235.516 478.551 235.119 478.551 234.63C478.551 234.142 478.155 233.745 477.666 233.745C477.666 233.745 471.681 233.441 464.041 233.215C461.168 233.13 458.064 233.035 454.957 233.031C451.851 233.027 448.747 233.106 445.874 233.189C438.232 233.411 432.249 233.745 432.249 233.745C431.76 233.745 431.363 234.142 431.363 234.63C431.363 235.119 431.76 235.516 432.249 235.516Z" fill="black"/>
<path fill-rule="evenodd" clip-rule="evenodd" d="M353.417 251.25C353.417 251.25 369.772 251.584 390.608 251.806C398.45 251.89 406.926 251.968 415.403 251.964C423.879 251.96 432.355 251.865 440.197 251.78C461.033 251.555 477.389 251.25 477.389 251.25C477.877 251.25 478.274 250.854 478.274 250.365C478.274 249.876 477.877 249.479 477.389 249.479C477.389 249.479 461.033 249.175 440.197 248.949C432.355 248.864 423.879 248.77 415.403 248.766C406.926 248.761 398.45 248.84 390.608 248.924C369.772 249.146 353.417 249.479 353.417 249.479C352.928 249.479 352.531 249.876 352.531 250.365C352.531 250.854 352.928 251.25 353.417 251.25Z" fill="black"/>
<path fill-rule="evenodd" clip-rule="evenodd" d="M353.417 218.986C353.417 218.986 369.772 219.32 390.608 219.542C398.45 219.626 406.926 219.705 415.403 219.7C423.879 219.696 432.355 219.601 440.197 219.516C461.033 219.291 477.389 218.986 477.389 218.986C477.877 218.986 478.274 218.59 478.274 218.101C478.274 217.612 477.877 217.215 477.389 217.215C477.389 217.215 461.033 216.911 440.197 216.685C432.355 216.6 423.879 216.506 415.403 216.502C406.926 216.497 398.45 216.576 390.608 216.66C369.772 216.882 353.417 217.215 353.417 217.215C352.928 217.215 352.531 217.612 352.531 218.101C352.531 218.59 352.928 218.986 353.417 218.986Z" fill="black"/>
<path fill-rule="evenodd" clip-rule="evenodd" d="M191.761 327.885C177.37 327.75 167.937 327.61 160.063 327.599C149.438 327.584 141.66 327.691 128.376 327.621C127.888 327.614 127.485 328.005 127.479 328.494C127.472 328.983 127.863 329.385 128.352 329.392C141.643 329.69 149.427 329.899 160.06 329.914C167.934 329.925 177.368 329.768 191.76 329.655C192.249 329.656 192.646 329.259 192.646 328.771C192.646 328.282 192.25 327.885 191.761 327.885V327.885Z" fill="black"/>
<path fill-rule="evenodd" clip-rule="evenodd" d="M57.1562 248.085C57.2556 235.758 57.3519 222.84 57.3715 209.713C57.3842 201.237 57.3649 192.674 57.2941 184.127C57.0452 154.11 56.942 123.045 57.0465 96.4315C57.1441 71.5769 57.4228 50.607 57.937 38.0074C58.2115 31.2456 58.4213 26.5035 61.3607 23.5432C63.8159 21.0706 68.1193 19.93 75.6983 19.7304C115.619 18.6742 154.873 18.089 195.63 17.7363C277.138 17.0309 364.658 17.3112 475.551 17.1075C488.729 17.0782 495.8 17.4104 499.597 19.3495C502.358 20.7593 503.126 23.1112 503.411 26.8227C503.688 30.4442 503.473 35.2638 503.748 41.6631C504.707 63.8997 505.611 98.6 506.241 136.014C506.771 167.493 507.107 200.892 507.115 230.407C507.115 230.895 507.512 231.292 508 231.293C508.489 231.293 508.886 230.896 508.886 230.408C508.926 200.884 508.646 167.473 508.166 135.983C507.595 98.5473 506.743 63.826 505.819 41.5754C505.483 33.5183 505.898 27.9392 505.176 24.0898C504.59 20.9693 503.303 18.8836 500.555 17.4762C496.606 15.4532 489.261 14.9585 475.548 14.9714C382.54 15.0875 305.972 14.8247 235.604 15.1778C180.101 15.4563 128.454 16.1238 75.64 17.5689C67.252 17.8 62.553 19.2943 59.8391 22.0341C56.6018 25.3022 56.1085 30.466 55.8147 37.9226C55.3202 50.5396 55.0732 71.5375 55.0167 96.4252C54.9562 123.046 55.1134 154.12 55.4135 184.144C55.4988 192.685 55.5327 201.242 55.5344 209.712C55.5372 222.835 55.4633 235.749 55.3851 248.072C55.3816 248.56 55.7755 248.96 56.2642 248.964C56.7528 248.967 57.1525 248.573 57.156 248.085H57.1562Z" fill="black"/>
<path fill-rule="evenodd" clip-rule="evenodd" d="M432.129 326.008C413.738 326.29 392.236 326.492 369.23 326.7C350.375 326.87 330.51 327.019 310.52 327.182C280.445 327.427 250.086 327.704 222.453 327.826C221.964 327.827 221.568 328.224 221.568 328.713C221.569 329.202 221.967 329.598 222.455 329.597C255.246 329.633 291.876 329.641 327.313 329.352C365.823 329.039 402.923 328.4 432.162 327.779C432.651 327.77 433.04 327.366 433.031 326.877C433.022 326.388 432.618 325.999 432.129 326.008V326.008Z" fill="black"/>
<path fill-rule="evenodd" clip-rule="evenodd" d="M225.08 211.276C222.689 211.287 220.744 211.77 219.312 212.431C217.399 213.313 216.376 214.583 216.185 215.56C215.648 218.313 215.307 224.16 215.228 229.995C215.148 235.911 215.343 241.815 215.84 244.488C215.981 245.244 216.483 246.511 218.37 247.394C219.398 247.875 220.908 248.252 223.133 248.293C232.925 248.464 256.131 248.64 279.342 248.676C302.536 248.713 325.733 248.611 335.561 248.442C337.309 248.406 339.126 247.978 340.372 247.414C341.784 246.775 342.523 245.795 342.644 245.06C343.014 242.808 343.102 238.394 342.999 233.539C342.87 227.404 342.451 220.551 342.031 216.568C341.856 214.912 341.024 213.292 338.82 212.095C336.858 211.029 333.601 210.279 328.366 210.304C302.825 210.454 283.88 210.543 266.396 210.708C252.557 210.838 239.634 211.019 225.08 211.276ZM339.555 244.205C339.865 241.982 339.917 237.98 339.841 233.6C339.736 227.557 339.372 220.806 338.979 216.882C338.873 215.824 338.093 214.938 336.281 214.285C334.532 213.654 331.99 213.281 328.368 213.269C302.829 213.152 283.887 213.065 266.404 213.023C252.569 212.989 239.65 212.981 225.099 213.047C223.426 213.076 222.005 213.359 220.866 213.776C219.228 214.376 218.179 215.173 218.045 215.911C217.554 218.604 217.307 224.315 217.3 230.01C217.293 235.751 217.529 241.477 218.042 244.065C218.127 244.493 218.571 245.119 219.884 245.539C220.684 245.795 221.749 245.954 223.162 245.963C232.949 246.034 256.14 245.911 279.336 245.769C302.506 245.627 325.681 245.466 335.498 245.247C336.982 245.22 339.068 244.404 339.555 244.205V244.205Z" fill="black"/>
<path fill-rule="evenodd" clip-rule="evenodd" d="M227.494 214.766C259.084 214.444 282.663 214.462 326.541 214.435C335.393 214.43 337.925 216.498 338.182 218.793C338.875 224.991 339.523 239.133 338.728 243.562C338.575 244.413 335.907 245.32 333.411 245.365C314.561 245.707 244.401 245.829 225.632 245.615C220.838 245.56 219.85 243.914 219.68 243.099C218.716 238.483 218.855 222.751 219.846 217.919C220.113 216.618 222.873 214.813 227.494 214.766V214.766Z" fill="#D6D6D6"/>
<path fill-rule="evenodd" clip-rule="evenodd" d="M354.607 181.472C354.601 183.624 354.851 185.328 355.18 186.509C355.594 187.996 356.299 188.751 356.739 188.911C357.985 189.365 360.632 189.661 363.278 189.72C365.979 189.78 368.673 189.582 369.896 189.151C370.257 189.024 370.962 188.648 371.412 187.124C371.653 186.305 371.853 185.036 371.882 183.07C372.009 173.719 372.226 149.482 372.297 127.654C372.348 111.935 372.31 97.4655 372.259 90.7024C372.241 89.1461 372.011 87.5208 371.728 86.5405C371.376 85.3209 370.622 84.7623 370.24 84.6443C369.175 84.3155 367.091 84.2087 364.796 84.2965C362.047 84.4016 358.976 84.746 357.192 85.0957C356.356 85.2603 355.362 85.8518 354.72 87.6654C354.181 89.1875 353.785 91.9246 353.803 96.6054C353.918 113.54 353.993 126.944 354.098 139.037C354.227 153.794 354.391 166.596 354.607 181.472V181.472ZM368.66 87.5478C367.733 87.4121 366.374 87.4118 364.911 87.4618C362.414 87.5472 359.633 87.8304 357.941 88.1386C357.874 88.2469 357.731 88.4904 357.65 88.7153C357.419 89.3512 357.234 90.2458 357.097 91.4722C356.948 92.7992 356.86 94.483 356.853 96.6044L356.378 181.461C356.397 182.738 356.509 183.841 356.673 184.75C356.877 185.883 357.389 186.973 357.481 187.163C358.656 187.53 360.985 187.704 363.306 187.717C365.634 187.729 367.958 187.581 369.081 187.208C369.141 187.088 369.424 186.488 369.547 185.612C369.638 184.959 369.692 184.124 369.69 183.055L369.065 90.7358C369.055 89.6819 368.795 88.232 368.66 87.5478V87.5478Z" fill="black"/>
<path fill-rule="evenodd" clip-rule="evenodd" d="M356.484 180.741C356.349 154.782 356.357 135.406 356.346 99.3501C356.343 92.0761 357.206 89.9953 358.163 89.7844C360.749 89.2151 366.648 88.6825 368.496 89.3359C368.851 89.4614 369.229 91.6542 369.248 93.7051C369.391 109.194 369.442 166.848 369.352 182.271C369.329 186.211 368.643 187.022 368.303 187.162C366.377 187.955 359.815 187.84 357.799 187.025C357.256 186.806 356.503 184.539 356.484 180.741V180.741Z" fill="#D6D6D6"/>
<path fill-rule="evenodd" clip-rule="evenodd" d="M376.192 184.239C376.186 185.758 376.506 186.94 376.899 187.726C377.349 188.629 377.977 189.067 378.44 189.174C379.665 189.457 382.27 189.65 384.871 189.705C387.52 189.76 390.163 189.664 391.362 189.413C391.753 189.332 392.385 189.084 392.888 188.182C393.199 187.626 393.483 186.718 393.517 185.221C393.638 179.484 393.835 164.615 393.894 151.222C393.937 141.575 393.897 132.695 393.844 128.544C393.822 127.388 393.521 126.183 393.173 125.496C392.747 124.656 392.105 124.3 391.651 124.214C390.625 124.021 388.616 123.965 386.405 124.022C383.689 124.093 380.655 124.315 378.892 124.533C377.905 124.655 376.874 125.178 376.185 126.767C375.73 127.817 375.398 129.514 375.419 132.182C375.562 145.055 375.651 154.602 375.783 163.414C375.888 170.39 376.023 176.903 376.192 184.239V184.239ZM390.418 127.254C389.449 127.162 388.018 127.154 386.476 127.183C383.866 127.231 380.95 127.403 379.255 127.595C379.171 127.604 379.142 127.705 379.077 127.82C378.914 128.108 378.786 128.499 378.68 129.013C378.516 129.809 378.418 130.845 378.408 132.18L377.963 184.222C377.981 184.999 378.098 185.662 378.267 186.197C378.436 186.73 378.823 187.237 378.902 187.336C380.082 187.564 382.489 187.661 384.889 187.651C387.295 187.642 389.694 187.523 390.824 187.273C390.84 187.253 390.895 187.179 390.927 187.118C391.015 186.95 391.082 186.722 391.136 186.422C391.195 186.091 391.225 185.688 391.225 185.197L390.65 128.599C390.644 128.191 390.511 127.612 390.418 127.254V127.254Z" fill="black"/>
<path fill-rule="evenodd" clip-rule="evenodd" d="M379.365 183.569C379.236 168.057 379.243 156.479 379.232 134.933C379.23 130.586 380.058 129.343 380.977 129.217C383.46 128.877 389.123 128.558 390.897 128.949C391.237 129.024 391.6 130.334 391.619 131.56C391.756 140.815 391.804 175.267 391.719 184.483C391.697 186.837 391.038 187.322 390.711 187.406C388.863 187.879 382.563 187.811 380.628 187.324C380.106 187.193 379.384 185.838 379.365 183.569Z" fill="#D6D6D6"/>
<path fill-rule="evenodd" clip-rule="evenodd" d="M399.089 183.626C399.083 185.295 399.376 186.601 399.744 187.484C400.187 188.548 400.846 189.067 401.307 189.189C402.538 189.514 405.154 189.731 407.767 189.786C410.429 189.842 413.086 189.719 414.291 189.424C414.678 189.33 415.34 189.051 415.834 187.97C416.116 187.351 416.366 186.359 416.397 184.763C416.52 178.122 416.725 160.911 416.788 145.409C416.833 134.245 416.794 123.968 416.742 119.164C416.721 117.919 416.448 116.62 416.126 115.864C415.718 114.903 415.032 114.496 414.593 114.4C413.557 114.173 411.529 114.106 409.297 114.17C406.572 114.249 403.529 114.5 401.76 114.75C400.77 114.891 399.669 115.484 398.994 117.405C398.578 118.592 398.287 120.471 398.306 123.367C398.45 138.269 398.54 149.321 398.674 159.521C398.78 167.596 398.918 175.135 399.089 183.626V183.626ZM413.262 117.408C412.304 117.304 410.896 117.298 409.378 117.332C406.803 117.391 403.928 117.592 402.232 117.814C402.187 117.87 402.062 118.036 401.993 118.188C401.824 118.56 401.687 119.054 401.578 119.696C401.419 120.629 401.325 121.83 401.316 123.366L400.86 183.612C400.878 184.517 400.994 185.292 401.162 185.924C401.341 186.599 401.76 187.24 401.85 187.371C403.031 187.635 405.413 187.752 407.787 187.749C410.169 187.746 412.546 187.621 413.675 187.339C413.695 187.314 413.738 187.254 413.766 187.204C413.888 186.981 413.982 186.653 414.051 186.185C414.109 185.793 414.14 185.317 414.139 184.742L413.547 119.211C413.54 118.629 413.372 117.855 413.262 117.408V117.408Z" fill="black"/>
<path fill-rule="evenodd" clip-rule="evenodd" d="M399.714 182.804C399.58 164.675 399.587 151.142 399.576 125.96C399.574 120.88 400.437 119.427 401.394 119.279C403.98 118.882 409.879 118.51 411.726 118.966C412.081 119.054 412.459 120.585 412.478 122.018C412.621 132.836 412.672 173.102 412.583 183.873C412.56 186.625 411.873 187.192 411.533 187.289C409.608 187.843 403.045 187.762 401.029 187.194C400.487 187.04 399.734 185.457 399.714 182.804V182.804Z" fill="#D6D6D6"/>
<path fill-rule="evenodd" clip-rule="evenodd" d="M420.657 185.789C420.653 186.791 420.943 187.592 421.314 188.168C421.792 188.91 422.453 189.283 422.971 189.368C424.185 189.564 426.764 189.711 429.34 189.77C431.959 189.83 434.572 189.79 435.757 189.637C436.193 189.581 436.882 189.355 437.42 188.601C437.734 188.161 438.006 187.489 438.041 186.442C438.14 183.179 438.287 175.448 438.346 167.712C438.404 159.98 438.372 152.246 438.309 148.969C438.285 148.144 438.005 147.287 437.647 146.722C437.183 145.991 436.537 145.65 436.017 145.586C435.013 145.463 433.046 145.432 430.883 145.476C428.185 145.532 425.171 145.693 423.42 145.845C422.343 145.941 421.307 146.414 420.617 147.718C420.205 148.495 419.9 149.66 419.921 151.396C420.058 159.901 420.145 166.208 420.27 172.029C420.37 176.639 420.496 180.941 420.657 185.789V185.789ZM435.042 148.689C434.049 148.619 432.55 148.609 430.929 148.623C428.301 148.646 425.364 148.744 423.657 148.864C423.423 148.88 423.249 149.051 423.12 149.397C422.941 149.875 422.845 150.525 422.836 151.394L422.428 185.763C422.44 186.139 422.517 186.467 422.629 186.743C422.797 187.157 423.012 187.465 423.24 187.494C424.409 187.641 426.884 187.686 429.352 187.658C431.832 187.629 434.304 187.522 435.421 187.34C435.502 187.326 435.536 187.192 435.587 186.944C435.619 186.791 435.631 186.612 435.631 186.403L435.115 149.052C435.112 148.948 435.079 148.81 435.042 148.689V148.689Z" fill="black"/>
<path fill-rule="evenodd" clip-rule="evenodd" d="M442.3 184.834C442.295 185.984 442.521 186.92 442.824 187.614C443.295 188.693 444.037 189.223 444.568 189.334C445.79 189.588 448.387 189.766 450.981 189.821C453.62 189.877 456.253 189.799 457.448 189.579C457.836 189.508 458.441 189.283 458.946 188.516C459.284 188.003 459.603 187.15 459.64 185.711C459.759 180.599 459.949 167.35 460.005 155.416C460.045 146.82 460.005 138.907 459.952 135.208C459.929 134.106 459.599 132.96 459.225 132.319C458.792 131.576 458.188 131.257 457.727 131.18C456.708 131.01 454.713 130.962 452.517 131.014C449.807 131.079 446.779 131.281 445.02 131.478C444.05 131.586 443.074 132.057 442.382 133.398C441.888 134.356 441.513 135.93 441.536 138.455C441.678 149.924 441.766 158.43 441.897 166.281C442 172.496 442.133 178.298 442.3 184.834ZM456.568 134.242C455.591 134.157 454.142 134.149 452.58 134.173C449.964 134.214 447.042 134.363 445.343 134.532C445.227 134.543 445.164 134.658 445.08 134.816C444.963 135.033 444.865 135.306 444.784 135.644C444.615 136.342 444.516 137.26 444.506 138.454L444.071 184.815C444.088 185.501 444.206 186.083 444.376 186.55C444.536 186.989 444.903 187.407 444.972 187.483C446.15 187.686 448.576 187.768 450.996 187.753C453.456 187.738 455.908 187.62 457.015 187.387C457.035 187.382 457.016 187.337 457.041 187.297C457.121 187.168 457.18 186.986 457.229 186.748C457.289 186.463 457.318 186.112 457.318 185.683L456.758 135.269C456.752 134.961 456.649 134.533 456.568 134.242V134.242Z" fill="black"/>
<path fill-rule="evenodd" clip-rule="evenodd" d="M465.209 183.291C465.203 185.007 465.49 186.353 465.851 187.265C466.292 188.377 466.959 188.92 467.418 189.047C468.651 189.385 471.27 189.609 473.886 189.664C476.553 189.721 479.213 189.59 480.42 189.282C480.806 189.183 481.475 188.895 481.964 187.763C482.24 187.124 482.482 186.105 482.513 184.475C482.637 177.556 482.843 159.625 482.907 143.474C482.953 131.843 482.914 121.136 482.862 116.131C482.841 114.857 482.575 113.527 482.26 112.748C481.857 111.755 481.16 111.332 480.727 111.233C479.688 110.997 477.654 110.925 475.415 110.992C472.688 111.073 469.641 111.334 467.872 111.594C466.883 111.74 465.763 112.355 465.094 114.372C464.686 115.601 464.405 117.537 464.423 120.508C464.568 136.034 464.658 147.549 464.793 158.177C464.899 166.59 465.037 174.444 465.209 183.291V183.291ZM479.366 114.231C478.411 114.125 477.01 114.119 475.5 114.155C472.934 114.216 470.071 114.426 468.375 114.657C468.326 114.723 468.19 114.911 468.116 115.084C467.946 115.481 467.808 116.005 467.698 116.685C467.541 117.659 467.448 118.91 467.439 120.507L466.98 183.277C466.999 184.221 467.114 185.031 467.281 185.691C467.463 186.411 467.892 187.095 467.984 187.236C469.165 187.51 471.54 187.634 473.907 187.633C476.283 187.631 478.653 187.503 479.782 187.212C479.804 187.183 479.854 187.112 479.884 187.053C480.009 186.813 480.105 186.463 480.176 185.964C480.234 185.553 480.265 185.056 480.264 184.455L479.667 116.176C479.659 115.547 479.481 114.707 479.366 114.231V114.231Z" fill="black"/>
<path fill-rule="evenodd" clip-rule="evenodd" d="M422.595 185.091C422.466 175.132 422.473 167.698 422.463 153.865C422.461 151.074 423.289 150.276 424.208 150.195C426.69 149.976 432.353 149.772 434.127 150.023C434.468 150.071 434.831 150.912 434.849 151.699C434.986 157.642 435.035 179.761 434.949 185.678C434.927 187.19 434.268 187.501 433.942 187.555C432.093 187.859 425.793 187.815 423.858 187.502C423.337 187.418 422.614 186.548 422.595 185.091V185.091Z" fill="#D6D6D6"/>
<path fill-rule="evenodd" clip-rule="evenodd" d="M444.211 183.966C444.081 170.231 444.089 159.979 444.078 140.902C444.076 137.053 444.904 135.952 445.823 135.841C448.305 135.54 453.969 135.258 455.742 135.603C456.083 135.67 456.446 136.83 456.464 137.915C456.601 146.111 456.65 176.615 456.564 184.776C456.542 186.86 455.883 187.289 455.557 187.363C453.708 187.783 447.408 187.722 445.473 187.291C444.952 187.175 444.229 185.975 444.211 183.966V183.966Z" fill="#D6D6D6"/>
<path fill-rule="evenodd" clip-rule="evenodd" d="M467.103 182.696C466.968 163.742 466.976 149.595 466.965 123.268C466.963 117.957 467.824 116.437 468.779 116.283C471.361 115.868 477.25 115.479 479.094 115.956C479.448 116.048 479.826 117.649 479.845 119.146C479.987 130.456 480.038 172.552 479.949 183.814C479.926 186.69 479.24 187.282 478.901 187.385C476.979 187.963 470.428 187.879 468.416 187.285C467.874 187.125 467.122 185.469 467.103 182.696V182.696Z" fill="#D6D6D6"/>
<path fill-rule="evenodd" clip-rule="evenodd" d="M282.478 80.4536C267.134 80.3676 253.204 86.5823 243.101 96.6731C233 106.762 226.732 120.727 226.655 136.164C226.594 151.655 232.777 165.72 242.828 175.926C252.946 186.202 266.981 192.557 282.478 192.589C297.977 192.564 312.019 186.214 322.142 175.94C332.199 165.732 338.384 151.661 338.325 136.164C338.244 120.721 331.973 106.751 321.866 96.662C311.759 86.5725 297.824 80.3619 282.478 80.4536V80.4536ZM282.478 82.2246C297.262 82.3129 310.616 88.4409 320.244 98.2692C329.792 108.016 335.67 121.41 335.593 136.164C335.537 150.865 329.562 164.154 319.968 173.786C310.359 183.433 297.109 189.414 282.478 189.39C267.844 189.421 254.587 183.446 244.974 173.8C235.374 164.167 229.397 150.871 229.339 136.164C229.265 121.405 235.147 108.006 244.701 98.258C254.333 88.431 267.691 82.3074 282.478 82.2246V82.2246Z" fill="black"/>
<path fill-rule="evenodd" clip-rule="evenodd" d="M282.394 103.182C273.402 103.095 265.226 106.711 259.282 112.602C253.324 118.508 249.621 126.705 249.542 135.777C249.48 144.902 253.102 153.197 259.009 159.223C264.967 165.299 273.249 169.053 282.394 169.086C291.541 169.06 299.831 165.311 305.793 159.236C311.707 153.21 315.33 144.907 315.27 135.777C315.188 126.7 311.482 118.497 305.517 112.591C299.569 106.702 291.389 103.089 282.394 103.182V103.182ZM282.394 104.953C290.827 105.04 298.426 108.57 303.895 114.198C309.301 119.762 312.614 127.388 312.539 135.777C312.484 144.112 309.069 151.632 303.619 157.083C298.171 162.531 290.673 165.91 282.394 165.887C274.112 165.917 266.608 162.543 261.156 157.096C255.699 151.644 252.282 144.118 252.226 135.777C252.153 127.383 255.47 119.752 260.882 114.187C266.355 108.56 273.959 105.035 282.394 104.953V104.953Z" fill="black"/>
<path fill-rule="evenodd" clip-rule="evenodd" d="M313.795 143.708C313.795 143.708 316.455 144.687 319.934 145.75C321.236 146.148 322.645 146.567 324.077 146.905C325.509 147.244 326.957 147.494 328.299 147.728C331.88 148.353 334.691 148.714 334.691 148.714C335.167 148.828 335.645 148.535 335.759 148.06C335.873 147.584 335.579 147.106 335.104 146.992C335.104 146.992 332.434 146.041 328.958 144.975C327.657 144.576 326.252 144.142 324.822 143.795C323.392 143.448 321.946 143.182 320.606 142.947C317.023 142.318 314.207 141.985 314.207 141.985C313.732 141.872 313.254 142.165 313.14 142.64C313.026 143.115 313.319 143.594 313.795 143.708V143.708Z" fill="black"/>
<path fill-rule="evenodd" clip-rule="evenodd" d="M247.216 96.3836C247.216 96.3836 248.857 98.7678 251.127 101.706C251.976 102.805 252.902 103.986 253.893 105.114C254.885 106.243 255.941 107.309 256.917 108.298C259.524 110.938 261.645 112.906 261.645 112.906C261.967 113.274 262.526 113.312 262.895 112.991C263.263 112.669 263.301 112.109 262.979 111.741C262.979 111.741 261.315 109.374 259.05 106.436C258.201 105.335 257.287 104.145 256.302 103.01C255.318 101.876 254.273 100.8 253.297 99.81C250.692 97.1655 248.55 95.2186 248.55 95.2186C248.229 94.8505 247.669 94.8127 247.301 95.1342C246.933 95.4555 246.895 96.0155 247.216 96.3836Z" fill="black"/>
<path fill-rule="evenodd" clip-rule="evenodd" d="M280.771 170.024C280.771 170.024 280.438 172.645 280.215 176.032C280.131 177.298 280.052 178.666 280.057 180.038C280.061 181.41 280.156 182.777 280.241 184.043C280.468 187.427 280.771 190.052 280.771 190.052C280.771 190.54 281.167 190.937 281.656 190.937C282.145 190.937 282.542 190.54 282.542 190.052C282.542 190.052 282.845 187.427 283.072 184.043C283.156 182.777 283.251 181.41 283.255 180.038C283.26 178.666 283.181 177.298 283.097 176.032C282.874 172.645 282.542 170.024 282.542 170.024C282.542 169.535 282.145 169.139 281.656 169.139C281.167 169.139 280.771 169.535 280.771 170.024Z" fill="black"/>
<path fill-rule="evenodd" clip-rule="evenodd" d="M339.892 288.042C340.193 285.821 340.231 281.801 340.141 277.399C340.017 271.358 339.635 264.608 339.236 260.686C339.133 259.655 338.382 258.792 336.654 258.157C334.945 257.528 332.453 257.165 328.899 257.162C316.386 257.124 304.968 257.158 294.307 257.193C275.228 257.256 258.572 257.374 242.402 257.394C235.15 257.403 227.997 257.383 220.766 257.329C219.581 257.32 218.998 258.165 218.677 259.187C217.909 261.627 218.506 265.084 218.506 265.084C218.591 265.565 218.269 266.025 217.788 266.11C217.306 266.195 216.847 265.873 216.762 265.391C216.762 265.391 216.055 261.446 216.891 258.64C217.444 256.784 218.623 255.413 220.766 255.397C244.72 255.242 267.826 254.643 296.446 254.273C306.492 254.143 317.218 254.061 328.897 254.01C334.098 254 337.321 254.774 339.255 255.86C341.417 257.073 342.238 258.698 342.408 260.365C342.808 264.349 343.196 271.204 343.302 277.339C343.386 282.191 343.286 286.6 342.916 288.85C342.795 289.576 342.077 290.537 340.703 291.164C339.476 291.724 337.686 292.148 335.965 292.177C329.751 292.272 311.797 292.346 292.173 292.357C262.361 292.374 228.696 292.267 226.497 292.225C226.009 292.219 225.617 291.817 225.623 291.328C225.629 290.839 226.031 290.448 226.52 290.454C228.717 290.467 262.362 290.072 292.157 289.713C311.761 289.478 329.696 289.267 335.904 289.113C337.369 289.078 339.423 288.241 339.892 288.042V288.042Z" fill="black"/>
<path fill-rule="evenodd" clip-rule="evenodd" d="M132.179 246.407C132.179 246.407 135.147 246.532 139.153 246.624C141.283 246.673 143.704 246.737 146.127 246.727C153.105 246.698 160.076 246.407 160.076 246.407C160.564 246.407 160.961 246.01 160.961 245.521C160.961 245.033 160.564 244.636 160.076 244.636C160.076 244.636 153.105 244.345 146.127 244.316C143.704 244.306 141.283 244.37 139.153 244.419C135.147 244.511 132.179 244.636 132.179 244.636C131.69 244.636 131.293 245.033 131.293 245.521C131.293 246.01 131.69 246.407 132.179 246.407Z" fill="black"/>
<path fill-rule="evenodd" clip-rule="evenodd" d="M120.871 230.825C120.871 230.825 131.357 231.102 143.977 231.266C147.186 231.307 150.533 231.331 153.88 231.333C157.227 231.336 160.573 231.309 163.783 231.279C176.402 231.164 186.89 230.983 186.89 230.983C187.455 230.984 187.915 230.527 187.916 229.962C187.918 229.397 187.46 228.938 186.895 228.936C186.895 228.936 176.408 228.705 163.789 228.529C160.58 228.485 157.234 228.442 153.887 228.428C150.54 228.415 147.193 228.422 143.983 228.449C131.363 228.552 120.875 228.779 120.875 228.779C120.311 228.777 119.851 229.235 119.85 229.8C119.848 230.364 120.306 230.824 120.871 230.825V230.825Z" fill="black"/>
<path fill-rule="evenodd" clip-rule="evenodd" d="M80.0476 214.218C80.0476 214.218 94.088 214.552 111.977 214.774C118.71 214.858 125.986 214.936 133.264 214.932C140.541 214.928 147.818 214.833 154.55 214.748C172.439 214.523 186.48 214.218 186.48 214.218C186.969 214.218 187.365 213.822 187.365 213.333C187.365 212.844 186.969 212.447 186.48 212.447C186.48 212.447 172.439 212.143 154.55 211.917C147.818 211.832 140.541 211.738 133.264 211.734C125.986 211.729 118.71 211.808 111.977 211.892C94.088 212.114 80.0476 212.447 80.0476 212.447C79.5589 212.447 79.1621 212.844 79.1621 213.333C79.1621 213.822 79.5589 214.218 80.0476 214.218V214.218Z" fill="black"/>
<path fill-rule="evenodd" clip-rule="evenodd" d="M58.4378 50.3449C58.4378 50.3449 116.785 50.334 191.091 50.1173C219.062 50.0358 249.293 49.9363 279.525 49.7535C309.756 49.5706 339.987 49.2977 367.956 49.0476C442.259 48.3833 500.603 47.7346 500.603 47.7346C501.092 47.7317 501.486 47.3327 501.483 46.8439C501.481 46.3552 501.081 45.9608 500.593 45.9636C500.593 45.9636 442.245 46.0039 367.94 46.2168C339.969 46.297 309.737 46.381 279.506 46.555C249.274 46.7291 219.044 46.9865 191.074 47.2352C116.771 47.896 58.4272 48.5739 58.4272 48.5739C57.9384 48.5768 57.544 48.9758 57.5469 49.4646C57.5498 49.9533 57.9489 50.3477 58.4376 50.3449H58.4378Z" fill="black"/>
<path fill-rule="evenodd" clip-rule="evenodd" d="M87.5074 24.1962C84.9173 24.1017 82.5487 25.142 80.8014 26.8483C79.059 28.5498 77.9812 30.9454 77.894 33.6082C77.8245 36.323 78.8438 38.8065 80.5233 40.6341C82.2733 42.5384 84.7629 43.6974 87.5074 43.7342C90.2544 43.7053 92.7502 42.5502 94.5052 40.6473C96.1915 38.8189 97.2121 36.3286 97.1443 33.6082C97.0539 30.94 95.9738 28.5392 94.2247 26.8373C92.4726 25.1325 90.0998 24.0955 87.5074 24.1962ZM87.5074 25.9671C89.5283 26.0457 91.308 26.9902 92.5735 28.415C93.7846 29.7783 94.4807 31.6147 94.413 33.6082C94.3648 35.5487 93.5413 37.2727 92.2931 38.5335C91.0578 39.7813 89.3707 40.5552 87.5074 40.5357C85.6413 40.5608 83.9472 39.7941 82.7078 38.5467C81.4535 37.2843 80.6278 35.5545 80.578 33.6082C80.5126 31.6094 81.2131 29.7686 82.4297 28.4041C83.699 26.9803 85.4845 26.0409 87.5074 25.9671V25.9671Z" fill="black"/>
<path fill-rule="evenodd" clip-rule="evenodd" d="M114.209 24.1962C111.618 24.1017 109.25 25.142 107.503 26.8483C105.76 28.5498 104.682 30.9454 104.595 33.6082C104.526 36.323 105.545 38.8065 107.224 40.6341C108.974 42.5384 111.464 43.6974 114.209 43.7342C116.956 43.7053 119.451 42.5502 121.206 40.6473C122.893 38.8189 123.913 36.3286 123.845 33.6082C123.755 30.94 122.675 28.5392 120.926 26.8373C119.174 25.1325 116.801 24.0955 114.209 24.1962V24.1962ZM114.209 25.9671C116.229 26.0457 118.009 26.9902 119.275 28.415C120.486 29.7783 121.182 31.6147 121.114 33.6082C121.066 35.5487 120.242 37.2727 118.994 38.5335C117.759 39.7813 116.072 40.5552 114.209 40.5357C112.342 40.5608 110.648 39.7941 109.409 38.5467C108.155 37.2843 107.329 35.5545 107.279 33.6082C107.214 31.6094 107.914 29.7686 109.131 28.4041C110.4 26.9803 112.186 26.0409 114.209 25.9671V25.9671Z" fill="black"/>
<path fill-rule="evenodd" clip-rule="evenodd" d="M140.91 24.1962C138.32 24.1017 135.951 25.142 134.204 26.8483C132.461 28.5498 131.383 30.9454 131.296 33.6082C131.227 36.323 132.246 38.8065 133.925 40.6341C135.676 42.5384 138.165 43.6974 140.91 43.7342C143.657 43.7053 146.152 42.5502 147.907 40.6473C149.594 38.8189 150.614 36.3286 150.547 33.6082C150.456 30.94 149.376 28.5392 147.627 26.8373C145.875 25.1325 143.502 24.0955 140.91 24.1962ZM140.91 25.9671C142.931 26.0457 144.71 26.9902 145.976 28.415C147.187 29.7783 147.883 31.6147 147.815 33.6082C147.767 35.5487 146.944 37.2727 145.695 38.5335C144.46 39.7813 142.773 40.5552 140.91 40.5357C139.044 40.5608 137.349 39.7941 136.11 38.5467C134.856 37.2843 134.03 35.5545 133.98 33.6082C133.915 31.6094 134.615 29.7686 135.832 28.4041C137.101 26.9803 138.887 26.0409 140.91 25.9671V25.9671Z" fill="black"/>
<path fill-rule="evenodd" clip-rule="evenodd" d="M249.541 95.4755C257.817 104.575 261.548 109.571 261.548 109.571C261.548 109.571 279.182 96.9382 298.135 107.151C317.089 117.364 315.848 138.455 314.687 141.847C319.314 142.099 328.404 143.8 334.145 145.967C336.503 139.32 336.319 120.562 324.303 104.126C311.666 86.8427 278.775 73.0281 249.541 95.4755V95.4755Z" fill="#D6D6D6"/>
<path fill-rule="evenodd" clip-rule="evenodd" d="M282.6 169.516C282.6 169.516 304.696 169.918 313.4 144.98C325.724 148.142 333.237 149.157 333.237 149.157C333.237 149.157 323.986 186.328 283.122 189.354C284.461 177.425 282.6 169.516 282.6 169.516Z" fill="#EDEDED"/>
<path fill-rule="evenodd" clip-rule="evenodd" d="M469.411 258.521C461.508 260.939 461.831 261.821 461.831 261.821C461.831 261.77 452.494 255.757 455.3 237.976C456.424 230.858 460.712 222.917 463.217 227.774C468.255 216.695 484.807 214.539 494.547 218.042C500.473 220.174 521.395 239.559 512.637 254.747C537.032 250.167 540.805 274.714 536.89 280.311C544.458 292.794 539.689 302.989 530.059 306.146C529.602 317.224 520.806 327.661 510.756 330.182C508.188 348.334 495.665 350.714 495.665 350.714C482.505 344.573 479.609 325.19 479.609 325.19C479.609 325.19 475.725 340.769 464.833 345.265C452.588 350.32 433.151 343.949 432.635 335.638C447.307 333.543 452.309 319.027 451.017 316.122C450.06 313.968 434.009 309.045 434.009 309.045C434.009 309.045 434.113 304.526 435.627 302.705C435.627 302.705 447.7 307.106 459.466 314.518C459.466 314.518 466.043 288.462 477.376 283.987C478.638 283.489 472.72 285.165 469.411 258.521V258.521ZM470.374 307.092C470.374 307.092 478.964 293.103 485.624 295.24C493.357 297.721 484.697 311.105 480.497 312.972C464.037 322.822 470.374 307.092 470.374 307.092Z" fill="black" stroke="black" stroke-width="0.00080254" stroke-miterlimit="1.5" stroke-linecap="round" stroke-linejoin="round"/>
<path fill-rule="evenodd" clip-rule="evenodd" d="M456.111 281.826C455.502 281.913 453 283.167 452.979 285.48C452.958 287.793 456.111 285.567 456.633 284.958C457.155 284.349 456.72 281.739 456.111 281.826Z" fill="black"/>
<path fill-rule="evenodd" clip-rule="evenodd" d="M454.987 280.901C454.447 280.9 452.744 281.453 451.553 282.735C450.917 283.419 450.558 284.341 450.442 285.418C450.384 286.337 450.71 286.922 451.046 287.317C451.443 287.783 452.003 288.03 452.663 288.056C453.15 288.075 453.749 287.958 454.325 287.666C455.354 287.146 456.374 286.196 456.662 285.791C456.824 285.547 457.024 285.249 457.07 284.843C457.136 284.247 457.08 283.397 456.825 282.677C456.596 282.03 456.325 281.48 456.025 281.246C455.663 280.963 455.329 280.798 454.987 280.901V280.901ZM453.507 285.265C453.508 285.325 453.511 285.385 453.517 285.446C453.518 285.472 453.518 285.518 453.539 285.514C453.675 285.487 453.615 285.377 453.507 285.265ZM453.038 284.904C452.921 284.823 452.8 284.758 452.794 284.863C452.788 284.976 452.891 284.967 453.038 284.904ZM454.7 283.041C454.447 283.28 454.156 283.61 453.888 283.984C453.757 284.167 453.656 284.372 453.591 284.597C453.659 284.556 453.722 284.519 453.777 284.49C454.138 284.295 454.48 284.149 454.606 284.029C454.557 284.074 454.441 284.201 454.52 284.238C454.809 284.371 454.749 283.507 454.7 283.041V283.041ZM454.706 282.618C454.71 282.538 454.702 282.487 454.658 282.513C454.566 282.564 454.609 282.597 454.706 282.618Z" fill="black"/>
<path fill-rule="evenodd" clip-rule="evenodd" d="M455.033 276.937C455.033 276.937 456.016 277.322 457.306 277.896C457.761 278.098 458.229 278.344 458.725 278.576C459.094 278.749 459.467 278.922 459.829 279.103C460.175 279.275 460.525 279.408 460.827 279.612C461.433 280.023 462.012 280.432 462.083 281.209C462.045 281.696 462.409 282.123 462.896 282.161C463.384 282.2 463.81 281.835 463.849 281.348C464.208 279.953 463.704 278.779 462.897 277.713C462.594 277.311 462.202 276.975 461.78 276.649C461.477 276.415 461.147 276.204 460.794 276.031C460.293 275.785 459.757 275.602 459.226 275.473C458.671 275.339 458.138 275.255 457.634 275.212C456.24 275.093 455.238 275.179 455.238 275.179C454.753 275.122 454.313 275.47 454.256 275.955C454.199 276.44 454.547 276.881 455.033 276.937V276.937Z" fill="black"/>
<path fill-rule="evenodd" clip-rule="evenodd" d="M444.582 280.97L459.416 261.378C459.714 260.971 460.287 260.882 460.695 261.18C461.102 261.478 461.191 262.051 460.893 262.459L446.579 282.74C446.49 282.862 446.382 282.967 446.258 283.052C446.258 283.052 441.797 286.268 436.858 289.67C433.61 291.907 430.137 294.193 427.708 295.867C428.012 296.149 428.52 296.595 429.007 296.896C431.365 298.351 434.885 299.704 434.885 299.704C435.362 299.875 435.634 300.377 435.516 300.87C435.516 300.87 433.988 306.359 432.807 313.203C432.348 315.862 431.993 318.731 431.721 321.543C431.206 326.871 431.102 332.006 431.955 335.167C432.586 337.56 433.766 339.428 435.26 340.923C436.862 342.525 438.845 343.68 441.004 344.522C450.167 348.096 462.357 346.079 462.55 346.081C462.711 346.083 463.684 346.218 463.779 347.337C463.805 347.637 463.814 348.275 463.803 349.144C463.745 353.912 463.201 366.111 463.201 366.111C463.186 366.616 462.764 367.013 462.259 366.999C461.754 366.983 461.356 366.561 461.371 366.057C461.371 366.057 461.549 353.898 461.467 349.15C461.464 348.977 461.473 348.799 461.486 348.628C458.207 349.095 448.004 350.244 439.974 347.198C437.42 346.229 435.076 344.841 433.227 342.913C431.45 341.059 430.126 338.707 429.472 335.77C428.891 333.094 428.983 329.16 429.436 324.857C429.858 320.836 430.642 316.499 431.328 312.589C432.227 307.462 433.063 303.09 433.413 301.289C431.721 300.672 427.81 299.155 426.147 297.747C425.44 297.149 425.092 296.491 425.022 295.941C424.94 295.291 425.163 294.65 425.901 294.093C428.29 292.316 431.817 289.696 435.221 287.313C439.586 284.258 443.709 281.542 444.582 280.97V280.97ZM461.531 348.031C461.548 347.746 461.532 347.557 461.406 347.571C460.964 347.621 461.175 347.829 461.531 348.031Z" fill="black"/>
<path fill-rule="evenodd" clip-rule="evenodd" d="M431.926 320.611C431.926 320.611 432.649 321.108 433.783 321.632C434.188 321.819 434.632 321.985 435.119 322.123C435.581 322.254 436.071 322.345 436.563 322.372C436.907 322.39 437.251 322.369 437.585 322.319C438.048 322.25 438.491 322.168 438.9 321.997C440.032 321.524 440.976 320.878 441.37 319.705C441.613 319.281 441.466 318.74 441.042 318.497C440.618 318.254 440.076 318.401 439.833 318.825C439.411 319.312 438.785 319.272 438.139 319.293C437.819 319.304 437.498 319.24 437.16 319.219C436.808 319.197 436.451 319.172 436.099 319.151C435.619 319.124 435.16 319.129 434.727 319.104C433.481 319.033 432.572 318.963 432.572 318.963C432.117 318.784 431.603 319.009 431.424 319.464C431.246 319.919 431.471 320.433 431.926 320.611V320.611Z" fill="black"/>
<path fill-rule="evenodd" clip-rule="evenodd" d="M461.13 368.88L459.893 380.696C459.862 381.201 459.427 381.584 458.922 381.553C458.418 381.521 458.035 381.086 458.066 380.582L458.346 367.136C458.371 366.735 458.558 366.362 458.865 366.102C459.171 365.842 459.57 365.719 459.97 365.76C459.97 365.76 463.132 365.946 467.756 366.017C470.061 366.052 472.727 366.04 475.55 365.996C478.887 365.943 482.441 365.834 485.873 365.486C492.337 364.831 498.379 363.496 501.501 360.319C501.841 359.946 502.42 359.919 502.794 360.259C503.167 360.599 503.194 361.178 502.854 361.552C499.71 365.277 493.304 367.493 486.283 368.619C482.755 369.185 479.078 369.494 475.623 369.58C472.73 369.652 469.994 369.557 467.635 369.426C464.806 369.269 462.516 369.04 461.13 368.88V368.88Z" fill="black"/>
<path fill-rule="evenodd" clip-rule="evenodd" d="M461.285 382.839C461.285 382.839 465.618 383.833 471.821 384.153C473.995 384.266 476.396 384.295 478.917 384.153C481.21 384.024 483.603 383.762 486.002 383.297C487.554 382.996 489.107 382.6 490.64 382.118C493.177 381.32 495.663 380.282 497.992 378.952C501.427 376.99 504.522 374.409 506.978 371.053C507.261 370.695 507.199 370.175 506.841 369.893C506.482 369.61 505.962 369.672 505.68 370.03C503.602 372.48 501.139 374.379 498.478 375.895C495.758 377.445 492.819 378.551 489.831 379.367C488.371 379.765 486.898 380.087 485.436 380.369C483.149 380.81 480.882 381.119 478.704 381.333C469.329 382.253 461.583 381.214 461.583 381.214C461.134 381.131 460.703 381.429 460.621 381.877C460.539 382.326 460.836 382.757 461.285 382.839V382.839Z" fill="black"/>
<path fill-rule="evenodd" clip-rule="evenodd" d="M507.416 364.995C507.416 364.995 519.96 363.565 528.296 374.279C531.997 379.035 534.85 386.168 535.482 396.846C535.815 401.877 535.725 408.362 535.461 415.579C535.32 419.427 535.129 423.482 534.911 427.635C534.599 433.575 534.229 439.715 533.844 445.74C532.492 466.874 530.948 486.573 531.554 491.263C531.612 491.765 532.066 492.126 532.568 492.068C533.069 492.011 533.43 491.557 533.373 491.055C532.954 486.811 534.803 470.328 536.515 451.641C537.31 442.962 538.092 433.813 538.597 425.188C538.89 420.202 539.078 415.389 539.15 410.947C539.238 405.497 539.127 400.599 538.808 396.605C537.827 385.158 534.511 377.59 530.384 372.603C520.897 361.141 507.176 363.181 507.176 363.181C506.675 363.247 506.323 363.707 506.389 364.208C506.455 364.709 506.915 365.061 507.416 364.995Z" fill="black"/>
<path fill-rule="evenodd" clip-rule="evenodd" d="M457.747 378.968C457.747 378.968 450.086 378.274 441.85 383.137C437.848 385.5 433.724 389.183 430.268 394.877C425.898 402.166 422.351 410.289 419.57 418.737C417.754 424.253 416.253 429.904 415.04 435.532C413.135 444.373 411.921 453.153 411.125 461.25C408.967 483.208 409.991 500.165 409.991 500.165C410.012 500.669 410.438 501.063 410.943 501.042C411.447 501.022 411.841 500.595 411.82 500.09C411.82 500.09 411.475 483.283 414.168 461.589C415.157 453.623 416.574 445.003 418.521 436.296C419.753 430.787 421.189 425.241 422.9 419.809C425.501 411.551 428.701 403.545 432.8 396.358C435.813 391.009 439.502 387.497 443.113 385.194C450.55 380.45 457.618 380.794 457.618 380.794C458.122 380.829 458.56 380.449 458.596 379.945C458.631 379.442 458.251 379.003 457.747 378.968V378.968Z" fill="black"/>
<path fill-rule="evenodd" clip-rule="evenodd" d="M460.509 431.7C460.509 431.7 457.368 474.622 447.893 498.565Z" fill="black"/>
<path fill-rule="evenodd" clip-rule="evenodd" d="M459.24 431.754C459.24 431.754 458.413 438.781 456.885 448.738C456.354 452.2 455.737 456.011 455.067 460.012C454.657 462.453 454.225 464.963 453.79 467.507C453.157 471.219 452.505 474.998 451.769 478.718C450.373 485.762 448.755 492.59 446.685 498.349C446.5 498.819 446.73 499.351 447.2 499.537C447.669 499.723 448.202 499.492 448.388 499.023C450.864 493.305 453.056 486.499 454.831 479.405C455.943 474.961 456.928 470.417 457.694 465.972C458.51 461.232 459.09 456.61 459.549 452.385C460.83 440.596 461.065 431.887 461.065 431.887C461.102 431.384 460.723 430.945 460.22 430.908C459.716 430.871 459.277 431.25 459.24 431.754V431.754Z" fill="black"/>
<path fill-rule="evenodd" clip-rule="evenodd" d="M230.973 510.832C230.973 510.832 229.956 492.229 231.116 469.553C231.389 464.235 231.767 458.692 232.292 453.107C232.633 449.472 233.024 445.818 233.5 442.198C234.524 434.411 235.925 426.784 237.882 419.832C240.141 411.803 243.104 404.672 247.075 399.268C247.371 398.879 247.295 398.323 246.906 398.027C246.517 397.731 245.961 397.807 245.665 398.196C241.382 403.642 238.031 410.888 235.463 419.114C233.272 426.133 231.638 433.862 230.457 441.771C229.911 445.429 229.459 449.125 229.111 452.807C228.577 458.447 228.255 464.053 228.089 469.429C227.381 492.274 229.207 510.967 229.207 510.967C229.245 511.454 229.67 511.819 230.158 511.782C230.645 511.745 231.01 511.319 230.973 510.832V510.832Z" fill="black"/>
<path fill-rule="evenodd" clip-rule="evenodd" d="M260.526 383.225C260.526 383.225 248.556 391.728 245.727 398.149Z" fill="black"/>
<path fill-rule="evenodd" clip-rule="evenodd" d="M260.899 382.435C260.899 382.435 258.449 383.773 255.476 385.968C254.388 386.772 253.227 387.682 252.134 388.714C251.075 389.713 250.09 390.823 249.198 391.946C247.644 393.902 246.426 395.913 245.802 397.724C245.605 398.171 245.808 398.694 246.255 398.891C246.702 399.088 247.225 398.885 247.422 398.438C248.243 396.928 249.687 395.401 251.299 393.844C251.98 393.186 252.7 392.543 253.408 391.884C254.124 391.22 254.836 390.556 255.523 389.905C256.422 389.055 257.269 388.227 258.054 387.48C260.287 385.357 261.924 383.879 261.924 383.879C262.323 383.596 262.417 383.042 262.133 382.644C261.85 382.245 261.297 382.152 260.899 382.435V382.435Z" fill="black"/>
<path fill-rule="evenodd" clip-rule="evenodd" d="M254.246 510.774C254.246 510.774 251.129 461.505 256.557 439.329Z" fill="black"/>
<path fill-rule="evenodd" clip-rule="evenodd" d="M255.443 510.65C255.443 510.65 255.223 503.121 255.194 492.628C255.184 488.927 255.205 484.859 255.236 480.621C255.261 477.359 255.294 473.997 255.348 470.627C255.402 467.279 255.463 463.923 255.586 460.646C255.884 452.675 256.48 445.186 257.73 439.472C257.846 438.997 257.555 438.517 257.08 438.401C256.606 438.285 256.126 438.576 256.01 439.051C254.917 443.059 254.064 447.954 253.446 453.301C252.919 457.863 252.548 462.747 252.32 467.675C252.214 469.978 252.137 472.29 252.106 474.582C252.059 478.119 252.09 481.607 252.178 484.937C252.553 499.316 253.675 510.762 253.675 510.762C253.706 511.25 254.127 511.621 254.615 511.59C255.103 511.559 255.473 511.138 255.443 510.65V510.65Z" fill="black"/>
<path fill-rule="evenodd" clip-rule="evenodd" d="M337.282 434.936C337.282 434.936 338.674 446.908 339.581 462.068C339.755 464.989 339.922 468.028 340.07 471.123C340.213 474.107 340.339 477.143 340.43 480.175C340.756 491.084 340.548 501.95 338.855 510.156C338.748 510.633 339.048 511.107 339.525 511.214C340.002 511.321 340.476 511.021 340.583 510.544C342.587 502.26 343.312 491.224 343.231 480.123C343.209 477.061 343.118 473.995 342.971 470.982C342.818 467.865 342.607 464.805 342.357 461.867C341.062 446.649 339.036 434.686 339.036 434.686C338.967 434.202 338.518 433.865 338.034 433.934C337.55 434.003 337.213 434.452 337.282 434.936V434.936Z" fill="black"/>
<path fill-rule="evenodd" clip-rule="evenodd" d="M355.609 401.002C352.251 396.339 348.473 392.776 344.917 390.091C337.672 384.621 331.349 382.795 331.349 382.795C331.035 382.708 330.851 382.382 330.938 382.068C331.025 381.754 331.35 381.57 331.664 381.657C331.664 381.657 338.225 383.405 345.791 388.912C349.536 391.638 353.523 395.287 357.087 400.093L357.207 400.322C359.807 407.751 361.785 416.621 363.229 426.061C364.098 431.743 364.78 437.631 365.294 443.53C366.076 452.509 366.485 461.511 366.678 469.847C367.188 491.932 366.161 509.342 366.161 509.342C366.145 509.667 365.868 509.919 365.543 509.904C365.218 509.888 364.966 509.611 364.981 509.286C364.981 509.286 365.601 491.915 364.797 469.903C364.494 461.608 363.986 452.654 363.182 443.717C362.655 437.862 362.008 432.013 361.19 426.364C359.847 417.086 358.063 408.343 355.609 401.002V401.002Z" fill="black"/>
<path fill-rule="evenodd" clip-rule="evenodd" d="M282.367 257.578C282.367 257.578 287.607 244.588 311.37 247.207C332.437 249.528 336.74 266.818 335.256 280.305C334.214 289.773 324.882 294.642 324.882 294.642C329.27 298.278 367.496 330.254 342.743 385.324C328.64 416.701 256.482 421.103 248.442 384.648C242.319 356.888 236.382 328.969 262.546 294.424C257.478 287.85 255.557 284.821 256.297 277.486C257.152 269.019 258.886 262.197 268.133 259.546C279.217 256.368 282.367 257.578 282.367 257.578V257.578Z" fill="black"/>
<path fill-rule="evenodd" clip-rule="evenodd" d="M281.657 256.928C282.369 255.545 284.963 251.376 291.433 248.662C295.888 246.793 302.208 245.608 311.064 246.557C321.023 247.625 327.333 251.983 331.116 257.7C335.54 264.386 336.488 272.972 335.687 280.43C335.306 283.976 333.82 286.912 332.061 289.219C329.93 292.016 327.398 293.882 325.988 294.794C330.633 298.763 345.966 313.066 350.416 336.583C352.963 350.039 351.948 366.514 343.319 385.789C339.548 394.19 331.752 400.742 322.097 405.123C313.641 408.961 303.763 411.141 293.997 411.479C272.316 412.232 251.272 403.87 247.115 384.892C243.753 369.495 240.46 354.049 242.585 337.48C244.306 324.065 249.569 309.913 261.228 294.462C258.383 290.734 256.578 288.106 255.699 285.135C255.053 282.95 254.899 280.578 255.222 277.452C255.673 273.102 256.363 269.182 258.124 266.012C259.906 262.803 262.765 260.338 267.578 258.973C271.228 257.938 274.026 257.372 276.14 257.077C279.2 256.652 280.882 256.791 281.657 256.928V256.928ZM281.774 258.164C282.075 258.279 282.412 258.132 282.533 257.834C282.533 257.834 284.599 252.843 291.917 249.825C296.236 248.044 302.356 246.958 310.913 247.927C320.33 248.992 326.304 253.102 329.853 258.53C334.04 264.935 334.864 273.138 334.062 280.251C333.7 283.463 332.33 286.112 330.725 288.195C327.806 291.983 324.101 293.91 324.101 293.91C323.844 294.044 323.671 294.298 323.64 294.586C323.61 294.875 323.726 295.159 323.949 295.344C326.779 297.7 343.886 312.069 348.499 336.942C350.935 350.081 349.881 366.147 341.406 384.929C337.823 392.89 330.372 399.032 321.218 403.185C313.002 406.912 303.409 409.03 293.922 409.377C273.265 410.134 253.021 402.547 249.007 384.474C245.624 369.291 242.284 354.061 244.306 337.697C245.951 324.383 251.151 310.319 262.761 294.911L262.757 294.004C260.397 290.959 258.722 288.696 257.695 286.389C256.575 283.872 256.245 281.307 256.61 277.592C257.018 273.44 257.628 269.689 259.291 266.656C260.905 263.71 263.529 261.464 267.927 260.189C271.5 259.154 274.24 258.581 276.311 258.28C280.415 257.684 281.774 258.164 281.774 258.164V258.164Z" fill="black"/>
<path fill-rule="evenodd" clip-rule="evenodd" d="M275.221 303.222C275.221 303.222 279.587 299.199 287.434 297.436C290.055 296.848 293.06 296.537 296.451 296.642C299.212 296.727 302.225 297.068 305.502 297.867C309.466 298.833 313.812 300.379 318.517 302.852C318.941 303.095 319.482 302.949 319.725 302.525C319.969 302.101 319.822 301.559 319.399 301.316C314.699 298.381 310.319 296.376 306.25 295.137C302.773 294.078 299.529 293.545 296.555 293.445C292.844 293.32 289.552 293.841 286.725 294.643C278.287 297.037 273.949 301.99 273.949 301.99C273.609 302.341 273.617 302.902 273.968 303.242C274.319 303.582 274.88 303.573 275.221 303.222V303.222Z" fill="white"/>
<path fill-rule="evenodd" clip-rule="evenodd" d="M147.484 366.997C147.484 366.997 158.566 365.868 171.343 355.635C175.388 352.396 179.615 348.245 183.639 342.898C186.84 338.643 189.9 333.62 192.697 327.75C196.031 320.752 198.944 312.521 201.257 302.884C201.371 302.443 201.106 301.991 200.665 301.876C200.223 301.762 199.772 302.027 199.657 302.468C197.027 311.849 193.803 319.797 190.328 326.579C187.452 332.194 184.366 336.978 181.255 341.101C177.375 346.242 173.435 350.333 169.632 353.56C157.69 363.692 147.271 365.358 147.271 365.358C146.819 365.417 146.499 365.831 146.558 366.284C146.616 366.736 147.031 367.056 147.484 366.997V366.997Z" fill="black"/>
<path fill-rule="evenodd" clip-rule="evenodd" d="M120.541 358.801C120.541 358.801 123.393 359.519 127.321 360.616C128.709 361.004 130.225 361.445 131.807 361.892C133.025 362.235 134.279 362.585 135.532 362.937C136.781 363.287 138.031 363.626 139.238 363.993C142.187 364.89 144.881 365.863 146.725 367.074C147.091 367.347 147.609 367.271 147.882 366.905C148.154 366.539 148.078 366.021 147.712 365.749C145.899 364.225 143.191 362.757 140.128 361.505C138.403 360.8 136.578 360.145 134.744 359.625C132.854 359.088 130.962 358.688 129.218 358.36C124.47 357.468 120.812 357.171 120.812 357.171C120.362 357.096 119.936 357.4 119.861 357.85C119.786 358.3 120.091 358.726 120.541 358.801Z" fill="black"/>
<path fill-rule="evenodd" clip-rule="evenodd" d="M200.413 371.85C208.07 359.706 212.577 351.024 215.608 339.944C218.094 330.857 219.599 320.167 221.034 304.672C221.072 304.218 221.473 303.88 221.927 303.919C222.382 303.958 222.719 304.358 222.681 304.813C221.465 320.48 220.106 331.297 217.722 340.506C214.782 351.866 210.293 360.79 202.619 373.305L202.549 373.407C193.468 385.443 183.107 393.418 173.288 398.651C156.652 407.517 141.63 408.587 137.195 408.7C136.584 414.379 134.076 438.139 132.28 461.808C131.28 474.993 130.487 488.147 130.411 498.131C130.411 498.587 130.04 498.958 129.584 498.958C129.128 498.958 128.758 498.587 128.758 498.131C128.677 488.112 129.238 474.899 130.061 461.655C131.75 434.453 134.485 407.128 134.485 407.128C134.563 406.386 135.198 405.828 135.944 405.846C135.944 405.846 152.771 406.168 171.903 396.044C181.42 391.007 191.529 383.416 200.413 371.85V371.85Z" fill="black"/>
<path fill-rule="evenodd" clip-rule="evenodd" d="M199.451 299.586C199.451 299.586 203.475 298.59 208.416 298.241C209.575 298.159 210.783 298.105 212.005 298.099C212.794 298.095 213.588 298.102 214.379 298.143C216.037 298.231 217.675 298.449 219.2 298.909C220.774 299.383 222.231 300.075 223.447 301.132C223.682 301.358 224.056 301.35 224.282 301.115C224.507 300.88 224.5 300.506 224.264 300.28C222.775 298.709 220.859 297.644 218.735 296.957C217.399 296.525 215.98 296.252 214.54 296.101C213.695 296.013 212.843 295.967 211.996 295.969C210.706 295.973 209.43 296.076 208.213 296.231C206.888 296.399 205.636 296.637 204.505 296.892C201.296 297.615 199.093 298.46 199.093 298.46C198.783 298.559 198.611 298.891 198.709 299.202C198.808 299.512 199.14 299.684 199.451 299.586V299.586Z" fill="black"/>
<path fill-rule="evenodd" clip-rule="evenodd" d="M199.457 303.097C199.457 303.097 203.456 302.063 208.32 301.722C209.467 301.641 210.662 301.593 211.867 301.596C212.647 301.598 213.43 301.613 214.209 301.666C215.844 301.777 217.451 302.03 218.935 302.546C220.45 303.072 221.842 303.832 222.981 304.975C223.199 305.217 223.573 305.236 223.815 305.017C224.056 304.799 224.075 304.425 223.857 304.184C222.467 302.487 220.624 301.333 218.554 300.581C217.24 300.104 215.835 299.799 214.402 299.627C213.565 299.526 212.717 299.47 211.875 299.466C210.596 299.46 209.328 299.558 208.118 299.712C206.805 299.879 205.563 300.119 204.441 300.378C201.272 301.109 199.087 301.976 199.087 301.976C198.778 302.078 198.609 302.412 198.711 302.721C198.813 303.031 199.147 303.199 199.457 303.097V303.097Z" fill="black"/>
<path fill-rule="evenodd" clip-rule="evenodd" d="M205.049 296.124C205.049 296.124 205.672 294.235 206.296 291.913C206.542 290.996 206.786 290.017 206.987 289.059C207.168 288.202 207.318 287.367 207.408 286.617C207.549 285.434 207.542 284.449 207.434 283.885C207.32 283.352 207.204 282.853 207.068 282.37C206.575 280.623 205.951 279.085 205.377 276.645C205.318 276.291 204.983 276.052 204.63 276.111C204.276 276.17 204.037 276.505 204.096 276.858C204.175 277.704 204.268 278.446 204.377 279.134C204.673 281.019 205.043 282.433 205.237 284.248C205.274 284.524 205.231 284.93 205.185 285.426C205.13 286.027 205.034 286.737 204.935 287.501C204.798 288.557 204.647 289.71 204.495 290.814C204.128 293.472 203.785 295.824 203.785 295.824C203.702 296.172 203.918 296.523 204.267 296.605C204.616 296.688 204.966 296.472 205.049 296.124V296.124Z" fill="black"/>
<path fill-rule="evenodd" clip-rule="evenodd" d="M212.529 240.127C211.948 241.544 211.384 243.81 210.871 246.302C209.889 251.075 209.11 256.658 208.846 258.891C208.53 261.53 208.35 263.008 208.201 264.076C208.018 265.386 207.881 266.084 207.599 267.534C207.535 267.886 207.197 268.121 206.844 268.057C206.492 267.993 206.257 267.655 206.321 267.302C206.56 265.876 206.676 265.189 206.822 263.902C206.943 262.836 207.084 261.362 207.329 258.73C207.61 255.746 208.651 246.87 209.979 241.707C210.375 240.163 210.816 238.935 211.249 238.23C211.62 237.625 212.062 237.317 212.44 237.212C213.121 237.021 213.983 237.364 214.369 238.749C214.647 239.748 214.791 241.524 214.811 243.735C214.863 249.537 214.145 258.476 213.696 263.575C213.958 263.605 214.307 263.648 214.791 263.65C215.761 263.652 216.412 263.97 216.85 264.421C217.417 264.144 218.171 264.029 219.18 264.231C220.738 264.544 221.493 265.205 221.877 265.826C222.13 265.68 222.406 265.548 222.702 265.448C223.376 265.219 224.143 265.133 224.966 265.346C225.953 265.602 226.514 266.265 226.79 267.077C226.863 267.293 226.913 267.519 226.944 267.748C227.458 267.518 228.001 267.401 228.496 267.472C229.721 267.648 230.386 268.062 230.761 268.462C231.468 269.217 231.371 270.058 231.276 270.436C231.251 271.194 231.078 274.873 229.998 280.278C229.436 283.089 228.628 286.371 227.468 289.953C226.649 292.474 226.08 294.167 225.687 295.301C224.957 297.401 224.8 297.666 224.8 297.666C224.628 297.98 224.233 298.096 223.919 297.923C223.604 297.751 223.489 297.356 223.661 297.042C223.661 297.042 223.816 296.729 224.638 294.108C224.982 293.011 225.437 291.523 226.038 289.508C227.095 285.967 227.813 282.729 228.303 279.958C229.349 274.044 229.345 270.275 229.345 270.275C229.346 270.156 229.369 270.037 229.413 269.926C229.413 269.926 229.383 269.798 229.118 269.673C228.903 269.571 228.613 269.499 228.231 269.452C227.99 269.422 227.741 269.591 227.507 269.735C226.982 270.058 226.571 270.489 226.571 270.489C226.249 270.819 225.746 270.894 225.342 270.671C224.938 270.449 224.732 269.984 224.839 269.535C224.839 269.535 225.026 268.73 224.881 268.001C224.83 267.747 224.748 267.473 224.452 267.401C223.956 267.282 223.51 267.408 223.141 267.591C222.398 267.962 221.93 268.596 221.93 268.596C221.596 269.042 220.982 269.165 220.502 268.884C220.021 268.602 219.829 268.005 220.055 267.497C220.055 267.497 220.188 267.166 219.928 266.906C219.71 266.688 219.334 266.537 218.754 266.428C218.33 266.349 218.026 266.368 217.816 266.5C217.733 266.552 217.671 266.619 217.624 266.692C217.596 267.328 217.432 267.864 217.318 268.038C216.908 268.665 216.379 268.638 215.999 268.514C215.861 268.469 215.219 268.207 215.183 267.377C215.174 267.16 215.2 266.744 215.343 266.284C215.311 266.204 215.271 266.132 215.225 266.077C215.142 265.979 214.993 265.965 214.791 265.966C214.447 265.967 214.102 265.943 213.84 265.919C213.724 266.312 213.531 266.97 213.303 267.749C213.135 268.317 212.57 268.671 211.986 268.572C211.401 268.474 210.983 267.954 211.011 267.362C211.035 266.898 211.792 259.701 212.286 252.56C212.597 248.05 212.812 243.564 212.616 240.856C212.598 240.613 212.566 240.363 212.529 240.127V240.127ZM215.434 266.74L215.395 266.798C215.378 266.825 215.263 266.91 215.325 266.926C215.397 266.944 215.431 266.862 215.434 266.74Z" fill="black"/>
<path fill-rule="evenodd" clip-rule="evenodd" d="M202.781 260.056C202.794 260.891 202.949 262.15 203.155 263.642C203.301 264.695 203.475 265.858 203.66 267.07C203.831 268.192 204.009 269.355 204.186 270.508C204.995 275.779 205.855 280.831 205.855 280.831C205.908 281.086 205.744 281.337 205.489 281.39C205.234 281.443 204.984 281.279 204.93 281.024C204.93 281.024 204.061 277.553 203.165 273.354C202.811 271.692 202.451 269.919 202.147 268.201C201.875 266.667 201.646 265.178 201.486 263.858C201.236 261.799 201.161 260.137 201.28 259.308C201.425 258.338 201.915 258.032 202.282 257.991C202.493 257.967 202.736 257.997 202.987 258.153C203.232 258.305 203.542 258.618 203.848 259.082C205.221 261.159 207.177 266.537 207.177 266.537C207.273 266.78 207.155 267.055 206.913 267.151C206.67 267.247 206.396 267.129 206.299 266.886C206.299 266.886 204.854 263.577 203.54 261.274C203.277 260.812 203.019 260.393 202.781 260.056V260.056ZM202.372 259.503C202.313 259.429 202.264 259.388 202.241 259.436C202.208 259.507 202.281 259.517 202.372 259.503Z" fill="black"/>
<path fill-rule="evenodd" clip-rule="evenodd" d="M132.497 277.165C133.178 277.661 135.314 279.268 137.554 281.423C140.122 283.895 142.792 287.085 143.857 289.931C144.452 291.519 144.577 293.029 144.081 294.329C143.62 295.536 142.659 296.627 140.904 297.38C139.065 298.164 138.157 298.605 137.67 298.914C137.26 299.175 137.23 299.309 137.07 299.494C136.803 299.802 136.333 300.248 134.595 301.116C134.195 301.335 133.692 301.189 133.473 300.789C133.253 300.389 133.4 299.886 133.799 299.666C135.583 298.597 135.589 298.361 135.821 298.037C135.961 297.84 136.155 297.628 136.576 297.318C137.082 296.943 138.03 296.383 139.971 295.389C142.798 293.961 142 291.511 140.348 289.05C139.148 287.262 137.445 285.475 135.825 283.901C133.111 281.264 130.583 279.259 130.583 279.259C130.418 279.135 130.283 278.977 130.185 278.796L122.49 263.173C122.275 262.771 122.427 262.27 122.829 262.055C123.232 261.84 123.733 261.992 123.948 262.394L132.497 277.165V277.165Z" fill="black"/>
<path fill-rule="evenodd" clip-rule="evenodd" d="M122.097 279.605C122.695 279.751 125.062 281.244 124.857 283.548C124.651 285.852 121.731 283.328 121.271 282.671C120.811 282.014 121.5 279.459 122.097 279.605V279.605Z" fill="black"/>
<path fill-rule="evenodd" clip-rule="evenodd" d="M122.309 278.7C121.978 278.564 121.63 278.695 121.242 278.941C120.92 279.145 120.597 279.666 120.305 280.288C119.981 280.979 119.842 281.819 119.85 282.419C119.855 282.828 120.025 283.144 120.163 283.402C120.409 283.833 121.332 284.878 122.305 285.497C122.85 285.844 123.434 286.019 123.921 286.048C124.58 286.087 125.162 285.896 125.602 285.471C125.976 285.11 126.357 284.56 126.389 283.64C126.38 282.557 126.112 281.604 125.547 280.861C124.486 279.468 122.846 278.751 122.309 278.7V278.7ZM123.354 283.188C123.236 283.288 123.165 283.393 123.298 283.433C123.319 283.439 123.322 283.393 123.326 283.367C123.338 283.307 123.348 283.247 123.354 283.188ZM123.856 282.874C123.996 282.951 124.098 282.97 124.103 282.857C124.108 282.752 123.981 282.806 123.856 282.874ZM122.385 280.857C122.291 281.317 122.146 282.171 122.447 282.066C122.529 282.038 122.426 281.9 122.381 281.85C122.496 281.982 122.821 282.161 123.162 282.39C123.213 282.424 123.273 282.468 123.336 282.515C123.294 282.284 123.213 282.07 123.1 281.875C122.87 281.478 122.613 281.12 122.385 280.857V280.857ZM122.42 280.435C122.519 280.425 122.565 280.396 122.479 280.336C122.437 280.306 122.424 280.356 122.42 280.435Z" fill="black"/>
<path fill-rule="evenodd" clip-rule="evenodd" d="M130.021 310.816C130.021 310.816 137.33 311.338 139.418 308.207Z" fill="black"/>
<path fill-rule="evenodd" clip-rule="evenodd" d="M129.572 311.631C129.572 311.631 131.314 311.901 133.39 311.73C134.223 311.661 135.108 311.51 135.944 311.257C137.571 310.763 139.012 309.897 139.769 308.63C140.04 308.224 139.93 307.674 139.523 307.402C139.117 307.131 138.567 307.241 138.296 307.648C137.671 308.491 136.538 308.872 135.366 309.165C134.631 309.348 133.87 309.472 133.152 309.571C131.279 309.829 129.699 309.865 129.699 309.865C129.211 309.83 128.787 310.198 128.752 310.685C128.717 311.172 129.085 311.596 129.572 311.631Z" fill="black"/>
<path fill-rule="evenodd" clip-rule="evenodd" d="M123.344 274.195C123.344 274.195 120.308 274.904 119.167 276.283C118.207 277.444 116.698 279.473 116.035 281.504" fill="black"/>
<path fill-rule="evenodd" clip-rule="evenodd" d="M122.756 273.265C122.756 273.265 121.17 273.344 119.665 273.868C118.83 274.159 118.108 274.674 117.564 275.208C117.273 275.57 116.909 275.992 116.582 276.503C116.301 276.943 116.039 277.429 115.804 277.954C115.344 278.981 114.975 280.066 114.808 281.161C114.656 281.625 114.91 282.126 115.375 282.277C115.839 282.429 116.339 282.175 116.491 281.71C116.754 281.216 117.1 280.778 117.443 280.311C117.937 279.639 118.502 279.049 118.987 278.471C119.375 278.009 119.703 277.565 119.999 277.222C120.281 276.791 120.765 276.41 121.262 276.092C122.246 275.463 123.159 274.989 123.159 274.989C123.635 274.878 123.931 274.401 123.82 273.926C123.709 273.45 123.232 273.154 122.756 273.265V273.265Z" fill="black"/>
<path fill-rule="evenodd" clip-rule="evenodd" d="M137.937 302.06L137.996 302.254C138.609 304.286 139.689 308.182 139.461 312.622C139.291 315.929 138.416 319.545 136.146 322.845C134.536 325.186 132.205 327.362 128.976 329.152C125.642 331 121.312 332.416 115.735 333.2C115.286 333.28 114.857 332.981 114.777 332.532C114.697 332.083 114.996 331.653 115.445 331.573C120.637 330.451 124.589 328.793 127.632 326.878C130.357 325.162 132.283 323.198 133.685 321.154C135.645 318.298 136.542 315.262 136.848 312.414C137.29 308.311 136.619 304.642 136.205 302.715C135.359 298.775 136.23 298.237 137.935 301.174C138.113 301.452 138.103 301.797 137.937 302.06V302.06ZM136.438 301.899C136.349 301.743 136.283 301.61 136.232 301.658C136.052 301.826 136.212 301.887 136.438 301.899Z" fill="black"/>
<path fill-rule="evenodd" clip-rule="evenodd" d="M41.6712 247.848C41.5124 248.131 41.3159 248.506 41.1314 248.918C40.0273 251.389 40.5397 253.656 41.715 255.597C44.402 260.034 50.3627 262.886 50.3627 262.886C50.776 263.079 50.9549 263.571 50.762 263.984C50.5691 264.397 50.0768 264.576 49.6635 264.383C49.6635 264.383 43.1139 261.39 40.0739 256.616C38.5139 254.167 37.856 251.273 39.2002 248.08C39.7206 246.845 40.1161 246.16 40.4235 245.828C40.7376 245.489 41.0569 245.356 41.3424 245.305C41.7871 245.227 42.266 245.357 42.7596 245.812C43.2393 246.254 43.8745 247.325 45.348 247.971C46.8619 248.635 49.2275 248.794 53.1451 247.546C57.6732 246.105 64.097 242.817 73.3356 236.298C79.6734 231.863 85.2404 228.811 90.166 226.868C95.0042 224.959 99.2352 224.103 102.948 223.986C111.084 223.729 116.807 226.992 121.202 230.987C124.728 234.192 127.368 237.88 129.764 240.461C132.446 243.362 132.072 247.492 129.914 251.847C125.425 260.908 113.466 271.062 113.466 271.062C113.121 271.361 112.598 271.324 112.3 270.979C112.001 270.634 112.038 270.112 112.383 269.813C112.383 269.813 121.305 261.884 126.239 253.895C127.824 251.33 128.999 248.767 129.25 246.474C129.429 244.826 129.095 243.337 127.963 242.164C125.565 239.671 122.909 236.097 119.399 233.001C115.425 229.496 110.308 226.634 103.052 226.919C99.6227 227.054 95.7306 227.89 91.2563 229.642C86.4979 231.505 81.0945 234.386 74.9417 238.614C65.2801 245.196 58.5696 248.464 53.8614 249.869C46.7426 251.993 43.8261 250.059 42.3104 248.546C42.0629 248.299 41.8538 248.06 41.6712 247.848Z" fill="black"/>
<path fill-rule="evenodd" clip-rule="evenodd" d="M43.891 259.513C43.891 259.513 42.5271 263.146 41.6667 268.422C41.3625 270.288 41.1238 272.355 41.0459 274.537C40.9747 276.532 41.0307 278.622 41.2931 280.727C41.463 282.091 41.7243 283.461 42.0858 284.814C43.5216 290.19 46.395 295.332 51.4888 299.084C51.8459 299.367 52.3662 299.308 52.65 298.951C52.9337 298.593 52.874 298.073 52.5168 297.789C50.3882 295.947 48.793 293.834 47.5632 291.59C46.2659 289.223 45.4265 286.697 44.8741 284.145C44.6012 282.884 44.4071 281.617 44.2524 280.361C44.0097 278.39 43.8975 276.443 43.8738 274.575C43.7723 266.569 45.466 260.015 45.466 260.015C45.6044 259.58 45.364 259.115 44.9294 258.976C44.4947 258.838 44.0294 259.078 43.891 259.513V259.513Z" fill="black"/>
<path fill-rule="evenodd" clip-rule="evenodd" d="M103.514 297.772C105.678 296.035 107.34 293.465 108.638 290.707C111.971 283.625 112.874 275.262 112.874 275.262C112.917 274.808 113.32 274.474 113.775 274.517C114.229 274.559 114.563 274.963 114.52 275.417C114.52 275.417 113.81 284.129 110.53 291.569C108.897 295.272 106.611 298.64 103.542 300.596C103.243 300.783 102.875 300.823 102.542 300.706C102.209 300.59 101.947 300.329 101.829 299.997C101.061 297.913 100.316 296.07 99.4366 294.696C98.7841 293.677 98.0834 292.931 97.1547 292.7C96.3278 292.494 95.3692 292.729 94.18 293.361C92.9751 294 91.5969 295.042 89.9854 296.539C89.1357 301.056 89.0023 303.969 89.5943 305.972C90.0358 307.466 90.9493 308.33 92.2356 309.017C93.5044 309.694 95.0918 310.206 96.9575 310.831C97.4215 310.987 97.778 311.363 97.9102 311.834C98.8744 315.259 99.1625 317.633 98.8221 319.633C98.4096 322.054 97.1018 323.983 94.7283 326.505C94.5729 326.671 94.3811 326.799 94.1681 326.878C91.1441 327.982 88.4399 329.659 86.201 331.358C82.0639 334.497 79.5067 337.723 79.5067 337.723C79.2721 338.025 78.9192 338.213 78.5373 338.238C78.1553 338.263 77.7809 338.123 77.5088 337.854C77.5088 337.854 71.1795 331.485 65.6094 325.246C62.5597 321.83 59.7408 318.45 58.2714 316.164C57.0269 314.228 55.9876 311.838 55.1568 309.448C53.3128 304.143 52.473 298.863 52.473 298.863C52.3957 298.414 52.6979 297.986 53.1474 297.909C53.597 297.832 54.0247 298.134 54.102 298.583C54.102 298.583 55.0493 303.687 56.963 308.795C57.7936 311.013 58.8067 313.232 60.0128 315.017C61.4894 317.203 64.3137 320.411 67.3435 323.665C71.617 328.255 76.3093 332.923 78.3481 334.93C79.4943 333.611 81.6252 331.346 84.4784 329.119C86.8203 327.292 89.6493 325.499 92.8081 324.255C94.5323 322.382 95.5786 320.965 95.8865 319.136C96.1425 317.615 95.9067 315.845 95.2577 313.38C91.8541 312.199 89.3803 311.17 87.9351 309.127C86.2769 306.782 85.8535 302.964 87.3846 295.579C87.4408 295.299 87.5835 295.043 87.7926 294.848C92.3427 290.681 95.5241 289.618 97.7957 290.23C98.9871 290.551 100.009 291.3 100.884 292.438C101.887 293.742 102.718 295.596 103.514 297.772V297.772Z" fill="black"/>
<path fill-rule="evenodd" clip-rule="evenodd" d="M116.48 356.313C114.732 353.63 114.09 350.578 114.11 347.588C114.157 340.706 117.649 334.245 117.649 334.245C117.857 333.839 118.356 333.679 118.762 333.887C119.167 334.096 119.327 334.594 119.119 335C119.119 335 116.138 341.151 116.36 347.557C116.452 350.221 117.113 352.934 118.873 355.223C119.027 355.433 119.116 355.684 119.126 355.944C119.165 356.646 118.934 357.413 118.414 358.201C117.812 359.113 116.759 360.093 115.347 361.034C112.888 362.676 109.286 364.262 105.295 365.273C101.798 366.158 98.0022 366.608 94.4455 366.326C87.8329 365.802 82.0447 362.816 80.0771 355.816C79.1365 352.403 78.5792 349.343 78.2669 346.743C77.5705 340.948 78.054 337.44 78.054 337.44C78.1058 336.987 78.5157 336.661 78.969 336.713C79.4222 336.764 79.7481 337.174 79.6963 337.628C79.6963 337.628 79.4014 340.978 80.2901 346.458C80.6944 348.951 81.3437 351.879 82.38 355.133C84.1858 360.905 89.1438 363.079 94.651 363.421C97.9114 363.625 101.372 363.188 104.58 362.401C108.234 361.505 111.563 360.17 113.846 358.725C114.75 358.153 115.487 357.581 115.984 357.011C116.203 356.76 116.392 356.536 116.48 356.313V356.313Z" fill="black"/>
<path fill-rule="evenodd" clip-rule="evenodd" d="M77.3729 355.223C77.3729 355.223 67.6312 352.642 56.2117 354.486C49.7671 355.527 42.806 357.986 36.7278 363.04C33.7241 365.549 31.1547 370.199 29.0694 376.36C27.0195 382.416 25.3775 389.951 24.1467 398.264C22.5555 409.009 21.6188 421.055 21.1233 432.836C20.2315 454.038 20.8134 474.384 21.5983 484.799C21.6281 485.254 22.0218 485.599 22.4769 485.57C22.9321 485.54 23.2774 485.146 23.2477 484.691C22.6713 474.31 22.6109 454.057 23.7975 432.967C24.4545 421.289 25.5092 409.358 27.0886 398.699C28.2932 390.571 29.7819 383.184 31.7156 377.238C33.5412 371.624 35.6921 367.309 38.3826 364.99C44.0093 360.117 50.5291 357.703 56.5751 356.592C67.5336 354.577 76.9689 356.826 76.9689 356.826C77.4111 356.938 77.8608 356.669 77.9723 356.227C78.0838 355.784 77.8152 355.335 77.3729 355.223V355.223Z" fill="black"/>
<path fill-rule="evenodd" clip-rule="evenodd" d="M50.1458 392.851C50.1458 392.851 47.8346 408.513 45.9032 427.513C45.445 432.02 45.0221 436.716 44.6696 441.434C44.4375 444.541 44.2486 447.658 44.0894 450.738C43.7357 457.578 43.5415 464.229 43.562 470.172C43.5908 478.542 44.0701 485.515 45.1493 489.681C45.2557 490.125 45.7022 490.399 46.1457 490.292C46.5893 490.186 46.863 489.739 46.7566 489.296C45.5055 483.657 45.6429 472.897 46.334 460.557C46.578 456.201 46.9001 451.651 47.2346 447.057C47.5629 442.549 47.9136 438 48.2629 433.555C48.7089 427.88 49.1484 422.377 49.5735 417.35C50.7579 403.348 51.7863 393.053 51.7863 393.053C51.8422 392.6 51.5201 392.187 51.0674 392.132C50.6146 392.076 50.2018 392.398 50.1458 392.851Z" fill="black"/>
</g>
<defs>
<clipPath id="clip0">
<rect width="555" height="522" fill="white"/>
</clipPath>
</defs>
</svg>
