<svg width="24" height="24" viewBox="0 0 24 24" fill="none" xmlns="http://www.w3.org/2000/svg">
<rect x="-946" y="-64" width="1252" height="5526" fill="white"/>
<rect x="3" y="8" width="4" height="12" fill="#193044"/>
<path fill-rule="evenodd" clip-rule="evenodd" d="M17 12.2195C16.893 11.4491 16.4957 10.7878 15.0233 10.7878C13.3483 10.7878 13.0523 11.6051 13 12.4843V20H9V8.00003H13V9.42332C13.3312 8.92953 14.3191 7.60627 16.4329 7.61331C19.9844 7.64182 20.8067 10.2938 20.9817 12H21V12.2041C21.0198 12.4603 21.0256 12.6892 21.0256 12.877C21.0256 12.9441 21.0168 13.0076 21 13.0675V20H17V12.2195Z" fill="#193044"/>
<path fill-rule="evenodd" clip-rule="evenodd" d="M5 6C6.10457 6 7 5.10457 7 4C7 2.89543 6.10457 2 5 2C3.89543 2 3 2.89543 3 4C3 5.10457 3.89543 6 5 6Z" fill="#193044"/>
</svg>
