<?xml version="1.0" encoding="UTF-8" standalone="no"?>
<svg width="140px" height="86px" viewBox="0 0 140 86" version="1.1" xmlns="http://www.w3.org/2000/svg" xmlns:xlink="http://www.w3.org/1999/xlink" xmlns:sketch="http://www.bohemiancoding.com/sketch/ns">
    <!-- Generator: Sketch 3.3.3 (12072) - http://www.bohemiancoding.com/sketch -->
    <title>research</title>
    <desc>Created with Sketch.</desc>
    <defs>
        <filter x="-50%" y="-50%" width="200%" height="200%" filterUnits="objectBoundingBox" id="filter-1">
            <feOffset dx="2" dy="-1" in="SourceAlpha" result="shadowOffsetInner1"></feOffset>
            <feGaussianBlur stdDeviation="0" in="shadowOffsetInner1" result="shadowBlurInner1"></feGaussianBlur>
            <feComposite in="shadowBlurInner1" in2="SourceAlpha" operator="arithmetic" k2="-1" k3="1" result="shadowInnerInner1"></feComposite>
            <feColorMatrix values="0 0 0 0 0   0 0 0 0 0   0 0 0 0 0  0 0 0 0.114388021 0" in="shadowInnerInner1" type="matrix" result="shadowMatrixInner1"></feColorMatrix>
            <feMerge>
                <feMergeNode in="SourceGraphic"></feMergeNode>
                <feMergeNode in="shadowMatrixInner1"></feMergeNode>
            </feMerge>
        </filter>
    </defs>
    <g id="Page-1" stroke="none" stroke-width="1" fill="none" fill-rule="evenodd" sketch:type="MSPage">
        <g id="Research-+-Group" sketch:type="MSLayerGroup">
            <g id="Group" transform="translate(1.000000, 1.000000)" sketch:type="MSShapeGroup">
                <rect id="Rectangle-63-Copy" stroke="#474747" stroke-width="2.376" fill="#FB624F" x="0" y="16.4375" width="137.554004" height="58.66875"></rect>
                <rect id="Rectangle-63" stroke="#474747" stroke-width="2.376" fill="#EBD6AC" x="6.50400621" y="11.721875" width="124.148437" height="57.075"></rect>
                <path d="M6.46787206,2.99022262 C6.46452602,1.89949119 7.34232243,0.968877891 8.44379514,0.915430397 C8.44379514,0.915430397 62.347743,-2.16155093 68.8894081,6.39859799 C75.6717672,-2.18850489 128.974404,1.18931078 128.974404,1.18931078 C130.066438,1.25100709 130.947172,2.18816123 130.941551,3.28822509 L130.66183,58.0289962 C130.656222,59.1264982 129.759551,59.9641715 128.677566,59.9060859 C128.677566,59.9060859 76.8815143,56.6296686 68.5,65.513263 C59.5108327,56.5532988 8.61494898,59.2777544 8.61494898,59.2777544 C7.52466942,59.3277254 6.63808302,58.4749998 6.63476465,57.3932908 L6.46787206,2.99022262 Z" id="Rectangle-62" stroke="#474747" stroke-width="2.376" fill="#FFECC7"></path>
                <path d="M59.2380283,3.5 C66.9497368,4.31809613 68.019769,6.98468328 68.019769,6.98468328 L67.5662167,63.7968826 L59.2380283,59.3 C59.2380283,59.3 57.6168852,38.3693331 59.2380283,3.5 Z" id="Rectangle-102" fill-opacity="0.0700000003" fill="#000000"></path>
                <path d="M70.1432895,3.5 C78.794229,4.31809613 80.1239892,7.01927209 80.1239892,7.01927209 L79.7145997,63.2622528 L70.1432896,60.37286 C70.1432896,60.37286 68.3247028,38.3693331 70.1432895,3.5 Z" id="Rectangle-102-Copy" fill-opacity="0.0700000003" fill="#000000" transform="translate(74.729509, 33.381126) scale(-1, 1) translate(-74.729509, -33.381126) "></path>
                <path d="M68.7770021,6.99955523 L68.7770022,62.9014299" id="Line" stroke="#474747" stroke-width="2.376" stroke-linecap="square"></path>
                <g transform="translate(12.721758, 10.812500)" stroke="#474747" stroke-width="1.584" stroke-linecap="square">
                    <path d="M23.1987775,0 C23.1987775,0 28.0463687,-5.31702153e-17 38.3642423,0 C45.1513809,0.135768448 48.682116,2.04013957 48.682116,2.04013957" id="Line"></path>
                    <path d="M23.1987775,5.5125 C23.1987775,5.5125 28.0463687,5.5125 38.3642423,5.5125 C45.1513809,5.64826845 48.682116,7.55263957 48.682116,7.55263957" id="Line-Copy-17"></path>
                    <path d="M23.1987775,11.025 C23.1987775,11.025 28.0463687,11.025 38.3642423,11.025 C45.1513809,11.1607684 48.682116,13.0651396 48.682116,13.0651396" id="Line-Copy-23"></path>
                    <path d="M23.1987775,16.5375 C23.1987775,16.5375 28.0463687,16.5375 38.3642423,16.5375 C45.1513809,16.6732684 48.682116,18.5776396 48.682116,18.5776396" id="Line-Copy-24"></path>
                    <path d="M0.198777463,22.05 C0.198777463,22.05 28.0463687,22.05 38.3642423,22.05 C45.1513809,22.1857684 48.682116,24.0901396 48.682116,24.0901396" id="Line-Copy-25"></path>
                    <path d="M0.198777463,27.5625 C0.198777463,27.5625 28.0463687,27.5625 38.3642423,27.5625 C45.1513809,27.6982684 48.682116,29.6026396 48.682116,29.6026396" id="Line-Copy-26"></path>
                    <path d="M0.198777463,33.075 C0.198777463,33.075 28.0463687,33.075 38.3642423,33.075 C45.1513809,33.2107684 48.682116,35.1151396 48.682116,35.1151396" id="Line-Copy-27"></path>
                    <path d="M0.198777463,38.5875 C0.198777463,38.5875 28.0463687,38.5875 38.3642423,38.5875 C45.1513809,38.7232684 48.682116,40.6276396 48.682116,40.6276396" id="Line-Copy-29"></path>
                </g>
                <g transform="translate(99.587509, 30.893750) scale(-1, 1) translate(-99.587509, -30.893750) translate(75.137881, 10.418750)" stroke="#474747" stroke-width="1.584" stroke-linecap="square">
                    <path d="M0.198777463,0 C0.198777463,0 28.0463687,-5.31702153e-17 38.3642423,0 C45.1513809,0.135768448 48.682116,2.04013957 48.682116,2.04013957" id="Line-Copy-36"></path>
                    <path d="M0.198777463,5.5125 C0.198777463,5.5125 28.0463687,5.5125 38.3642423,5.5125 C45.1513809,5.64826845 48.682116,7.55263957 48.682116,7.55263957" id="Line-Copy-28"></path>
                    <path d="M0.198777463,11.025 C0.198777463,11.025 28.0463687,11.025 38.3642423,11.025 C45.1513809,11.1607684 48.682116,13.0651396 48.682116,13.0651396" id="Line-Copy-30"></path>
                    <path d="M0.198777463,16.5375 C0.198777463,16.5375 28.0463687,16.5375 38.3642423,16.5375 C45.1513809,16.6732684 48.682116,18.5776396 48.682116,18.5776396" id="Line-Copy-31"></path>
                    <path d="M0.198777463,22.05 C0.198777463,22.05 28.0463687,22.05 38.3642423,22.05 C45.1513809,22.1857684 48.682116,24.0901396 48.682116,24.0901396" id="Line-Copy-32"></path>
                    <path d="M0.198777463,27.5625 C0.198777463,27.5625 28.0463687,27.5625 38.3642423,27.5625 C45.1513809,27.6982684 48.682116,29.6026396 48.682116,29.6026396" id="Line-Copy-33"></path>
                    <path d="M0.198777463,33.075 C0.198777463,33.075 28.0463687,33.075 38.3642423,33.075 C45.1513809,33.2107684 48.682116,35.1151396 48.682116,35.1151396" id="Line-Copy-34"></path>
                    <path d="M0.198777463,38.5875 C0.198777463,38.5875 28.0463687,38.5875 38.3642423,38.5875 C45.1513809,38.7232684 48.682116,40.6276396 48.682116,40.6276396" id="Line-Copy-35"></path>
                </g>
                <g id="Rectangle-65-+-Oval-6" transform="translate(11.926648, 9.879445)">
                    <rect id="Rectangle-65" stroke="#474747" stroke-width="1.584" x="0.961584099" y="0" width="17.1594682" height="17.845"></rect>
                    <path d="M10.6289691,9.9154093 C11.8620079,9.33761883 12.7374635,7.87631462 12.7374635,6.16491525 C12.7374635,3.94753879 11.2678258,2.15 9.45493592,2.15 C7.64204599,2.15 6.17240833,3.94753879 6.17240833,6.16491525 C6.17240833,7.8878526 7.05970811,9.35731121 8.3058902,9.92697474 C5.03080362,10.575639 2.54435153,13.7574987 2.54435153,17.585 C6.62696919,17.5783509 13.1992001,17.585 16.5382849,17.585 C16.2486183,14.2218565 13.9249837,10.5856494 10.6289691,9.9154093 Z" id="Oval-6" fill="#474747"></path>
                </g>
                <g id="Rectangle-68-+-Oval-8-+-Rectangle-66-+-Rectangle-66-Copy-+-Oval-8-Copy-2" transform="translate(25.207547, 27.800000)">
                    <g id="Oval-8-+-Rectangle-66-+-Rectangle-66-Copy" transform="translate(32.305453, 31.870809) rotate(-45.000000) translate(-32.305453, -31.870809) translate(16.100601, 3.070809)">
                        <ellipse id="Oval-10" stroke="#979797" stroke-width="0.5" fill="#FFECC6" cx="15.5783998" cy="15.7161918" rx="14.3102547" ry="14.1044776"></ellipse>
                        <path d="M16.0592858,31.9701493 C24.9285844,31.9701493 32.1185716,24.8835519 32.1185716,16.141791 C32.1185716,7.40003019 24.9285844,0.313432836 16.0592858,0.313432836 C7.18998715,0.313432836 5.93523433e-14,7.40003019 5.93523433e-14,16.141791 C5.93523433e-14,24.8835519 7.18998715,31.9701493 16.0592858,31.9701493 Z M16.0592858,27.5820896 C22.4697689,27.5820896 27.6664923,22.4600934 27.6664923,16.141791 C27.6664923,9.82348865 22.4697689,4.70149254 16.0592858,4.70149254 C9.64880261,4.70149254 4.45207923,9.82348865 4.45207923,16.141791 C4.45207923,22.4600934 9.64880261,27.5820896 16.0592858,27.5820896 Z" id="Oval-8" stroke="#474747" stroke-width="1.9008" fill="#EBF3F7" filter="url(#filter-1)"></path>
                        <rect id="Rectangle-66" stroke="#474747" stroke-width="1.9008" fill="#C9DEE8" x="14.6282603" y="32.5970149" width="2.86205093" height="3.44776119"></rect>
                        <rect id="Rectangle-66-Copy" stroke="#474747" stroke-width="1.9008" fill="#636363" x="13.3562377" y="37.6119403" width="5.08809054" height="19.119403"></rect>
                    </g>
                    <path d="M14.3102547,28.3875213 C15.0478572,29.1030489 15.9281567,29.6831564 16.9069013,30.0854329 M20.1265912,30.7164179 C24.642023,30.7164179 28.3025037,27.2082014 28.3025037,22.880597" id="Oval-8-Copy-2" stroke="#474747" stroke-width="1.52064" stroke-linecap="round" transform="translate(21.306379, 26.798507) rotate(-315.000000) translate(-21.306379, -26.798507) "></path>
                </g>
            </g>
        </g>
    </g>
</svg>