<?xml version="1.0" encoding="UTF-8" standalone="no"?>
<svg width="22px" height="22px" viewBox="0 0 22 22" version="1.1" xmlns="http://www.w3.org/2000/svg" xmlns:xlink="http://www.w3.org/1999/xlink">
    <!-- Generator: Sketch Beta 39.1 (31721) - http://www.bohemiancoding.com/sketch -->
    <title>twitter</title>
    <desc>Created with Sketch Beta.</desc>
    <defs></defs>
    <g id="Page-1-Copy" stroke="none" stroke-width="1" fill="none" fill-rule="evenodd">
        <path d="M2,16.833254 C3.4120446,17.7898679 8.82978812,21.6397572 15.2667748,15.9025851 C18.964761,12.2761566 18.5907917,7.96930205 18.5907917,7.96930205 C18.5907917,7.96930205 20.2335507,6.7327343 20.2957627,5.90570551 C19.6629022,6.10949857 18.8018382,6.26237824 18.8018382,6.26237824 C18.8018382,6.26237824 19.8980792,5.25038738 19.8980802,4.45111685 C18.9277965,4.80388389 17.732099,5.19710267 17.732099,5.19710267 C17.732099,5.19710267 16.3521368,3.86107945 14.4803373,4.01186679 C12.6085378,4.16265412 11.0229686,5.5682823 11.0229692,7.35471471 C11.0229697,9.14114713 11.0667686,8.44091351 11.0229692,8.53548688 C7.39402989,8.75504217 3.53312083,4.7232594 3.53312083,4.7232594 C3.53312083,4.7232594 1.92607096,7.62950746 4.45848922,9.57119085 C3.44928809,9.44844074 2.94405988,9.37702252 2.94405988,9.37702252 C2.94405988,9.37702252 2.94419947,12.4494019 5.56714575,12.671747 C4.95283731,13.1412659 5.0223027,12.9956396 4.23056457,13.0140521 C4.66311918,14.1632999 5.77861076,15.6830309 7.54174861,15.6830301 C5.87457895,16.5764553 4.93400633,17.1318995 2,16.833254 Z" id="Path-7-Copy-4" fill="#007FB6"></path>
    </g>
</svg>