<?xml version="1.0" encoding="UTF-8" standalone="no"?>
<svg width="143px" height="91px" viewBox="0 0 143 91" version="1.1" xmlns="http://www.w3.org/2000/svg" xmlns:xlink="http://www.w3.org/1999/xlink" xmlns:sketch="http://www.bohemiancoding.com/sketch/ns">
    <!-- Generator: Sketch 3.3.3 (12072) - http://www.bohemiancoding.com/sketch -->
    <title>design</title>
    <desc>Created with Sketch.</desc>
    <defs>
        <rect id="path-1" x="0" y="0" width="119.031847" height="80.0038835" rx="0.945"></rect>
    </defs>
    <g id="Page-1" stroke="none" stroke-width="1" fill="none" fill-rule="evenodd" sketch:type="MSPage">
        <g id="Design-+-Group-+-Group-Copy-+-Group-Copy-2-Copy-+-Rectangle-65-+-Oval-6-Copy" sketch:type="MSLayerGroup">
            <g id="Group-+-Group-Copy-+-Group-Copy-2-Copy-+-Rectangle-65-+-Oval-6-Copy" transform="translate(3.000000, 1.000000)">
                <g id="Group-+-Group-Copy-+-Group-Copy-2-Copy">
                    <g id="Group" transform="translate(10.032038, 0.792233)">
                        <g>
                            <rect id="Rectangle-40" stroke="#000000" stroke-width="1.89" fill="#77CBF5" sketch:type="MSShapeGroup" x="0" y="0.3" width="122.820659" height="83.4961165" rx="0.945"></rect>
                            <g id="Rectangle-48-+-Rectangle-40-Copy" transform="translate(1.578672, 1.887379)">
                                <mask id="mask-2" sketch:name="Mask" fill="white">
                                    <use xlink:href="#path-1"></use>
                                </mask>
                                <use id="Mask" fill="#77CBF5" sketch:type="MSShapeGroup" xlink:href="#path-1"></use>
                                <path d="M79.5585608,4.2756864 L147.225816,-8.76126166 L158.505133,101.259622 L90.837878,114.29657 L79.5585608,4.2756864 L79.5585608,4.2756864 Z" id="Rectangle-48" opacity="0.398379198" fill="#65BCE7" sketch:type="MSShapeGroup" mask="url(#mask-2)">
                                    <g transform="translate(119.031847, 52.767654) rotate(-330.000000) translate(-119.031847, -52.767654) "></g>
                                </path>
                                <path d="M-50.0025993,-29.0592651 L17.6646555,-42.0962131 L28.9439726,67.9246702 L-38.7232822,80.9616183 L-50.0025993,-29.0592651 L-50.0025993,-29.0592651 Z" id="Rectangle-48-Copy" opacity="0.104885728" fill="#FFFFFF" sketch:type="MSShapeGroup" mask="url(#mask-2)">
                                    <g transform="translate(-10.529313, 19.432703) rotate(-330.000000) translate(10.529313, -19.432703) "></g>
                                </path>
                            </g>
                            <g id="Rectangle-47-+-Rectangle-47-Copy-+-Oval-4" transform="translate(48.307354, 19.983495)" sketch:type="MSShapeGroup">
                                <rect id="Rectangle-47" stroke="#BBE5FA" stroke-width="1.89" x="6.39679983e-15" y="1.91846539e-14" width="24.3115443" height="45.0815534" rx="2.52"></rect>
                                <path d="M1.1050702,34.2873786 L23.2064741,34.2873786" id="Line-Copy-19" stroke="#BBE5FA" stroke-width="1.89" stroke-linecap="square"></path>
                                <path d="M4.26241361,24.7631068 L13.7397048,24.7631068" id="Line" stroke="#BBE5FA" stroke-width="1.26" stroke-linecap="square"></path>
                                <path d="M17.0496544,24.7631068 L20.0543917,24.7631068" id="Line-Copy-12" stroke="#BBE5FA" stroke-width="1.26" stroke-linecap="square"></path>
                                <path d="M4.42028078,28.6203883 L7.42501798,28.6203883" id="Line-Copy-16" stroke="#BBE5FA" stroke-width="1.26" stroke-linecap="square"></path>
                                <path d="M10.7349676,28.6203883 L17.5507351,28.6203883" id="Line-Copy-18" stroke="#BBE5FA" stroke-width="1.26" stroke-linecap="square"></path>
                                <path d="M4.42028078,21.3203883 L7.42501798,21.3203883" id="Line-Copy-38" stroke="#BBE5FA" stroke-width="1.26" stroke-linecap="square"></path>
                                <path d="M10.7349676,21.3203883 L17.5507351,21.3203883" id="Line-Copy-37" stroke="#BBE5FA" stroke-width="1.26" stroke-linecap="square"></path>
                                <ellipse id="Oval-4" fill="#BBE5FA" cx="12.014426" cy="39.2691519" rx="2.40288519" ry="2.41002015"></ellipse>
                            </g>
                            <path d="M114.335928,73.9162483 L107.981413,73.916248 C106.587618,73.916248 105.457723,72.7809025 105.457723,71.3786388 L105.457723,65.0653183" id="Rectangle-48-Copy-3" stroke="#FFFFFF" stroke-width="1.89" stroke-linecap="round" sketch:type="MSShapeGroup" transform="translate(109.896826, 69.490783) rotate(-90.000000) translate(-109.896826, -69.490783) "></path>
                            <g transform="translate(26.107817, 72.300000)" stroke="#BBE5FA" stroke-width="1.89" stroke-linecap="round" sketch:type="MSShapeGroup">
                                <path d="M70.3426246,1.63776699 L59.5393901,1.63776699" id="Line"></path>
                                <path d="M50.5366947,1.63776699 L39.7334602,1.63776699" id="Line-Copy-45"></path>
                                <path d="M30.7307648,1.63776699 L19.9275303,1.63776699" id="Line-Copy-46"></path>
                                <path d="M10.9248349,1.63776699 L0.121600388,1.63776699" id="Line-Copy-47"></path>
                            </g>
                            <g id="Group-Copy-8" transform="translate(26.107817, 7.500000)" stroke="#FFFFFF" stroke-width="1.89" sketch:type="MSShapeGroup" stroke-linecap="round" opacity="0.5">
                                <path d="M70.3426246,1.63776699 L59.5393901,1.63776699" id="Line"></path>
                                <path d="M50.5366947,1.63776699 L39.7334602,1.63776699" id="Line-Copy-45"></path>
                                <path d="M30.7307648,1.63776699 L19.9275303,1.63776699" id="Line-Copy-46"></path>
                                <path d="M10.9248349,1.63776699 L0.121600388,1.63776699" id="Line-Copy-47"></path>
                            </g>
                            <g id="Group-Copy-6" transform="translate(8.402561, 40.889353) rotate(-270.000000) translate(-8.402561, -40.889353) translate(-7.597439, 39.389353)" stroke="#BBE5FA" stroke-width="1.89" stroke-linecap="round" sketch:type="MSShapeGroup">
                                <path d="M31.3426246,1.63776699 L20.5393901,1.63776699" id="Line"></path>
                                <path d="M11.5366947,1.63776699 L0.733460227,1.63776699" id="Line-Copy-45"></path>
                            </g>
                            <g id="Group-Copy-7" transform="translate(114.634367, 40.889353) rotate(-270.000000) translate(-114.634367, -40.889353) translate(98.634367, 39.389353)" stroke="#BBE5FA" stroke-width="1.89" stroke-linecap="round" sketch:type="MSShapeGroup">
                                <path d="M31.3426246,1.63776699 L20.5393901,1.63776699" id="Line"></path>
                                <path d="M11.5366947,1.63776699 L0.733460227,1.63776699" id="Line-Copy-45"></path>
                            </g>
                            <path d="M17.7187664,73.9543689 L11.3642517,73.9543687 C9.97045614,73.9543687 8.84056157,72.8190232 8.84056157,71.4167594 L8.84056157,65.103439" id="Rectangle-48-Copy-4" stroke="#FFFFFF" stroke-width="1.89" sketch:type="MSShapeGroup"></path>
                            <path d="M17.7187664,18.0786408 L11.3642517,18.0786405 C9.97045614,18.0786405 8.84056157,16.943295 8.84056157,15.5410313 L8.84056157,9.22771082" id="Rectangle-48-Copy-5" stroke="#FFFFFF" stroke-width="1.89" stroke-linecap="round" sketch:type="MSShapeGroup" transform="translate(13.279664, 13.653176) rotate(-270.000000) translate(-13.279664, -13.653176) "></path>
                            <path d="M114.333475,18.0786408 L107.97896,18.0786405 C106.585165,18.0786405 105.45527,16.943295 105.45527,15.5410313 L105.45527,9.22771082" id="Rectangle-48-Copy-6" stroke="#FFFFFF" stroke-width="1.89" stroke-linecap="round" sketch:type="MSShapeGroup" transform="translate(109.894373, 13.653176) rotate(-180.000000) translate(-109.894373, -13.653176) "></path>
                        </g>
                        <g id="Line-+-Triangle-2-Copy" transform="translate(81.694537, 25.555340) rotate(-180.000000) translate(-81.694537, -25.555340) translate(72.694537, 22.555340)" sketch:type="MSShapeGroup">
                            <path d="M0.0701359702,0.532395608 C0.0701359702,0.532395608 1.64805069,4.62159293 6.30902495,4.62159293 C10.9699992,4.62159293 14.6816469,3.01601942 14.6816469,3.01601942" id="Line" stroke="#BBE5FA" stroke-width="0.945" stroke-linecap="square"></path>
                            <polygon id="Triangle-2" fill="#BBE5FA" transform="translate(14.681647, 3.016019) rotate(-299.000000) translate(-14.681647, -3.016019) " points="14.6816469 1.26990291 17.0496544 4.76213592 12.3136393 4.76213592 "></polygon>
                        </g>
                        <g id="Line-+-Triangle-2-+-Group" transform="translate(21.469935, 35.857282)" sketch:type="MSShapeGroup">
                            <g id="Line-+-Triangle-2" transform="translate(7.893359, 10.159223)">
                                <path d="M0.0701359702,0.532395608 C0.0701359702,0.532395608 1.64805069,4.62159293 6.30902495,4.62159293 C10.9699992,4.62159293 14.6816469,3.01601942 14.6816469,3.01601942" id="Line" stroke="#BBE5FA" stroke-width="0.945" stroke-linecap="square"></path>
                                <polygon id="Triangle-2" fill="#BBE5FA" transform="translate(14.681647, 3.016019) rotate(-299.000000) translate(-14.681647, -3.016019) " points="14.6816469 1.26990291 17.0496544 4.76213592 12.3136393 4.76213592 "></polygon>
                            </g>
                            <g id="Group" stroke="#BBE5FA">
                                <rect id="Rectangle-49" stroke-width="0.945" x="0" y="0" width="17.0496544" height="10.476699" rx="1.575"></rect>
                                <path d="M2.65278756,3.80970874 L10.2717864,3.80970874" id="Line-Copy-22" stroke-width="1.26" stroke-linecap="square"></path>
                                <path d="M2.77970038,6.98446602 L5.19527342,6.98446602" id="Line-Copy-20" stroke-width="1.26" stroke-linecap="square"></path>
                                <path d="M7.85621332,6.98446602 L13.3355558,6.98446602" id="Line-Copy-21" stroke-width="1.26" stroke-linecap="square"></path>
                            </g>
                        </g>
                        <g id="Line-+-Triangle-2-+-Group-Copy" transform="translate(82.169710, 28.139356)" sketch:type="MSShapeGroup" stroke="#BBE5FA">
                            <g id="Group">
                                <rect id="Rectangle-49" stroke-width="0.945" x="0" y="0" width="17.0496544" height="10.476699" rx="1.575"></rect>
                                <path d="M2.65278756,3.80970874 L10.2717864,3.80970874" id="Line-Copy-22" stroke-width="1.26" stroke-linecap="square"></path>
                                <path d="M2.77970038,6.98446602 L5.19527342,6.98446602" id="Line-Copy-20" stroke-width="1.26" stroke-linecap="square"></path>
                                <path d="M7.85621332,6.98446602 L13.3355558,6.98446602" id="Line-Copy-21" stroke-width="1.26" stroke-linecap="square"></path>
                            </g>
                        </g>
                    </g>
                    <g id="Group-Copy" transform="translate(28.616045, 60.485968) rotate(8.000000) translate(-28.616045, -60.485968) translate(3.616045, 35.485968)" stroke="#000000" sketch:type="MSShapeGroup">
                        <path d="M0.255991579,2.25515833 C0.255991579,0.1632372 1.4538238,-0.335126359 2.93574701,1.14635316 L49.1030912,47.2998747 C50.5830792,48.7794197 50.0977508,49.9788279 47.9939539,49.9788279 L4.04488425,49.9788279 C1.95233661,49.9788279 0.255991579,48.2942366 0.255991579,46.1910696 L0.255991579,2.25515833 Z M9.32387818,23.3664598 L26.2559916,40.2935037 L9.32387818,40.2935037 L9.32387818,23.3664598 Z" id="Rectangle-41" stroke-width="2.268" fill="#FFD98E"></path>
                        <path d="M1.79006835,1.11738095 L1.79006835,48.4702622 C9.29224867,48.647343 49.1237348,48.4702622 49.1237348,48.4702622" id="Line-Copy-48" stroke-width="2.079" stroke-linecap="square" opacity="0.15"></path>
                        <path d="M6.75667018,7.1326087 L5.37828901,8.5105772" id="Line" stroke-width="2.268" stroke-linecap="round"></path>
                        <path d="M12.6140714,12.9882562 L9.85946596,15.7420369" id="Line-Copy-8" stroke-width="2.268" stroke-linecap="round"></path>
                        <path d="M18.5001919,18.8726144 L16.8531436,20.5191696" id="Line-Copy-9" stroke-width="2.268" stroke-linecap="round"></path>
                        <path d="M24.1187614,24.4895017 L21.364156,27.2432824" id="Line-Copy-11" stroke-width="2.268" stroke-linecap="round"></path>
                        <path d="M30.1646823,30.428325 L28.7181475,31.8744267" id="Line-Copy-13" stroke-width="2.268" stroke-linecap="round"></path>
                        <path d="M36.2106032,36.3671482 L33.4559978,39.1209289" id="Line-Copy-14" stroke-width="2.268" stroke-linecap="round"></path>
                        <path d="M42.5913917,42.7999205 L41.1274793,44.2633946" id="Line-Copy-15" stroke-width="2.268" stroke-linecap="round"></path>
                    </g>
                    <g id="Group-Copy-2" transform="translate(124.898793, 30.497598) rotate(-15.000000) translate(-124.898793, -30.497598) translate(118.398793, 3.997598)" sketch:type="MSShapeGroup">
                        <rect id="Rectangle-44" stroke="#000000" stroke-width="2.079" fill="#F5EE78" x="1.70215633" y="9.29276316" width="10.0997305" height="32.8210526"></rect>
                        <rect id="Rectangle-44-Copy" stroke="#000000" stroke-width="2.079" fill="#D6D6D6" x="1.76551846" y="42.1138158" width="10.0708419" height="5.06670709"></rect>
                        <rect id="Rectangle-44-Copy-2" stroke="#000000" stroke-width="2.079" fill="#F57F78" x="1.76346998" y="45.569699" width="10.0997305" height="7.35390458"></rect>
                        <path d="M3.66712148,11.3560698 L3.66712148,39.9486428" id="Line" stroke="#000000" stroke-width="2.079" stroke-linecap="square" opacity="0.309293377"></path>
                        <polygon id="Triangle-1" fill="#FFD6A4" points="6.75202156 0.9 12.6037736 8.58552632 0.900269542 8.58552632 "></polygon>
                        <path d="M2.27715237,8.23618421 L6.57991121,1.07467105 L11.2268908,8.58552632" id="Line" stroke="#000000" stroke-width="2.079" stroke-linecap="square"></path>
                        <path d="M2.27715237,8.23618421 L6.57991121,1.07467105 L11.2268908,8.58552632" id="Line-Copy-7" stroke="#000000" stroke-width="2.079" stroke-linecap="square"></path>
                        <path d="M3.99825591,5.27083843 L6.14963533,1.77335526 L8.4731251,5.44144737" id="Line-Copy-10" fill="#000000"></path>
                    </g>
                </g>
                <g id="Rectangle-65-+-Oval-6-Copy" transform="translate(65.520216, 21.900000)" sketch:type="MSShapeGroup">
                    <rect id="Rectangle-65" x="5.40161725" y="0" width="19.0826364" height="19.845"></rect>
                    <path d="M5.82181924,9.1019392 C6.70817888,8.68659935 7.33749283,7.63615303 7.33749283,6.4059279 C7.33749283,4.81198536 6.28105609,3.51983963 4.97787531,3.51983963 C3.67469454,3.51983963 2.61825779,4.81198536 2.61825779,6.4059279 C2.61825779,7.64444701 3.25608582,8.70075506 4.1518934,9.11025292 C1.79762479,9.57653983 0.010259482,11.8637931 0.010259482,14.6151604 C2.94501507,14.6103807 7.66940832,14.6151604 10.0696815,14.6151604 C9.8614571,12.1975928 8.19113182,9.58373569 5.82181924,9.1019392 Z" id="Oval-6" stroke="#FFFFFF" stroke-width="0.9" opacity="0.5"></path>
                </g>
            </g>
        </g>
    </g>
</svg>