<svg width="655" height="476" viewBox="0 0 655 476" fill="none" xmlns="http://www.w3.org/2000/svg">
<path d="M164.881 367.135C163.821 367.066 163.502 365.574 164.537 365.172C168.095 363.788 175.631 365.422 179.232 366.291C181.656 366.876 184.251 367.781 186.225 369.357C186.993 369.97 186.596 371.275 185.566 371.23C183.985 371.162 181.499 369.08 179.809 368.587C175.362 367.291 170.662 367.243 166.068 367.159C165.673 367.152 165.275 367.161 164.881 367.135ZM184.897 370.946C184.007 370.042 185.233 368.583 186.249 369.375C191.645 373.582 195.391 380.145 197.672 386.459C197.786 386.776 197.909 387.093 198.009 387.416C198.314 388.403 197.054 389.19 196.342 388.393C192.309 383.878 190.573 376.712 184.897 370.946Z" fill="black"/>
<path d="M110.268 364.254C111.668 364.271 112.29 366.143 111.031 366.892C108.658 368.304 104.639 368.143 101.941 369.464C95.8706 372.438 91.2811 377.679 88.8368 383.955C79.679 407.473 73.6142 440.51 72.2694 465.666C72.2392 466.232 72.0306 466.759 71.6184 467.158C67.4266 471.21 68.1655 461.238 68.3103 459.55C69.0488 450.936 70.5487 442.374 72.1883 433.893C75.9372 414.499 81.4027 363.908 110.268 364.254ZM68.0671 466.165C67.7192 464.626 69.0615 463.154 70.6484 463.548C71.9179 463.864 73.0146 466.194 74.5812 466.826C80.4309 469.189 87.5415 469.076 93.7315 469.026C113.572 468.864 137.432 466.358 154.595 455.548C158.916 452.826 154.038 459.072 151.252 460.491C146.049 463.143 140.494 465.056 134.887 466.647C118.671 471.246 100.99 473.804 84.1186 472.729C79.5877 472.44 69.3888 472.009 68.0671 466.165ZM154.742 455.464C156.907 454.56 157.06 458.198 154.855 457.935C149.563 457.302 143.183 448.224 140.415 444.308C137.905 440.756 135.897 435.119 138.863 431.182C140.55 428.943 140.183 438.901 141.214 440.862C142.558 443.419 153.884 455.823 154.742 455.464ZM139.2 430.852C140.357 430.144 141.709 431.595 140.812 432.665C138.442 435.492 132.866 437.585 129.562 439.086C123.027 442.054 114.769 444.267 107.894 441.03C102.874 438.667 118.124 440.023 118.862 439.916C126.386 438.828 132.851 434.74 139.2 430.852ZM109.519 440.34C109.321 440.834 108.837 441.162 108.3 441.128C107.484 441.076 106.971 440.242 107.236 439.485C110.077 431.357 111.499 422.92 114.252 414.789C114.533 413.961 115.57 413.631 116.254 414.205C117.275 415.062 110.923 436.828 109.519 440.34ZM156.183 457.557C153.887 459.536 155.325 448.194 155.302 446.095C155.253 441.645 161.473 452.997 156.183 457.557ZM155.771 445.022C156.183 446.095 157.085 447.042 156.263 448.267C154.649 450.672 156.999 454.005 154.595 455.548C148.682 459.341 149.895 450.981 150.479 450.517C151.387 449.794 155.356 443.939 155.771 445.022Z" fill="black"/>
<path d="M327.161 202.957C225.267 194.984 69.9659 199.635 5.05223 202.957C0.552903 302.646 0.552903 358.538 5.05223 458.227C5.05223 458.227 103.079 460.096 165.421 460.155C229.014 460.216 327.161 458.227 327.161 458.227C330.932 347.032 333.181 325.178 327.161 202.957Z" stroke="black" stroke-width="3.2138"/>
<path d="M8.21809 240.047C6.23725 239.81 14.1206 238.442 15.2771 238.393C20.6067 238.171 25.9366 237.958 31.2666 237.749C47.1471 237.124 63.0302 236.559 78.9154 236.067C132.946 234.392 186.918 233.984 240.946 235.483C243.931 235.566 246.916 235.655 249.901 235.749C257.844 236.001 265.786 236.28 273.726 236.582C283.297 236.947 292.866 237.347 302.434 237.777C309.323 238.086 317.514 237.285 324.279 238.833C325.623 239.141 318.079 239.711 316.901 239.676C311.576 239.515 306.251 239.366 300.926 239.236C291.86 239.014 282.793 238.825 273.726 238.667C266.923 238.547 260.119 238.445 253.315 238.358C249.192 238.305 245.069 238.257 240.946 238.214C189.992 237.678 139.023 237.858 88.0731 238.495C69.8771 238.723 51.6817 239.021 33.4886 239.419C25.4668 239.594 16.2708 241.01 8.21809 240.047Z" fill="black"/>
<path d="M28.9355 221.056C28.928 219.879 30.6592 219.692 30.8347 220.875C31.3067 224.055 29.0073 227.351 26.2291 228.573C21.8977 230.479 16.7142 227.912 15.5877 223.243C13.4963 214.576 26.1515 209.703 29.358 218.223C29.441 218.444 25.3333 215.242 23.0608 215.475C19.7507 215.813 17.2008 218.873 17.7647 222.27C18.9121 229.182 28.9792 227.918 28.9355 221.056Z" fill="black"/>
<path d="M51.6569 219.959C51.6364 218.86 52.9782 219.249 52.9778 220.235C52.9766 223.217 51.1727 225.998 48.4428 227.132C44.4152 228.806 39.653 226.458 38.5604 222.156C36.474 213.942 48.3636 209.31 51.7773 217.124C51.8784 217.355 47.5603 213.71 45.1304 213.976C41.5962 214.362 39.0139 217.776 39.6727 221.342C41.0284 228.679 51.7939 227.325 51.6569 219.959Z" fill="black"/>
<path d="M73.7831 218.876C73.7756 217.699 75.5068 217.512 75.6824 218.695C76.1544 221.876 73.8549 225.171 71.0768 226.394C66.7454 228.299 61.5618 225.732 60.4353 221.063C58.344 212.396 70.9992 207.523 74.2057 216.043C74.2886 216.264 70.1809 213.063 67.9085 213.295C64.5984 213.633 62.0484 216.693 62.6123 220.09C63.7597 227.003 73.8268 225.738 73.7831 218.876Z" fill="black"/>
<ellipse opacity="0.5" cx="67.4224" cy="218.993" rx="6.06164" ry="6.01054" transform="rotate(-2.78254 67.4224 218.993)" fill="black"/>
<rect x="174.742" y="152.276" width="5.14208" height="18.6401" fill="white"/>
<path d="M117.06 368.225C116.788 369.437 115.31 369.347 115.177 368.091C114.735 363.922 114.951 359.473 114.83 355.264C114.822 354.987 114.756 354.607 114.877 355.251C114.879 355.259 116.744 353.461 117.043 354.296C117.144 354.579 117.034 355.518 117.084 355.216C117.104 355.092 117.133 354.712 117.133 354.839C117.149 358.852 117.937 364.319 117.06 368.225ZM114.836 355.061C114.721 354.009 115.598 353.118 116.463 353.589C117.681 354.254 118.821 357.121 119.965 358.218C123.3 361.415 132.886 366.281 136.698 364.58C138.438 363.804 139.387 366.713 137.863 367.593C132.25 370.831 115.683 362.835 114.836 355.061ZM135.91 366.557C135.596 364.889 137.382 363.63 138.36 365.06C139.922 367.342 138.94 375.148 138.756 378.078C138.711 378.787 138.143 379.313 137.542 379.136C136.025 378.69 136.246 368.342 135.91 366.557Z" fill="black"/>
<path d="M116.545 334.612C120.107 345.456 120.107 360.736 120.107 360.736" stroke="black" stroke-width="2.57104"/>
<path d="M139.807 302.586C141.017 299.99 138.182 295.994 135.997 297.962C134.672 297.345 133.347 301.199 133.678 303.356C133.887 304.716 135.525 305.213 136.991 305.052C138.491 304.886 139.206 303.875 139.807 302.586Z" fill="black"/>
<path d="M163.36 302.394C164.46 299.599 161.883 295.295 159.897 297.415C158.693 296.751 157.488 300.9 157.789 303.224C157.979 304.689 159.468 305.224 160.8 305.05C162.164 304.872 162.814 303.782 163.36 302.394Z" fill="black"/>
<path d="M169.503 329.195C168.327 330.372 165.504 330.372 165.974 326.843C166.217 325.02 168.979 321.326 170.679 317.432C172.142 314.083 171.856 309.787 173.914 308.316C175.973 306.846 175.385 309.198 175.385 309.198L173.326 320.961L169.503 329.195Z" fill="black"/>
<path d="M123.224 293.895C122.544 294.929 120.88 294.143 121.365 292.966C122.47 290.282 125.606 288.18 128.136 287.075C132.053 285.365 136.748 285.309 140.842 286.42C141.816 286.684 141.866 288.118 140.841 288.354C134.69 289.773 128.642 287.161 123.818 293.057C123.6 293.324 123.414 293.607 123.224 293.895Z" fill="black"/>
<path d="M169.491 293.272C170.154 294.439 170.461 292.689 170.056 291.942C168.744 289.525 166.65 287.707 164.425 286.64C161.28 285.132 157.57 285.12 154.309 286.116C153.64 286.321 153.564 287.473 154.25 287.729C157.808 289.053 161.665 287.028 165.493 289.279C167.081 290.212 168.497 291.52 169.491 293.272Z" fill="black"/>
<path d="M136.224 331.885C136.609 331.13 145.006 334.212 146.886 334.061C149.144 333.88 156.651 329.453 157.599 329.812C160.228 330.805 155.798 334.517 154.733 335.249C149.44 338.888 133.876 336.49 136.224 331.885Z" fill="black"/>
<path d="M146.664 293.849C147.144 289.961 158.97 314.986 159.014 315.839C159.104 317.556 156.978 318.61 155.784 317.234C153.649 314.773 146.627 294.15 146.664 293.849ZM156.829 314.212C158.852 313.984 159.948 316.745 157.975 317.689C156.957 318.176 145.815 318.415 144.642 316.858C143.207 314.952 156.146 314.29 156.829 314.212Z" fill="black"/>
<path d="M147.585 326.277C144.686 328.626 133.043 328.577 130.189 331.294C127.268 334.075 125.393 326.277 125.393 326.277C125.393 326.277 129.479 324.974 133.039 323.902C137.783 322.472 142.506 319.649 144.214 319.37C147.203 318.88 149.665 319.37 149.665 319.37C149.665 319.37 161.484 322.071 165.387 322.431C170.48 322.901 166.269 327.725 166.269 327.725C166.269 327.725 154.796 328.532 152.038 326.521C150.828 325.638 149.479 325.464 148.346 325.547C148.248 325.697 148.011 325.931 147.585 326.277Z" fill="black"/>
<path d="M138.332 263.911C132.157 264.24 122.334 271.263 115.689 267.146C115.689 267.146 114.348 283.908 110.974 283.908C107.624 296.403 113.042 312.433 113.042 312.433C113.042 312.433 114.739 316.953 116.277 318.903C118.13 321.251 118.705 322.88 121.57 325.372C124.435 327.864 125.687 326.338 127.452 326.548C129.216 326.759 131.503 330.959 131.503 330.959C132.418 337.802 132.407 349.871 143.923 349.871L145.505 347.577C146.26 345.57 147.099 343.014 148.507 343.225C151.779 343.715 153.417 349.329 155.41 348.161C164.551 347.656 162.152 327.165 162.152 327.165L172.445 324.49L167.13 347.656C167.13 347.656 161.352 358.602 145.128 358.602C131.372 358.602 121.575 354.024 114.413 343.225C106.902 335.472 107.706 334.194 105.244 327.165C102.783 320.136 96.9356 315.374 96.9356 315.374C96.9356 315.374 89.5439 307.137 90.3988 304.493C92.4939 304.088 97.1625 298.368 96.9356 301.967C96.7087 305.567 100.437 309.611 102.037 314.705C105.238 317.087 107.715 316.915 107.706 316.723L107.726 316.635C108.876 311.636 110.88 302.922 105.244 298.368C99.5753 293.786 98.6546 298.645 98.6546 298.645C98.6546 298.645 93.5504 301.361 90.3988 303.023C90.0291 302.714 91.9852 295.791 91.7785 294.591C91.0143 290.153 87.1641 293.678 87.1641 282.144C87.164 270.237 89.5166 272.439 89.5166 272.439C89.5166 272.439 88.7913 267.91 90.3988 260.781C91.5853 255.519 98.6546 253.913 98.6546 253.913C98.6546 253.913 100.386 248.19 103.926 245.679C110.974 240.68 112.897 244.515 115.689 242.738C115.689 242.738 114.384 238.913 125.099 233.916C134.803 230.681 140.685 236.563 140.685 236.563C140.685 236.563 167.182 224.827 178.032 241.856C181.561 250.09 178.62 252.149 178.62 252.149C178.62 252.149 188.618 262.839 176.267 269.205C165.333 269.205 164.799 262.735 164.799 262.735C156.514 262.735 144.063 263.607 138.332 263.911Z" fill="black"/>
<path d="M89.5166 272.439C89.5166 272.439 87.164 270.237 87.1641 282.144C87.1641 293.678 91.0143 290.153 91.7785 294.591C91.9852 295.791 90.0291 302.714 90.3988 303.023C93.5504 301.361 98.6546 298.645 98.6546 298.645C98.6546 298.645 99.5753 293.786 105.244 298.368C110.913 302.949 108.852 311.739 107.706 316.723C107.715 316.915 105.238 317.087 102.037 314.705M89.5166 272.439C89.5166 272.439 88.7913 267.91 90.3988 260.781M89.5166 272.439L90.3988 260.781M148.507 343.225C146.139 342.871 145.38 350.341 143.923 349.871M148.507 343.225L143.923 349.871M148.507 343.225C151.779 343.715 153.417 349.329 155.41 348.161C164.551 347.656 162.152 327.165 162.152 327.165L172.445 324.49L167.13 347.656C167.13 347.656 161.352 358.602 145.128 358.602C131.372 358.602 121.575 354.024 114.413 343.225C106.902 335.472 107.706 334.194 105.244 327.165C102.783 320.136 96.9356 315.374 96.9356 315.374C96.9356 315.374 89.5439 307.137 90.3988 304.493M90.3988 304.493L102.037 314.705M90.3988 304.493C92.4939 304.088 97.1625 298.368 96.9356 301.967C96.7087 305.567 100.437 309.611 102.037 314.705M143.923 349.871C132.407 349.871 132.418 337.802 131.503 330.959C131.503 330.959 129.216 326.759 127.452 326.548C125.687 326.338 124.435 327.864 121.57 325.372C118.705 322.88 118.13 321.251 116.277 318.903C114.739 316.953 113.042 312.433 113.042 312.433C113.042 312.433 107.624 296.403 110.974 283.908C114.348 283.908 115.689 267.146 115.689 267.146C122.334 271.263 132.157 264.24 138.332 263.911C144.063 263.607 156.514 262.735 164.799 262.735C164.799 262.735 165.333 269.205 176.267 269.205C188.618 262.839 178.62 252.149 178.62 252.149C178.62 252.149 181.561 250.09 178.032 241.856C167.182 224.827 140.685 236.563 140.685 236.563C140.685 236.563 134.803 230.681 125.099 233.916C114.384 238.913 115.689 242.738 115.689 242.738C112.897 244.515 110.974 240.68 103.926 245.679C100.386 248.19 98.6546 253.913 98.6546 253.913C98.6546 253.913 91.5853 255.519 90.3988 260.781" stroke="black" stroke-width="1.44873"/>
<path d="M108.713 303.023C108.77 300.107 106.702 294.823 102.061 292.988C97.4201 291.152 98.0798 299.584 98.9898 304.029C100.127 310.148 104.693 320.859 108.924 314.09" stroke="black" stroke-width="2.35256"/>
<path d="M167.445 331.547C175.027 324.49 176.62 302.207 175.027 257.875" stroke="black" stroke-width="2.35256"/>
<path d="M174.797 296.847C178.192 295.963 178.517 272.8 178.255 261.329C178.255 261.329 176.212 256.909 174.797 267.17C175.373 271.59 174.797 289.112 174.797 296.847Z" fill="black" stroke="black" stroke-width="1.44873"/>
<path d="M151.251 376.77C149.625 379.421 148.805 366.337 148.765 365.168C148.751 364.746 148.839 364.354 149.113 364.02C152.821 359.496 152.085 375.411 151.251 376.77ZM150.411 366.578C149.004 366.595 148.173 364.871 149.259 363.864C152.492 360.867 158.744 362.624 159.521 356.259C159.675 354.998 163.33 357.114 159.839 361.534C157.725 364.211 153.909 366.533 150.411 366.578Z" fill="black"/>
<path d="M149.812 372.198C147.323 373.734 140.708 372.838 137.712 372.198C137.712 372.198 134.255 375.077 137.712 380.514C141.169 385.952 142.206 387.871 146.7 392.668C150.503 387.551 152.301 370.663 149.812 372.198Z" fill="black"/>
<path d="M253.82 0.584473H330.772L344.591 314.252L253.82 309.109L247.213 193.734L181.973 166.417L253.82 0.584473Z" fill="white"/>
<path d="M585.659 39.0533C483.765 31.0801 328.464 35.7311 263.55 39.0533C259.051 138.742 259.051 194.634 263.55 294.323C263.55 294.323 361.577 296.192 423.919 296.252C487.512 296.312 585.659 294.323 585.659 294.323C589.43 183.129 591.68 161.275 585.659 39.0533Z" stroke="black" stroke-width="3.2138"/>
<path d="M266.714 76.1429C264.733 75.9059 272.617 74.5377 273.773 74.4894C279.103 74.267 284.433 74.0543 289.763 73.8447C305.643 73.2202 321.526 72.6554 337.411 72.163C391.442 70.4881 445.414 70.0806 499.442 71.5794C502.427 71.6622 505.412 71.7509 508.397 71.8454C516.34 72.097 524.282 72.3757 532.222 72.6785C541.793 73.0434 551.362 73.4433 560.93 73.8727C567.819 74.1819 576.01 73.3809 582.775 74.9294C584.119 75.2371 576.575 75.8075 575.397 75.772C570.073 75.6113 564.747 75.4626 559.422 75.3321C550.356 75.11 541.289 74.9215 532.222 74.7628C525.419 74.6437 518.615 74.5413 511.811 74.4541C507.688 74.4013 503.565 74.3532 499.442 74.3099C448.488 73.7744 397.519 73.9546 346.569 74.5916C328.373 74.819 310.178 75.1173 291.985 75.5147C283.963 75.69 274.767 77.1065 266.714 76.1429Z" fill="black"/>
<path d="M287.434 57.152C287.426 55.9755 289.157 55.7881 289.333 56.9712C289.805 60.1519 287.505 63.4475 284.727 64.6697C280.396 66.5753 275.212 64.0079 274.086 59.3393C271.994 50.6724 284.65 45.7994 287.856 54.3195C287.939 54.54 283.831 51.3389 281.559 51.5711C278.249 51.9093 275.699 54.969 276.263 58.3662C277.41 65.2789 287.477 64.0141 287.434 57.152Z" fill="black"/>
<path d="M310.153 56.0555C310.132 54.9566 311.474 55.3454 311.474 56.3309C311.473 59.3131 309.669 62.0939 306.939 63.2285C302.911 64.9025 298.149 62.5543 297.056 58.2526C294.97 50.0385 306.86 45.4062 310.273 53.2201C310.374 53.4516 306.056 49.8065 303.627 50.0718C300.092 50.4578 297.51 53.8726 298.169 57.4381C299.525 64.7749 310.29 63.4212 310.153 56.0555Z" fill="black"/>
<path d="M332.277 54.9721C332.27 53.7955 334.001 53.6082 334.177 54.7913C334.649 57.972 332.349 61.2675 329.571 62.4898C325.24 64.3954 320.056 61.828 318.929 57.1594C316.838 48.4925 329.493 43.6195 332.7 52.1396C332.783 52.3601 328.675 49.159 326.403 49.3912C323.092 49.7294 320.543 52.7891 321.106 56.1862C322.254 63.0989 332.321 61.8341 332.277 54.9721Z" fill="black"/>
<ellipse opacity="0.5" cx="325.374" cy="55.5585" rx="5.49299" ry="5.56831" transform="rotate(-2.78254 325.374 55.5585)" fill="black"/>
<g filter="url(#filter0_d)">
<path d="M417.925 87.222C372.401 83.6598 303.016 85.7378 274.014 87.222C272.003 131.761 272.003 156.733 274.014 201.272C274.014 201.272 317.81 202.107 345.663 202.133C374.076 202.16 417.925 201.272 417.925 201.272C419.61 151.592 420.615 141.828 417.925 87.222Z" fill="white"/>
<path d="M417.925 87.222C372.401 83.6598 303.016 85.7378 274.014 87.222C272.003 131.761 272.003 156.733 274.014 201.272C274.014 201.272 317.81 202.107 345.663 202.133C374.076 202.16 417.925 201.272 417.925 201.272C419.61 151.592 420.615 141.828 417.925 87.222Z" stroke="black" stroke-width="2.92104"/>
</g>
<path d="M349.911 95.3915C328.425 93.6872 295.677 95.9439 281.989 96.654C281.04 117.964 281.04 129.911 281.989 151.221C281.989 151.221 302.66 151.62 315.806 151.633C329.215 151.646 349.911 151.221 349.911 151.221V95.3915Z" fill="white" stroke="black" stroke-width="1.92828"/>
<path opacity="0.45" d="M348.627 158.175C324.665 159.025 280.705 158.175 280.705 158.175C280.705 158.175 279.756 184.934 280.705 202.08C280.705 202.08 301.376 202.401 314.521 202.411C327.931 202.422 348.627 202.08 348.627 202.08C349.422 182.955 349.897 179.196 348.627 158.175Z" fill="white" stroke="black" stroke-width="1.92828"/>
<path opacity="0.45" d="M408.586 97.5087C390.228 95.7131 371.909 94.8816 356.387 95.7131C355.658 136.373 355.658 160.965 356.387 201.624C356.387 201.624 372.273 202.387 382.375 202.411C392.681 202.435 408.586 201.624 408.586 201.624C409.197 156.272 409.562 147.358 408.586 97.5087Z" fill="white" stroke="black" stroke-width="1.92828"/>
<path d="M309.902 102.328C309.536 101.541 310.306 104.739 310.7 105.564C312.755 109.877 314.35 111.464 316.939 113.473C317.217 113.688 317.598 113.758 317.887 113.96C320.866 116.038 310.598 103.826 309.902 102.328Z" fill="black"/>
<path d="M315.793 117.65C316.425 117.928 309.982 120.121 305.112 116.962C304.443 116.529 313.017 116.431 315.793 117.65Z" fill="black"/>
<path d="M319.233 116.193C319.269 115.908 319.474 115.674 319.77 115.644C320.832 115.539 321.333 119.969 321.492 120.634C322.822 126.182 324.245 131.845 325.168 137.447C325.354 138.576 323.799 139.203 323.244 138.142C321.279 134.382 320.815 125.849 320.097 121.5C319.841 119.948 319.038 117.773 319.233 116.193ZM324.817 138.459C323.924 139.125 322.666 138.112 323.283 137.123C324.519 135.145 327.749 133.016 329.646 131.661C330.523 131.034 331.739 131.999 331.163 132.974C329.981 134.975 326.691 137.062 324.817 138.459ZM329.553 133.171C328.824 132.345 329.716 131.021 330.75 131.553C332.374 132.387 334.672 135.468 335.827 137.055C336.448 137.91 335.465 139.088 334.53 138.49C332.702 137.32 330.916 134.716 329.553 133.171ZM335.781 138.331C335.072 139.007 333.825 138.398 334.118 137.394C334.377 136.504 336.385 134.918 337.3 134.252C338.756 133.191 338.971 135.273 338.118 136.092C337.862 136.337 337.607 136.582 337.352 136.827C336.871 137.288 336.123 138.005 335.781 138.331ZM338.516 134.268C339.239 134.968 338.565 136.254 337.56 135.873C336.167 135.345 333.647 132.349 332.586 130.94C331.998 130.159 332.918 129.07 333.766 129.641C335.486 130.8 337.185 132.981 338.516 134.268ZM333.933 130.962C333.249 131.636 332.04 130.942 332.459 130.012C333.043 128.715 335.977 126.386 337.401 125.409C338.103 124.928 339.056 125.691 338.608 126.466C337.649 128.127 335.114 129.797 333.933 130.962ZM338.254 125.323C339.039 125.755 338.703 127.012 337.77 126.865C334.228 126.309 327.216 121.029 323.817 119.135C322.4 118.346 320.88 117.64 319.524 116.749C318.97 116.385 319.318 115.482 319.985 115.662C321.228 115.998 322.52 116.993 323.644 117.59C328.495 120.164 333.5 122.708 338.254 125.323Z" fill="black"/>
<path d="M312.132 271.829C305.062 275.302 301.312 284.625 301.205 287.105C301.205 287.105 304.098 290.974 330.129 289.486C346.489 288.551 359.696 287.105 359.696 287.105C359.054 279.368 356.482 272.82 346.52 268.356C336.731 263.97 319.202 268.357 312.132 271.829Z" stroke="black" stroke-width="2.57104"/>
<line x1="308.275" y1="274.401" x2="263.282" y2="274.401" stroke="black" stroke-width="2.57104"/>
<path d="M541.277 150.348C540.529 150.351 503.731 142.818 499.379 143.784C497.765 150.609 494.324 168.632 507.203 170.48C520.082 172.329 524.443 160.91 525.743 151.385" stroke="black" stroke-width="3.85656"/>
<path d="M468.699 139.855C465.112 142.112 465.5 147.041 464.841 153.025C464.074 159.995 468.585 166.746 476.278 166.804C486.283 166.499 492.369 152.771 492.44 143.263C489.736 142.622 476.037 140.504 470.503 139.854" stroke="black" stroke-width="3.85656" stroke-linecap="round"/>
<path d="M536.25 153.701C535.49 171.58 525.71 206.443 492.665 202.863C473.233 200.21 468.072 186.309 468.37 164.227" stroke="black" stroke-width="3.07642"/>
<path d="M496.189 145.163C495.016 144.038 494.503 147.662 494.367 148.209C493.358 152.264 486.859 176.576 488.158 177.482C491.298 179.673 494.154 157.548 495.448 150.597C495.604 149.761 496.942 145.885 496.189 145.163ZM489.266 175.179C489.351 175.188 488.467 177.918 489.287 177.713C490.653 177.371 493.654 177.077 494.692 176.155C497.962 173.249 487.458 174.98 489.266 175.179Z" fill="black"/>
<path d="M499.426 187.892C501.298 185.435 492.404 189.228 491.464 188.989C488.98 188.355 488.096 185.832 486.218 184.684C485.155 184.034 487.058 190.12 490.955 191.153C493.482 191.823 497.835 189.981 499.426 187.892Z" fill="black"/>
<path d="M486.639 183.45C486.639 183.45 489.661 183.155 491.396 183.434C494.811 183.981 497.566 186.021 497.566 186.021" stroke="black" stroke-width="1.92828" stroke-linecap="round" stroke-linejoin="round"/>
<circle r="2.69187" transform="matrix(-0.990806 -0.135288 -0.135288 0.990806 477.037 153.775)" fill="black"/>
<circle r="2.69187" transform="matrix(-0.990806 -0.135288 -0.135288 0.990806 507.519 157.937)" fill="black"/>
<path d="M502.326 121.928C487.762 119.442 477.358 109.601 473.977 104.992L487.968 96.326C501.849 102.68 530.755 116.104 535.332 118.969C539.909 121.834 538.036 130.433 536.343 137.15C529.484 136.213 509.672 133.508 502.326 121.928Z" fill="black" stroke="black" stroke-width="3.07642"/>
<path d="M475.477 126.385C475.984 129.3 475.132 131.234 472.499 134.6C469.208 138.808 471.768 137.745 465.429 142.313C455.678 139.818 455.765 139.994 456.961 131.231C458.003 123.602 463.743 122.497 466.182 122.728C461.614 121.605 454.246 117.01 455.771 105.841C457.394 93.9528 472.428 93.7545 479.743 95.1414C483.611 93.3409 497.265 80.5142 529.016 95.2714C558.578 109.011 542.94 136.373 551.971 157.4C564.919 161.109 588.405 174.251 578.757 197.153C569.11 220.054 563.758 224.982 557.13 223.301C551.704 219.455 529.016 209.803 501.856 214.597C491.441 213.175 465.803 205.256 488.416 203.376C511.028 201.495 531.882 180.402 533.558 170.023C536.595 168.626 543.009 164.482 544.367 159.079C545.726 153.675 539.739 149.391 536.576 147.924L488.416 116.896L475.477 126.385Z" fill="black" stroke="black" stroke-width="3.07642"/>
<path d="M437.901 189.235C437.901 179.593 452.737 160.151 462.2 157.174C463.769 161.787 472.502 184.735 472.502 184.735C472.502 184.735 486.022 202.029 491.142 203.375C505.389 208.943 499.167 209.484 495.641 213.66C492.115 217.836 478.608 205.947 449.684 228.122C442.652 228.455 437.901 198.876 437.901 189.235Z" fill="black" stroke="black" stroke-width="3.07642"/>
<path d="M511.729 213.012C510.166 216.415 505.087 223.178 497.274 223.008C489.461 222.838 487.247 216.273 487.117 213.012" stroke="black" stroke-width="3.07642"/>
<path d="M499.301 225.621C499.877 225.615 498.249 225.752 497.798 225.531C496.7 224.993 496.367 223.533 497.124 222.573C498.303 221.076 500.788 222.079 500.597 223.975C500.541 224.533 499.378 225.854 499.724 225.412C500.3 224.676 500.881 223.95 500.436 222.983C500.407 222.92 500.494 223.11 500.523 223.173C501.282 224.841 502.034 226.513 502.786 228.185C504.434 231.854 508.777 238.13 508.957 242.126C509.176 246.976 501.196 232.641 500.124 230.649C499.431 229.361 498.739 228.073 498.05 226.783C497.68 226.091 496.574 224.012 496.94 224.706C497.436 225.648 498.366 225.629 499.301 225.621ZM507.754 241.03C508.421 241.03 508.963 241.571 508.963 242.238C508.963 242.906 508.421 243.447 507.754 243.447C507.086 243.447 506.545 242.906 506.545 242.238C506.545 241.571 507.086 241.03 507.754 241.03ZM508.952 242.083C508.955 241.966 506.541 243.036 506.545 242.232C506.562 238.97 516.587 218.947 520.152 213.323C521.003 211.981 522.109 213.504 521.629 214.551C518.447 221.497 515.195 228.41 512.065 235.378C511.401 236.857 508.944 242.565 508.952 242.083Z" fill="black"/>
<path d="M498.029 225.068C497.453 225.062 499.081 225.199 499.532 224.978C500.63 224.44 500.963 222.98 500.206 222.02C499.027 220.523 496.542 221.526 496.733 223.422C496.789 223.98 497.952 225.301 497.606 224.859C497.03 224.123 496.449 223.397 496.894 222.43C496.923 222.367 496.836 222.557 496.807 222.62C496.048 224.288 495.296 225.96 494.544 227.632C492.896 231.301 488.553 237.577 488.373 241.573C488.154 246.423 496.134 232.088 497.206 230.096C497.899 228.808 498.591 227.52 499.28 226.23C499.65 225.538 500.756 223.459 500.39 224.153C499.894 225.095 498.964 225.076 498.029 225.068ZM489.576 240.477C488.909 240.477 488.368 241.018 488.368 241.685C488.368 242.353 488.909 242.894 489.576 242.894C490.244 242.894 490.785 242.353 490.785 241.685C490.785 241.018 490.244 240.477 489.576 240.477ZM488.378 241.53C488.376 241.413 490.789 242.483 490.785 241.679C490.768 238.417 480.743 218.394 477.178 212.77C476.327 211.428 475.221 212.951 475.701 213.998C478.883 220.944 482.135 227.857 485.265 234.825C485.929 236.304 488.386 242.012 488.378 241.53Z" fill="black"/>
<path d="M521.086 214.55C576.305 217.195 563.45 260.26 567.949 293.683" stroke="black" stroke-width="3.07642"/>
<path d="M365.801 280.828C365.544 289.055 366.98 295.505 368.694 296.254C374.157 294.326 375.443 289.184 377.371 280.828H365.801Z" fill="black"/>
<path d="M491.965 214.356C442.493 208.746 444.218 264.759 396.975 264.759L374.157 264.759C375.256 268.057 378.526 273.865 377.371 280.828M377.371 280.828C375.443 289.184 374.157 294.326 368.694 296.254C366.98 295.505 365.544 289.055 365.801 280.828H377.371Z" stroke="black" stroke-width="3.07642"/>
<path opacity="0.5" d="M555.003 332.996C553.93 332.514 553.06 334.023 554.071 334.661C556.791 336.376 560.735 335.601 562.974 333.552C566.465 330.358 566.207 324.579 562.389 321.665C555.303 316.255 545.738 325.869 552.241 332.24C552.409 332.405 551.137 327.355 552.266 325.369C553.911 322.476 557.74 321.378 560.621 323.264C566.483 327.103 561.264 335.804 555.003 332.996Z" fill="black"/>
<path d="M520.211 144.779C520.935 146.054 521.271 144.142 520.828 143.326C519.394 140.684 517.105 138.697 514.675 137.532C511.237 135.884 507.182 135.87 503.619 136.959C502.888 137.183 502.805 138.442 503.555 138.721C507.443 140.169 511.658 137.955 515.842 140.415C517.577 141.436 519.124 142.864 520.211 144.779Z" fill="black"/>
<path d="M470.957 139.414C469.94 140.47 470.087 138.534 470.718 137.853C472.761 135.649 475.471 134.29 478.114 133.762C481.853 133.016 485.785 134.006 488.968 135.943C489.621 136.341 489.39 137.581 488.594 137.666C484.468 138.107 480.933 134.919 476.27 136.267C474.336 136.826 472.484 137.828 470.957 139.414Z" fill="black"/>
<path d="M362.91 296.115C382.261 296.666 434.257 296.115 450.004 294.969C453.861 292.529 452.575 289.184 454.182 281.551L451.279 296.115" stroke="black" stroke-width="2.57104"/>
<path d="M324.664 104.069C325.03 103.483 326.271 110.175 322.443 114.539C321.918 115.138 323.057 106.64 324.664 104.069Z" fill="black"/>
<path opacity="0.5" d="M408.237 361.174C409.535 365.797 403.025 354.636 402.702 353.904C398.063 343.384 391.024 334.107 383.367 325.478C382.739 324.771 383.525 323.623 384.351 324.135C387.317 325.976 390.349 329.515 392.438 332.249C399.101 340.965 405.275 350.626 408.237 361.174Z" fill="black"/>
<path opacity="0.5" d="M369.435 369.314C368.167 373.267 368.333 362.27 368.434 361.593C369.875 351.872 368.618 342.03 366.497 332.398C366.324 331.609 367.588 331.104 368.032 331.836C369.627 334.465 370.403 338.369 370.786 341.276C372.009 350.544 372.327 360.295 369.435 369.314Z" fill="black"/>
<path opacity="0.5" d="M429.551 326.525C432.477 329.534 422.746 324.123 422.19 323.711C414.201 317.789 404.827 314.185 395.231 311.442C394.445 311.217 394.593 309.862 395.456 309.821C398.557 309.675 402.406 310.86 405.181 311.914C414.027 315.273 422.876 319.661 429.551 326.525Z" fill="black"/>
<path opacity="0.5" d="M157.134 106.744C156.06 106.263 155.191 107.771 156.202 108.409C158.922 110.124 162.865 109.349 165.105 107.3C168.596 104.106 168.338 98.3271 164.52 95.4129C157.434 90.003 147.869 99.6168 154.372 105.988C154.54 106.153 153.268 101.103 154.397 99.1171C156.042 96.2248 159.87 95.1259 162.751 97.0123C168.614 100.851 163.395 109.552 157.134 106.744Z" fill="black"/>
<path opacity="0.5" d="M460.438 426.8C458.923 426.12 457.695 428.249 459.123 429.15C462.962 431.57 468.527 430.477 471.687 427.585C476.614 423.076 476.25 414.921 470.862 410.808C460.861 403.172 447.362 416.741 456.539 425.733C456.777 425.965 454.982 418.838 456.575 416.036C458.897 411.953 464.3 410.402 468.366 413.065C476.64 418.483 469.275 430.763 460.438 426.8Z" fill="black"/>
<path d="M177.793 420.307C169.46 433.039 162.587 434.916 150.476 450.838C141.049 448.876 137.204 435.953 140.689 432.331C144.173 428.709 143.978 430.651 147.791 426.57C148.936 421.986 149.806 415.21 152.404 411.232C154.011 407.537 164.938 397.81 165.902 396.203C167.83 394.596 170.08 393.954 171.687 394.918C174.158 396.608 187.204 402.763 182.292 407.292L177.793 420.307Z" stroke="black" stroke-width="2.21705"/>
<path d="M128.958 394.271C128.811 391.939 128.653 392.534 130.801 391.931L160.118 401.988L156.583 405.202C149.48 402.098 129.105 396.604 128.958 394.271Z" fill="black" stroke="black" stroke-width="2.95606"/>
<path d="M184.865 392.026C186.15 393.311 211.754 394.918 224.395 395.561L219.252 390.99L180.365 387.205C181.33 388.276 183.579 390.74 184.865 392.026Z" fill="black"/>
<path d="M180.686 388.49L184.543 392.026L161.427 460.158H160.439H155.94L180.686 388.49Z" fill="white" stroke="black" stroke-width="2.57104"/>
<path d="M223.43 396.525L211.86 431.877M202.861 459.194L207.361 445.536" stroke="black" stroke-width="2.57104" stroke-linecap="round"/>
<path d="M222.788 395.561L185.83 392.668L167.189 447.624L204.47 448.91L222.788 395.561Z" fill="white"/>
<path d="M217.965 432.198H199.325C196.54 432.519 193.797 432.134 193.54 434.448C193.283 436.762 196.111 437.019 199.325 437.661H216.358L199.325 441.197C196.433 441.732 192.576 442.868 192.576 444.41C192.576 445.953 196.433 445.696 199.325 445.696L216.358 444.089L212.18 445.696C210.038 446.553 206.982 447.105 207.681 449.553C208.324 451.802 212.395 450.731 213.787 450.195L217.965 448.91L211.859 451.481C209.931 452.552 208.967 453.088 209.931 454.695C211.17 455.659 213.145 456.409 214.43 455.337L221.822 452.766" stroke="black" stroke-width="2.57104"/>
<path d="M214.432 424.164C218.395 426.092 229.215 428.663 229.215 438.626C229.215 448.588 225.359 450.838 220.538 453.409" stroke="black" stroke-width="2.57104"/>
<path d="M347.976 272.939C345.559 275.54 345.865 277.49 340.136 276.19C335.838 275.215 331.632 275.15 331.391 277.49C331.089 280.416 332.031 280.759 335.009 282.367C338.021 283.993 343.704 283.993 347.373 283.993C349.785 283.993 350.825 284.308 357.328 283.342C369.688 275.54 367.543 280.802 377.679 280.431C377.679 280.431 377.709 275.571 377.679 272.954C377.623 268.077 371.908 264.759 371.908 264.759C365.48 264.438 359.939 263.836 358.233 263.836C352.805 263.836 336.219 260.26 332.902 260.26C329.585 260.26 318.963 262.483 315.345 264.759C312.45 266.58 308.495 269.58 308.596 271.313C309.299 272.289 313.735 274.174 316.63 271.313C319.525 268.452 327.37 268.081 331.391 267.973C337.824 268.298 343.453 270.338 347.976 272.939Z" fill="white" stroke="black" stroke-width="2.57104"/>
<path d="M351.66 297.219L428.791 297.861L423.328 305.896L357.766 312.002L351.66 297.219Z" fill="white"/>
<path d="M61.4531 460.801L180.042 461.765L171.344 469.478L70.816 475.584L61.4531 460.801Z" fill="white"/>
<defs>
<filter id="filter0_d" x="271.045" y="83.7947" width="151.346" height="122.487" filterUnits="userSpaceOnUse" color-interpolation-filters="sRGB">
<feFlood flood-opacity="0" result="BackgroundImageFix"/>
<feColorMatrix in="SourceAlpha" type="matrix" values="0 0 0 0 0 0 0 0 0 0 0 0 0 0 0 0 0 0 127 0"/>
<feOffset dx="1.34345" dy="2.68691"/>
<feColorMatrix type="matrix" values="0 0 0 0 0 0 0 0 0 0 0 0 0 0 0 0 0 0 1 0"/>
<feBlend mode="normal" in2="BackgroundImageFix" result="effect1_dropShadow"/>
<feBlend mode="normal" in="SourceGraphic" in2="effect1_dropShadow" result="shape"/>
</filter>
</defs>
</svg>
