<?xml version="1.0" encoding="UTF-8" standalone="no"?>
<svg width="553px" height="122px" viewBox="0 0 553 122" version="1.1" xmlns="http://www.w3.org/2000/svg" xmlns:xlink="http://www.w3.org/1999/xlink">
    <!-- Generator: Sketch Beta 40 (33734) - http://www.bohemiancoding.com/sketch -->
    <title>process-desktop</title>
    <desc>Created with Sketch Beta.</desc>
    <defs>
        <rect id="path-1" x="0" y="16.4375" width="137.554004" height="58.66875"></rect>
        <mask id="mask-2" maskContentUnits="userSpaceOnUse" maskUnits="objectBoundingBox" x="0" y="0" width="137.554004" height="58.66875" fill="white">
            <use xlink:href="#path-1"></use>
        </mask>
        <path d="M16.0592858,31.9701493 C24.9285844,31.9701493 32.1185716,24.8835519 32.1185716,16.141791 C32.1185716,7.40003019 24.9285844,0.313432836 16.0592858,0.313432836 C7.18998715,0.313432836 5.93523433e-14,7.40003019 5.93523433e-14,16.141791 C5.93523433e-14,24.8835519 7.18998715,31.9701493 16.0592858,31.9701493 Z M16.0592858,27.5820896 C22.4697689,27.5820896 27.6664923,22.4600934 27.6664923,16.141791 C27.6664923,9.82348865 22.4697689,4.70149254 16.0592858,4.70149254 C9.64880261,4.70149254 4.45207923,9.82348865 4.45207923,16.141791 C4.45207923,22.4600934 9.64880261,27.5820896 16.0592858,27.5820896 Z" id="path-3"></path>
        <filter x="-50%" y="-50%" width="200%" height="200%" filterUnits="objectBoundingBox" id="filter-4">
            <feOffset dx="2" dy="-1" in="SourceAlpha" result="shadowOffsetInner1"></feOffset>
            <feComposite in="shadowOffsetInner1" in2="SourceAlpha" operator="arithmetic" k2="-1" k3="1" result="shadowInnerInner1"></feComposite>
            <feColorMatrix values="0 0 0 0 0   0 0 0 0 0   0 0 0 0 0  0 0 0 0.163411458 0" type="matrix" in="shadowInnerInner1"></feColorMatrix>
        </filter>
        <rect id="path-5" x="14.6282603" y="32.5970149" width="2.86205093" height="3.44776119"></rect>
        <mask id="mask-6" maskContentUnits="userSpaceOnUse" maskUnits="objectBoundingBox" x="-1.9008" y="-1.9008" width="6.66365093" height="7.24936119">
            <rect x="12.7274603" y="30.6962149" width="6.66365093" height="7.24936119" fill="white"></rect>
            <use xlink:href="#path-5" fill="black"></use>
        </mask>
        <rect id="path-7" x="13.3562377" y="37.6119403" width="5.08809054" height="19.119403"></rect>
        <mask id="mask-8" maskContentUnits="userSpaceOnUse" maskUnits="objectBoundingBox" x="-1.9008" y="-1.9008" width="8.88969054" height="22.921003">
            <rect x="11.4554377" y="35.7111403" width="8.88969054" height="22.921003" fill="white"></rect>
            <use xlink:href="#path-7" fill="black"></use>
        </mask>
        <rect id="path-9" x="75" y="53.3" width="122.820659" height="83.4961165" rx="0.945"></rect>
        <mask id="mask-10" maskContentUnits="userSpaceOnUse" maskUnits="objectBoundingBox" x="0" y="0" width="122.820659" height="83.4961165" fill="white">
            <use xlink:href="#path-9"></use>
        </mask>
        <rect id="path-11" x="6.39679983e-15" y="1.91846539e-14" width="24.3115443" height="45.0815534" rx="2.52"></rect>
        <mask id="mask-12" maskContentUnits="userSpaceOnUse" maskUnits="objectBoundingBox" x="0" y="0" width="24.3115443" height="45.0815534" fill="white">
            <use xlink:href="#path-11"></use>
        </mask>
        <rect id="path-13" x="0" y="0" width="17.0496544" height="10.476699" rx="1.575"></rect>
        <mask id="mask-14" maskContentUnits="userSpaceOnUse" maskUnits="objectBoundingBox" x="0" y="0" width="17.0496544" height="10.476699" fill="white">
            <use xlink:href="#path-13"></use>
        </mask>
        <rect id="path-15" x="0" y="0" width="17.0496544" height="10.476699" rx="1.575"></rect>
        <mask id="mask-16" maskContentUnits="userSpaceOnUse" maskUnits="objectBoundingBox" x="0" y="0" width="17.0496544" height="10.476699" fill="white">
            <use xlink:href="#path-15"></use>
        </mask>
        <rect id="path-17" x="0" y="0" width="85.5256065" height="99.9"></rect>
        <rect id="path-19" x="0" y="0" width="58.5175202" height="95.4" rx="29.2587601"></rect>
        <mask id="mask-20" maskContentUnits="userSpaceOnUse" maskUnits="objectBoundingBox" x="0" y="0" width="58.5175202" height="95.4" fill="white">
            <use xlink:href="#path-19"></use>
        </mask>
        <rect id="path-21" x="3.60107817" y="74.7" width="52.2156334" height="51.3" rx="9.9"></rect>
        <mask id="mask-22" maskContentUnits="userSpaceOnUse" maskUnits="objectBoundingBox" x="0" y="0" width="52.2156334" height="51.3" fill="white">
            <use xlink:href="#path-21"></use>
        </mask>
        <path d="M24.3072776,62.1 L34.2102426,62.1 L34.2102426,74.7 C34.2102426,74.7 32.9653876,76.400015 29.2587601,76.400015 C25.5521327,76.400015 24.3072776,74.7 24.3072776,74.7 L24.3072776,62.1 Z" id="path-23"></path>
        <mask id="mask-24" maskContentUnits="userSpaceOnUse" maskUnits="objectBoundingBox" x="0" y="0" width="9.90296496" height="14.300015" fill="white">
            <use xlink:href="#path-23"></use>
        </mask>
        <path d="M25.4346938,7.5827421 L25.4315367,7.5827421 C15.8560598,7.5827421 8.10242588,15.3394088 8.10242588,24.9077421 C8.10242588,25.7481318 8.16220863,26.5744676 8.27775241,27.3827421 L50.2395523,27.3827421 C50.3552369,26.5743997 50.4150943,25.7480574 50.4150943,24.9077421 C50.4150943,15.3331247 42.6562713,7.5827421 33.0852779,7.5827421 L33.0821207,7.5827421" id="path-25"></path>
        <mask id="mask-26" maskContentUnits="userSpaceOnUse" maskUnits="objectBoundingBox" x="0" y="0" width="42.3126685" height="19.8" fill="white">
            <use xlink:href="#path-25"></use>
        </mask>
        <path d="M45.6348671,37.5144231 L53.6114386,37.5144231 C54.8242187,37.5144231 55.8167116,36.5264754 55.8167116,35.3077801 L55.8167116,2.20664294 C55.8167116,0.984136989 54.8293772,0 53.6114386,0 L2.20527301,0 C0.992492888,0 0,0.987947697 0,2.20664294 L0,35.3077801 C0,36.5302861 0.987334358,37.5144231 2.20527301,37.5144231 L27.4784862,37.5144231 L45.7324934,45.8304996 L45.6348671,37.5144231 Z" id="path-27"></path>
        <mask id="mask-28" maskContentUnits="userSpaceOnUse" maskUnits="objectBoundingBox" x="0" y="0" width="55.8167116" height="45.8091836" fill="white">
            <use xlink:href="#path-27"></use>
        </mask>
    </defs>
    <g id="Page-1" stroke="none" stroke-width="1" fill="none" fill-rule="evenodd">
        <path d="M261.289062,109.132812 C261.289062,111.018239 260.76563,112.45963 259.71875,113.457031 C258.67187,114.454432 257.164072,114.953125 255.195312,114.953125 L252,114.953125 L252,103.53125 L255.53125,103.53125 C257.348967,103.53125 258.763016,104.020828 259.773438,105 C260.783859,105.979172 261.289062,107.356762 261.289062,109.132812 L261.289062,109.132812 Z M259.320312,109.195312 C259.320312,106.460924 258.041679,105.09375 255.484375,105.09375 L253.867188,105.09375 L253.867188,113.382812 L255.195312,113.382812 C257.945326,113.382812 259.320312,111.986993 259.320312,109.195312 L259.320312,109.195312 Z M267.320312,115.109375 C265.976556,115.109375 264.925785,114.717452 264.167969,113.933594 C263.410152,113.149736 263.03125,112.070319 263.03125,110.695312 C263.03125,109.283847 263.382809,108.174483 264.085938,107.367188 C264.789066,106.559892 265.755202,106.15625 266.984375,106.15625 C268.125006,106.15625 269.026038,106.502601 269.6875,107.195312 C270.348962,107.888024 270.679688,108.84114 270.679688,110.054688 L270.679688,111.046875 L264.921875,111.046875 C264.947917,111.885421 265.174477,112.529946 265.601562,112.980469 C266.028648,113.430992 266.630204,113.65625 267.40625,113.65625 C267.916669,113.65625 268.391925,113.608073 268.832031,113.511719 C269.272138,113.415364 269.744789,113.255209 270.25,113.03125 L270.25,114.523438 C269.802081,114.73698 269.348961,114.88802 268.890625,114.976562 C268.432289,115.065105 267.908857,115.109375 267.320312,115.109375 L267.320312,115.109375 Z M266.984375,107.546875 C266.401039,107.546875 265.933596,107.731769 265.582031,108.101562 C265.230467,108.471356 265.020834,109.010413 264.953125,109.71875 L268.875,109.71875 C268.864583,109.005205 268.69271,108.464846 268.359375,108.097656 C268.02604,107.730467 267.567711,107.546875 266.984375,107.546875 L266.984375,107.546875 Z M278.570312,112.492188 C278.570312,113.335942 278.263024,113.983071 277.648438,114.433594 C277.033851,114.884117 276.153652,115.109375 275.007812,115.109375 C273.856765,115.109375 272.932295,114.934898 272.234375,114.585938 L272.234375,113 C273.250005,113.468752 274.195308,113.703125 275.070312,113.703125 C276.200526,113.703125 276.765625,113.361983 276.765625,112.679688 C276.765625,112.460936 276.703126,112.278647 276.578125,112.132812 C276.453124,111.986978 276.247397,111.835938 275.960938,111.679688 C275.674478,111.523437 275.276044,111.346355 274.765625,111.148438 C273.770828,110.763019 273.097658,110.377606 272.746094,109.992188 C272.394529,109.606769 272.21875,109.106774 272.21875,108.492188 C272.21875,107.7526 272.516924,107.178387 273.113281,106.769531 C273.709638,106.360675 274.520828,106.15625 275.546875,106.15625 C276.562505,106.15625 277.523433,106.361977 278.429688,106.773438 L277.835938,108.15625 C276.903641,107.770831 276.119795,107.578125 275.484375,107.578125 C274.51562,107.578125 274.03125,107.854164 274.03125,108.40625 C274.03125,108.677085 274.157551,108.906249 274.410156,109.09375 C274.662762,109.281251 275.213537,109.539061 276.0625,109.867188 C276.776045,110.143231 277.294269,110.395832 277.617188,110.625 C277.940106,110.854168 278.179687,111.118488 278.335938,111.417969 C278.492188,111.717449 278.570312,112.075519 278.570312,112.492188 L278.570312,112.492188 Z M282.390625,114.953125 L280.554688,114.953125 L280.554688,106.3125 L282.390625,106.3125 L282.390625,114.953125 Z M280.445312,104.023438 C280.445312,103.695311 280.535155,103.442709 280.714844,103.265625 C280.894532,103.088541 281.15104,103 281.484375,103 C281.807293,103 282.058593,103.088541 282.238281,103.265625 C282.41797,103.442709 282.507812,103.695311 282.507812,104.023438 C282.507812,104.335939 282.41797,104.58203 282.238281,104.761719 C282.058593,104.941407 281.807293,105.03125 281.484375,105.03125 C281.15104,105.03125 280.894532,104.941407 280.714844,104.761719 C280.535155,104.58203 280.445312,104.335939 280.445312,104.023438 L280.445312,104.023438 Z M292.3125,106.3125 L292.3125,107.320312 L290.835938,107.59375 C290.971355,107.776043 291.083333,107.999999 291.171875,108.265625 C291.260417,108.531251 291.304688,108.812499 291.304688,109.109375 C291.304688,110.000004 290.997399,110.700518 290.382812,111.210938 C289.768226,111.721357 288.92188,111.976562 287.84375,111.976562 C287.567707,111.976562 287.317709,111.955729 287.09375,111.914062 C286.697915,112.158855 286.5,112.445311 286.5,112.773438 C286.5,112.971355 286.592447,113.119791 286.777344,113.21875 C286.962241,113.317709 287.302081,113.367188 287.796875,113.367188 L289.304688,113.367188 C290.257817,113.367188 290.981768,113.57031 291.476562,113.976562 C291.971357,114.382815 292.21875,114.968746 292.21875,115.734375 C292.21875,116.713547 291.815108,117.468747 291.007812,118 C290.200517,118.531253 289.033862,118.796875 287.507812,118.796875 C286.330723,118.796875 285.432295,118.588544 284.8125,118.171875 C284.192705,117.755206 283.882812,117.161462 283.882812,116.390625 C283.882812,115.859372 284.05078,115.412762 284.386719,115.050781 C284.722658,114.6888 285.192705,114.437501 285.796875,114.296875 C285.552082,114.192708 285.350261,114.024741 285.191406,113.792969 C285.032551,113.561197 284.953125,113.31771 284.953125,113.0625 C284.953125,112.739582 285.04427,112.466147 285.226562,112.242188 C285.408855,112.018228 285.679686,111.796876 286.039062,111.578125 C285.591144,111.385416 285.227866,111.071617 284.949219,110.636719 C284.670572,110.201821 284.53125,109.692711 284.53125,109.109375 C284.53125,108.17187 284.82682,107.445315 285.417969,106.929688 C286.009118,106.41406 286.851557,106.15625 287.945312,106.15625 C288.190105,106.15625 288.446613,106.173177 288.714844,106.207031 C288.983074,106.240886 289.184895,106.276041 289.320312,106.3125 L292.3125,106.3125 Z M285.523438,116.296875 C285.523438,116.69271 285.701821,116.997395 286.058594,117.210938 C286.415366,117.42448 286.916663,117.53125 287.5625,117.53125 C288.562505,117.53125 289.307289,117.388022 289.796875,117.101562 C290.286461,116.815103 290.53125,116.434898 290.53125,115.960938 C290.53125,115.585936 290.397137,115.319011 290.128906,115.160156 C289.860676,115.001301 289.361983,114.921875 288.632812,114.921875 L287.242188,114.921875 C286.716143,114.921875 286.298179,115.045572 285.988281,115.292969 C285.678384,115.540366 285.523438,115.874998 285.523438,116.296875 L285.523438,116.296875 Z M286.3125,109.109375 C286.3125,109.651044 286.451822,110.067707 286.730469,110.359375 C287.009116,110.651043 287.408852,110.796875 287.929688,110.796875 C288.992193,110.796875 289.523438,110.229172 289.523438,109.09375 C289.523438,108.531247 289.391928,108.097658 289.128906,107.792969 C288.865884,107.48828 288.466149,107.335938 287.929688,107.335938 C287.398435,107.335938 286.996095,107.486978 286.722656,107.789062 C286.449217,108.091147 286.3125,108.531247 286.3125,109.109375 L286.3125,109.109375 Z M301.515625,114.953125 L299.671875,114.953125 L299.671875,109.640625 C299.671875,108.973955 299.537762,108.476564 299.269531,108.148438 C299.001301,107.820311 298.575524,107.65625 297.992188,107.65625 C297.216142,107.65625 296.648439,107.885414 296.289062,108.34375 C295.929686,108.802086 295.75,109.570307 295.75,110.648438 L295.75,114.953125 L293.914062,114.953125 L293.914062,106.3125 L295.351562,106.3125 L295.609375,107.445312 L295.703125,107.445312 C295.963543,107.033852 296.333331,106.716147 296.8125,106.492188 C297.291669,106.268228 297.822914,106.15625 298.40625,106.15625 C300.479177,106.15625 301.515625,107.210927 301.515625,109.320312 L301.515625,114.953125 Z" id="Design-Copy" fill="#000000"></path>
        <path d="M41.8671875,109.046875 L43.1640625,109.046875 C44.0338585,109.046875 44.6640605,108.885418 45.0546875,108.5625 C45.4453145,108.239582 45.640625,107.76042 45.640625,107.125 C45.640625,106.479163 45.4296896,106.015626 45.0078125,105.734375 C44.5859354,105.453124 43.9505251,105.3125 43.1015625,105.3125 L41.8671875,105.3125 L41.8671875,109.046875 Z M41.8671875,110.59375 L41.8671875,115.15625 L40,115.15625 L40,103.734375 L43.2265625,103.734375 C44.7005282,103.734375 45.7916631,104.010414 46.5,104.5625 C47.2083369,105.114586 47.5625,105.947911 47.5625,107.0625 C47.5625,108.484382 46.8229241,109.497393 45.34375,110.101562 L48.5703125,115.15625 L46.4453125,115.15625 L43.7109375,110.59375 L41.8671875,110.59375 Z M53.8046875,115.3125 C52.4609308,115.3125 51.41016,114.920577 50.6523438,114.136719 C49.8945275,113.352861 49.515625,112.273444 49.515625,110.898438 C49.515625,109.486972 49.867184,108.377608 50.5703125,107.570312 C51.273441,106.763017 52.2395772,106.359375 53.46875,106.359375 C54.6093807,106.359375 55.5104134,106.705726 56.171875,107.398438 C56.8333366,108.091149 57.1640625,109.044265 57.1640625,110.257812 L57.1640625,111.25 L51.40625,111.25 C51.4322918,112.088546 51.658852,112.733071 52.0859375,113.183594 C52.513023,113.634117 53.1145795,113.859375 53.890625,113.859375 C54.4010442,113.859375 54.8762999,113.811198 55.3164062,113.714844 C55.7565126,113.618489 56.2291641,113.458334 56.734375,113.234375 L56.734375,114.726562 C56.2864561,114.940105 55.8333356,115.091145 55.375,115.179688 C54.9166644,115.26823 54.3932321,115.3125 53.8046875,115.3125 L53.8046875,115.3125 Z M53.46875,107.75 C52.8854137,107.75 52.4179705,107.934894 52.0664062,108.304688 C51.714842,108.674481 51.5052087,109.213538 51.4375,109.921875 L55.359375,109.921875 C55.3489583,109.20833 55.177085,108.667971 54.84375,108.300781 C54.510415,107.933592 54.0520863,107.75 53.46875,107.75 L53.46875,107.75 Z M65.0546875,112.695312 C65.0546875,113.539067 64.7473989,114.186196 64.1328125,114.636719 C63.5182261,115.087242 62.6380266,115.3125 61.4921875,115.3125 C60.3411401,115.3125 59.4166702,115.138023 58.71875,114.789062 L58.71875,113.203125 C59.7343801,113.671877 60.6796831,113.90625 61.5546875,113.90625 C62.6849015,113.90625 63.25,113.565108 63.25,112.882812 C63.25,112.664061 63.1875006,112.481772 63.0625,112.335938 C62.9374994,112.190103 62.7317723,112.039063 62.4453125,111.882812 C62.1588527,111.726562 61.7604192,111.54948 61.25,111.351562 C60.2552034,110.966144 59.582033,110.580731 59.2304688,110.195312 C58.8789045,109.809894 58.703125,109.309899 58.703125,108.695312 C58.703125,107.955725 59.0012991,107.381512 59.5976562,106.972656 C60.1940134,106.5638 61.0052032,106.359375 62.03125,106.359375 C63.0468801,106.359375 64.007808,106.565102 64.9140625,106.976562 L64.3203125,108.359375 C63.3880162,107.973956 62.6041698,107.78125 61.96875,107.78125 C60.9999952,107.78125 60.515625,108.057289 60.515625,108.609375 C60.515625,108.88021 60.6419258,109.109374 60.8945312,109.296875 C61.1471367,109.484376 61.6979124,109.742186 62.546875,110.070312 C63.2604202,110.346356 63.7786442,110.598957 64.1015625,110.828125 C64.4244808,111.057293 64.6640617,111.321613 64.8203125,111.621094 C64.9765633,111.920574 65.0546875,112.278644 65.0546875,112.695312 L65.0546875,112.695312 Z M70.8125,115.3125 C69.4687433,115.3125 68.4179725,114.920577 67.6601562,114.136719 C66.90234,113.352861 66.5234375,112.273444 66.5234375,110.898438 C66.5234375,109.486972 66.8749965,108.377608 67.578125,107.570312 C68.2812535,106.763017 69.2473897,106.359375 70.4765625,106.359375 C71.6171932,106.359375 72.5182259,106.705726 73.1796875,107.398438 C73.8411491,108.091149 74.171875,109.044265 74.171875,110.257812 L74.171875,111.25 L68.4140625,111.25 C68.4401043,112.088546 68.6666645,112.733071 69.09375,113.183594 C69.5208355,113.634117 70.122392,113.859375 70.8984375,113.859375 C71.4088567,113.859375 71.8841124,113.811198 72.3242188,113.714844 C72.7643251,113.618489 73.2369766,113.458334 73.7421875,113.234375 L73.7421875,114.726562 C73.2942686,114.940105 72.8411481,115.091145 72.3828125,115.179688 C71.9244769,115.26823 71.4010446,115.3125 70.8125,115.3125 L70.8125,115.3125 Z M70.4765625,107.75 C69.8932262,107.75 69.425783,107.934894 69.0742188,108.304688 C68.7226545,108.674481 68.5130212,109.213538 68.4453125,109.921875 L72.3671875,109.921875 C72.3567708,109.20833 72.1848975,108.667971 71.8515625,108.300781 C71.5182275,107.933592 71.0598988,107.75 70.4765625,107.75 L70.4765625,107.75 Z M81.6640625,115.15625 L81.296875,113.953125 L81.234375,113.953125 C80.8177063,114.479169 80.3984396,114.837239 79.9765625,115.027344 C79.5546854,115.217449 79.0130241,115.3125 78.3515625,115.3125 C77.5025999,115.3125 76.8398461,115.083336 76.3632812,114.625 C75.8867164,114.166664 75.6484375,113.518233 75.6484375,112.679688 C75.6484375,111.789058 75.9791634,111.11719 76.640625,110.664062 C77.3020866,110.210935 78.3098891,109.963542 79.6640625,109.921875 L81.15625,109.875 L81.15625,109.414062 C81.15625,108.861976 81.027345,108.44922 80.7695312,108.175781 C80.5117175,107.902342 80.1119819,107.765625 79.5703125,107.765625 C79.127602,107.765625 78.703127,107.830729 78.296875,107.960938 C77.890623,108.091146 77.5000019,108.244791 77.125,108.421875 L76.53125,107.109375 C77.0000023,106.864582 77.513018,106.678386 78.0703125,106.550781 C78.627607,106.423176 79.1536434,106.359375 79.6484375,106.359375 C80.7474013,106.359375 81.5768201,106.598956 82.1367188,107.078125 C82.6966174,107.557294 82.9765625,108.309891 82.9765625,109.335938 L82.9765625,115.15625 L81.6640625,115.15625 Z M78.9296875,113.90625 C79.5963575,113.90625 80.1315084,113.720054 80.5351562,113.347656 C80.9388041,112.975259 81.140625,112.453128 81.140625,111.78125 L81.140625,111.03125 L80.03125,111.078125 C79.1666623,111.109375 78.5377624,111.253905 78.1445312,111.511719 C77.7513001,111.769533 77.5546875,112.16406 77.5546875,112.695312 C77.5546875,113.080731 77.6692697,113.378905 77.8984375,113.589844 C78.1276053,113.800782 78.4713519,113.90625 78.9296875,113.90625 L78.9296875,113.90625 Z M89.921875,106.359375 C90.2916685,106.359375 90.596353,106.385416 90.8359375,106.4375 L90.65625,108.148438 C90.395832,108.085937 90.1250014,108.054688 89.84375,108.054688 C89.1093713,108.054688 88.5143252,108.294268 88.0585938,108.773438 C87.6028623,109.252607 87.375,109.874996 87.375,110.640625 L87.375,115.15625 L85.5390625,115.15625 L85.5390625,106.515625 L86.9765625,106.515625 L87.21875,108.039062 L87.3125,108.039062 C87.5989598,107.523435 87.9726539,107.114585 88.4335938,106.8125 C88.8945336,106.510415 89.3906223,106.359375 89.921875,106.359375 L89.921875,106.359375 Z M95.6015625,115.3125 C94.2942643,115.3125 93.3007846,114.930993 92.6210938,114.167969 C91.9414029,113.404944 91.6015625,112.309903 91.6015625,110.882812 C91.6015625,109.42968 91.9570277,108.312504 92.6679688,107.53125 C93.3789098,106.749996 94.4062433,106.359375 95.75,106.359375 C96.6614629,106.359375 97.4817672,106.528644 98.2109375,106.867188 L97.65625,108.34375 C96.8802045,108.041665 96.2395859,107.890625 95.734375,107.890625 C94.2395759,107.890625 93.4921875,108.882803 93.4921875,110.867188 C93.4921875,111.835942 93.6783836,112.5638 94.0507812,113.050781 C94.4231789,113.537763 94.9687464,113.78125 95.6875,113.78125 C96.5052124,113.78125 97.2786422,113.578127 98.0078125,113.171875 L98.0078125,114.773438 C97.6796859,114.966147 97.3294289,115.104166 96.9570312,115.1875 C96.5846336,115.270834 96.1328152,115.3125 95.6015625,115.3125 L95.6015625,115.3125 Z M107.640625,115.15625 L105.796875,115.15625 L105.796875,109.84375 C105.796875,109.17708 105.662762,108.679689 105.394531,108.351562 C105.126301,108.023436 104.700524,107.859375 104.117188,107.859375 C103.34635,107.859375 102.77995,108.089841 102.417969,108.550781 C102.055988,109.011721 101.875,109.783849 101.875,110.867188 L101.875,115.15625 L100.039062,115.15625 L100.039062,103 L101.875,103 L101.875,106.085938 C101.875,106.580732 101.84375,107.109372 101.78125,107.671875 L101.898438,107.671875 C102.148439,107.255206 102.496092,106.932293 102.941406,106.703125 C103.386721,106.473957 103.906247,106.359375 104.5,106.359375 C106.59376,106.359375 107.640625,107.414052 107.640625,109.523438 L107.640625,115.15625 Z" id="Research" fill="#000000"></path>
        <path d="M456.015625,102.734375 L457.953125,102.734375 L453.953125,114.15625 L451.984375,114.15625 L448,102.734375 L449.921875,102.734375 L452.304688,109.835938 C452.429688,110.174481 452.562499,110.610674 452.703125,111.144531 C452.843751,111.678388 452.934896,112.07552 452.976562,112.335938 C453.044271,111.940102 453.148437,111.481773 453.289062,110.960938 C453.429688,110.440102 453.54427,110.054689 453.632812,109.804688 L456.015625,102.734375 Z M464.351562,114.15625 L463.984375,112.953125 L463.921875,112.953125 C463.505206,113.479169 463.08594,113.837239 462.664062,114.027344 C462.242185,114.217449 461.700524,114.3125 461.039062,114.3125 C460.1901,114.3125 459.527346,114.083336 459.050781,113.625 C458.574216,113.166664 458.335938,112.518233 458.335938,111.679688 C458.335938,110.789058 458.666663,110.11719 459.328125,109.664062 C459.989587,109.210935 460.997389,108.963542 462.351562,108.921875 L463.84375,108.875 L463.84375,108.414062 C463.84375,107.861976 463.714845,107.44922 463.457031,107.175781 C463.199217,106.902342 462.799482,106.765625 462.257812,106.765625 C461.815102,106.765625 461.390627,106.830729 460.984375,106.960938 C460.578123,107.091146 460.187502,107.244791 459.8125,107.421875 L459.21875,106.109375 C459.687502,105.864582 460.200518,105.678386 460.757812,105.550781 C461.315107,105.423176 461.841143,105.359375 462.335938,105.359375 C463.434901,105.359375 464.26432,105.598956 464.824219,106.078125 C465.384117,106.557294 465.664062,107.309891 465.664062,108.335938 L465.664062,114.15625 L464.351562,114.15625 Z M461.617188,112.90625 C462.283858,112.90625 462.819008,112.720054 463.222656,112.347656 C463.626304,111.975259 463.828125,111.453128 463.828125,110.78125 L463.828125,110.03125 L462.71875,110.078125 C461.854162,110.109375 461.225262,110.253905 460.832031,110.511719 C460.4388,110.769533 460.242188,111.16406 460.242188,111.695312 C460.242188,112.080731 460.35677,112.378905 460.585938,112.589844 C460.815105,112.800782 461.158852,112.90625 461.617188,112.90625 L461.617188,112.90625 Z M470.0625,114.15625 L468.226562,114.15625 L468.226562,102 L470.0625,102 L470.0625,114.15625 Z M474.523438,114.15625 L472.6875,114.15625 L472.6875,105.515625 L474.523438,105.515625 L474.523438,114.15625 Z M472.578125,103.226562 C472.578125,102.898436 472.667968,102.645834 472.847656,102.46875 C473.027345,102.291666 473.283853,102.203125 473.617188,102.203125 C473.940106,102.203125 474.191405,102.291666 474.371094,102.46875 C474.550782,102.645834 474.640625,102.898436 474.640625,103.226562 C474.640625,103.539064 474.550782,103.785155 474.371094,103.964844 C474.191405,104.144532 473.940106,104.234375 473.617188,104.234375 C473.283853,104.234375 473.027345,104.144532 472.847656,103.964844 C472.667968,103.785155 472.578125,103.539064 472.578125,103.226562 L472.578125,103.226562 Z M480.0625,114.3125 C478.98437,114.3125 478.143232,113.921879 477.539062,113.140625 C476.934893,112.359371 476.632812,111.263028 476.632812,109.851562 C476.632812,108.434889 476.938799,107.332035 477.550781,106.542969 C478.162763,105.753902 479.010411,105.359375 480.09375,105.359375 C481.229172,105.359375 482.093747,105.778642 482.6875,106.617188 L482.78125,106.617188 C482.692708,105.997393 482.648438,105.507814 482.648438,105.148438 L482.648438,102 L484.492188,102 L484.492188,114.15625 L483.054688,114.15625 L482.734375,113.023438 L482.648438,113.023438 C482.059893,113.882817 481.197922,114.3125 480.0625,114.3125 L480.0625,114.3125 Z M480.554688,112.828125 C481.3099,112.828125 481.859373,112.615888 482.203125,112.191406 C482.546877,111.766925 482.723958,111.07813 482.734375,110.125 L482.734375,109.867188 C482.734375,108.77864 482.557293,108.005211 482.203125,107.546875 C481.848957,107.088539 481.294275,106.859375 480.539062,106.859375 C479.893226,106.859375 479.395835,107.121091 479.046875,107.644531 C478.697915,108.167971 478.523438,108.914058 478.523438,109.882812 C478.523438,110.841151 478.692707,111.571612 479.03125,112.074219 C479.369793,112.576825 479.877601,112.828125 480.554688,112.828125 L480.554688,112.828125 Z M492.523438,114.15625 L492.15625,112.953125 L492.09375,112.953125 C491.677081,113.479169 491.257815,113.837239 490.835938,114.027344 C490.41406,114.217449 489.872399,114.3125 489.210938,114.3125 C488.361975,114.3125 487.699221,114.083336 487.222656,113.625 C486.746091,113.166664 486.507812,112.518233 486.507812,111.679688 C486.507812,110.789058 486.838538,110.11719 487.5,109.664062 C488.161462,109.210935 489.169264,108.963542 490.523438,108.921875 L492.015625,108.875 L492.015625,108.414062 C492.015625,107.861976 491.88672,107.44922 491.628906,107.175781 C491.371092,106.902342 490.971357,106.765625 490.429688,106.765625 C489.986977,106.765625 489.562502,106.830729 489.15625,106.960938 C488.749998,107.091146 488.359377,107.244791 487.984375,107.421875 L487.390625,106.109375 C487.859377,105.864582 488.372393,105.678386 488.929688,105.550781 C489.486982,105.423176 490.013018,105.359375 490.507812,105.359375 C491.606776,105.359375 492.436195,105.598956 492.996094,106.078125 C493.555992,106.557294 493.835938,107.309891 493.835938,108.335938 L493.835938,114.15625 L492.523438,114.15625 Z M489.789062,112.90625 C490.455733,112.90625 490.990883,112.720054 491.394531,112.347656 C491.798179,111.975259 492,111.453128 492,110.78125 L492,110.03125 L490.890625,110.078125 C490.026037,110.109375 489.397137,110.253905 489.003906,110.511719 C488.610675,110.769533 488.414062,111.16406 488.414062,111.695312 C488.414062,112.080731 488.528645,112.378905 488.757812,112.589844 C488.98698,112.800782 489.330727,112.90625 489.789062,112.90625 L489.789062,112.90625 Z M499.617188,112.828125 C500.065106,112.828125 500.513019,112.757813 500.960938,112.617188 L500.960938,114 C500.757811,114.088542 500.496095,114.16276 500.175781,114.222656 C499.855467,114.282552 499.523439,114.3125 499.179688,114.3125 C497.440095,114.3125 496.570312,113.395843 496.570312,111.5625 L496.570312,106.90625 L495.390625,106.90625 L495.390625,106.09375 L496.65625,105.421875 L497.28125,103.59375 L498.414062,103.59375 L498.414062,105.515625 L500.875,105.515625 L500.875,106.90625 L498.414062,106.90625 L498.414062,111.53125 C498.414062,111.973961 498.524738,112.30078 498.746094,112.511719 C498.967449,112.722657 499.257811,112.828125 499.617188,112.828125 L499.617188,112.828125 Z M504.523438,114.15625 L502.6875,114.15625 L502.6875,105.515625 L504.523438,105.515625 L504.523438,114.15625 Z M502.578125,103.226562 C502.578125,102.898436 502.667968,102.645834 502.847656,102.46875 C503.027345,102.291666 503.283853,102.203125 503.617188,102.203125 C503.940106,102.203125 504.191405,102.291666 504.371094,102.46875 C504.550782,102.645834 504.640625,102.898436 504.640625,103.226562 C504.640625,103.539064 504.550782,103.785155 504.371094,103.964844 C504.191405,104.144532 503.940106,104.234375 503.617188,104.234375 C503.283853,104.234375 503.027345,104.144532 502.847656,103.964844 C502.667968,103.785155 502.578125,103.539064 502.578125,103.226562 L502.578125,103.226562 Z M514.8125,109.820312 C514.8125,111.231778 514.450524,112.333329 513.726562,113.125 C513.002601,113.916671 511.994798,114.3125 510.703125,114.3125 C509.895829,114.3125 509.182295,114.13021 508.5625,113.765625 C507.942705,113.40104 507.466148,112.877608 507.132812,112.195312 C506.799477,111.513017 506.632812,110.721359 506.632812,109.820312 C506.632812,108.419264 506.992184,107.325525 507.710938,106.539062 C508.429691,105.7526 509.442702,105.359375 510.75,105.359375 C512.000006,105.359375 512.98958,105.761715 513.71875,106.566406 C514.44792,107.371098 514.8125,108.455722 514.8125,109.820312 L514.8125,109.820312 Z M508.523438,109.820312 C508.523438,111.815114 509.260409,112.8125 510.734375,112.8125 C512.192716,112.8125 512.921875,111.815114 512.921875,109.820312 C512.921875,107.846344 512.187507,106.859375 510.71875,106.859375 C509.947913,106.859375 509.389325,107.114581 509.042969,107.625 C508.696613,108.135419 508.523438,108.867183 508.523438,109.820312 L508.523438,109.820312 Z M524.523438,114.15625 L522.679688,114.15625 L522.679688,108.84375 C522.679688,108.17708 522.545574,107.679689 522.277344,107.351562 C522.009113,107.023436 521.583336,106.859375 521,106.859375 C520.223954,106.859375 519.656252,107.088539 519.296875,107.546875 C518.937498,108.005211 518.757812,108.773432 518.757812,109.851562 L518.757812,114.15625 L516.921875,114.15625 L516.921875,105.515625 L518.359375,105.515625 L518.617188,106.648438 L518.710938,106.648438 C518.971355,106.236977 519.341143,105.919272 519.820312,105.695312 C520.299482,105.471353 520.830726,105.359375 521.414062,105.359375 C523.48699,105.359375 524.523438,106.414052 524.523438,108.523438 L524.523438,114.15625 Z" id="Validation-Copy-2" fill="#000000"></path>
        <g id="Group-Copy-10" stroke="#3C3C3C" stroke-width="2" fill="#FFFFFF">
            <g id="Path-205-+-Path-205-Copy-3" transform="translate(157.000000, 25.376000)">
                <path d="M6.05826097,22.6887517 C9.37656196,22.1750473 13.3027084,21.2334842 13.3027084,21.2334842 C13.3027084,21.2334842 12.248058,15.27223 17.1323259,10.208703 C18.9907465,11.7717342 20.8768833,13.0183236 20.8768833,13.0183236 L20.2379766,1.38303326 L7.93340687,2.76752367 L11.5131005,5.82691872 C11.5131005,5.82691872 4.85977323,13.2575957 6.05826097,22.6887517 Z" id="Path-205" transform="translate(13.395349, 12.035892) rotate(-300.000000) translate(-13.395349, -12.035892) "></path>
                <path d="M7.26486541,45.4400343 C10.5831664,44.9263299 14.5093128,43.9847668 14.5093128,43.9847668 C14.5093128,43.9847668 13.4546625,38.0235126 18.3389304,32.9599857 C20.197351,34.5230169 22.0834878,35.7696062 22.0834878,35.7696062 L21.444581,24.1343159 L9.1400113,25.5188063 L12.719705,28.5782014 C12.719705,28.5782014 6.06637766,36.0088783 7.26486541,45.4400343 Z" id="Path-205-Copy-3" transform="translate(14.601953, 34.787175) rotate(-120.000000) translate(-14.601953, -34.787175) "></path>
            </g>
            <g id="Path-205-+-Path-205-Copy-4" transform="translate(375.000000, 28.304000)">
                <path d="M0.501158212,9.05621758 C2.60518976,11.6730983 5.38368053,14.6024594 5.38368053,14.6024594 C5.38368053,14.6024594 10.0189529,10.7084782 16.8462299,12.4066149 C16.4218154,14.7975699 16.2853058,17.054307 16.2853058,17.054307 L26.0423094,10.6833523 L18.6910207,0.719527565 L17.8313537,5.34933073 C17.8313537,5.34933073 8.06953503,3.30271875 0.501158212,9.05621758 Z" id="Path-205"></path>
                <path d="M28.4961439,32.88685 C26.3921123,30.2699692 23.6136216,27.3406082 23.6136216,27.3406082 C23.6136216,27.3406082 18.9783492,31.2345893 12.1510722,29.5364527 C12.5754867,27.1454977 12.7119963,24.8887606 12.7119963,24.8887606 L2.9549927,31.2597152 L10.3062814,41.22354 L11.1659484,36.5937368 C11.1659484,36.5937368 20.9277671,38.6403488 28.4961439,32.88685 Z" id="Path-205-Copy-3"></path>
            </g>
        </g>
        <g id="Research-+-Group-Copy-2" transform="translate(2.764303, 9.000000)">
            <g id="Group">
                <use id="Rectangle-63-Copy" stroke="#474747" mask="url(#mask-2)" stroke-width="4.752" fill="#FB624F" xlink:href="#path-1"></use>
                <rect id="Rectangle-63" stroke="#474747" stroke-width="2.376" fill="#EBD6AC" x="6.50400621" y="11.721875" width="124.148437" height="57.075"></rect>
                <path d="M6.46787206,2.99022262 C6.46452602,1.89949119 7.34232243,0.968877891 8.44379514,0.915430397 C8.44379514,0.915430397 62.347743,-2.16155093 68.8894081,6.39859799 C75.6717672,-2.18850489 128.974404,1.18931078 128.974404,1.18931078 C130.066438,1.25100709 130.947172,2.18816123 130.941551,3.28822509 L130.66183,58.0289962 C130.656222,59.1264982 129.759551,59.9641715 128.677566,59.9060859 C128.677566,59.9060859 76.8815143,56.6296686 68.5,65.513263 C59.5108327,56.5532988 8.61494898,59.2777544 8.61494898,59.2777544 C7.52466942,59.3277254 6.63808302,58.4749998 6.63476465,57.3932908 L6.46787206,2.99022262 Z" id="Rectangle-62" stroke="#474747" stroke-width="2.376" fill="#FFECC7"></path>
                <path d="M59.2380283,3.5 C66.9497368,4.31809613 68.019769,6.98468328 68.019769,6.98468328 L67.5662167,63.7968826 L59.2380283,59.3 C59.2380283,59.3 57.6168852,38.3693331 59.2380283,3.5 Z" id="Rectangle-102" fill-opacity="0.0700000003" fill="#000000"></path>
                <path d="M70.1432895,3.5 C78.794229,4.31809613 80.1239892,7.01927209 80.1239892,7.01927209 L79.7145997,63.2622528 L70.1432896,60.37286 C70.1432896,60.37286 68.3247028,38.3693331 70.1432895,3.5 Z" id="Rectangle-102-Copy" fill-opacity="0.0700000003" fill="#000000" transform="translate(74.729509, 33.381126) scale(-1, 1) translate(-74.729509, -33.381126) "></path>
                <path d="M68.7770021,6.99955523 L68.7770022,62.9014299" id="Line" stroke="#474747" stroke-width="2.376" stroke-linecap="square"></path>
                <g transform="translate(12.721758, 10.812500)" stroke="#474747" stroke-width="1.584" stroke-linecap="square">
                    <path d="M23.1987775,0 C23.1987775,0 28.0463687,-5.31702153e-17 38.3642423,0 C45.1513809,0.135768448 48.682116,2.04013957 48.682116,2.04013957" id="Line"></path>
                    <path d="M23.1987775,5.5125 C23.1987775,5.5125 28.0463687,5.5125 38.3642423,5.5125 C45.1513809,5.64826845 48.682116,7.55263957 48.682116,7.55263957" id="Line-Copy-17"></path>
                    <path d="M23.1987775,11.025 C23.1987775,11.025 28.0463687,11.025 38.3642423,11.025 C45.1513809,11.1607684 48.682116,13.0651396 48.682116,13.0651396" id="Line-Copy-23"></path>
                    <path d="M23.1987775,16.5375 C23.1987775,16.5375 28.0463687,16.5375 38.3642423,16.5375 C45.1513809,16.6732684 48.682116,18.5776396 48.682116,18.5776396" id="Line-Copy-24"></path>
                    <path d="M0.198777463,22.05 C0.198777463,22.05 28.0463687,22.05 38.3642423,22.05 C45.1513809,22.1857684 48.682116,24.0901396 48.682116,24.0901396" id="Line-Copy-25"></path>
                    <path d="M0.198777463,27.5625 C0.198777463,27.5625 28.0463687,27.5625 38.3642423,27.5625 C45.1513809,27.6982684 48.682116,29.6026396 48.682116,29.6026396" id="Line-Copy-26"></path>
                    <path d="M0.198777463,33.075 C0.198777463,33.075 28.0463687,33.075 38.3642423,33.075 C45.1513809,33.2107684 48.682116,35.1151396 48.682116,35.1151396" id="Line-Copy-27"></path>
                    <path d="M0.198777463,38.5875 C0.198777463,38.5875 28.0463687,38.5875 38.3642423,38.5875 C45.1513809,38.7232684 48.682116,40.6276396 48.682116,40.6276396" id="Line-Copy-29"></path>
                </g>
                <g transform="translate(99.587509, 30.893750) scale(-1, 1) translate(-99.587509, -30.893750) translate(75.137881, 10.418750)" stroke="#474747" stroke-width="1.584" stroke-linecap="square">
                    <path d="M0.198777463,0 C0.198777463,0 28.0463687,-5.31702153e-17 38.3642423,0 C45.1513809,0.135768448 48.682116,2.04013957 48.682116,2.04013957" id="Line-Copy-36"></path>
                    <path d="M0.198777463,5.5125 C0.198777463,5.5125 28.0463687,5.5125 38.3642423,5.5125 C45.1513809,5.64826845 48.682116,7.55263957 48.682116,7.55263957" id="Line-Copy-28"></path>
                    <path d="M0.198777463,11.025 C0.198777463,11.025 28.0463687,11.025 38.3642423,11.025 C45.1513809,11.1607684 48.682116,13.0651396 48.682116,13.0651396" id="Line-Copy-30"></path>
                    <path d="M0.198777463,16.5375 C0.198777463,16.5375 28.0463687,16.5375 38.3642423,16.5375 C45.1513809,16.6732684 48.682116,18.5776396 48.682116,18.5776396" id="Line-Copy-31"></path>
                    <path d="M0.198777463,22.05 C0.198777463,22.05 28.0463687,22.05 38.3642423,22.05 C45.1513809,22.1857684 48.682116,24.0901396 48.682116,24.0901396" id="Line-Copy-32"></path>
                    <path d="M0.198777463,27.5625 C0.198777463,27.5625 28.0463687,27.5625 38.3642423,27.5625 C45.1513809,27.6982684 48.682116,29.6026396 48.682116,29.6026396" id="Line-Copy-33"></path>
                    <path d="M0.198777463,33.075 C0.198777463,33.075 28.0463687,33.075 38.3642423,33.075 C45.1513809,33.2107684 48.682116,35.1151396 48.682116,35.1151396" id="Line-Copy-34"></path>
                    <path d="M0.198777463,38.5875 C0.198777463,38.5875 28.0463687,38.5875 38.3642423,38.5875 C45.1513809,38.7232684 48.682116,40.6276396 48.682116,40.6276396" id="Line-Copy-35"></path>
                </g>
                <g id="Rectangle-65-+-Oval-6" transform="translate(11.926648, 9.879445)">
                    <rect id="Rectangle-65" stroke="#474747" stroke-width="1.584" x="0.961584099" y="0" width="17.1594682" height="17.845"></rect>
                    <path d="M10.6289691,9.9154093 C11.8620079,9.33761883 12.7374635,7.87631462 12.7374635,6.16491525 C12.7374635,3.94753879 11.2678258,2.15 9.45493592,2.15 C7.64204599,2.15 6.17240833,3.94753879 6.17240833,6.16491525 C6.17240833,7.8878526 7.05970811,9.35731121 8.3058902,9.92697474 C5.03080362,10.575639 2.54435153,13.7574987 2.54435153,17.585 C6.62696919,17.5783509 13.1992001,17.585 16.5382849,17.585 C16.2486183,14.2218565 13.9249837,10.5856494 10.6289691,9.9154093 Z" id="Oval-6" fill="#474747"></path>
                </g>
                <g id="Rectangle-68-+-Oval-8-+-Rectangle-66-+-Rectangle-66-Copy-+-Oval-8-Copy-2" transform="translate(25.207547, 27.800000)">
                    <g id="Oval-8-+-Rectangle-66-+-Rectangle-66-Copy" transform="translate(32.305453, 31.870809) rotate(-45.000000) translate(-32.305453, -31.870809) translate(16.100601, 3.070809)">
                        <ellipse id="Oval-10" stroke="#979797" stroke-width="0.5" fill="#FFECC6" cx="15.5783998" cy="15.7161918" rx="14.3102547" ry="14.1044776"></ellipse>
                        <g id="Oval-8">
                            <use fill="#EBF3F7" fill-rule="evenodd" xlink:href="#path-3"></use>
                            <use fill="black" fill-opacity="1" filter="url(#filter-4)" xlink:href="#path-3"></use>
                            <use stroke="#474747" stroke-width="1.9008" xlink:href="#path-3"></use>
                        </g>
                        <g id="Rectangle-66">
                            <use fill="#C9DEE8" fill-rule="evenodd" xlink:href="#path-5"></use>
                            <use stroke="#474747" mask="url(#mask-6)" stroke-width="3.8016" xlink:href="#path-5"></use>
                        </g>
                        <g id="Rectangle-66-Copy">
                            <use fill="#636363" fill-rule="evenodd" xlink:href="#path-7"></use>
                            <use stroke="#474747" mask="url(#mask-8)" stroke-width="3.8016" xlink:href="#path-7"></use>
                        </g>
                    </g>
                    <path d="M14.3102547,28.3875213 C15.0478572,29.1030489 15.9281567,29.6831564 16.9069013,30.0854329 M20.1265912,30.7164179 C24.642023,30.7164179 28.3025037,27.2082014 28.3025037,22.880597" id="Oval-8-Copy-2" stroke="#474747" stroke-width="1.52064" stroke-linecap="round" transform="translate(21.306379, 26.798507) rotate(-315.000000) translate(-21.306379, -26.798507) "></path>
                </g>
            </g>
        </g>
        <g id="Design-+-Group-+-Group-Copy-+-Group-Copy-2-Copy-+-Rectangle-65-+-Oval-6-Copy-Copy-Copy-Copy" transform="translate(141.764303, -47.000000)">
            <g id="Group-+-Group-Copy-+-Group-Copy-2-Copy-+-Rectangle-65-+-Oval-6-Copy">
                <g id="Group-+-Group-Copy-+-Group-Copy-2-Copy">
                    <g id="Group" transform="translate(0.032038, 0.792233)">
                        <g>
                            <use id="Rectangle-40" stroke="#000000" mask="url(#mask-10)" stroke-width="3.78" fill="#77CBF5" xlink:href="#path-9"></use>
                            <g id="Rectangle-48-+-Rectangle-40-Copy" transform="translate(0.578672, 0.887379)">
                                <polygon id="Rectangle-48" fill="#65BCE7" opacity="0.398379198" transform="translate(185.001836, 103.124688) rotate(-330.000000) translate(-185.001836, -103.124688) " points="159.985823 61.6074107 169.869788 55.9009011 210.017848 125.439381 166.874031 150.348475"></polygon>
                                <polygon id="Rectangle-48-Copy" fill="#FFFFFF" opacity="0.104885728" transform="translate(65.470687, 73.432703) rotate(-330.000000) translate(-65.470687, -73.432703) " points="25.9974007 24.9407349 93.6646555 11.9037869 104.943973 121.92467 37.2767178 134.961618"></polygon>
                            </g>
                            <g id="Rectangle-47-+-Rectangle-47-Copy-+-Oval-4" transform="translate(123.307354, 72.983495)">
                                <use id="Rectangle-47" stroke="#CDECFB" mask="url(#mask-12)" stroke-width="3.78" xlink:href="#path-11"></use>
                                <path d="M1.1050702,34.2873786 L23.2064741,34.2873786" id="Line-Copy-19" stroke="#CDECFB" stroke-width="1.89" stroke-linecap="square"></path>
                                <path d="M4.26241361,24.7631068 L13.7397048,24.7631068" id="Line" stroke="#CDECFB" stroke-width="1.26" stroke-linecap="square"></path>
                                <path d="M17.0496544,24.7631068 L20.0543917,24.7631068" id="Line-Copy-12" stroke="#CDECFB" stroke-width="1.26" stroke-linecap="square"></path>
                                <path d="M4.42028078,28.6203883 L7.42501798,28.6203883" id="Line-Copy-16" stroke="#CDECFB" stroke-width="1.26" stroke-linecap="square"></path>
                                <path d="M10.7349676,28.6203883 L17.5507351,28.6203883" id="Line-Copy-18" stroke="#CDECFB" stroke-width="1.26" stroke-linecap="square"></path>
                                <path d="M4.42028078,21.3203883 L7.42501798,21.3203883" id="Line-Copy-38" stroke="#CDECFB" stroke-width="1.26" stroke-linecap="square"></path>
                                <path d="M10.7349676,21.3203883 L17.5507351,21.3203883" id="Line-Copy-37" stroke="#CDECFB" stroke-width="1.26" stroke-linecap="square"></path>
                                <ellipse id="Oval-4" fill="#CDECFB" cx="12.014426" cy="39.2691519" rx="2.40288519" ry="2.41002015"></ellipse>
                            </g>
                            <path d="M189.335928,126.916248 L182.981413,126.916248 C181.587618,126.916248 180.457723,125.780903 180.457723,124.378639 L180.457723,118.065318" id="Rectangle-48-Copy-3" stroke="#FFFFFF" stroke-width="1.89" stroke-linecap="round" transform="translate(184.896826, 122.490783) rotate(-90.000000) translate(-184.896826, -122.490783) "></path>
                            <g transform="translate(101.107817, 125.300000)" stroke="#BBE5FA" stroke-width="1.89" stroke-linecap="round">
                                <path d="M70.3426246,1.63776699 L59.5393901,1.63776699" id="Line"></path>
                                <path d="M50.5366947,1.63776699 L39.7334602,1.63776699" id="Line-Copy-45"></path>
                                <path d="M30.7307648,1.63776699 L19.9275303,1.63776699" id="Line-Copy-46"></path>
                                <path d="M10.9248349,1.63776699 L0.121600388,1.63776699" id="Line-Copy-47"></path>
                            </g>
                            <g id="Group-Copy-8" transform="translate(101.107817, 60.500000)" stroke="#FFFFFF" stroke-width="1.89" stroke-linecap="round" opacity="0.5">
                                <path d="M70.3426246,1.63776699 L59.5393901,1.63776699" id="Line"></path>
                                <path d="M50.5366947,1.63776699 L39.7334602,1.63776699" id="Line-Copy-45"></path>
                                <path d="M30.7307648,1.63776699 L19.9275303,1.63776699" id="Line-Copy-46"></path>
                                <path d="M10.9248349,1.63776699 L0.121600388,1.63776699" id="Line-Copy-47"></path>
                            </g>
                            <g id="Group-Copy-6" transform="translate(83.402561, 93.889353) rotate(-270.000000) translate(-83.402561, -93.889353) translate(67.402561, 92.389353)" stroke="#BBE5FA" stroke-width="1.89" stroke-linecap="round">
                                <path d="M31.3426246,1.63776699 L20.5393901,1.63776699" id="Line"></path>
                                <path d="M11.5366947,1.63776699 L0.733460227,1.63776699" id="Line-Copy-45"></path>
                            </g>
                            <g id="Group-Copy-7" transform="translate(189.634367, 93.889353) rotate(-270.000000) translate(-189.634367, -93.889353) translate(173.634367, 92.389353)" stroke="#BBE5FA" stroke-width="1.89" stroke-linecap="round">
                                <path d="M31.3426246,1.63776699 L20.5393901,1.63776699" id="Line"></path>
                                <path d="M11.5366947,1.63776699 L0.733460227,1.63776699" id="Line-Copy-45"></path>
                            </g>
                            <path d="M92.7187664,126.954369 L86.3642517,126.954369 C84.9704561,126.954369 83.8405616,125.819023 83.8405616,124.416759 L83.8405616,118.103439" id="Rectangle-48-Copy-4" stroke="#FFFFFF" stroke-width="1.89"></path>
                            <path d="M92.7187664,71.0786408 L86.3642517,71.0786405 C84.9704561,71.0786405 83.8405616,69.943295 83.8405616,68.5410313 L83.8405616,62.2277108" id="Rectangle-48-Copy-5" stroke="#FFFFFF" stroke-width="1.89" stroke-linecap="round" transform="translate(88.279664, 66.653176) rotate(-270.000000) translate(-88.279664, -66.653176) "></path>
                            <path d="M189.333475,71.0786408 L182.97896,71.0786405 C181.585165,71.0786405 180.45527,69.943295 180.45527,68.5410313 L180.45527,62.2277108" id="Rectangle-48-Copy-6" stroke="#FFFFFF" stroke-width="1.89" stroke-linecap="round" transform="translate(184.894373, 66.653176) rotate(-180.000000) translate(-184.894373, -66.653176) "></path>
                        </g>
                        <g id="Line-+-Triangle-2-Copy" transform="translate(156.694537, 78.555340) rotate(-180.000000) translate(-156.694537, -78.555340) translate(147.694537, 75.555340)">
                            <path d="M0.0701359702,0.532395608 C0.0701359702,0.532395608 1.64805069,4.62159293 6.30902495,4.62159293 C10.9699992,4.62159293 14.6816469,3.01601942 14.6816469,3.01601942" id="Line" stroke="#BBE5FA" stroke-width="0.945" stroke-linecap="square"></path>
                            <polygon id="Triangle-2" fill="#BBE5FA" transform="translate(14.681647, 3.016019) rotate(-299.000000) translate(-14.681647, -3.016019) " points="14.6816469 1.26990291 17.0496544 4.76213592 12.3136393 4.76213592"></polygon>
                        </g>
                        <g id="Line-+-Triangle-2-+-Group" transform="translate(96.469935, 88.857282)">
                            <g id="Line-+-Triangle-2" transform="translate(7.893359, 10.159223)">
                                <path d="M0.0701359702,0.532395608 C0.0701359702,0.532395608 1.64805069,4.62159293 6.30902495,4.62159293 C10.9699992,4.62159293 14.6816469,3.01601942 14.6816469,3.01601942" id="Line" stroke="#BBE5FA" stroke-width="0.945" stroke-linecap="square"></path>
                                <polygon id="Triangle-2" fill="#BBE5FA" transform="translate(14.681647, 3.016019) rotate(-299.000000) translate(-14.681647, -3.016019) " points="14.6816469 1.26990291 17.0496544 4.76213592 12.3136393 4.76213592"></polygon>
                            </g>
                            <g id="Group" stroke="#BBE5FA">
                                <use id="Rectangle-49" mask="url(#mask-14)" stroke-width="1.89" xlink:href="#path-13"></use>
                                <path d="M2.65278756,3.80970874 L10.2717864,3.80970874" id="Line-Copy-22" stroke-width="1.26" stroke-linecap="square"></path>
                                <path d="M2.77970038,6.98446602 L5.19527342,6.98446602" id="Line-Copy-20" stroke-width="1.26" stroke-linecap="square"></path>
                                <path d="M7.85621332,6.98446602 L13.3355558,6.98446602" id="Line-Copy-21" stroke-width="1.26" stroke-linecap="square"></path>
                            </g>
                        </g>
                        <g id="Line-+-Triangle-2-+-Group-Copy" transform="translate(157.169710, 81.139356)" stroke="#BBE5FA">
                            <g id="Group">
                                <use id="Rectangle-49" mask="url(#mask-16)" stroke-width="1.89" xlink:href="#path-15"></use>
                                <path d="M2.65278756,3.80970874 L10.2717864,3.80970874" id="Line-Copy-22" stroke-width="1.26" stroke-linecap="square"></path>
                                <path d="M2.77970038,6.98446602 L5.19527342,6.98446602" id="Line-Copy-20" stroke-width="1.26" stroke-linecap="square"></path>
                                <path d="M7.85621332,6.98446602 L13.3355558,6.98446602" id="Line-Copy-21" stroke-width="1.26" stroke-linecap="square"></path>
                            </g>
                        </g>
                    </g>
                    <g id="Group-Copy" transform="translate(93.616045, 113.485968) rotate(8.000000) translate(-93.616045, -113.485968) translate(68.616045, 88.485968)" stroke="#000000">
                        <path d="M0.255991579,2.25515833 C0.255991579,0.1632372 1.4538238,-0.335126359 2.93574701,1.14635316 L49.1030912,47.2998747 C50.5830792,48.7794197 50.0977508,49.9788279 47.9939539,49.9788279 L4.04488425,49.9788279 C1.95233661,49.9788279 0.255991579,48.2942366 0.255991579,46.1910696 L0.255991579,2.25515833 Z M9.32387818,23.3664598 L26.2559916,40.2935037 L9.32387818,40.2935037 L9.32387818,23.3664598 Z" id="Rectangle-41" stroke-width="2.268" fill="#FFD98E"></path>
                        <path d="M1.79006835,1.11738095 L1.79006835,48.4702622 C9.29224867,48.647343 49.1237348,48.4702622 49.1237348,48.4702622" id="Line-Copy-48" stroke-width="2.079" stroke-linecap="square" opacity="0.15"></path>
                        <path d="M6.75667018,7.1326087 L5.37828901,8.5105772" id="Line" stroke-width="2.268" stroke-linecap="round"></path>
                        <path d="M12.6140714,12.9882562 L9.85946596,15.7420369" id="Line-Copy-8" stroke-width="2.268" stroke-linecap="round"></path>
                        <path d="M18.5001919,18.8726144 L16.8531436,20.5191696" id="Line-Copy-9" stroke-width="2.268" stroke-linecap="round"></path>
                        <path d="M24.1187614,24.4895017 L21.364156,27.2432824" id="Line-Copy-11" stroke-width="2.268" stroke-linecap="round"></path>
                        <path d="M30.1646823,30.428325 L28.7181475,31.8744267" id="Line-Copy-13" stroke-width="2.268" stroke-linecap="round"></path>
                        <path d="M36.2106032,36.3671482 L33.4559978,39.1209289" id="Line-Copy-14" stroke-width="2.268" stroke-linecap="round"></path>
                        <path d="M42.5913917,42.7999205 L41.1274793,44.2633946" id="Line-Copy-15" stroke-width="2.268" stroke-linecap="round"></path>
                    </g>
                    <g id="Group-Copy-2" transform="translate(189.898793, 83.497598) rotate(-15.000000) translate(-189.898793, -83.497598) translate(183.398793, 56.997598)">
                        <rect id="Rectangle-44" stroke="#000000" stroke-width="2.079" fill="#F5EE78" x="1.70215633" y="9.29276316" width="10.0997305" height="32.8210526"></rect>
                        <rect id="Rectangle-44-Copy" stroke="#000000" stroke-width="2.079" fill="#D6D6D6" x="1.76551846" y="42.1138158" width="10.0708419" height="5.06670709"></rect>
                        <rect id="Rectangle-44-Copy-2" stroke="#000000" stroke-width="2.079" fill="#F57F78" x="1.76346998" y="45.569699" width="10.0997305" height="7.35390458"></rect>
                        <path d="M3.66712148,11.3560698 L3.66712148,39.9486428" id="Line" stroke="#000000" stroke-width="2.079" stroke-linecap="square" opacity="0.309293377"></path>
                        <polygon id="Triangle-1" fill="#FFD6A4" points="6.75202156 0.9 12.6037736 8.58552632 0.900269542 8.58552632"></polygon>
                        <polyline id="Line" stroke="#000000" stroke-width="2.079" stroke-linecap="square" points="2.27715237 8.23618421 6.57991121 1.07467105 11.2268908 8.58552632"></polyline>
                        <polyline id="Line-Copy-7" stroke="#000000" stroke-width="2.079" stroke-linecap="square" points="2.27715237 8.23618421 6.57991121 1.07467105 11.2268908 8.58552632"></polyline>
                        <polyline id="Line-Copy-10" fill="#000000" points="3.99825591 5.27083843 6.14963533 1.77335526 8.4731251 5.44144737"></polyline>
                    </g>
                </g>
                <g id="Rectangle-65-+-Oval-6-Copy" transform="translate(130.520216, 74.900000)">
                    <rect id="Rectangle-65" x="5.40161725" y="0" width="19.0826364" height="19.845"></rect>
                    <path d="M5.82181924,9.1019392 C6.70817888,8.68659935 7.33749283,7.63615303 7.33749283,6.4059279 C7.33749283,4.81198536 6.28105609,3.51983963 4.97787531,3.51983963 C3.67469454,3.51983963 2.61825779,4.81198536 2.61825779,6.4059279 C2.61825779,7.64444701 3.25608582,8.70075506 4.1518934,9.11025292 C1.79762479,9.57653983 0.010259482,11.8637931 0.010259482,14.6151604 C2.94501507,14.6103807 7.66940832,14.6151604 10.0696815,14.6151604 C9.8614571,12.1975928 8.19113182,9.58373569 5.82181924,9.1019392 Z" id="Oval-6" stroke="#CDECFB" stroke-width="0.9"></path>
                </g>
            </g>
        </g>
        <g id="Validation-+-Group-Copy-3-+-Rectangle-75-+-Group-Copy-4-+-Group-Copy-3-Copy-Copy" transform="translate(420.764303, -6.000000)">
            <g id="Group-Copy-3-+-Rectangle-75-+-Group-Copy-4-+-Group-Copy-3" transform="translate(64.137466, 50.000000) scale(-1, 1) translate(-64.137466, -50.000000) translate(0.137466, 0.000000)">
                <g id="Group-Copy-3-+-Rectangle-75-+-Group-Copy-4" transform="translate(41.611860, 0.000000)">
                    <g id="Rectangle-75-+-Group-Copy-4">
                        <mask id="mask-18" fill="white">
                            <use xlink:href="#path-17"></use>
                        </mask>
                        <g id="Mask"></g>
                        <g id="Group-Copy-4" mask="url(#mask-18)">
                            <g transform="translate(18.005391, 8.100000)">
                                <use id="Rectangle-71" stroke="#755301" mask="url(#mask-20)" stroke-width="5.4" fill="#C2A258" fill-rule="evenodd" xlink:href="#path-19"></use>
                                <use id="Rectangle-74" stroke="#3A3A3A" mask="url(#mask-22)" stroke-width="3.6" fill="#7ABD86" fill-rule="evenodd" xlink:href="#path-21"></use>
                                <path d="M16.2048518,90.45 L16.2048518,124.661841" id="Line" stroke="#3A3A3A" stroke-width="1.8" stroke-linecap="square" fill="none"></path>
                                <path d="M42.3126685,90.45 L42.3126685,124.661841" id="Line-Copy-44" stroke="#3A3A3A" stroke-width="1.8" stroke-linecap="square" fill="none"></path>
                                <path d="M44.9722406,76.6125 C43.054741,78.6241276 36.7458395,80.1 29.2587601,80.1 C21.7716807,80.1 15.4627792,78.6241276 13.5452796,76.6125 C15.4627792,74.6008724 21.7716807,73.125 29.2587601,73.125 C36.7458395,73.125 43.054741,74.6008724 44.9722406,76.6125 Z" id="Oval-18" stroke="#3A3A3A" stroke-width="1.8" fill="#FBECCB" fill-rule="evenodd"></path>
                                <use id="Rectangle-73" stroke="#8A6D2E" mask="url(#mask-24)" stroke-width="3.6" fill="#FBECCB" fill-rule="evenodd" xlink:href="#path-23"></use>
                                <path d="M29.2587601,69.3 C41.5395728,69.0304161 50.1532414,51.4199139 50.4150943,39.6 C50.4150943,23.1971429 50.4150943,9.9 29.2587601,9.9 C8.10242588,9.9 8.10242588,23.1971429 8.10242588,39.6 C8.54110216,50.9694037 16.779978,69.0304161 29.2587601,69.3 Z" id="Oval-14" stroke="#8A6D2E" stroke-width="1.8" fill="#FBECCB" fill-rule="evenodd"></path>
                                <path d="M29.25876,60.7814121 C35.2925112,60.7814121 34.9960103,53.6649639 34.2298147,52.2 C33.6440054,51.0799341 30.8842943,52.2 29.2587601,52.2 C27.5843768,52.2 24.4448584,51.5048504 23.8685156,52.2 C23.0503824,53.1867825 23.2250088,60.7814121 29.25876,60.7814121 Z" id="Oval-15" stroke="none" fill="#4D4D4D" fill-rule="evenodd"></path>
                                <path d="M24.6942953,58.2150119 C24.6942953,58.2150119 28.8346588,63.0574456 33.8232249,57.9827421" id="Path-100" stroke="#4D4D4D" stroke-width="0.9" fill="#FBB6B6" fill-rule="evenodd" transform="translate(29.258760, 59.141371) rotate(2.000000) translate(-29.258760, -59.141371) "></path>
                                <path d="M26.04798,42.8248006 C26.04798,42.8248006 28.9604346,45.7864811 32.4695402,42.6827421" id="Path-100-Copy-3" stroke="#4D4D4D" stroke-width="1.8" fill="none"></path>
                                <path d="M13,31.2322698 C13,31.2322698 17.599976,36.0747035 23.1423117,31" id="Path-100-Copy-4" stroke="#4D4D4D" stroke-width="1.8" fill="none" transform="translate(18.071156, 32.158629) rotate(-180.000000) translate(-18.071156, -32.158629) "></path>
                                <path d="M35,31.2322698 C35,31.2322698 39.599976,36.0747035 45.1423117,31" id="Path-100-Copy-5" stroke="#4D4D4D" stroke-width="1.8" fill="none" transform="translate(40.071156, 32.158629) rotate(-180.000000) translate(-40.071156, -32.158629) "></path>
                                <path d="M24.1876042,49.7967802 C24.1876042,49.7967802 26.5423946,54.0876735 29.2587602,51.2023278 C31.7150323,53.0152047 32.4226423,52.0940634 34.329916,49.4443616" id="Path-100-Copy-2" stroke="#4D4D4D" stroke-width="0.9" fill="#FBB6B6" fill-rule="evenodd" transform="translate(29.258760, 50.822181) rotate(-180.000000) translate(-29.258760, -50.822181) "></path>
                                <path d="M21.0964975,50.9636373 C21.0964975,50.9636373 28.5003741,54.7349964 37.4210227,50.7827421" id="Path-100-Copy" stroke="#4D4D4D" stroke-width="1.8" fill="none"></path>
                                <ellipse id="Oval-16" stroke="none" fill="#4D4D4D" fill-rule="evenodd" cx="18.9056604" cy="36" rx="1.80053908" ry="1.8"></ellipse>
                                <ellipse id="Oval-16-Copy" stroke="none" fill="#4D4D4D" fill-rule="evenodd" cx="39.6118598" cy="36" rx="1.80053908" ry="1.8"></ellipse>
                                <use id="Rectangle-71" stroke="#755201" mask="url(#mask-26)" stroke-width="3.6" fill="#C2A258" fill-rule="evenodd" xlink:href="#path-25"></use>
                                <path d="M14.3078938,26.55 C14.3078938,26.55 13.0777905,22.785509 15.583011,18.756539 C18.0312611,14.3447193 22.0566038,14.3447193 22.0566038,14.3447193" id="Line" stroke="#755301" stroke-width="1.8" stroke-linecap="square" fill="none"></path>
                                <path d="M35.9143628,26.55 C35.9143628,26.55 34.6842595,22.785509 37.18948,18.756539 C39.6377301,14.3447193 43.6630728,14.3447193 43.6630728,14.3447193" id="Line-Copy-43" stroke="#755301" stroke-width="1.8" stroke-linecap="square" fill="none" transform="translate(39.637730, 20.447360) scale(-1, 1) translate(-39.637730, -20.447360) "></path>
                                <rect id="Rectangle-72" stroke="none" fill="#C2A258" fill-rule="evenodd" x="18.9056604" y="5.4" width="20.7061995" height="11.7"></rect>
                            </g>
                        </g>
                    </g>
                </g>
                <g id="Group-Copy-9" transform="translate(0.000000, 10.050000)">
                    <path d="M45.6348671,40.5144231 L53.6114386,40.5144231 C54.8242187,40.5144231 55.8167116,39.5264754 55.8167116,38.3077801 L55.8167116,5.20664294 C55.8167116,3.98413699 54.8293772,3 53.6114386,3 L2.20527301,3 C0.992492888,3 0,3.9879477 0,5.20664294 L0,38.3077801 C0,39.5302861 0.987334358,40.5144231 2.20527301,40.5144231 L27.4784862,40.5144231 L45.7324934,48.8304996 L45.6348671,40.5144231 Z" id="Rectangle-68" fill="#4D4D4D"></path>
                    <g id="Group-Copy-3" transform="translate(2.000000, 0.750000)">
                        <use id="Rectangle-68" stroke="#000000" mask="url(#mask-28)" stroke-width="3.6" fill="#FFFFFF" xlink:href="#path-27"></use>
                        <path d="M7.30933128,7.95958904 L48.2858854,7.95958904" id="Line" stroke="#474747" stroke-width="1.89" stroke-linecap="square"></path>
                        <path d="M7.30933128,12.989726 L48.2858854,12.989726" id="Line-Copy-39" stroke="#474747" stroke-width="1.89" stroke-linecap="square"></path>
                        <path d="M7.30933128,18.6486301 L48.2858854,18.6486301" id="Line-Copy-40" stroke="#474747" stroke-width="1.89" stroke-linecap="square"></path>
                        <path d="M7.30933128,24.3075342 L48.2858854,24.3075342" id="Line-Copy-41" stroke="#474747" stroke-width="1.89" stroke-linecap="square"></path>
                        <path d="M25.3147221,29.9664384 L48.5759032,29.9664384" id="Line-Copy-42" stroke="#474747" stroke-width="1.89" stroke-linecap="square"></path>
                    </g>
                </g>
            </g>
        </g>
    </g>
</svg>