<svg width="40" height="35" viewBox="0 0 40 35" fill="none" xmlns="http://www.w3.org/2000/svg">
<path d="M27.0383 0.0370294C26.8319 -0.0592899 26.6667 0.0370294 26.6667 0.270948V28.1898L38.8993 34.2992C39.5047 34.6019 40.0001 34.2992 40.0001 33.6112V6.7381C40.0001 6.6005 39.9313 6.47666 39.8074 6.42162L27.0383 0.0370294Z" fill="#2FFC8D"/>
<path d="M13.3333 21.53L26.4464 0.215888C26.5703 0.0232496 26.8317 -0.0593098 27.0381 0.0507694L39.711 6.38032C39.8623 6.46288 39.9311 6.65552 39.8348 6.80687L26.6666 28.1897L13.3333 21.53Z" fill="#03E370"/>
<path d="M1.47232 0.601172C0.660484 0.188375 0.385286 0.491093 0.866883 1.27541L13.3333 21.53L26.6667 28.2035L13.4159 6.66928C13.3609 6.57296 13.2783 6.50416 13.182 6.44912L1.47232 0.601172Z" fill="#10C767"/>
<path d="M13.3333 33.625C13.3333 34.2992 12.838 34.6157 12.2325 34.313L0.743034 28.5613C0.330237 28.3549 0 27.8183 0 27.3642V0.683807C0 0.229731 0.330237 0.0233326 0.743034 0.229731L13.1682 6.4492C13.2645 6.50424 13.3333 6.60056 13.3333 6.71064V33.625Z" fill="#00AB6C"/>
</svg>
