<svg width="126" height="126" viewBox="0 0 126 126" fill="none" xmlns="http://www.w3.org/2000/svg">
<path d="M26.5001 79.3999C26.5001 86.6999 20.6001 92.5999 13.3001 92.5999C6.0001 92.5999 0.100098 86.6999 0.100098 79.3999C0.100098 72.0999 6.0001 66.2 13.3001 66.2H26.5001V79.3999Z" fill="#E01E5A"/>
<path d="M33.1001 79.3999C33.1001 72.0999 39.0001 66.2 46.3001 66.2C53.6001 66.2 59.5001 72.0999 59.5001 79.3999V112.4C59.5001 119.7 53.6001 125.6 46.3001 125.6C39.0001 125.6 33.1001 119.7 33.1001 112.4V79.3999Z" fill="#E01E5A"/>
<path d="M46.3001 26.4C39.0001 26.4 33.1001 20.5 33.1001 13.2C33.1001 5.9 39.0001 0 46.3001 0C53.6001 0 59.5001 5.9 59.5001 13.2V26.4H46.3001Z" fill="#36C5F0"/>
<path d="M46.3 33.1C53.6 33.1 59.5 39 59.5 46.3C59.5 53.6 53.6 59.5 46.3 59.5H13.2C5.9 59.5 0 53.6 0 46.3C0 39 5.9 33.1 13.2 33.1H46.3Z" fill="#36C5F0"/>
<path d="M99.2002 46.3C99.2002 39 105.1 33.1 112.4 33.1C119.7 33.1 125.6 39 125.6 46.3C125.6 53.6 119.7 59.5 112.4 59.5H99.2002V46.3Z" fill="#2EB67D"/>
<path d="M92.6002 46.3C92.6002 53.6 86.7002 59.5 79.4002 59.5C72.1002 59.5 66.2002 53.6 66.2002 46.3V13.2C66.2002 5.9 72.1002 0 79.4002 0C86.7002 0 92.6002 5.9 92.6002 13.2V46.3Z" fill="#2EB67D"/>
<path d="M79.4002 99.2C86.7002 99.2 92.6002 105.1 92.6002 112.4C92.6002 119.7 86.7002 125.6 79.4002 125.6C72.1002 125.6 66.2002 119.7 66.2002 112.4V99.2H79.4002Z" fill="#ECB22E"/>
<path d="M79.4002 92.5999C72.1002 92.5999 66.2002 86.6999 66.2002 79.3999C66.2002 72.0999 72.1002 66.2 79.4002 66.2H112.5C119.8 66.2 125.7 72.0999 125.7 79.3999C125.7 86.6999 119.8 92.5999 112.5 92.5999H79.4002Z" fill="#ECB22E"/>
</svg>
